<?xml version="1.0" encoding="utf-8"?>
<!-- Generator: Adobe Illustrator 26.4.1, SVG Export Plug-In . SVG Version: 6.00 Build 0)  -->
<svg version="1.1" id="Layer_1" xmlns="http://www.w3.org/2000/svg" xmlns:xlink="http://www.w3.org/1999/xlink" x="0px" y="0px"
	 viewBox="0 0 250 150" enable-background="new 0 0 250 150" xml:space="preserve">
<g>
	<g>
		<defs>
			<rect id="SVGID_1_" width="250" height="150"/>
		</defs>
		<clipPath id="SVGID_00000051349342798211320880000001218724986504754074_">
			<use xlink:href="#SVGID_1_"  overflow="visible"/>
		</clipPath>
		<g clip-path="url(#SVGID_00000051349342798211320880000001218724986504754074_)">
			<g>
				<rect fill="#F5DF56" width="250" height="150"/>
			</g>
		</g>
	</g>
	<g>
		<defs>
			<rect id="SVGID_00000136411413891793445310000016965331394290085798_" width="250" height="150"/>
		</defs>
		<clipPath id="SVGID_00000158738039777758038230000016579029828680666511_">
			<use xlink:href="#SVGID_00000136411413891793445310000016965331394290085798_"  overflow="visible"/>
		</clipPath>
		<g clip-path="url(#SVGID_00000158738039777758038230000016579029828680666511_)">
			<path fill="#DE739F" d="M300.8,89.1c0.7,3.5-0.8,7-3.8,8.9c-1.9,1.2-4.3,3.1-7.2,7c-4.4,5.8,1.9,17.4-6.8,16.6
				c-8.4-0.7-13.2-3.3-16.8,18.7c-1.4,8.6-6.6,12.5-14.3,15.7c-7.9,3.3-17.4-1.9-30.7,6.8c-8.3,5.4-15.3-3-22.2,0.5
				c-10.4,5.3-6.1,14.6-13.3,16.5c-5.4,1.5-6-7.5-21.2-6.7c-26.1,1.3-38.7-34.3-27.7-45.2c10.5-10.6-1.6-21.2,5.4-27.7
				c8.5-7.8,22.4-1.9,20.4-17.1c-0.6-5-8-16.8-3-23.3c6.7-8.9-6.6-23,6.9-30.6c18.7-10.5,10-16.5,20.5-21.7c8-4,14.1-3.7,23.1-2.2
				c9.4,1.6,17.4,11.2,20.6,6.6c4.6-6.7-13.8-7.7-7.3-14.1c3.8-3.7,7.1-0.7,13.3,3.3c4.5,3,10.2,3.7,15.8-2.1
				c8.4-8.8,26.3-16.2,36.6-9.1c8,5.5,3,14.4,6.7,18c8.4,8.2,3.2,14,6.2,20.8c4.2,9.1,1.4,16.3-1.7,26.5
				C295.7,69.7,299.5,82.7,300.8,89.1z"/>
		</g>
	</g>
	<g>
		<defs>
			<rect id="SVGID_00000080169653049518745850000016918770009827791763_" width="250" height="150"/>
		</defs>
		<clipPath id="SVGID_00000167372947774187270010000007212075056988414641_">
			<use xlink:href="#SVGID_00000080169653049518745850000016918770009827791763_"  overflow="visible"/>
		</clipPath>
		<g clip-path="url(#SVGID_00000167372947774187270010000007212075056988414641_)">
			<path fill="#DE739F" d="M88.9,163.9c0.8,3.7-0.8,7.4-4,9.4c-2,1.3-4.5,3.3-7.6,7.3c-4.6,6.1,2,18.2-7.1,17.4
				c-8.8-0.8-13.8-3.5-17.6,19.6c-1.5,9-6.9,13.1-15,16.5c-8.2,3.4-18.2-2-32.2,7.1c-8.7,5.7-16-3.1-23.3,0.5
				c-10.9,5.5-6.4,15.3-14,17.3c-5.7,1.5-6.3-7.8-22.2-7c-27.4,1.4-40.5-35.9-29-47.4c11-11.1-1.7-22.2,5.7-29
				c8.9-8.2,23.4-2,21.4-17.9c-0.7-5.3-8.4-17.6-3.2-24.4c7.1-9.3-7-24.1,7.3-32.1c19.6-11,10.5-17.3,21.4-22.7
				c8.4-4.1,14.7-3.9,24.2-2.3C3.6,77.9,12,87.8,15.3,83c4.8-7-14.4-8.1-7.6-14.8c4-3.9,7.5-0.7,13.9,3.5c4.7,3.1,10.7,3.9,16.5-2.2
				c8.8-9.2,27.6-17,38.4-9.6c8.4,5.8,3.2,15.1,7,18.9c8.8,8.5,3.3,14.7,6.5,21.7c4.4,9.6,1.5,17-1.8,27.7
				C83.6,143.6,87.5,157.2,88.9,163.9z"/>
		</g>
	</g>
	<g>
		<defs>
			<rect id="SVGID_00000150808259192084914520000003418970754509113492_" width="250" height="150"/>
		</defs>
		<clipPath id="SVGID_00000008128068648835368860000012747179499737622716_">
			<use xlink:href="#SVGID_00000150808259192084914520000003418970754509113492_"  overflow="visible"/>
		</clipPath>
		<g clip-path="url(#SVGID_00000008128068648835368860000012747179499737622716_)">
			<g>
				<path fill="#3CD1E7" d="M107.3-23.6c3.9,1.1,8.8,4.6,10.6,9.3c2,5.3,2.6,9.3,0,9.2c-3.9-0.1-1.7-5.8-8.9-10.5
					C101.8-20.3,103.8-24.6,107.3-23.6z"/>
			</g>
			<g>
				<path fill="#54B9A4" d="M42,124.2c-3,2.8-8.4,4.3-10.7,0c-2.2-4.2,7.3-9.5,11.9-8.6C47.8,116.6,45,121.4,42,124.2z"/>
			</g>
			<g>
				<path fill="#54B9A4" d="M126.1,33.4c-6.1,12.1,1.9,29-5.3,35.5c-5.7,5.1-11.9,4.8-19.3,12.7c-4.4,4.7-5.9,13.2-13.7,18.9
					c-4.4,3.1-11.8-4-22.2,7.4c-7.5,8.2-13.6,0.3-20.6,0.8c-18.1,1.3-18.5,11.1-26.2,5c-10.5-8.4,4.8-16.7,1.6-28.2
					c-0.5-2-2.2-4.9-1.3-9.2c2.4-10.9-7.2-11.8-4.9-18.4c3.2-9.3,11.7,0.5,11.2-21.7c0-0.8,0.1-1.6,0.1-2.5c0-1.5,0.2-3.1,0.4-4.6
					c0.2-1.2,0.5-2.4,0.8-3.7c0.6-2.4,1.5-4.8,2.6-7.1c1-2.1,2.3-3.9,3.9-5.6C37.8,8,41,5.6,48.3,2.6c15-6.2-7.6-14.7,2.7-15.7
					c7.9-0.8,13.2-8.9,17.3-6.8c3.8,2-8.2,9.6-5.6,13.9C66.3,0.1,75.1-22.6,90-20.3c6.4,1,1,8.3,8.7,7.3c11.9-1.5,6.8,9.3,19.3,11.5
					c3.5,0.6,10,3.8,11,7.2C131.2,13.5,129.5,26.5,126.1,33.4z"/>
			</g>
		</g>
	</g>
	<g>
		<defs>
			<rect id="SVGID_00000067933411413085039170000011507766374212675749_" width="250" height="150"/>
		</defs>
		<clipPath id="SVGID_00000031183061841307254030000015961288890420078498_">
			<use xlink:href="#SVGID_00000067933411413085039170000011507766374212675749_"  overflow="visible"/>
		</clipPath>
		<g clip-path="url(#SVGID_00000031183061841307254030000015961288890420078498_)">
			<g>
				<defs>
					
						<ellipse id="SVGID_00000068641021043248241360000014958455490102889878_" transform="matrix(0.9539 -0.3 0.3 0.9539 -16.0589 74.3777)" cx="234.2" cy="89.5" rx="44.1" ry="44.1"/>
				</defs>
				<clipPath id="SVGID_00000053520871929588709410000008918698857350412962_">
					<use xlink:href="#SVGID_00000068641021043248241360000014958455490102889878_"  overflow="visible"/>
				</clipPath>
				<g clip-path="url(#SVGID_00000053520871929588709410000008918698857350412962_)">
					<g>
						<path fill="#FFFFFF" d="M202.2,150.7l-0.2-0.5c2-0.7,3.3-0.6,4.4-0.5c1.2,0.1,2.3,0.2,4.2-0.5s2.7-1.5,3.6-2.3
							c0.8-0.8,1.7-1.7,3.7-2.4s3.3-0.6,4.4-0.5c1.2,0.1,2.3,0.2,4.2-0.5s2.7-1.5,3.6-2.3c0.8-0.8,1.7-1.7,3.7-2.4s3.3-0.6,4.4-0.5
							c1.2,0.1,2.3,0.2,4.2-0.5s2.7-1.5,3.6-2.3c0.8-0.8,1.7-1.7,3.7-2.4s3.3-0.6,4.4-0.5c1.2,0.1,2.3,0.2,4.2-0.5
							c1.9-0.7,2.7-1.5,3.6-2.3c0.8-0.8,1.7-1.7,3.7-2.4c2-0.7,3.3-0.6,4.4-0.5c1.2,0.1,2.3,0.2,4.2-0.5c1.9-0.7,2.7-1.5,3.6-2.3
							c0.8-0.8,1.7-1.7,3.7-2.4c2-0.7,3.3-0.6,4.4-0.5c1.2,0.1,2.3,0.2,4.2-0.5c1.9-0.7,2.7-1.5,3.6-2.3c0.8-0.8,1.7-1.7,3.7-2.4
							l0.2,0.5c-1.9,0.7-2.7,1.5-3.6,2.3c-0.8,0.8-1.7,1.7-3.7,2.4c-2,0.7-3.3,0.6-4.4,0.5c-1.2-0.1-2.3-0.2-4.2,0.5
							c-1.9,0.7-2.7,1.5-3.6,2.3c-0.8,0.8-1.7,1.7-3.7,2.4c-2,0.7-3.3,0.6-4.4,0.5c-1.2-0.1-2.3-0.2-4.2,0.5
							c-1.9,0.7-2.7,1.5-3.6,2.3c-0.8,0.8-1.7,1.7-3.7,2.4s-3.3,0.6-4.4,0.5c-1.2-0.1-2.3-0.2-4.2,0.5s-2.7,1.5-3.6,2.3
							c-0.8,0.8-1.7,1.7-3.7,2.4s-3.3,0.6-4.4,0.5c-1.2-0.1-2.3-0.2-4.2,0.5s-2.7,1.5-3.6,2.3c-0.8,0.8-1.7,1.7-3.7,2.4
							s-3.3,0.6-4.4,0.5c-1.2-0.1-2.3-0.2-4.2,0.5s-2.7,1.5-3.6,2.3c-0.8,0.8-1.7,1.7-3.7,2.4s-3.3,0.6-4.4,0.5
							C205.3,150.1,204.2,150,202.2,150.7z"/>
					</g>
					<g>
						<path fill="#FFFFFF" d="M200.8,146.7l-0.2-0.5c2-0.7,3.3-0.6,4.4-0.5c1.2,0.1,2.3,0.2,4.2-0.5s2.7-1.5,3.6-2.3
							c0.8-0.8,1.7-1.7,3.7-2.4s3.3-0.6,4.4-0.5c1.2,0.1,2.3,0.2,4.2-0.5s2.7-1.5,3.6-2.3c0.8-0.8,1.7-1.7,3.7-2.4s3.3-0.6,4.4-0.5
							c1.2,0.1,2.3,0.2,4.2-0.5s2.7-1.5,3.6-2.3c0.8-0.8,1.7-1.7,3.7-2.4s3.3-0.6,4.4-0.5c1.2,0.1,2.3,0.2,4.2-0.5
							c1.9-0.7,2.7-1.5,3.6-2.3c0.8-0.8,1.7-1.7,3.7-2.4c2-0.7,3.3-0.6,4.4-0.5c1.2,0.1,2.3,0.2,4.2-0.5c1.9-0.7,2.7-1.5,3.6-2.3
							c0.8-0.8,1.7-1.7,3.7-2.4c2-0.7,3.3-0.6,4.4-0.5c1.2,0.1,2.3,0.2,4.2-0.5c1.9-0.7,2.7-1.5,3.6-2.3c0.8-0.8,1.7-1.7,3.7-2.4
							l0.2,0.5c-1.9,0.7-2.7,1.5-3.6,2.3c-0.8,0.8-1.7,1.7-3.7,2.4c-2,0.7-3.3,0.6-4.4,0.5c-1.2-0.1-2.3-0.2-4.2,0.5
							c-1.9,0.7-2.7,1.5-3.6,2.3c-0.8,0.8-1.7,1.7-3.7,2.4c-2,0.7-3.3,0.6-4.4,0.5c-1.2-0.1-2.3-0.2-4.2,0.5
							c-1.9,0.7-2.7,1.5-3.6,2.3c-0.8,0.8-1.7,1.7-3.7,2.4c-2,0.7-3.3,0.6-4.4,0.5c-1.2-0.1-2.3-0.2-4.2,0.5s-2.7,1.5-3.6,2.3
							c-0.8,0.8-1.7,1.7-3.7,2.4s-3.3,0.6-4.4,0.5c-1.2-0.1-2.3-0.2-4.2,0.5s-2.7,1.5-3.6,2.3c-0.8,0.8-1.7,1.7-3.7,2.4
							s-3.3,0.6-4.4,0.5c-1.2-0.1-2.3-0.2-4.2,0.5s-2.7,1.5-3.6,2.3c-0.8,0.8-1.7,1.7-3.7,2.4s-3.3,0.6-4.4,0.5
							C203.8,146.1,202.7,146,200.8,146.7z"/>
					</g>
					<g>
						<path fill="#FFFFFF" d="M199.4,142.8l-0.2-0.5c2-0.7,3.3-0.6,4.4-0.5c1.2,0.1,2.3,0.2,4.2-0.5s2.7-1.5,3.6-2.3
							c0.8-0.8,1.7-1.7,3.7-2.4s3.3-0.6,4.4-0.5c1.2,0.1,2.3,0.2,4.2-0.5s2.7-1.5,3.6-2.3c0.8-0.8,1.7-1.7,3.7-2.4s3.3-0.6,4.4-0.5
							c1.2,0.1,2.3,0.2,4.2-0.5s2.7-1.5,3.6-2.3c0.8-0.8,1.7-1.7,3.7-2.4c2-0.7,3.3-0.6,4.4-0.5c1.2,0.1,2.3,0.2,4.2-0.5
							s2.7-1.5,3.6-2.3c0.8-0.8,1.7-1.7,3.7-2.4c2-0.7,3.3-0.6,4.4-0.5c1.2,0.1,2.3,0.2,4.2-0.5c1.9-0.7,2.7-1.5,3.6-2.3
							c0.8-0.8,1.7-1.7,3.7-2.4c2-0.7,3.3-0.6,4.4-0.5c1.2,0.1,2.3,0.2,4.2-0.5c1.9-0.7,2.7-1.5,3.6-2.3c0.8-0.8,1.7-1.7,3.7-2.4
							l0.2,0.5c-1.9,0.7-2.7,1.5-3.6,2.3c-0.8,0.8-1.7,1.7-3.7,2.4c-2,0.7-3.3,0.6-4.4,0.5c-1.2-0.1-2.3-0.2-4.2,0.5
							c-1.9,0.7-2.7,1.5-3.6,2.3c-0.8,0.8-1.7,1.7-3.7,2.4c-2,0.7-3.3,0.6-4.4,0.5c-1.2-0.1-2.3-0.2-4.2,0.5
							c-1.9,0.7-2.7,1.5-3.6,2.3c-0.8,0.8-1.7,1.7-3.7,2.4c-2,0.7-3.3,0.6-4.4,0.5c-1.2-0.1-2.3-0.2-4.2,0.5s-2.7,1.5-3.6,2.3
							c-0.8,0.8-1.7,1.7-3.7,2.4s-3.3,0.6-4.4,0.5c-1.2-0.1-2.3-0.2-4.2,0.5s-2.7,1.5-3.6,2.3c-0.8,0.8-1.7,1.7-3.7,2.4
							s-3.3,0.6-4.4,0.5c-1.2-0.1-2.3-0.2-4.2,0.5s-2.7,1.5-3.6,2.3c-0.8,0.8-1.7,1.7-3.7,2.4s-3.3,0.6-4.4,0.5
							C202.4,142.2,201.3,142.1,199.4,142.8z"/>
					</g>
					<g>
						<path fill="#FFFFFF" d="M197.9,138.8l-0.2-0.5c2-0.7,3.3-0.6,4.4-0.5c1.2,0.1,2.3,0.2,4.2-0.5s2.7-1.5,3.6-2.3
							c0.8-0.8,1.7-1.7,3.7-2.4s3.3-0.6,4.4-0.5c1.2,0.1,2.3,0.2,4.2-0.5s2.7-1.5,3.6-2.3c0.8-0.8,1.7-1.7,3.7-2.4
							c2-0.7,3.3-0.6,4.4-0.5c1.2,0.1,2.3,0.2,4.2-0.5s2.7-1.5,3.6-2.3c0.8-0.8,1.7-1.7,3.7-2.4c2-0.7,3.3-0.6,4.4-0.5
							c1.2,0.1,2.3,0.2,4.2-0.5s2.7-1.5,3.6-2.3c0.8-0.8,1.7-1.7,3.7-2.4c2-0.7,3.3-0.6,4.4-0.5c1.2,0.1,2.3,0.2,4.2-0.5
							c1.9-0.7,2.7-1.5,3.6-2.3c0.8-0.8,1.7-1.7,3.7-2.4c2-0.7,3.3-0.6,4.4-0.5c1.2,0.1,2.3,0.2,4.2-0.5c1.9-0.7,2.7-1.5,3.6-2.3
							c0.8-0.8,1.7-1.7,3.7-2.4l0.2,0.5c-1.9,0.7-2.7,1.5-3.6,2.3c-0.8,0.8-1.7,1.7-3.7,2.4c-2,0.7-3.3,0.6-4.4,0.5
							c-1.2-0.1-2.3-0.2-4.2,0.5c-1.9,0.7-2.7,1.5-3.6,2.3c-0.8,0.8-1.7,1.7-3.7,2.4c-2,0.7-3.3,0.6-4.4,0.5
							c-1.2-0.1-2.3-0.2-4.2,0.5c-1.9,0.7-2.7,1.5-3.6,2.3c-0.8,0.8-1.7,1.7-3.7,2.4c-2,0.7-3.3,0.6-4.4,0.5
							c-1.2-0.1-2.3-0.2-4.2,0.5s-2.7,1.5-3.6,2.3c-0.8,0.8-1.7,1.7-3.7,2.4c-2,0.7-3.3,0.6-4.4,0.5c-1.2-0.1-2.3-0.2-4.2,0.5
							c-1.9,0.7-2.7,1.5-3.6,2.3c-0.8,0.8-1.7,1.7-3.7,2.4s-3.3,0.6-4.4,0.5c-1.2-0.1-2.3-0.2-4.2,0.5s-2.7,1.5-3.6,2.3
							c-0.8,0.8-1.7,1.7-3.7,2.4s-3.3,0.6-4.4,0.5C201,138.2,199.9,138.1,197.9,138.8z"/>
					</g>
					<g>
						<path fill="#FFFFFF" d="M196.5,134.9l-0.2-0.5c2-0.7,3.3-0.6,4.4-0.5c1.2,0.1,2.3,0.2,4.2-0.5s2.7-1.5,3.6-2.3
							c0.8-0.8,1.7-1.7,3.7-2.4s3.3-0.6,4.4-0.5c1.2,0.1,2.3,0.2,4.2-0.5s2.7-1.5,3.6-2.3c0.8-0.8,1.7-1.7,3.7-2.4
							c2-0.7,3.3-0.6,4.4-0.5c1.2,0.1,2.3,0.2,4.2-0.5s2.7-1.5,3.6-2.3c0.8-0.8,1.7-1.7,3.7-2.4c2-0.7,3.3-0.6,4.4-0.5
							c1.2,0.1,2.3,0.2,4.2-0.5s2.7-1.5,3.6-2.3c0.8-0.8,1.7-1.7,3.7-2.4c2-0.7,3.3-0.6,4.4-0.5c1.2,0.1,2.3,0.2,4.2-0.5
							c1.9-0.7,2.7-1.5,3.6-2.3c0.8-0.8,1.7-1.7,3.7-2.4c2-0.7,3.3-0.6,4.4-0.5c1.2,0.1,2.3,0.2,4.2-0.5c1.9-0.7,2.7-1.5,3.6-2.3
							c0.8-0.8,1.7-1.7,3.7-2.4l0.2,0.5c-1.9,0.7-2.7,1.5-3.6,2.3c-0.8,0.8-1.7,1.7-3.7,2.4c-2,0.7-3.3,0.6-4.4,0.5
							c-1.2-0.1-2.3-0.2-4.2,0.5c-1.9,0.7-2.7,1.5-3.6,2.3c-0.8,0.8-1.7,1.7-3.7,2.4c-2,0.7-3.3,0.6-4.4,0.5
							c-1.2-0.1-2.3-0.2-4.2,0.5c-1.9,0.7-2.7,1.5-3.6,2.3c-0.8,0.8-1.7,1.7-3.7,2.4c-2,0.7-3.3,0.6-4.4,0.5
							c-1.2-0.1-2.3-0.2-4.2,0.5s-2.7,1.5-3.6,2.3c-0.8,0.8-1.7,1.7-3.7,2.4c-2,0.7-3.3,0.6-4.4,0.5c-1.2-0.1-2.3-0.2-4.2,0.5
							s-2.7,1.5-3.6,2.3c-0.8,0.8-1.7,1.7-3.7,2.4c-2,0.7-3.3,0.6-4.4,0.5c-1.2-0.1-2.3-0.2-4.2,0.5s-2.7,1.5-3.6,2.3
							c-0.8,0.8-1.7,1.7-3.7,2.4s-3.3,0.6-4.4,0.5C199.5,134.3,198.4,134.2,196.5,134.9z"/>
					</g>
					<g>
						<path fill="#FFFFFF" d="M195.1,130.9l-0.2-0.5c2-0.7,3.3-0.6,4.4-0.5c1.2,0.1,2.3,0.2,4.2-0.5s2.7-1.5,3.6-2.3
							c0.8-0.8,1.7-1.7,3.7-2.4c2-0.7,3.3-0.6,4.4-0.5c1.2,0.1,2.3,0.2,4.2-0.5s2.7-1.5,3.6-2.3c0.8-0.8,1.7-1.7,3.7-2.4
							c2-0.7,3.3-0.6,4.4-0.5c1.2,0.1,2.3,0.2,4.2-0.5s2.7-1.5,3.6-2.3c0.8-0.8,1.7-1.7,3.7-2.4c2-0.7,3.3-0.6,4.4-0.5
							c1.2,0.1,2.3,0.2,4.2-0.5s2.7-1.5,3.6-2.3c0.8-0.8,1.7-1.7,3.7-2.4c2-0.7,3.3-0.6,4.4-0.5c1.2,0.1,2.3,0.2,4.2-0.5
							c1.9-0.7,2.7-1.5,3.6-2.3c0.8-0.8,1.7-1.7,3.7-2.4c2-0.7,3.3-0.6,4.4-0.5c1.2,0.1,2.3,0.2,4.2-0.5c1.9-0.7,2.7-1.5,3.6-2.3
							c0.8-0.8,1.7-1.7,3.7-2.4l0.2,0.5c-1.9,0.7-2.7,1.5-3.6,2.3c-0.8,0.8-1.7,1.7-3.7,2.4c-2,0.7-3.3,0.6-4.4,0.5
							c-1.2-0.1-2.3-0.2-4.2,0.5c-1.9,0.7-2.7,1.5-3.6,2.3c-0.8,0.8-1.7,1.7-3.7,2.4c-2,0.7-3.3,0.6-4.4,0.5
							c-1.2-0.1-2.3-0.2-4.2,0.5c-1.9,0.7-2.7,1.5-3.6,2.3c-0.8,0.8-1.7,1.7-3.7,2.4c-2,0.7-3.3,0.6-4.4,0.5
							c-1.2-0.1-2.3-0.2-4.2,0.5s-2.7,1.5-3.6,2.3c-0.8,0.8-1.7,1.7-3.7,2.4c-2,0.7-3.3,0.6-4.4,0.5c-1.2-0.1-2.3-0.2-4.2,0.5
							s-2.7,1.5-3.6,2.3c-0.8,0.8-1.7,1.7-3.7,2.4c-2,0.7-3.3,0.6-4.4,0.5c-1.2-0.1-2.3-0.2-4.2,0.5s-2.7,1.5-3.6,2.3
							c-0.8,0.8-1.7,1.7-3.7,2.4s-3.3,0.6-4.4,0.5C198.1,130.3,197,130.2,195.1,130.9z"/>
					</g>
					<g>
						<path fill="#FFFFFF" d="M193.6,127l-0.2-0.5c2-0.7,3.3-0.6,4.4-0.5c1.2,0.1,2.3,0.2,4.2-0.5s2.7-1.5,3.6-2.3
							c0.8-0.8,1.7-1.7,3.7-2.4c2-0.7,3.3-0.6,4.4-0.5c1.2,0.1,2.3,0.2,4.2-0.5s2.7-1.5,3.6-2.3c0.8-0.8,1.7-1.7,3.7-2.4
							c2-0.7,3.3-0.6,4.4-0.5c1.2,0.1,2.3,0.2,4.2-0.5s2.7-1.5,3.6-2.3c0.8-0.8,1.7-1.7,3.7-2.4c2-0.7,3.3-0.6,4.4-0.5
							c1.2,0.1,2.3,0.2,4.2-0.5s2.7-1.5,3.6-2.3c0.8-0.8,1.7-1.7,3.7-2.4c2-0.7,3.3-0.6,4.4-0.5c1.2,0.1,2.3,0.2,4.2-0.5
							c1.9-0.7,2.7-1.5,3.6-2.3c0.8-0.8,1.7-1.7,3.7-2.4c2-0.7,3.3-0.6,4.4-0.5c1.2,0.1,2.3,0.2,4.2-0.5c1.9-0.7,2.7-1.5,3.6-2.3
							c0.8-0.8,1.7-1.7,3.7-2.4l0.2,0.5c-1.9,0.7-2.7,1.5-3.6,2.3c-0.8,0.8-1.7,1.7-3.7,2.4c-2,0.7-3.3,0.6-4.4,0.5
							c-1.2-0.1-2.3-0.2-4.2,0.5c-1.9,0.7-2.7,1.5-3.6,2.3c-0.8,0.8-1.7,1.7-3.7,2.4c-2,0.7-3.3,0.6-4.4,0.5
							c-1.2-0.1-2.3-0.2-4.2,0.5c-1.9,0.7-2.7,1.5-3.6,2.3c-0.8,0.8-1.7,1.7-3.7,2.4c-2,0.7-3.3,0.6-4.4,0.5
							c-1.2-0.1-2.3-0.2-4.2,0.5s-2.7,1.5-3.6,2.3c-0.8,0.8-1.7,1.7-3.7,2.4c-2,0.7-3.3,0.6-4.4,0.5c-1.2-0.1-2.3-0.2-4.2,0.5
							s-2.7,1.5-3.6,2.3c-0.8,0.8-1.7,1.7-3.7,2.4c-2,0.7-3.3,0.6-4.4,0.5c-1.2-0.1-2.3-0.2-4.2,0.5s-2.7,1.5-3.6,2.3
							c-0.8,0.8-1.7,1.7-3.7,2.4c-2,0.7-3.3,0.6-4.4,0.5C196.7,126.4,195.6,126.3,193.6,127z"/>
					</g>
					<g>
						<path fill="#FFFFFF" d="M192.2,123l-0.2-0.5c2-0.7,3.3-0.6,4.4-0.5c1.2,0.1,2.3,0.2,4.2-0.5s2.7-1.5,3.6-2.3
							c0.8-0.8,1.7-1.7,3.7-2.4c2-0.7,3.3-0.6,4.4-0.5c1.2,0.1,2.3,0.2,4.2-0.5s2.7-1.5,3.6-2.3c0.8-0.8,1.7-1.7,3.7-2.4
							c2-0.7,3.3-0.6,4.4-0.5c1.2,0.1,2.3,0.2,4.2-0.5s2.7-1.5,3.6-2.3c0.8-0.8,1.7-1.7,3.7-2.4c2-0.7,3.3-0.6,4.4-0.5
							c1.2,0.1,2.3,0.2,4.2-0.5s2.7-1.5,3.6-2.3c0.8-0.8,1.7-1.7,3.7-2.4c2-0.7,3.3-0.6,4.4-0.5c1.2,0.1,2.3,0.2,4.2-0.5
							c1.9-0.7,2.7-1.5,3.6-2.3c0.8-0.8,1.7-1.7,3.7-2.4c2-0.7,3.3-0.6,4.4-0.5c1.2,0.1,2.3,0.2,4.2-0.5c1.9-0.7,2.7-1.5,3.6-2.3
							c0.8-0.8,1.7-1.7,3.7-2.4l0.2,0.5c-1.9,0.7-2.7,1.5-3.6,2.3c-0.8,0.8-1.7,1.7-3.7,2.4c-2,0.7-3.3,0.6-4.4,0.5
							c-1.2-0.1-2.3-0.2-4.2,0.5c-1.9,0.7-2.7,1.5-3.6,2.3c-0.8,0.8-1.7,1.7-3.7,2.4c-2,0.7-3.3,0.6-4.4,0.5
							c-1.2-0.1-2.3-0.2-4.2,0.5c-1.9,0.7-2.7,1.5-3.6,2.3c-0.8,0.8-1.7,1.7-3.7,2.4c-2,0.7-3.3,0.6-4.4,0.5
							c-1.2-0.1-2.3-0.2-4.2,0.5s-2.7,1.5-3.6,2.3c-0.8,0.8-1.7,1.7-3.7,2.4c-2,0.7-3.3,0.6-4.4,0.5c-1.2-0.1-2.3-0.2-4.2,0.5
							s-2.7,1.5-3.6,2.3c-0.8,0.8-1.7,1.7-3.7,2.4c-2,0.7-3.3,0.6-4.4,0.5c-1.2-0.1-2.3-0.2-4.2,0.5s-2.7,1.5-3.6,2.3
							c-0.8,0.8-1.7,1.7-3.7,2.4c-2,0.7-3.3,0.6-4.4,0.5C195.2,122.4,194.1,122.3,192.2,123z"/>
					</g>
					<g>
						<path fill="#FFFFFF" d="M190.8,119.1l-0.2-0.5c2-0.7,3.3-0.6,4.4-0.5c1.2,0.1,2.3,0.2,4.2-0.5s2.7-1.5,3.6-2.3
							c0.8-0.8,1.7-1.7,3.7-2.4c2-0.7,3.3-0.6,4.4-0.5c1.2,0.1,2.3,0.2,4.2-0.5s2.7-1.5,3.6-2.3c0.8-0.8,1.7-1.7,3.7-2.4
							c2-0.7,3.3-0.6,4.4-0.5c1.2,0.1,2.3,0.2,4.2-0.5s2.7-1.5,3.6-2.3c0.8-0.8,1.7-1.7,3.7-2.4c2-0.7,3.3-0.6,4.4-0.5
							c1.2,0.1,2.3,0.2,4.2-0.5s2.7-1.5,3.6-2.3c0.8-0.8,1.7-1.7,3.7-2.4c2-0.7,3.3-0.6,4.4-0.5c1.2,0.1,2.3,0.2,4.2-0.5
							c1.9-0.7,2.7-1.5,3.6-2.3c0.8-0.8,1.7-1.7,3.7-2.4c2-0.7,3.3-0.6,4.4-0.5c1.2,0.1,2.3,0.2,4.2-0.5c1.9-0.7,2.7-1.5,3.6-2.3
							c0.8-0.8,1.7-1.7,3.7-2.4l0.2,0.5c-1.9,0.7-2.7,1.5-3.6,2.3c-0.8,0.8-1.7,1.7-3.7,2.4c-2,0.7-3.3,0.6-4.4,0.5
							c-1.2-0.1-2.3-0.2-4.2,0.5c-1.9,0.7-2.7,1.5-3.6,2.3c-0.8,0.8-1.7,1.7-3.7,2.4c-2,0.7-3.3,0.6-4.4,0.5
							c-1.2-0.1-2.3-0.2-4.2,0.5c-1.9,0.7-2.7,1.5-3.6,2.3c-0.8,0.8-1.7,1.7-3.7,2.4c-2,0.7-3.3,0.6-4.4,0.5
							c-1.2-0.1-2.3-0.2-4.2,0.5s-2.7,1.5-3.6,2.3c-0.8,0.8-1.7,1.7-3.7,2.4c-2,0.7-3.3,0.6-4.4,0.5c-1.2-0.1-2.3-0.2-4.2,0.5
							s-2.7,1.5-3.6,2.3c-0.8,0.8-1.7,1.7-3.7,2.4c-2,0.7-3.3,0.6-4.4,0.5c-1.2-0.1-2.3-0.2-4.2,0.5s-2.7,1.5-3.6,2.3
							c-0.8,0.8-1.7,1.7-3.7,2.4c-2,0.7-3.3,0.6-4.4,0.5C193.8,118.5,192.7,118.4,190.8,119.1z"/>
					</g>
					<g>
						<path fill="#FFFFFF" d="M189.3,115.1l-0.2-0.5c2-0.7,3.3-0.6,4.4-0.5c1.2,0.1,2.3,0.2,4.2-0.5s2.7-1.5,3.6-2.3
							c0.8-0.8,1.7-1.7,3.7-2.4c2-0.7,3.3-0.6,4.4-0.5c1.2,0.1,2.3,0.2,4.2-0.5s2.7-1.5,3.6-2.3c0.8-0.8,1.7-1.7,3.7-2.4
							c2-0.7,3.3-0.6,4.4-0.5c1.2,0.1,2.3,0.2,4.2-0.5s2.7-1.5,3.6-2.3c0.8-0.8,1.7-1.7,3.7-2.4c2-0.7,3.3-0.6,4.4-0.5
							c1.2,0.1,2.3,0.2,4.2-0.5s2.7-1.5,3.6-2.3c0.8-0.8,1.7-1.7,3.7-2.4c2-0.7,3.3-0.6,4.4-0.5c1.2,0.1,2.3,0.2,4.2-0.5
							c1.9-0.7,2.7-1.5,3.6-2.3c0.8-0.8,1.7-1.7,3.7-2.4c2-0.7,3.3-0.6,4.4-0.5c1.2,0.1,2.3,0.2,4.2-0.5c1.9-0.7,2.7-1.5,3.6-2.3
							c0.8-0.8,1.7-1.7,3.7-2.4l0.2,0.5c-1.9,0.7-2.7,1.5-3.6,2.3c-0.8,0.8-1.7,1.7-3.7,2.4c-2,0.7-3.3,0.6-4.4,0.5
							c-1.2-0.1-2.3-0.2-4.2,0.5c-1.9,0.7-2.7,1.5-3.6,2.3c-0.8,0.8-1.7,1.7-3.7,2.4c-2,0.7-3.3,0.6-4.4,0.5
							c-1.2-0.1-2.3-0.2-4.2,0.5s-2.7,1.5-3.6,2.3c-0.8,0.8-1.7,1.7-3.7,2.4c-2,0.7-3.3,0.6-4.4,0.5c-1.2-0.1-2.3-0.2-4.2,0.5
							s-2.7,1.5-3.6,2.3c-0.8,0.8-1.7,1.7-3.7,2.4c-2,0.7-3.3,0.6-4.4,0.5c-1.2-0.1-2.3-0.2-4.2,0.5s-2.7,1.5-3.6,2.3
							c-0.8,0.8-1.7,1.7-3.7,2.4c-2,0.7-3.3,0.6-4.4,0.5c-1.2-0.1-2.3-0.2-4.2,0.5s-2.7,1.5-3.6,2.3c-0.8,0.8-1.7,1.7-3.7,2.4
							c-2,0.7-3.3,0.6-4.4,0.5C192.4,114.5,191.3,114.4,189.3,115.1z"/>
					</g>
					<g>
						<path fill="#FFFFFF" d="M187.9,111.2l-0.2-0.5c2-0.7,3.3-0.6,4.4-0.5c1.2,0.1,2.3,0.2,4.2-0.5s2.7-1.5,3.6-2.3
							c0.8-0.8,1.7-1.7,3.7-2.4c2-0.7,3.3-0.6,4.4-0.5c1.2,0.1,2.3,0.2,4.2-0.5s2.7-1.5,3.6-2.3c0.8-0.8,1.7-1.7,3.7-2.4
							c2-0.7,3.3-0.6,4.4-0.5c1.2,0.1,2.3,0.2,4.2-0.5s2.7-1.5,3.6-2.3c0.8-0.8,1.7-1.7,3.7-2.4c2-0.7,3.3-0.6,4.4-0.5
							c1.2,0.1,2.3,0.2,4.2-0.5s2.7-1.5,3.6-2.3c0.8-0.8,1.7-1.7,3.7-2.4c2-0.7,3.3-0.6,4.4-0.5c1.2,0.1,2.3,0.2,4.2-0.5
							s2.7-1.5,3.6-2.3c0.8-0.8,1.7-1.7,3.7-2.4c2-0.7,3.3-0.6,4.4-0.5c1.2,0.1,2.3,0.2,4.2-0.5c1.9-0.7,2.7-1.5,3.6-2.3
							c0.8-0.8,1.7-1.7,3.7-2.4l0.2,0.5c-1.9,0.7-2.7,1.5-3.6,2.3c-0.8,0.8-1.7,1.7-3.7,2.4c-2,0.7-3.3,0.6-4.4,0.5
							c-1.2-0.1-2.3-0.2-4.2,0.5c-1.9,0.7-2.7,1.5-3.6,2.3c-0.8,0.8-1.7,1.7-3.7,2.4c-2,0.7-3.3,0.6-4.4,0.5
							c-1.2-0.1-2.3-0.2-4.2,0.5s-2.7,1.5-3.6,2.3c-0.8,0.8-1.7,1.7-3.7,2.4c-2,0.7-3.3,0.6-4.4,0.5c-1.2-0.1-2.3-0.2-4.2,0.5
							s-2.7,1.5-3.6,2.3c-0.8,0.8-1.7,1.7-3.7,2.4c-2,0.7-3.3,0.6-4.4,0.5c-1.2-0.1-2.3-0.2-4.2,0.5s-2.7,1.5-3.6,2.3
							c-0.8,0.8-1.7,1.7-3.7,2.4c-2,0.7-3.3,0.6-4.4,0.5c-1.2-0.1-2.3-0.2-4.2,0.5s-2.7,1.5-3.6,2.3c-0.8,0.8-1.7,1.7-3.7,2.4
							c-2,0.7-3.3,0.6-4.4,0.5C190.9,110.6,189.8,110.5,187.9,111.2z"/>
					</g>
					<g>
						<path fill="#FFFFFF" d="M186.5,107.2l-0.2-0.5c2-0.7,3.3-0.6,4.4-0.5c1.2,0.1,2.3,0.2,4.2-0.5s2.7-1.5,3.6-2.3
							c0.8-0.8,1.7-1.7,3.7-2.4c2-0.7,3.3-0.6,4.4-0.5c1.2,0.1,2.3,0.2,4.2-0.5s2.7-1.5,3.6-2.3c0.8-0.8,1.7-1.7,3.7-2.4
							c2-0.7,3.3-0.6,4.4-0.5c1.2,0.1,2.3,0.2,4.2-0.5s2.7-1.5,3.6-2.3c0.8-0.8,1.7-1.7,3.7-2.4c2-0.7,3.3-0.6,4.4-0.5
							c1.2,0.1,2.3,0.2,4.2-0.5s2.7-1.5,3.6-2.3c0.8-0.8,1.7-1.7,3.7-2.4c2-0.7,3.3-0.6,4.4-0.5c1.2,0.1,2.3,0.2,4.2-0.5
							s2.7-1.5,3.6-2.3c0.8-0.8,1.7-1.7,3.7-2.4c2-0.7,3.3-0.6,4.4-0.5c1.2,0.1,2.3,0.2,4.2-0.5c1.9-0.7,2.7-1.5,3.6-2.3
							c0.8-0.8,1.7-1.7,3.7-2.4l0.2,0.5c-1.9,0.7-2.7,1.5-3.6,2.3c-0.8,0.8-1.7,1.7-3.7,2.4c-2,0.7-3.3,0.6-4.4,0.5
							c-1.2-0.1-2.3-0.2-4.2,0.5c-1.9,0.7-2.7,1.5-3.6,2.3c-0.8,0.8-1.7,1.7-3.7,2.4c-2,0.7-3.3,0.6-4.4,0.5
							c-1.2-0.1-2.3-0.2-4.2,0.5s-2.7,1.5-3.6,2.3c-0.8,0.8-1.7,1.7-3.7,2.4c-2,0.7-3.3,0.6-4.4,0.5c-1.2-0.1-2.3-0.2-4.2,0.5
							s-2.7,1.5-3.6,2.3c-0.8,0.8-1.7,1.7-3.7,2.4c-2,0.7-3.3,0.6-4.4,0.5c-1.2-0.1-2.3-0.2-4.2,0.5s-2.7,1.5-3.6,2.3
							c-0.8,0.8-1.7,1.7-3.7,2.4c-2,0.7-3.3,0.6-4.4,0.5c-1.2-0.1-2.3-0.2-4.2,0.5s-2.7,1.5-3.6,2.3c-0.8,0.8-1.7,1.7-3.7,2.4
							c-2,0.7-3.3,0.6-4.4,0.5C189.5,106.6,188.4,106.5,186.5,107.2z"/>
					</g>
					<g>
						<path fill="#FFFFFF" d="M185,103.3l-0.2-0.5c2-0.7,3.3-0.6,4.4-0.5c1.2,0.1,2.3,0.2,4.2-0.5s2.7-1.5,3.6-2.3
							c0.8-0.8,1.7-1.7,3.7-2.4c2-0.7,3.3-0.6,4.4-0.5c1.2,0.1,2.3,0.2,4.2-0.5s2.7-1.5,3.6-2.3c0.8-0.8,1.7-1.7,3.7-2.4
							c2-0.7,3.3-0.6,4.4-0.5c1.2,0.1,2.3,0.2,4.2-0.5s2.7-1.5,3.6-2.3c0.8-0.8,1.7-1.7,3.7-2.4c2-0.7,3.3-0.6,4.4-0.5
							c1.2,0.1,2.3,0.2,4.2-0.5s2.7-1.5,3.6-2.3c0.8-0.8,1.7-1.7,3.7-2.4c2-0.7,3.3-0.6,4.4-0.5c1.2,0.1,2.3,0.2,4.2-0.5
							s2.7-1.5,3.6-2.3c0.8-0.8,1.7-1.7,3.7-2.4c2-0.7,3.3-0.6,4.4-0.5c1.2,0.1,2.3,0.2,4.2-0.5c1.9-0.7,2.7-1.5,3.6-2.3
							c0.8-0.8,1.7-1.7,3.7-2.4l0.2,0.5c-1.9,0.7-2.7,1.5-3.6,2.3c-0.8,0.8-1.7,1.7-3.7,2.4c-2,0.7-3.3,0.6-4.4,0.5
							c-1.2-0.1-2.3-0.2-4.2,0.5c-1.9,0.7-2.7,1.5-3.6,2.3c-0.8,0.8-1.7,1.7-3.7,2.4c-2,0.7-3.3,0.6-4.4,0.5
							c-1.2-0.1-2.3-0.2-4.2,0.5s-2.7,1.5-3.6,2.3c-0.8,0.8-1.7,1.7-3.7,2.4c-2,0.7-3.3,0.6-4.4,0.5c-1.2-0.1-2.3-0.2-4.2,0.5
							s-2.7,1.5-3.6,2.3c-0.8,0.8-1.7,1.7-3.7,2.4c-2,0.7-3.3,0.6-4.4,0.5c-1.2-0.1-2.3-0.2-4.2,0.5s-2.7,1.5-3.6,2.3
							c-0.8,0.8-1.7,1.7-3.7,2.4c-2,0.7-3.3,0.6-4.4,0.5c-1.2-0.1-2.3-0.2-4.2,0.5s-2.7,1.5-3.6,2.3c-0.8,0.8-1.7,1.7-3.7,2.4
							c-2,0.7-3.3,0.6-4.4,0.5C188.1,102.7,187,102.6,185,103.3z"/>
					</g>
					<g>
						<path fill="#FFFFFF" d="M183.6,99.3l-0.2-0.5c2-0.7,3.3-0.6,4.4-0.5c1.2,0.1,2.3,0.2,4.2-0.5s2.7-1.5,3.6-2.3
							c0.8-0.8,1.7-1.7,3.7-2.4c2-0.7,3.3-0.6,4.4-0.5c1.2,0.1,2.3,0.2,4.2-0.5s2.7-1.5,3.6-2.3c0.8-0.8,1.7-1.7,3.7-2.4
							c2-0.7,3.3-0.6,4.4-0.5c1.2,0.1,2.3,0.2,4.2-0.5s2.7-1.5,3.6-2.3c0.8-0.8,1.7-1.7,3.7-2.4c2-0.7,3.3-0.6,4.4-0.5
							c1.2,0.1,2.3,0.2,4.2-0.5s2.7-1.5,3.6-2.3c0.8-0.8,1.7-1.7,3.7-2.4c2-0.7,3.3-0.6,4.4-0.5c1.2,0.1,2.3,0.2,4.2-0.5
							s2.7-1.5,3.6-2.3c0.8-0.8,1.7-1.7,3.7-2.4c2-0.7,3.3-0.6,4.4-0.5c1.2,0.1,2.3,0.2,4.2-0.5c1.9-0.7,2.7-1.5,3.6-2.3
							c0.8-0.8,1.7-1.7,3.7-2.4l0.2,0.5c-1.9,0.7-2.7,1.5-3.6,2.3c-0.8,0.8-1.7,1.7-3.7,2.4c-2,0.7-3.3,0.6-4.4,0.5
							c-1.2-0.1-2.3-0.2-4.2,0.5c-1.9,0.7-2.7,1.5-3.6,2.3c-0.8,0.8-1.7,1.7-3.7,2.4c-2,0.7-3.3,0.6-4.4,0.5
							c-1.2-0.1-2.3-0.2-4.2,0.5s-2.7,1.5-3.6,2.3c-0.8,0.8-1.7,1.7-3.7,2.4c-2,0.7-3.3,0.6-4.4,0.5c-1.2-0.1-2.3-0.2-4.2,0.5
							s-2.7,1.5-3.6,2.3c-0.8,0.8-1.7,1.7-3.7,2.4c-2,0.7-3.3,0.6-4.4,0.5c-1.2-0.1-2.3-0.2-4.2,0.5s-2.7,1.5-3.6,2.3
							c-0.8,0.8-1.7,1.7-3.7,2.4c-2,0.7-3.3,0.6-4.4,0.5c-1.2-0.1-2.3-0.2-4.2,0.5s-2.7,1.5-3.6,2.3c-0.8,0.8-1.7,1.7-3.7,2.4
							c-2,0.7-3.3,0.6-4.4,0.5C186.6,98.7,185.5,98.6,183.6,99.3z"/>
					</g>
					<g>
						<path fill="#FFFFFF" d="M182.2,95.4l-0.2-0.5c2-0.7,3.3-0.6,4.4-0.5c1.2,0.1,2.3,0.2,4.2-0.5s2.7-1.5,3.6-2.3
							c0.8-0.8,1.7-1.7,3.7-2.4c2-0.7,3.3-0.6,4.4-0.5c1.2,0.1,2.3,0.2,4.2-0.5s2.7-1.5,3.6-2.3c0.8-0.8,1.7-1.7,3.7-2.4
							c2-0.7,3.3-0.6,4.4-0.5c1.2,0.1,2.3,0.2,4.2-0.5s2.7-1.5,3.6-2.3c0.8-0.8,1.7-1.7,3.7-2.4c2-0.7,3.3-0.6,4.4-0.5
							c1.2,0.1,2.3,0.2,4.2-0.5s2.7-1.5,3.6-2.3c0.8-0.8,1.7-1.7,3.7-2.4c2-0.7,3.3-0.6,4.4-0.5c1.2,0.1,2.3,0.2,4.2-0.5
							c1.9-0.7,2.7-1.5,3.6-2.3c0.8-0.8,1.7-1.7,3.7-2.4c2-0.7,3.3-0.6,4.4-0.5c1.2,0.1,2.3,0.2,4.2-0.5c1.9-0.7,2.7-1.5,3.6-2.3
							c0.8-0.8,1.7-1.7,3.7-2.4l0.2,0.5c-1.9,0.7-2.7,1.5-3.6,2.3c-0.8,0.8-1.7,1.7-3.7,2.4c-2,0.7-3.3,0.6-4.4,0.5
							c-1.2-0.1-2.3-0.2-4.2,0.5c-1.9,0.7-2.7,1.5-3.6,2.3c-0.8,0.8-1.7,1.7-3.7,2.4c-2,0.7-3.3,0.6-4.4,0.5
							c-1.2-0.1-2.3-0.2-4.2,0.5s-2.7,1.5-3.6,2.3c-0.8,0.8-1.7,1.7-3.7,2.4c-2,0.7-3.3,0.6-4.4,0.5c-1.2-0.1-2.3-0.2-4.2,0.5
							s-2.7,1.5-3.6,2.3c-0.8,0.8-1.7,1.7-3.7,2.4c-2,0.7-3.3,0.6-4.4,0.5c-1.2-0.1-2.3-0.2-4.2,0.5s-2.7,1.5-3.6,2.3
							c-0.8,0.8-1.7,1.7-3.7,2.4c-2,0.7-3.3,0.6-4.4,0.5c-1.2-0.1-2.3-0.2-4.2,0.5s-2.7,1.5-3.6,2.3c-0.8,0.8-1.7,1.7-3.7,2.4
							c-2,0.7-3.3,0.6-4.4,0.5C185.2,94.8,184.1,94.7,182.2,95.4z"/>
					</g>
					<g>
						<path fill="#FFFFFF" d="M180.7,91.4l-0.2-0.5c2-0.7,3.3-0.6,4.4-0.5c1.2,0.1,2.3,0.2,4.2-0.5s2.7-1.5,3.6-2.3
							c0.8-0.8,1.7-1.7,3.7-2.4c2-0.7,3.3-0.6,4.4-0.5c1.2,0.1,2.3,0.2,4.2-0.5s2.7-1.5,3.6-2.3c0.8-0.8,1.7-1.7,3.7-2.4
							c2-0.7,3.3-0.6,4.4-0.5c1.2,0.1,2.3,0.2,4.2-0.5s2.7-1.5,3.6-2.3c0.8-0.8,1.7-1.7,3.7-2.4c2-0.7,3.3-0.6,4.4-0.5
							c1.2,0.1,2.3,0.2,4.2-0.5s2.7-1.5,3.6-2.3c0.8-0.8,1.7-1.7,3.7-2.4c2-0.7,3.3-0.6,4.4-0.5c1.2,0.1,2.3,0.2,4.2-0.5
							s2.7-1.5,3.6-2.3c0.8-0.8,1.7-1.7,3.7-2.4s3.3-0.6,4.4-0.5c1.2,0.1,2.3,0.2,4.2-0.5c1.9-0.7,2.7-1.5,3.6-2.3
							c0.8-0.8,1.7-1.7,3.7-2.4l0.2,0.5c-1.9,0.7-2.7,1.5-3.6,2.3c-0.8,0.8-1.7,1.7-3.7,2.4s-3.3,0.6-4.4,0.5
							c-1.2-0.1-2.3-0.2-4.2,0.5c-1.9,0.7-2.7,1.5-3.6,2.3c-0.8,0.8-1.7,1.7-3.7,2.4c-2,0.7-3.3,0.6-4.4,0.5
							c-1.2-0.1-2.3-0.2-4.2,0.5s-2.7,1.5-3.6,2.3c-0.8,0.8-1.7,1.7-3.7,2.4c-2,0.7-3.3,0.6-4.4,0.5c-1.2-0.1-2.3-0.2-4.2,0.5
							s-2.7,1.5-3.6,2.3c-0.8,0.8-1.7,1.7-3.7,2.4c-2,0.7-3.3,0.6-4.4,0.5c-1.2-0.1-2.3-0.2-4.2,0.5s-2.7,1.5-3.6,2.3
							c-0.8,0.8-1.7,1.7-3.7,2.4c-2,0.7-3.3,0.6-4.4,0.5c-1.2-0.1-2.3-0.2-4.2,0.5s-2.7,1.5-3.6,2.3c-0.8,0.8-1.7,1.7-3.7,2.4
							s-3.3,0.6-4.4,0.5C183.8,90.8,182.7,90.7,180.7,91.4z"/>
					</g>
					<g>
						<path fill="#FFFFFF" d="M179.3,87.5l-0.2-0.5c2-0.7,3.3-0.6,4.4-0.5c1.2,0.1,2.3,0.2,4.2-0.5s2.7-1.5,3.6-2.3
							c0.8-0.8,1.7-1.7,3.7-2.4c2-0.7,3.3-0.6,4.4-0.5c1.2,0.1,2.3,0.2,4.2-0.5s2.7-1.5,3.6-2.3c0.8-0.8,1.7-1.7,3.7-2.4
							c2-0.7,3.3-0.6,4.4-0.5c1.2,0.1,2.3,0.2,4.2-0.5s2.7-1.5,3.6-2.3c0.8-0.8,1.7-1.7,3.7-2.4c2-0.7,3.3-0.6,4.4-0.5
							c1.2,0.1,2.3,0.2,4.2-0.5s2.7-1.5,3.6-2.3c0.8-0.8,1.7-1.7,3.7-2.4s3.3-0.6,4.4-0.5c1.2,0.1,2.3,0.2,4.2-0.5s2.7-1.5,3.6-2.3
							c0.8-0.8,1.7-1.7,3.7-2.4s3.3-0.6,4.4-0.5c1.2,0.1,2.3,0.2,4.2-0.5c1.9-0.7,2.7-1.5,3.6-2.3c0.8-0.8,1.7-1.7,3.7-2.4l0.2,0.5
							c-1.9,0.7-2.7,1.5-3.6,2.3c-0.8,0.8-1.7,1.7-3.7,2.4s-3.3,0.6-4.4,0.5c-1.2-0.1-2.3-0.2-4.2,0.5c-1.9,0.7-2.7,1.5-3.6,2.3
							c-0.8,0.8-1.7,1.7-3.7,2.4s-3.3,0.6-4.4,0.5c-1.2-0.1-2.3-0.2-4.2,0.5c-1.9,0.7-2.7,1.5-3.6,2.3c-0.8,0.8-1.7,1.7-3.7,2.4
							c-2,0.7-3.3,0.6-4.4,0.5c-1.2-0.1-2.3-0.2-4.2,0.5s-2.7,1.5-3.6,2.3c-0.8,0.8-1.7,1.7-3.7,2.4c-2,0.7-3.3,0.6-4.4,0.5
							c-1.2-0.1-2.3-0.2-4.2,0.5s-2.7,1.5-3.6,2.3c-0.8,0.8-1.7,1.7-3.7,2.4c-2,0.7-3.3,0.6-4.4,0.5c-1.2-0.1-2.3-0.2-4.2,0.5
							s-2.7,1.5-3.6,2.3c-0.8,0.8-1.7,1.7-3.7,2.4c-2,0.7-3.3,0.6-4.4,0.5C182.3,86.9,181.2,86.7,179.3,87.5z"/>
					</g>
					<g>
						<path fill="#FFFFFF" d="M177.9,83.5l-0.2-0.5c2-0.7,3.3-0.6,4.4-0.5c1.2,0.1,2.3,0.2,4.2-0.5s2.7-1.5,3.6-2.3
							c0.8-0.8,1.7-1.7,3.7-2.4c2-0.7,3.3-0.6,4.4-0.5c1.2,0.1,2.3,0.2,4.2-0.5s2.7-1.5,3.6-2.3c0.8-0.8,1.7-1.7,3.7-2.4
							c2-0.7,3.3-0.6,4.4-0.5c1.2,0.1,2.3,0.2,4.2-0.5s2.7-1.5,3.6-2.3c0.8-0.8,1.7-1.7,3.7-2.4c2-0.7,3.3-0.6,4.4-0.5
							c1.2,0.1,2.3,0.2,4.2-0.5s2.7-1.5,3.6-2.3c0.8-0.8,1.7-1.7,3.7-2.4s3.3-0.6,4.4-0.5c1.2,0.1,2.3,0.2,4.2-0.5s2.7-1.5,3.6-2.3
							c0.8-0.8,1.7-1.7,3.7-2.4c2-0.7,3.3-0.6,4.4-0.5c1.2,0.1,2.3,0.2,4.2-0.5c1.9-0.7,2.7-1.5,3.6-2.3c0.8-0.8,1.7-1.7,3.7-2.4
							l0.2,0.5c-1.9,0.7-2.7,1.5-3.6,2.3c-0.8,0.8-1.7,1.7-3.7,2.4s-3.3,0.6-4.4,0.5c-1.2-0.1-2.3-0.2-4.2,0.5
							c-1.9,0.7-2.7,1.5-3.6,2.3c-0.8,0.8-1.7,1.7-3.7,2.4s-3.3,0.6-4.4,0.5c-1.2-0.1-2.3-0.2-4.2,0.5s-2.7,1.5-3.6,2.3
							c-0.8,0.8-1.7,1.7-3.7,2.4c-2,0.7-3.3,0.6-4.4,0.5c-1.2-0.1-2.3-0.2-4.2,0.5s-2.7,1.5-3.6,2.3c-0.8,0.8-1.7,1.7-3.7,2.4
							c-2,0.7-3.3,0.6-4.4,0.5c-1.2-0.1-2.3-0.2-4.2,0.5s-2.7,1.5-3.6,2.3c-0.8,0.8-1.7,1.7-3.7,2.4c-2,0.7-3.3,0.6-4.4,0.5
							c-1.2-0.1-2.3-0.2-4.2,0.5s-2.7,1.5-3.6,2.3c-0.8,0.8-1.7,1.7-3.7,2.4c-2,0.7-3.3,0.6-4.4,0.5
							C180.9,82.9,179.8,82.8,177.9,83.5z"/>
					</g>
					<g>
						<path fill="#FFFFFF" d="M176.4,79.5l-0.2-0.5c2-0.7,3.3-0.6,4.4-0.5c1.2,0.1,2.3,0.2,4.2-0.5s2.7-1.5,3.6-2.3
							c0.8-0.8,1.7-1.7,3.7-2.4c2-0.7,3.3-0.6,4.4-0.5c1.2,0.1,2.3,0.2,4.2-0.5s2.7-1.5,3.6-2.3c0.8-0.8,1.7-1.7,3.7-2.4
							c2-0.7,3.3-0.6,4.4-0.5c1.2,0.1,2.3,0.2,4.2-0.5s2.7-1.5,3.6-2.3c0.8-0.8,1.7-1.7,3.7-2.4s3.3-0.6,4.4-0.5
							c1.2,0.1,2.3,0.2,4.2-0.5s2.7-1.5,3.6-2.3c0.8-0.8,1.7-1.7,3.7-2.4s3.3-0.6,4.4-0.5c1.2,0.1,2.3,0.2,4.2-0.5s2.7-1.5,3.6-2.3
							c0.8-0.8,1.7-1.7,3.7-2.4c2-0.7,3.3-0.6,4.4-0.5c1.2,0.1,2.3,0.2,4.2-0.5c1.9-0.7,2.7-1.5,3.6-2.3c0.8-0.8,1.7-1.7,3.7-2.4
							l0.2,0.5c-1.9,0.7-2.7,1.5-3.6,2.3c-0.8,0.8-1.7,1.7-3.7,2.4s-3.3,0.6-4.4,0.5c-1.2-0.1-2.3-0.2-4.2,0.5
							c-1.9,0.7-2.7,1.5-3.6,2.3c-0.8,0.8-1.7,1.7-3.7,2.4s-3.3,0.6-4.4,0.5c-1.2-0.1-2.3-0.2-4.2,0.5s-2.7,1.5-3.6,2.3
							c-0.8,0.8-1.7,1.7-3.7,2.4s-3.3,0.6-4.4,0.5c-1.2-0.1-2.3-0.2-4.2,0.5s-2.7,1.5-3.6,2.3c-0.8,0.8-1.7,1.7-3.7,2.4
							c-2,0.7-3.3,0.6-4.4,0.5c-1.2-0.1-2.3-0.2-4.2,0.5s-2.7,1.5-3.6,2.3c-0.8,0.8-1.7,1.7-3.7,2.4c-2,0.7-3.3,0.6-4.4,0.5
							c-1.2-0.1-2.3-0.2-4.2,0.5s-2.7,1.5-3.6,2.3c-0.8,0.8-1.7,1.7-3.7,2.4c-2,0.7-3.3,0.6-4.4,0.5
							C179.5,78.9,178.4,78.8,176.4,79.5z"/>
					</g>
					<g>
						<path fill="#FFFFFF" d="M175,75.6l-0.2-0.5c2-0.7,3.3-0.6,4.4-0.5c1.2,0.1,2.3,0.2,4.2-0.5s2.7-1.5,3.6-2.3
							c0.8-0.8,1.7-1.7,3.7-2.4c2-0.7,3.3-0.6,4.4-0.5c1.2,0.1,2.3,0.2,4.2-0.5s2.7-1.5,3.6-2.3c0.8-0.8,1.7-1.7,3.7-2.4
							c2-0.7,3.3-0.6,4.4-0.5c1.2,0.1,2.3,0.2,4.2-0.5s2.7-1.5,3.6-2.3c0.8-0.8,1.7-1.7,3.7-2.4s3.3-0.6,4.4-0.5
							c1.2,0.1,2.3,0.2,4.2-0.5s2.7-1.5,3.6-2.3c0.8-0.8,1.7-1.7,3.7-2.4s3.3-0.6,4.4-0.5c1.2,0.1,2.3,0.2,4.2-0.5s2.7-1.5,3.6-2.3
							c0.8-0.8,1.7-1.7,3.7-2.4c2-0.7,3.3-0.6,4.4-0.5c1.2,0.1,2.3,0.2,4.2-0.5c1.9-0.7,2.7-1.5,3.6-2.3c0.8-0.8,1.7-1.7,3.7-2.4
							l0.2,0.5c-1.9,0.7-2.7,1.5-3.6,2.3c-0.8,0.8-1.7,1.7-3.7,2.4s-3.3,0.6-4.4,0.5c-1.2-0.1-2.3-0.2-4.2,0.5
							c-1.9,0.7-2.7,1.5-3.6,2.3c-0.8,0.8-1.7,1.7-3.7,2.4s-3.3,0.6-4.4,0.5c-1.2-0.1-2.3-0.2-4.2,0.5s-2.7,1.5-3.6,2.3
							c-0.8,0.8-1.7,1.7-3.7,2.4s-3.3,0.6-4.4,0.5c-1.2-0.1-2.3-0.2-4.2,0.5s-2.7,1.5-3.6,2.3c-0.8,0.8-1.7,1.7-3.7,2.4
							s-3.3,0.6-4.4,0.5c-1.2-0.1-2.3-0.2-4.2,0.5c-1.9,0.7-2.7,1.5-3.6,2.3c-0.8,0.8-1.7,1.7-3.7,2.4c-2,0.7-3.3,0.6-4.4,0.5
							c-1.2-0.1-2.3-0.2-4.2,0.5s-2.7,1.5-3.6,2.3c-0.8,0.8-1.7,1.7-3.7,2.4c-2,0.7-3.3,0.6-4.4,0.5C178.1,75,176.9,74.9,175,75.6z"
							/>
					</g>
					<g>
						<path fill="#FFFFFF" d="M173.6,71.6l-0.2-0.5c2-0.7,3.3-0.6,4.4-0.5c1.2,0.1,2.3,0.2,4.2-0.5s2.7-1.5,3.6-2.3
							c0.8-0.8,1.7-1.7,3.7-2.4c2-0.7,3.3-0.6,4.4-0.5c1.2,0.1,2.3,0.2,4.2-0.5c1.9-0.7,2.7-1.5,3.6-2.3c0.8-0.8,1.7-1.7,3.7-2.4
							s3.3-0.6,4.4-0.5c1.2,0.1,2.3,0.2,4.2-0.5s2.7-1.5,3.6-2.3c0.8-0.8,1.7-1.7,3.7-2.4s3.3-0.6,4.4-0.5c1.2,0.1,2.3,0.2,4.2-0.5
							s2.7-1.5,3.6-2.3c0.8-0.8,1.7-1.7,3.7-2.4s3.3-0.6,4.4-0.5c1.2,0.1,2.3,0.2,4.2-0.5s2.7-1.5,3.6-2.3c0.8-0.8,1.7-1.7,3.7-2.4
							s3.3-0.6,4.4-0.5c1.2,0.1,2.3,0.2,4.2-0.5c1.9-0.7,2.7-1.5,3.6-2.3c0.8-0.8,1.7-1.7,3.7-2.4l0.2,0.5c-1.9,0.7-2.7,1.5-3.6,2.3
							c-0.8,0.8-1.7,1.7-3.7,2.4s-3.3,0.6-4.4,0.5c-1.2-0.1-2.3-0.2-4.2,0.5s-2.7,1.5-3.6,2.3c-0.8,0.8-1.7,1.7-3.7,2.4
							s-3.3,0.6-4.4,0.5c-1.2-0.1-2.3-0.2-4.2,0.5s-2.7,1.5-3.6,2.3c-0.8,0.8-1.7,1.7-3.7,2.4s-3.3,0.6-4.4,0.5
							c-1.2-0.1-2.3-0.2-4.2,0.5s-2.7,1.5-3.6,2.3c-0.8,0.8-1.7,1.7-3.7,2.4s-3.3,0.6-4.4,0.5c-1.2-0.1-2.3-0.2-4.2,0.5
							s-2.7,1.5-3.6,2.3c-0.8,0.8-1.7,1.7-3.7,2.4c-2,0.7-3.3,0.6-4.4,0.5c-1.2-0.1-2.3-0.2-4.2,0.5s-2.7,1.5-3.6,2.3
							c-0.8,0.8-1.7,1.7-3.7,2.4c-2,0.7-3.3,0.6-4.4,0.5C176.6,71,175.5,70.9,173.6,71.6z"/>
					</g>
					<g>
						<path fill="#FFFFFF" d="M172.1,67.7l-0.2-0.5c2-0.7,3.3-0.6,4.4-0.5c1.2,0.1,2.3,0.2,4.2-0.5s2.7-1.5,3.6-2.3
							c0.8-0.8,1.7-1.7,3.7-2.4s3.3-0.6,4.4-0.5c1.2,0.1,2.3,0.2,4.2-0.5s2.7-1.5,3.6-2.3c0.8-0.8,1.7-1.7,3.7-2.4s3.3-0.6,4.4-0.5
							c1.2,0.1,2.3,0.2,4.2-0.5s2.7-1.5,3.6-2.3c0.8-0.8,1.7-1.7,3.7-2.4s3.3-0.6,4.4-0.5c1.2,0.1,2.3,0.2,4.2-0.5s2.7-1.5,3.6-2.3
							c0.8-0.8,1.7-1.7,3.7-2.4s3.3-0.6,4.4-0.5c1.2,0.1,2.3,0.2,4.2-0.5s2.7-1.5,3.6-2.3c0.8-0.8,1.7-1.7,3.7-2.4s3.3-0.6,4.4-0.5
							c1.2,0.1,2.3,0.2,4.2-0.5s2.7-1.5,3.6-2.3c0.8-0.8,1.7-1.7,3.7-2.4l0.2,0.5c-1.9,0.7-2.7,1.5-3.6,2.3
							c-0.8,0.8-1.7,1.7-3.7,2.4s-3.3,0.6-4.4,0.5c-1.2-0.1-2.3-0.2-4.2,0.5s-2.7,1.5-3.6,2.3c-0.8,0.8-1.7,1.7-3.7,2.4
							s-3.3,0.6-4.4,0.5c-1.2-0.1-2.3-0.2-4.2,0.5s-2.7,1.5-3.6,2.3c-0.8,0.8-1.7,1.7-3.7,2.4s-3.3,0.6-4.4,0.5
							c-1.2-0.1-2.3-0.2-4.2,0.5s-2.7,1.5-3.6,2.3c-0.8,0.8-1.7,1.7-3.7,2.4s-3.3,0.6-4.4,0.5c-1.2-0.1-2.3-0.2-4.2,0.5
							s-2.7,1.5-3.6,2.3c-0.8,0.8-1.7,1.7-3.7,2.4s-3.3,0.6-4.4,0.5c-1.2-0.1-2.3-0.2-4.2,0.5s-2.7,1.5-3.6,2.3
							c-0.8,0.8-1.7,1.7-3.7,2.4c-2,0.7-3.3,0.6-4.4,0.5C175.2,67.1,174.1,67,172.1,67.7z"/>
					</g>
					<g>
						<path fill="#FFFFFF" d="M170.7,63.7l-0.2-0.5c2-0.7,3.3-0.6,4.4-0.5c1.2,0.1,2.3,0.2,4.2-0.5s2.7-1.5,3.6-2.3
							c0.8-0.8,1.7-1.7,3.7-2.4s3.3-0.6,4.4-0.5c1.2,0.1,2.3,0.2,4.2-0.5s2.7-1.5,3.6-2.3c0.8-0.8,1.7-1.7,3.7-2.4s3.3-0.6,4.4-0.5
							c1.2,0.1,2.3,0.2,4.2-0.5s2.7-1.5,3.6-2.3c0.8-0.8,1.7-1.7,3.7-2.4s3.3-0.6,4.4-0.5c1.2,0.1,2.3,0.2,4.2-0.5s2.7-1.5,3.6-2.3
							c0.8-0.8,1.7-1.7,3.7-2.4s3.3-0.6,4.4-0.5c1.2,0.1,2.3,0.2,4.2-0.5s2.7-1.5,3.6-2.3c0.8-0.8,1.7-1.7,3.7-2.4s3.3-0.6,4.4-0.5
							c1.2,0.1,2.3,0.2,4.2-0.5c1.9-0.7,2.7-1.5,3.6-2.3c0.8-0.8,1.7-1.7,3.7-2.4l0.2,0.5c-1.9,0.7-2.7,1.5-3.6,2.3
							c-0.8,0.8-1.7,1.7-3.7,2.4s-3.3,0.6-4.4,0.5c-1.2-0.1-2.3-0.2-4.2,0.5s-2.7,1.5-3.6,2.3c-0.8,0.8-1.7,1.7-3.7,2.4
							s-3.3,0.6-4.4,0.5c-1.2-0.1-2.3-0.2-4.2,0.5s-2.7,1.5-3.6,2.3c-0.8,0.8-1.7,1.7-3.7,2.4s-3.3,0.6-4.4,0.5
							c-1.2-0.1-2.3-0.2-4.2,0.5s-2.7,1.5-3.6,2.3c-0.8,0.8-1.7,1.7-3.7,2.4s-3.3,0.6-4.4,0.5c-1.2-0.1-2.3-0.2-4.2,0.5
							s-2.7,1.5-3.6,2.3c-0.8,0.8-1.7,1.7-3.7,2.4s-3.3,0.6-4.4,0.5c-1.2-0.1-2.3-0.2-4.2,0.5s-2.7,1.5-3.6,2.3
							c-0.8,0.8-1.7,1.7-3.7,2.4s-3.3,0.6-4.4,0.5C173.7,63.1,172.6,63,170.7,63.7z"/>
					</g>
				</g>
			</g>
		</g>
	</g>
</g>
<g>
	<g>
		<g>
			<path fill="#262626" d="M59.6,55.4c-0.6,0-0.9-0.4-1.1-0.7c-0.2-0.3-0.4-0.4-0.7-0.4s-0.4,0.2-0.7,0.4c-0.2,0.3-0.5,0.7-1.1,0.7
				s-0.9-0.4-1.1-0.7c-0.2-0.3-0.4-0.4-0.7-0.4s-0.4,0.2-0.7,0.4c-0.2,0.3-0.5,0.7-1.1,0.7s-0.9-0.4-1.1-0.7
				c-0.2-0.3-0.4-0.4-0.7-0.4c-0.2,0-0.3-0.1-0.3-0.3s0.1-0.3,0.3-0.3c0.6,0,0.9,0.4,1.1,0.7c0.2,0.3,0.4,0.4,0.7,0.4
				s0.4-0.2,0.7-0.4c0.2-0.3,0.5-0.7,1.1-0.7s0.9,0.4,1.1,0.7c0.2,0.3,0.4,0.4,0.7,0.4s0.4-0.2,0.7-0.4c0.2-0.3,0.5-0.7,1.1-0.7
				s0.9,0.4,1.1,0.7c0.2,0.3,0.4,0.4,0.7,0.4c0.2,0,0.3,0.1,0.3,0.3C59.9,55.3,59.8,55.4,59.6,55.4z"/>
		</g>
	</g>
	<g>
		<g>
			<path fill="#262626" d="M75.9,25.4c-0.1,0-0.2,0-0.2-0.1c-0.3-0.5-0.2-0.9-0.1-1.3s0.1-0.6,0-0.8c-0.2-0.2-0.4-0.3-0.8-0.3
				s-0.8,0-1.2-0.5c-0.3-0.5-0.2-0.9-0.1-1.3s0.1-0.6,0-0.8c-0.2-0.2-0.4-0.3-0.8-0.3s-0.8,0-1.2-0.5c-0.3-0.5-0.2-0.9-0.1-1.3
				s0.1-0.6,0-0.8c-0.1-0.1-0.1-0.3,0.1-0.4c0.1-0.1,0.3-0.1,0.4,0.1c0.3,0.5,0.2,0.9,0.1,1.3s-0.1,0.6,0,0.8
				c0.2,0.2,0.4,0.3,0.8,0.3s0.8,0,1.2,0.5c0.3,0.5,0.2,0.9,0.1,1.3s-0.1,0.6,0,0.8c0.2,0.2,0.4,0.3,0.8,0.3s0.8,0,1.2,0.5
				c0.3,0.5,0.2,0.9,0.1,1.3s-0.1,0.6,0,0.8c0.1,0.1,0.1,0.3-0.1,0.4C76.1,25.4,76,25.4,75.9,25.4z"/>
		</g>
	</g>
	<g>
		<g>
			<path fill="#262626" d="M171.1,74.3c-0.1,0-0.1,0-0.1,0c-0.5-0.3-0.5-0.8-0.6-1.1c0-0.4-0.1-0.6-0.3-0.7c-0.3-0.2-0.5-0.1-0.8,0
				c-0.4,0.1-0.8,0.3-1.3,0s-0.5-0.8-0.6-1.1c0-0.4-0.1-0.6-0.3-0.7c-0.2-0.2-0.5-0.1-0.8,0c-0.4,0.1-0.8,0.3-1.3,0
				s-0.5-0.8-0.6-1.1c0-0.4-0.1-0.6-0.3-0.7c-0.1-0.1-0.2-0.3-0.1-0.4c0.1-0.1,0.3-0.2,0.4-0.1c0.5,0.3,0.5,0.8,0.6,1.1
				c0,0.4,0.1,0.6,0.3,0.7c0.2,0.2,0.5,0.1,0.8,0c0.4-0.1,0.8-0.3,1.3,0s0.5,0.8,0.6,1.1c0,0.4,0.1,0.6,0.3,0.7
				c0.3,0.2,0.5,0.1,0.8,0c0.4-0.1,0.8-0.3,1.3,0s0.5,0.8,0.6,1.1c0,0.4,0.1,0.6,0.3,0.7c0.1,0.1,0.2,0.3,0.1,0.4
				S171.2,74.3,171.1,74.3z"/>
		</g>
	</g>
	<g>
		<g>
			<path fill="#262626" d="M96.6,72.8c-0.1,0-0.1,0-0.2-0.1c-0.4-0.4-0.4-0.9-0.3-1.2c0-0.4,0.1-0.6-0.2-0.8
				c-0.2-0.2-0.4-0.2-0.8-0.2s-0.8,0.1-1.2-0.3c-0.4-0.4-0.4-0.9-0.3-1.2c0-0.4,0.1-0.6-0.2-0.8C93.2,68,93,68,92.6,68
				s-0.8,0.1-1.2-0.3c-0.4-0.4-0.4-0.9-0.3-1.2c0-0.4,0.1-0.6-0.2-0.8c-0.1-0.1-0.1-0.3,0-0.4s0.3-0.1,0.4,0
				c0.4,0.4,0.4,0.9,0.3,1.2c0,0.4-0.1,0.6,0.2,0.8c0.2,0.2,0.4,0.2,0.8,0.2s0.8-0.1,1.2,0.3c0.4,0.4,0.4,0.9,0.3,1.2
				c0,0.4-0.1,0.6,0.2,0.8c0.2,0.2,0.4,0.2,0.8,0.2s0.8-0.1,1.2,0.3c0.4,0.4,0.4,0.9,0.3,1.2c0,0.4-0.1,0.6,0.2,0.8
				c0.1,0.1,0.1,0.3,0,0.4C96.7,72.8,96.7,72.8,96.6,72.8z"/>
		</g>
	</g>
	<g>
		<g>
			<path fill="#262626" d="M16.9,98.7c-0.6,0-0.9-0.4-1.1-0.7c-0.2-0.3-0.4-0.5-0.7-0.5s-0.4,0.2-0.7,0.5c-0.2,0.3-0.5,0.7-1.1,0.7
				s-0.9-0.4-1.1-0.7c-0.2-0.3-0.4-0.5-0.7-0.5s-0.4,0.2-0.7,0.4c-0.2,0.3-0.5,0.7-1.1,0.7s-0.9-0.4-1.1-0.7
				c-0.2-0.3-0.4-0.5-0.7-0.5c-0.2,0-0.3-0.1-0.3-0.3c0-0.2,0.1-0.3,0.3-0.3c0.6,0,0.9,0.4,1.1,0.7C9.2,97.8,9.4,98,9.7,98
				s0.4-0.2,0.7-0.4c0.2-0.3,0.5-0.7,1.1-0.7s0.9,0.4,1.1,0.7c0.2,0.3,0.4,0.5,0.7,0.5s0.4-0.2,0.7-0.5c0.2-0.3,0.5-0.7,1.1-0.7
				s0.9,0.4,1.1,0.7c0.2,0.3,0.4,0.5,0.7,0.5c0.2,0,0.3,0.1,0.3,0.3C17.2,98.6,17.1,98.7,16.9,98.7z"/>
		</g>
	</g>
	<g>
		<g>
			<path fill="#262626" d="M248.2,31.2c-0.6,0-0.9-0.4-1.1-0.7c-0.2-0.3-0.4-0.5-0.7-0.5s-0.4,0.2-0.7,0.5c-0.2,0.3-0.5,0.7-1.1,0.7
				s-0.9-0.4-1.1-0.7c-0.2-0.3-0.4-0.5-0.7-0.5s-0.4,0.2-0.7,0.4c-0.2,0.3-0.5,0.7-1.1,0.7s-0.9-0.4-1.1-0.7
				c-0.2-0.3-0.4-0.5-0.7-0.5c-0.2,0-0.3-0.1-0.3-0.3c0-0.2,0.1-0.3,0.3-0.3c0.6,0,0.9,0.4,1.1,0.7c0.2,0.3,0.4,0.5,0.7,0.5
				s0.4-0.2,0.7-0.4c0.2-0.3,0.5-0.7,1.1-0.7s0.9,0.4,1.1,0.7c0.2,0.3,0.4,0.5,0.7,0.5s0.4-0.2,0.7-0.5c0.2-0.3,0.5-0.7,1.1-0.7
				s0.9,0.4,1.1,0.7c0.2,0.3,0.4,0.5,0.7,0.5c0.2,0,0.3,0.1,0.3,0.3S248.3,31.2,248.2,31.2z"/>
		</g>
	</g>
	<g>
		<g>
			<path fill="#262626" d="M210,11c-0.6,0-0.9-0.4-1.1-0.7c-0.2-0.3-0.4-0.4-0.7-0.4s-0.4,0.2-0.7,0.4c-0.2,0.3-0.5,0.7-1.1,0.7
				s-0.9-0.4-1.1-0.7c-0.2-0.3-0.4-0.4-0.7-0.4s-0.4,0.2-0.7,0.4c-0.2,0.3-0.5,0.7-1.1,0.7s-0.9-0.4-1.1-0.7
				c-0.2-0.3-0.4-0.4-0.7-0.4c-0.2,0-0.3-0.1-0.3-0.3s0.1-0.3,0.3-0.3c0.6,0,0.9,0.4,1.1,0.7c0.2,0.3,0.4,0.4,0.7,0.4
				s0.4-0.2,0.7-0.4c0.2-0.3,0.5-0.7,1.1-0.7s0.9,0.4,1.1,0.7c0.2,0.3,0.4,0.4,0.7,0.4s0.4-0.2,0.7-0.4c0.2-0.3,0.5-0.7,1.1-0.7
				s0.9,0.4,1.1,0.7c0.2,0.3,0.4,0.4,0.7,0.4c0.2,0,0.3,0.1,0.3,0.3C210.2,10.9,210.1,11,210,11z"/>
		</g>
	</g>
	<g>
		<g>
			<path fill="#262626" d="M130.9,97.1c-0.1,0-0.2-0.1-0.3-0.2c-0.2-0.5,0-0.9,0.1-1.3c0.2-0.3,0.3-0.5,0.1-0.8
				c-0.1-0.3-0.3-0.3-0.7-0.4s-0.8-0.2-1.1-0.7c-0.2-0.5,0-0.9,0.1-1.3c0.2-0.3,0.3-0.5,0.1-0.8c-0.1-0.3-0.3-0.3-0.7-0.4
				s-0.8-0.2-1.1-0.7c-0.2-0.5,0-0.9,0.1-1.3c0.2-0.3,0.3-0.5,0.1-0.8c-0.1-0.1,0-0.3,0.1-0.4s0.3,0,0.4,0.1c0.2,0.5,0,0.9-0.1,1.3
				c-0.2,0.3-0.3,0.5-0.1,0.8c0.1,0.3,0.3,0.3,0.7,0.4c0.4,0.1,0.8,0.2,1.1,0.7c0.2,0.5,0,0.9-0.1,1.3c-0.2,0.3-0.3,0.5-0.1,0.8
				c0.1,0.3,0.3,0.3,0.7,0.4s0.8,0.2,1.1,0.7c0.2,0.5,0,0.9-0.1,1.3c-0.2,0.3-0.3,0.5-0.1,0.8C131.2,96.7,131.1,96.9,130.9,97.1
				C131,97,130.9,97.1,130.9,97.1z"/>
		</g>
	</g>
	<g>
		<g>
			<path fill="#262626" d="M109,29.5c-0.2,0-0.5-0.1-0.7-0.1c-0.3-0.1-0.6-0.2-0.8,0c-0.1,0.1-0.3,0-0.4-0.1s0-0.3,0.1-0.4
				c0.5-0.3,0.9-0.2,1.3,0c0.3,0.1,0.6,0.2,0.8,0c0.2-0.2,0.3-0.4,0.3-0.7c0-0.4,0.1-0.8,0.6-1.1c0.5-0.3,0.9-0.2,1.3,0
				c0.4,0.1,0.6,0.2,0.8,0c0.2-0.2,0.3-0.4,0.3-0.7c0-0.4,0.1-0.8,0.6-1.1c0.5-0.3,0.9-0.2,1.3,0c0.4,0.1,0.6,0.2,0.8,0
				c0.1-0.1,0.3,0,0.4,0.1s0,0.3-0.1,0.4c-0.5,0.3-0.9,0.2-1.3,0c-0.3-0.1-0.6-0.2-0.8,0c-0.2,0.2-0.3,0.4-0.3,0.7
				c0,0.4-0.1,0.8-0.6,1.1c-0.5,0.3-0.9,0.2-1.3,0c-0.3-0.1-0.6-0.2-0.8,0c-0.2,0.2-0.3,0.4-0.3,0.7c0,0.4-0.1,0.8-0.6,1.1
				C109.4,29.5,109.2,29.5,109,29.5z"/>
		</g>
	</g>
	<g>
		<g>
			<path fill="#262626" d="M8.1,52.7c-0.1,0-0.1,0-0.2-0.1c-0.1-0.1-0.1-0.3,0-0.4c0.4-0.4,0.9-0.4,1.2-0.3c0.4,0,0.6,0.1,0.8-0.2
				c0.2-0.2,0.2-0.4,0.2-0.8c0-0.4-0.1-0.8,0.3-1.2c0.4-0.4,0.9-0.4,1.2-0.3c0.4,0,0.6,0.1,0.8-0.2c0.2-0.2,0.2-0.4,0.2-0.8
				c0-0.4-0.1-0.8,0.3-1.2c0.4-0.4,0.9-0.4,1.2-0.3c0.4,0,0.6,0.1,0.8-0.2c0.1-0.1,0.3-0.1,0.4,0c0.1,0.1,0.1,0.3,0,0.4
				c-0.4,0.4-0.9,0.4-1.2,0.3c-0.4,0-0.6-0.1-0.8,0.2c-0.2,0.2-0.2,0.4-0.2,0.8c0,0.4,0.1,0.8-0.3,1.2C12.4,50,12,50,11.6,49.9
				c-0.4,0-0.6-0.1-0.8,0.2c-0.2,0.2-0.2,0.4-0.2,0.8c0,0.4,0.1,0.8-0.3,1.2c-0.4,0.4-0.9,0.4-1.2,0.3c-0.4,0-0.6-0.1-0.8,0.2
				C8.3,52.6,8.2,52.7,8.1,52.7z"/>
		</g>
	</g>
	<g>
		<g>
			<path fill="#262626" d="M182.2,43c-0.3,0-0.6-0.2-0.8-0.3c-0.3-0.2-0.5-0.3-0.8-0.2c-0.1,0.1-0.3,0-0.4-0.2
				c-0.1-0.1,0-0.3,0.2-0.4c0.5-0.2,0.9,0,1.3,0.2c0.3,0.2,0.5,0.3,0.8,0.2s0.3-0.3,0.5-0.7c0.1-0.4,0.2-0.8,0.8-1
				c0.5-0.2,0.9,0,1.3,0.2c0.3,0.2,0.5,0.3,0.8,0.2s0.3-0.3,0.5-0.7c0.1-0.4,0.2-0.8,0.8-1c0.5-0.2,0.9,0,1.3,0.2
				c0.3,0.2,0.5,0.3,0.8,0.2c0.1-0.1,0.3,0,0.4,0.2c0.1,0.1,0,0.3-0.2,0.4c-0.5,0.2-0.9,0-1.3-0.2c-0.3-0.2-0.5-0.3-0.8-0.2
				s-0.3,0.3-0.5,0.7c-0.1,0.4-0.2,0.8-0.8,1c-0.5,0.2-0.9,0-1.3-0.2c-0.3-0.2-0.5-0.3-0.8-0.2s-0.3,0.3-0.5,0.7
				c-0.1,0.4-0.2,0.8-0.8,1C182.5,43,182.3,43,182.2,43z"/>
		</g>
	</g>
	<g>
		<g>
			<path fill="#262626" d="M201.2,140.8c-0.4,0-0.7-0.2-0.9-0.4c-0.3-0.2-0.5-0.4-0.8-0.3c-0.2,0-0.3-0.1-0.3-0.2
				c0-0.1,0.1-0.3,0.2-0.3c0.6-0.1,0.9,0.2,1.2,0.4s0.5,0.4,0.8,0.3c0.3-0.1,0.4-0.3,0.5-0.6c0.2-0.3,0.4-0.8,0.9-0.9
				c0.6-0.1,0.9,0.2,1.2,0.4s0.5,0.4,0.8,0.3c0.3-0.1,0.4-0.3,0.5-0.6c0.2-0.3,0.4-0.8,0.9-0.9c0.6-0.1,0.9,0.2,1.2,0.4
				s0.5,0.4,0.8,0.3c0.1,0,0.3,0.1,0.3,0.2c0,0.1-0.1,0.3-0.2,0.3c-0.6,0.1-0.9-0.2-1.2-0.4s-0.5-0.3-0.8-0.3
				c-0.3,0.1-0.4,0.3-0.5,0.6c-0.2,0.3-0.4,0.8-0.9,0.9c-0.6,0.1-0.9-0.2-1.2-0.4s-0.5-0.3-0.8-0.3c-0.3,0.1-0.4,0.3-0.5,0.6
				c-0.2,0.3-0.4,0.8-0.9,0.9C201.4,140.8,201.3,140.8,201.2,140.8z"/>
		</g>
	</g>
	<g>
		<g>
			<path fill="#262626" d="M156.9,118.8c-0.3,0-0.6-0.1-0.8-0.2c-0.3-0.2-0.5-0.3-0.8-0.1c-0.1,0.1-0.3,0-0.4-0.1
				c-0.1-0.1,0-0.3,0.1-0.4c0.5-0.2,0.9,0,1.3,0.1c0.3,0.2,0.5,0.3,0.8,0.1c0.3-0.1,0.3-0.3,0.4-0.7c0.1-0.4,0.2-0.8,0.7-1.1
				c0.5-0.2,0.9,0,1.3,0.1c0.3,0.2,0.5,0.3,0.8,0.1c0.3-0.1,0.3-0.3,0.4-0.7c0.1-0.4,0.2-0.8,0.7-1.1c0.5-0.2,0.9,0,1.3,0.1
				c0.3,0.2,0.5,0.3,0.8,0.1c0.1-0.1,0.3,0,0.4,0.1c0.1,0.1,0,0.3-0.1,0.4c-0.5,0.2-0.9,0-1.3-0.1c-0.3-0.2-0.5-0.3-0.8-0.1
				c-0.3,0.1-0.3,0.3-0.4,0.7c-0.1,0.4-0.2,0.8-0.7,1.1c-0.5,0.2-0.9,0-1.3-0.1c-0.3-0.2-0.5-0.3-0.8-0.1c-0.3,0.1-0.3,0.3-0.4,0.7
				c-0.1,0.4-0.2,0.8-0.7,1.1C157.3,118.8,157.1,118.8,156.9,118.8z"/>
		</g>
	</g>
</g>
<g>
	<g>
		<path fill="#262626" d="M191.6,107.7c-0.2,0.1-0.5,0-0.6-0.3c-0.1-0.2,0-0.5,0.3-0.6c0.2-0.1,0.5,0,0.6,0.3
			C192,107.3,191.9,107.6,191.6,107.7z"/>
	</g>
	<g>
		<path fill="#262626" d="M188.1,111.7c-0.2,0.1-0.5,0-0.6-0.3c-0.1-0.2,0-0.5,0.3-0.6c0.2-0.1,0.5,0,0.6,0.3
			C188.5,111.3,188.4,111.6,188.1,111.7z"/>
	</g>
	<g>
		<path fill="#262626" d="M200.5,110.7c-0.2,0.1-0.5,0-0.6-0.3c-0.1-0.2,0-0.5,0.3-0.6c0.2-0.1,0.5,0,0.6,0.3
			C200.9,110.3,200.8,110.6,200.5,110.7z"/>
	</g>
	<g>
		<path fill="#262626" d="M200.6,108.3c-0.2,0.1-0.5,0-0.6-0.3c-0.1-0.2,0-0.5,0.3-0.6c0.2-0.1,0.5,0,0.6,0.3
			C201,107.9,200.9,108.2,200.6,108.3z"/>
	</g>
	<g>
		<path fill="#262626" d="M195.5,119.6c-0.2,0.1-0.5,0-0.6-0.3c-0.1-0.2,0-0.5,0.3-0.6c0.2-0.1,0.5,0,0.6,0.3
			C195.9,119.2,195.7,119.5,195.5,119.6z"/>
	</g>
	<g>
		<path fill="#262626" d="M185.7,115.7c-0.2,0.1-0.5,0-0.6-0.3c-0.1-0.2,0-0.5,0.3-0.6c0.2-0.1,0.5,0,0.6,0.3
			C186,115.3,185.9,115.6,185.7,115.7z"/>
	</g>
	<g>
		<path fill="#262626" d="M198.2,111.7c-0.2,0.1-0.5,0-0.6-0.3c-0.1-0.2,0-0.5,0.3-0.6c0.2-0.1,0.5,0,0.6,0.3
			C198.6,111.3,198.4,111.6,198.2,111.7z"/>
	</g>
	<g>
		<path fill="#262626" d="M198.3,107.2c-0.2,0.1-0.5,0-0.6-0.3c-0.1-0.2,0-0.5,0.3-0.6c0.2-0.1,0.5,0,0.6,0.3
			C198.7,106.8,198.6,107.1,198.3,107.2z"/>
	</g>
	<g>
		<path fill="#262626" d="M185.8,112.4c-0.2,0.1-0.5,0-0.6-0.3c-0.1-0.2,0-0.5,0.3-0.6c0.2-0.1,0.5,0,0.6,0.3
			C186.1,112,186,112.3,185.8,112.4z"/>
	</g>
	<g>
		<path fill="#262626" d="M195.6,110.6c-0.2,0.1-0.5,0-0.6-0.3c-0.1-0.2,0-0.5,0.3-0.6c0.2-0.1,0.5,0,0.6,0.3
			C195.9,110.2,195.8,110.5,195.6,110.6z"/>
	</g>
	<g>
		<path fill="#262626" d="M198.3,127.8c-0.2,0.1-0.5,0-0.6-0.3c-0.1-0.2,0-0.5,0.3-0.6c0.2-0.1,0.5,0,0.6,0.3
			C198.6,127.4,198.5,127.7,198.3,127.8z"/>
	</g>
	<g>
		<path fill="#262626" d="M190.3,112c-0.2,0.1-0.5,0-0.6-0.3c-0.1-0.2,0-0.5,0.3-0.6c0.2-0.1,0.5,0,0.6,0.3
			C190.7,111.6,190.5,111.9,190.3,112z"/>
	</g>
	<g>
		<path fill="#262626" d="M189.6,121.3c-0.2,0.1-0.5,0-0.6-0.3c-0.1-0.2,0-0.5,0.3-0.6c0.2-0.1,0.5,0,0.6,0.3
			C190,120.9,189.8,121.2,189.6,121.3z"/>
	</g>
	<g>
		<path fill="#262626" d="M193.8,106.6c-0.2,0.1-0.5,0-0.6-0.3c-0.1-0.2,0-0.5,0.3-0.6c0.2-0.1,0.5,0,0.6,0.3
			C194.2,106.2,194.1,106.5,193.8,106.6z"/>
	</g>
	<g>
		<path fill="#262626" d="M196.1,112.5c-0.2,0.1-0.5,0-0.6-0.3c-0.1-0.2,0-0.5,0.3-0.6c0.2-0.1,0.5,0,0.6,0.3
			C196.4,112.1,196.3,112.4,196.1,112.5z"/>
	</g>
	<g>
		<path fill="#262626" d="M191,116c-0.2,0.1-0.5,0-0.6-0.3c-0.1-0.2,0-0.5,0.3-0.6c0.2-0.1,0.5,0,0.6,0.3
			C191.4,115.6,191.3,115.9,191,116z"/>
	</g>
	<g>
		<path fill="#262626" d="M183.6,113.3c-0.2,0.1-0.5,0-0.6-0.3c-0.1-0.2,0-0.5,0.3-0.6c0.2-0.1,0.5,0,0.6,0.3
			C184,112.9,183.8,113.2,183.6,113.3z"/>
	</g>
	<g>
		<path fill="#262626" d="M196.9,108.9c-0.2,0.1-0.5,0-0.6-0.3c-0.1-0.2,0-0.5,0.3-0.6c0.2-0.1,0.5,0,0.6,0.3
			C197.2,108.5,197.1,108.8,196.9,108.9z"/>
	</g>
	<g>
		<path fill="#262626" d="M199.2,120.3c-0.2,0.1-0.5,0-0.6-0.3c-0.1-0.2,0-0.5,0.3-0.6c0.2-0.1,0.5,0,0.6,0.3
			C199.5,119.9,199.4,120.2,199.2,120.3z"/>
	</g>
	<g>
		<path fill="#262626" d="M192.8,117.1c-0.2,0.1-0.5,0-0.6-0.3c-0.1-0.2,0-0.5,0.3-0.6c0.2-0.1,0.5,0,0.6,0.3
			C193.2,116.7,193.1,117,192.8,117.1z"/>
	</g>
	<g>
		<path fill="#262626" d="M191,110.2c-0.2,0.1-0.5,0-0.6-0.3c-0.1-0.2,0-0.5,0.3-0.6c0.2-0.1,0.5,0,0.6,0.3
			C191.3,109.8,191.2,110.1,191,110.2z"/>
	</g>
	<g>
		<path fill="#262626" d="M200.8,106.3c-0.2,0.1-0.5,0-0.6-0.3c-0.1-0.2,0-0.5,0.3-0.6c0.2-0.1,0.5,0,0.6,0.3
			C201.1,105.9,201,106.1,200.8,106.3z"/>
	</g>
	<g>
		<path fill="#262626" d="M194.8,108.5c-0.2,0.1-0.5,0-0.6-0.3c-0.1-0.2,0-0.5,0.3-0.6c0.2-0.1,0.5,0,0.6,0.3
			C195.1,108.1,195,108.3,194.8,108.5z"/>
	</g>
	<g>
		<path fill="#262626" d="M189.3,119.3c-0.2,0.1-0.5,0-0.6-0.3c-0.1-0.2,0-0.5,0.3-0.6c0.2-0.1,0.5,0,0.6,0.3
			C189.7,119,189.6,119.2,189.3,119.3z"/>
	</g>
	<g>
		<path fill="#262626" d="M180.4,114c-0.2,0.1-0.5,0-0.6-0.3c-0.1-0.2,0-0.5,0.3-0.6c0.2-0.1,0.5,0,0.6,0.3
			C180.8,113.6,180.6,113.9,180.4,114z"/>
	</g>
	<g>
		<path fill="#262626" d="M200.1,113.1c-0.2,0.1-0.5,0-0.6-0.3c-0.1-0.2,0-0.5,0.3-0.6c0.2-0.1,0.5,0,0.6,0.3
			C200.4,112.7,200.3,113,200.1,113.1z"/>
	</g>
	<g>
		<path fill="#262626" d="M195.9,114.9c-0.2,0.1-0.5,0-0.6-0.3c-0.1-0.2,0-0.5,0.3-0.6c0.2-0.1,0.5,0,0.6,0.3
			C196.2,114.5,196.1,114.7,195.9,114.9z"/>
	</g>
	<g>
		<path fill="#262626" d="M178.7,113c-0.2,0.1-0.5,0-0.6-0.3c-0.1-0.2,0-0.5,0.3-0.6c0.2-0.1,0.5,0,0.6,0.3
			C179.1,112.6,179,112.9,178.7,113z"/>
	</g>
	<g>
		<path fill="#262626" d="M181.9,115.4c-0.2,0.1-0.5,0-0.6-0.3c-0.1-0.2,0-0.5,0.3-0.6c0.2-0.1,0.5,0,0.6,0.3
			C182.2,115,182.1,115.3,181.9,115.4z"/>
	</g>
	<g>
		<path fill="#262626" d="M193.6,115.4c-0.2,0.1-0.5,0-0.6-0.3c-0.1-0.2,0-0.5,0.3-0.6c0.2-0.1,0.5,0,0.6,0.3
			C194,115,193.9,115.3,193.6,115.4z"/>
	</g>
	<g>
		<path fill="#262626" d="M192.3,120.5c-0.2,0.1-0.5,0-0.6-0.3c-0.1-0.2,0-0.5,0.3-0.6c0.2-0.1,0.5,0,0.6,0.3
			C192.7,120.2,192.6,120.4,192.3,120.5z"/>
	</g>
	<g>
		<path fill="#262626" d="M189.5,114c-0.2,0.1-0.5,0-0.6-0.3c-0.1-0.2,0-0.5,0.3-0.6c0.2-0.1,0.5,0,0.6,0.3
			C189.8,113.6,189.7,113.9,189.5,114z"/>
	</g>
	<g>
		<path fill="#262626" d="M197.2,121.2c-0.2,0.1-0.5,0-0.6-0.3c-0.1-0.2,0-0.5,0.3-0.6c0.2-0.1,0.5,0,0.6,0.3
			C197.5,120.8,197.4,121.1,197.2,121.2z"/>
	</g>
	<g>
		<path fill="#262626" d="M183.5,111.2c-0.2,0.1-0.5,0-0.6-0.3c-0.1-0.2,0-0.5,0.3-0.6c0.2-0.1,0.5,0,0.6,0.3
			C183.9,110.8,183.8,111.1,183.5,111.2z"/>
	</g>
	<g>
		<path fill="#262626" d="M196.1,126.2c-0.2,0.1-0.5,0-0.6-0.3c-0.1-0.2,0-0.5,0.3-0.6c0.2-0.1,0.5,0,0.6,0.3
			C196.4,125.8,196.3,126.1,196.1,126.2z"/>
	</g>
	<g>
		<path fill="#262626" d="M199.5,104.5c-0.2,0.1-0.5,0-0.6-0.3c-0.1-0.2,0-0.5,0.3-0.6c0.2-0.1,0.5,0,0.6,0.3
			S199.8,104.4,199.5,104.5z"/>
	</g>
	<g>
		<path fill="#262626" d="M197.5,118.6c-0.2,0.1-0.5,0-0.6-0.3c-0.1-0.2,0-0.5,0.3-0.6c0.2-0.1,0.5,0,0.6,0.3
			C197.9,118.2,197.8,118.5,197.5,118.6z"/>
	</g>
	<g>
		<path fill="#262626" d="M187.3,119.6c-0.2,0.1-0.5,0-0.6-0.3c-0.1-0.2,0-0.5,0.3-0.6c0.2-0.1,0.5,0,0.6,0.3
			C187.6,119.3,187.5,119.5,187.3,119.6z"/>
	</g>
	<g>
		<path fill="#262626" d="M195.3,121.8c-0.2,0.1-0.5,0-0.6-0.3c-0.1-0.2,0-0.5,0.3-0.6c0.2-0.1,0.5,0,0.6,0.3
			C195.6,121.5,195.5,121.7,195.3,121.8z"/>
	</g>
	<g>
		<path fill="#262626" d="M197.6,105.1c-0.2,0.1-0.5,0-0.6-0.3c-0.1-0.2,0-0.5,0.3-0.6c0.2-0.1,0.5,0,0.6,0.3
			C198,104.7,197.9,105,197.6,105.1z"/>
	</g>
	<g>
		<path fill="#262626" d="M197.8,124c-0.2,0.1-0.5,0-0.6-0.3c-0.1-0.2,0-0.5,0.3-0.6c0.2-0.1,0.5,0,0.6,0.3
			C198.2,123.6,198.1,123.9,197.8,124z"/>
	</g>
	<g>
		<path fill="#262626" d="M191.7,113.7c-0.2,0.1-0.5,0-0.6-0.3c-0.1-0.2,0-0.5,0.3-0.6c0.2-0.1,0.5,0,0.6,0.3
			C192.1,113.3,192,113.6,191.7,113.7z"/>
	</g>
	<g>
		<path fill="#262626" d="M198,116.4c-0.2,0.1-0.5,0-0.6-0.3c-0.1-0.2,0-0.5,0.3-0.6c0.2-0.1,0.5,0,0.6,0.3
			C198.3,116,198.2,116.3,198,116.4z"/>
	</g>
	<g>
		<path fill="#262626" d="M189.5,108.7c-0.2,0.1-0.5,0-0.6-0.3c-0.1-0.2,0-0.5,0.3-0.6c0.2-0.1,0.5,0,0.6,0.3
			C189.9,108.3,189.8,108.6,189.5,108.7z"/>
	</g>
	<g>
		<path fill="#262626" d="M196,106.2c-0.2,0.1-0.5,0-0.6-0.3c-0.1-0.2,0-0.5,0.3-0.6c0.2-0.1,0.5,0,0.6,0.3
			C196.3,105.8,196.2,106.1,196,106.2z"/>
	</g>
	<g>
		<path fill="#262626" d="M191.5,122.7c-0.2,0.1-0.5,0-0.6-0.3c-0.1-0.2,0-0.5,0.3-0.6c0.2-0.1,0.5,0,0.6,0.3
			C191.8,122.3,191.7,122.6,191.5,122.7z"/>
	</g>
	<g>
		<path fill="#262626" d="M181.4,112.1c-0.2,0.1-0.5,0-0.6-0.3c-0.1-0.2,0-0.5,0.3-0.6c0.2-0.1,0.5,0,0.6,0.3
			C181.8,111.7,181.7,112,181.4,112.1z"/>
	</g>
	<g>
		<path fill="#262626" d="M195.8,124.1c-0.2,0.1-0.5,0-0.6-0.3c-0.1-0.2,0-0.5,0.3-0.6c0.2-0.1,0.5,0,0.6,0.3
			C196.2,123.7,196.1,124,195.8,124.1z"/>
	</g>
	<g>
		<path fill="#262626" d="M183.7,115.3c-0.2,0.1-0.5,0-0.6-0.3c-0.1-0.2,0-0.5,0.3-0.6c0.2-0.1,0.5,0,0.6,0.3
			C184.1,114.9,183.9,115.2,183.7,115.3z"/>
	</g>
	<g>
		<path fill="#262626" d="M198.8,109.5c-0.2,0.1-0.5,0-0.6-0.3c-0.1-0.2,0-0.5,0.3-0.6c0.2-0.1,0.5,0,0.6,0.3
			C199.2,109.1,199,109.4,198.8,109.5z"/>
	</g>
	<g>
		<path fill="#262626" d="M191.2,118.6c-0.2,0.1-0.5,0-0.6-0.3c-0.1-0.2,0-0.5,0.3-0.6c0.2-0.1,0.5,0,0.6,0.3
			C191.6,118.2,191.5,118.5,191.2,118.6z"/>
	</g>
	<g>
		<path fill="#262626" d="M186.5,117.8c-0.2,0.1-0.5,0-0.6-0.3c-0.1-0.2,0-0.5,0.3-0.6c0.2-0.1,0.5,0,0.6,0.3
			C186.9,117.4,186.8,117.7,186.5,117.8z"/>
	</g>
	<g>
		<path fill="#262626" d="M187,113.9c-0.2,0.1-0.5,0-0.6-0.3c-0.1-0.2,0-0.5,0.3-0.6c0.2-0.1,0.5,0,0.6,0.3
			C187.3,113.5,187.2,113.8,187,113.9z"/>
	</g>
	<g>
		<path fill="#262626" d="M193.1,111.4c-0.2,0.1-0.5,0-0.6-0.3c-0.1-0.2,0-0.5,0.3-0.6c0.2-0.1,0.5,0,0.6,0.3
			C193.5,111,193.4,111.3,193.1,111.4z"/>
	</g>
	<g>
		<path fill="#262626" d="M199.7,117.9c-0.2,0.1-0.5,0-0.6-0.3c-0.1-0.2,0-0.5,0.3-0.6c0.2-0.1,0.5,0,0.6,0.3
			C200,117.5,199.9,117.8,199.7,117.9z"/>
	</g>
	<g>
		<path fill="#262626" d="M199.1,122.6c-0.2,0.1-0.5,0-0.6-0.3c-0.1-0.2,0-0.5,0.3-0.6c0.2-0.1,0.5,0,0.6,0.3
			C199.5,122.2,199.3,122.5,199.1,122.6z"/>
	</g>
	<g>
		<path fill="#262626" d="M187.7,109.5c-0.2,0.1-0.5,0-0.6-0.3c-0.1-0.2,0-0.5,0.3-0.6c0.2-0.1,0.5,0,0.6,0.3
			C188.1,109.1,187.9,109.4,187.7,109.5z"/>
	</g>
	<g>
		<path fill="#262626" d="M189.1,117.2c-0.2,0.1-0.5,0-0.6-0.3c-0.1-0.2,0-0.5,0.3-0.6c0.2-0.1,0.5,0,0.6,0.3
			C189.4,116.8,189.3,117.1,189.1,117.2z"/>
	</g>
	<g>
		<path fill="#262626" d="M184.2,117.5c-0.2,0.1-0.5,0-0.6-0.3c-0.1-0.2,0-0.5,0.3-0.6c0.2-0.1,0.5,0,0.6,0.3
			C184.6,117.2,184.5,117.4,184.2,117.5z"/>
	</g>
	<g>
		<path fill="#262626" d="M198.7,125.8c-0.2,0.1-0.5,0-0.6-0.3c-0.1-0.2,0-0.5,0.3-0.6c0.2-0.1,0.5,0,0.6,0.3
			C199,125.4,198.9,125.7,198.7,125.8z"/>
	</g>
	<g>
		<path fill="#262626" d="M201.4,103.7c-0.2,0.1-0.5,0-0.6-0.3c-0.1-0.2,0-0.5,0.3-0.6c0.2-0.1,0.5,0,0.6,0.3
			C201.7,103.3,201.6,103.6,201.4,103.7z"/>
	</g>
	<g>
		<path fill="#262626" d="M188,115.6c-0.2,0.1-0.5,0-0.6-0.3c-0.1-0.2,0-0.5,0.3-0.6c0.2-0.1,0.5,0,0.6,0.3
			C188.4,115.2,188.3,115.5,188,115.6z"/>
	</g>
	<g>
		<path fill="#262626" d="M185.7,110.3c-0.2,0.1-0.5,0-0.6-0.3c-0.1-0.2,0-0.5,0.3-0.6c0.2-0.1,0.5,0,0.6,0.3
			C186,109.9,185.9,110.2,185.7,110.3z"/>
	</g>
	<g>
		<path fill="#262626" d="M194,113.3c-0.2,0.1-0.5,0-0.6-0.3c-0.1-0.2,0-0.5,0.3-0.6c0.2-0.1,0.5,0,0.6,0.3
			C194.3,112.9,194.2,113.2,194,113.3z"/>
	</g>
	<g>
		<path fill="#262626" d="M199.9,115.3c-0.2,0.1-0.5,0-0.6-0.3c-0.1-0.2,0-0.5,0.3-0.6c0.2-0.1,0.5,0,0.6,0.3
			C200.3,114.9,200.2,115.2,199.9,115.3z"/>
	</g>
	<g>
		<path fill="#262626" d="M193.7,124.5c-0.2,0.1-0.5,0-0.6-0.3c-0.1-0.2,0-0.5,0.3-0.6c0.2-0.1,0.5,0,0.6,0.3
			C194.1,124.1,193.9,124.4,193.7,124.5z"/>
	</g>
	<g>
		<path fill="#262626" d="M195.7,117c-0.2,0.1-0.5,0-0.6-0.3c-0.1-0.2,0-0.5,0.3-0.6c0.2-0.1,0.5,0,0.6,0.3
			C196.1,116.6,196,116.9,195.7,117z"/>
	</g>
	<g>
		<path fill="#262626" d="M197.8,114.1c-0.2,0.1-0.5,0-0.6-0.3c-0.1-0.2,0-0.5,0.3-0.6c0.2-0.1,0.5,0,0.6,0.3
			C198.2,113.7,198.1,114,197.8,114.1z"/>
	</g>
	<g>
		<path fill="#262626" d="M193.5,122.4c-0.2,0.1-0.5,0-0.6-0.3c-0.1-0.2,0-0.5,0.3-0.6c0.2-0.1,0.5,0,0.6,0.3
			C193.8,122,193.7,122.3,193.5,122.4z"/>
	</g>
	<g>
		<path fill="#262626" d="M193.9,118.7c-0.2,0.1-0.5,0-0.6-0.3c-0.1-0.2,0-0.5,0.3-0.6c0.2-0.1,0.5,0,0.6,0.3
			C194.2,118.3,194.1,118.6,193.9,118.7z"/>
	</g>
	<g>
		<path fill="#262626" d="M193,109.4c-0.2,0.1-0.5,0-0.6-0.3c-0.1-0.2,0-0.5,0.3-0.6c0.2-0.1,0.5,0,0.6,0.3
			C193.3,109,193.2,109.3,193,109.4z"/>
	</g>
</g>
<g>
	<g>
		<path fill="#FFFFFF" d="M101.4,43.1c0.1,0.3-0.1,0.7-0.4,0.8s-0.7-0.1-0.8-0.4c-0.1-0.3,0.1-0.7,0.4-0.8
			C101,42.6,101.3,42.8,101.4,43.1z"/>
	</g>
	<g>
		<path fill="#FFFFFF" d="M86.6,30.8c0.1,0.3-0.1,0.7-0.4,0.8c-0.3,0.1-0.7-0.1-0.8-0.4c-0.1-0.3,0.1-0.7,0.4-0.8
			C86.2,30.2,86.5,30.4,86.6,30.8z"/>
	</g>
	<g>
		<path fill="#FFFFFF" d="M102.9,35.9c0.1,0.3-0.1,0.7-0.4,0.8s-0.7-0.1-0.8-0.4c-0.1-0.3,0.1-0.7,0.4-0.8
			C102.5,35.4,102.8,35.6,102.9,35.9z"/>
	</g>
	<g>
		<path fill="#FFFFFF" d="M91.4,44.8c0.1,0.3-0.1,0.7-0.4,0.8s-0.7-0.1-0.8-0.4c-0.1-0.3,0.1-0.7,0.4-0.8
			C91,44.3,91.3,44.5,91.4,44.8z"/>
	</g>
	<g>
		<path fill="#FFFFFF" d="M83.6,39.5c0.1,0.3-0.1,0.7-0.4,0.8s-0.7-0.1-0.8-0.4c-0.1-0.3,0.1-0.7,0.4-0.8
			C83.2,39,83.5,39.2,83.6,39.5z"/>
	</g>
	<g>
		<path fill="#FFFFFF" d="M84.2,32.6c0.1,0.3-0.1,0.7-0.4,0.8S83.1,33.3,83,33c-0.1-0.3,0.1-0.7,0.4-0.8
			C83.8,32,84.1,32.2,84.2,32.6z"/>
	</g>
	<g>
		<path fill="#FFFFFF" d="M90.6,32.6c0.1,0.3-0.1,0.7-0.4,0.8s-0.7-0.1-0.8-0.4c-0.1-0.3,0.1-0.7,0.4-0.8S90.5,32.2,90.6,32.6z"/>
	</g>
	<g>
		<path fill="#FFFFFF" d="M95.5,46.3c0.1,0.3-0.1,0.7-0.4,0.8s-0.7-0.1-0.8-0.4c-0.1-0.3,0.1-0.7,0.4-0.8S95.4,46,95.5,46.3z"/>
	</g>
	<g>
		<path fill="#FFFFFF" d="M87,49.5c0.1,0.3-0.1,0.7-0.4,0.8s-0.7-0.1-0.8-0.4c-0.1-0.3,0.1-0.7,0.4-0.8C86.5,48.9,86.9,49.1,87,49.5
			z"/>
	</g>
	<g>
		<path fill="#FFFFFF" d="M96.6,27.6c0.1,0.3-0.1,0.7-0.4,0.8c-0.3,0.1-0.7-0.1-0.8-0.4c-0.1-0.3,0.1-0.7,0.4-0.8
			C96.2,27,96.5,27.2,96.6,27.6z"/>
	</g>
	<g>
		<path fill="#FFFFFF" d="M93.5,48c0.1,0.3-0.1,0.7-0.4,0.8s-0.7-0.1-0.8-0.4c-0.1-0.3,0.1-0.7,0.4-0.8C93.1,47.5,93.4,47.7,93.5,48
			z"/>
	</g>
	<g>
		<path fill="#FFFFFF" d="M97.2,44.3c0.1,0.3-0.1,0.7-0.4,0.8S96.1,45,96,44.7s0.1-0.7,0.4-0.8C96.7,43.8,97.1,44,97.2,44.3z"/>
	</g>
	<g>
		<path fill="#FFFFFF" d="M99.2,30.4c0.1,0.3-0.1,0.7-0.4,0.8c-0.3,0.1-0.7-0.1-0.8-0.4c-0.1-0.3,0.1-0.7,0.4-0.8
			S99.1,30.1,99.2,30.4z"/>
	</g>
	<g>
		<path fill="#FFFFFF" d="M105.6,36.1c0.1,0.3-0.1,0.7-0.4,0.8s-0.7-0.1-0.8-0.4c-0.1-0.3,0.1-0.7,0.4-0.8S105.5,35.8,105.6,36.1z"
			/>
	</g>
	<g>
		<path fill="#FFFFFF" d="M103.6,43.4c0.1,0.3-0.1,0.7-0.4,0.8s-0.7-0.1-0.8-0.4c-0.1-0.3,0.1-0.7,0.4-0.8S103.5,43.1,103.6,43.4z"
			/>
	</g>
	<g>
		<path fill="#FFFFFF" d="M96.5,39.8c0.1,0.3-0.1,0.7-0.4,0.8s-0.7-0.1-0.8-0.4c-0.1-0.3,0.1-0.7,0.4-0.8S96.4,39.5,96.5,39.8z"/>
	</g>
	<g>
		<path fill="#FFFFFF" d="M84,44.8c0.1,0.3-0.1,0.7-0.4,0.8s-0.7-0.1-0.8-0.4c-0.1-0.3,0.1-0.7,0.4-0.8S83.9,44.5,84,44.8z"/>
	</g>
	<g>
		<path fill="#FFFFFF" d="M94.7,38.4c0.1,0.3-0.1,0.7-0.4,0.8s-0.7-0.1-0.8-0.4c-0.1-0.3,0.1-0.7,0.4-0.8
			C94.3,37.9,94.7,38.1,94.7,38.4z"/>
	</g>
	<g>
		<path fill="#FFFFFF" d="M102.1,39c0.1,0.3-0.1,0.7-0.4,0.8s-0.7-0.1-0.8-0.4c-0.1-0.3,0.1-0.7,0.4-0.8S102,38.7,102.1,39z"/>
	</g>
	<g>
		<path fill="#FFFFFF" d="M86.6,39.7c0.1,0.3-0.1,0.7-0.4,0.8s-0.7-0.1-0.8-0.4c-0.1-0.3,0.1-0.7,0.4-0.8
			C86.2,39.2,86.5,39.4,86.6,39.7z"/>
	</g>
	<g>
		<path fill="#FFFFFF" d="M82.5,31.5c0.1,0.3-0.1,0.7-0.4,0.8s-0.7-0.1-0.8-0.4s0.1-0.7,0.4-0.8C82.1,31,82.5,31.2,82.5,31.5z"/>
	</g>
	<g>
		<path fill="#FFFFFF" d="M87,28.6c0.1,0.3-0.1,0.7-0.4,0.8c-0.3,0.1-0.7-0.1-0.8-0.4c-0.1-0.3,0.1-0.7,0.4-0.8
			C86.6,28.1,86.9,28.2,87,28.6z"/>
	</g>
	<g>
		<path fill="#FFFFFF" d="M100,34.4c0.1,0.3-0.1,0.7-0.4,0.8s-0.7-0.1-0.8-0.4c-0.1-0.3,0.1-0.7,0.4-0.8
			C99.6,33.9,99.9,34.1,100,34.4z"/>
	</g>
	<g>
		<path fill="#FFFFFF" d="M79.2,38.1c0.1,0.3-0.1,0.7-0.4,0.8s-0.7-0.1-0.8-0.4c-0.1-0.3,0.1-0.7,0.4-0.8
			C78.8,37.6,79.1,37.8,79.2,38.1z"/>
	</g>
	<g>
		<path fill="#FFFFFF" d="M92.7,55c0.1,0.3-0.1,0.7-0.4,0.8s-0.7-0.1-0.8-0.4c-0.1-0.3,0.1-0.7,0.4-0.8S92.6,54.7,92.7,55z"/>
	</g>
	<g>
		<path fill="#FFFFFF" d="M90.2,34.7c0.1,0.3-0.1,0.7-0.4,0.8c-0.4,0-0.8-0.2-0.8-0.5c-0.1-0.3,0.1-0.7,0.4-0.8S90.1,34.3,90.2,34.7
			z"/>
	</g>
	<g>
		<path fill="#FFFFFF" d="M96.7,29.9c0.1,0.3-0.1,0.7-0.4,0.8c-0.3,0.1-0.7-0.1-0.8-0.4s0.1-0.7,0.4-0.8
			C96.3,29.4,96.6,29.5,96.7,29.9z"/>
	</g>
	<g>
		<path fill="#FFFFFF" d="M102.6,48c0.1,0.3-0.1,0.7-0.4,0.8s-0.7-0.1-0.8-0.4c-0.1-0.3,0.1-0.7,0.4-0.8
			C102.2,47.5,102.5,47.7,102.6,48z"/>
	</g>
	<g>
		<path fill="#FFFFFF" d="M95.2,41.6c0.1,0.3-0.1,0.7-0.4,0.8S94.1,42.3,94,42c-0.1-0.3,0.1-0.7,0.4-0.8
			C94.8,41.1,95.1,41.3,95.2,41.6z"/>
	</g>
	<g>
		<path fill="#FFFFFF" d="M98.8,40.2c0.1,0.3-0.1,0.7-0.4,0.8s-0.7-0.1-0.8-0.4c-0.1-0.3,0.1-0.7,0.4-0.8S98.7,39.9,98.8,40.2z"/>
	</g>
	<g>
		<path fill="#FFFFFF" d="M100.8,32.3c0.1,0.3-0.1,0.7-0.4,0.8s-0.7-0.1-0.8-0.4c-0.1-0.3,0.1-0.7,0.4-0.8
			C100.4,31.8,100.7,32,100.8,32.3z"/>
	</g>
	<g>
		<path fill="#FFFFFF" d="M78.9,41.1c0.1,0.3-0.1,0.7-0.4,0.8s-0.7-0.1-0.8-0.4c-0.1-0.3,0.1-0.7,0.4-0.8
			C78.5,40.6,78.8,40.8,78.9,41.1z"/>
	</g>
	<g>
		<path fill="#FFFFFF" d="M83,50.6c0.1,0.3-0.1,0.7-0.4,0.8s-0.7-0.1-0.8-0.4c-0.1-0.3,0.1-0.7,0.4-0.8S82.9,50.3,83,50.6z"/>
	</g>
	<g>
		<path fill="#FFFFFF" d="M84.7,41.3c0.1,0.3-0.1,0.7-0.4,0.8s-0.7-0.1-0.8-0.4c-0.1-0.3,0.1-0.7,0.4-0.8
			C84.3,40.8,84.6,41,84.7,41.3z"/>
	</g>
	<g>
		<path fill="#FFFFFF" d="M92.8,34.9c0.1,0.3-0.1,0.7-0.4,0.8s-0.7-0.1-0.8-0.4c-0.1-0.3,0.1-0.7,0.4-0.8
			C92.4,34.3,92.8,34.5,92.8,34.9z"/>
	</g>
	<g>
		<path fill="#FFFFFF" d="M93.1,40.6c0.1,0.3-0.1,0.7-0.4,0.8S92,41.3,91.9,41c-0.1-0.3,0.1-0.7,0.4-0.8C92.7,40,93,40.2,93.1,40.6z
			"/>
	</g>
	<g>
		<path fill="#FFFFFF" d="M82.6,35.2c0.1,0.3-0.1,0.7-0.4,0.8s-0.7-0.1-0.8-0.4c-0.1-0.3,0.1-0.7,0.4-0.8S82.5,34.8,82.6,35.2z"/>
	</g>
	<g>
		<path fill="#FFFFFF" d="M84.9,37.6c0.1,0.3-0.1,0.7-0.4,0.8s-0.7-0.1-0.8-0.4c-0.1-0.3,0.1-0.7,0.4-0.8S84.8,37.3,84.9,37.6z"/>
	</g>
	<g>
		<path fill="#FFFFFF" d="M87.3,47c0.1,0.3-0.1,0.7-0.4,0.8s-0.7-0.1-0.8-0.4c-0.1-0.3,0.1-0.7,0.4-0.8S87.2,46.7,87.3,47z"/>
	</g>
	<g>
		<path fill="#FFFFFF" d="M89.7,36.8c0.1,0.3-0.1,0.7-0.4,0.8s-0.7-0.1-0.8-0.4c-0.1-0.3,0.1-0.7,0.4-0.8
			C89.3,36.3,89.6,36.5,89.7,36.8z"/>
	</g>
	<g>
		<path fill="#FFFFFF" d="M84.8,49.3c0.1,0.3-0.1,0.7-0.4,0.8s-0.7-0.1-0.8-0.4c-0.1-0.3,0.1-0.7,0.4-0.8
			C84.4,48.8,84.7,49,84.8,49.3z"/>
	</g>
	<g>
		<path fill="#FFFFFF" d="M96.2,34c0.1,0.3-0.1,0.7-0.4,0.8s-0.7-0.1-0.8-0.4c-0.1-0.3,0.1-0.7,0.4-0.8C95.8,33.5,96.1,33.7,96.2,34
			z"/>
	</g>
	<g>
		<path fill="#FFFFFF" d="M101.5,29.9c0.1,0.3-0.1,0.7-0.4,0.8c-0.3,0.1-0.7-0.1-0.8-0.4c-0.1-0.3,0.1-0.7,0.4-0.8
			C101.1,29.3,101.4,29.5,101.5,29.9z"/>
	</g>
	<g>
		<path fill="#FFFFFF" d="M102.2,51.7c0.1,0.3-0.1,0.7-0.4,0.8s-0.7-0.1-0.8-0.4c-0.1-0.3,0.1-0.7,0.4-0.8S102.1,51.4,102.2,51.7z"
			/>
	</g>
	<g>
		<path fill="#FFFFFF" d="M82.9,43c0.1,0.3-0.1,0.7-0.4,0.8s-0.7-0.1-0.8-0.4c-0.1-0.3,0.1-0.7,0.4-0.8S82.8,42.7,82.9,43z"/>
	</g>
	<g>
		<path fill="#FFFFFF" d="M89.1,48.8c0.1,0.3-0.1,0.7-0.4,0.8s-0.7-0.1-0.8-0.4c-0.1-0.3,0.1-0.7,0.4-0.8
			C88.7,48.3,89,48.5,89.1,48.8z"/>
	</g>
	<g>
		<path fill="#FFFFFF" d="M99.8,51.6c0.1,0.3-0.1,0.7-0.4,0.8s-0.7-0.1-0.8-0.4c-0.1-0.3,0.1-0.7,0.4-0.8S99.7,51.3,99.8,51.6z"/>
	</g>
	<g>
		<path fill="#FFFFFF" d="M81.6,41.4c0.1,0.3-0.1,0.7-0.4,0.8s-0.7-0.1-0.8-0.4c-0.1-0.3,0.1-0.7,0.4-0.8S81.5,41.1,81.6,41.4z"/>
	</g>
	<g>
		<path fill="#FFFFFF" d="M97.1,37.4c0.1,0.3-0.1,0.7-0.4,0.8s-0.7-0.1-0.8-0.4c-0.1-0.3,0.1-0.7,0.4-0.8C96.7,36.9,97,37,97.1,37.4
			z"/>
	</g>
	<g>
		<path fill="#FFFFFF" d="M92.1,30.9c0.1,0.3-0.1,0.7-0.4,0.8s-0.7-0.1-0.8-0.4c-0.1-0.3,0.1-0.7,0.4-0.8S92,30.6,92.1,30.9z"/>
	</g>
	<g>
		<path fill="#FFFFFF" d="M80.2,46.4c0.1,0.3-0.1,0.7-0.4,0.8s-0.7-0.1-0.8-0.4c-0.1-0.3,0.1-0.7,0.4-0.8
			C79.8,45.9,80.1,46.1,80.2,46.4z"/>
	</g>
	<g>
		<path fill="#FFFFFF" d="M92.8,50.8c0.1,0.3-0.1,0.7-0.4,0.8s-0.7-0.1-0.8-0.4c-0.1-0.3,0.1-0.7,0.4-0.8
			C92.4,50.2,92.7,50.4,92.8,50.8z"/>
	</g>
	<g>
		<path fill="#FFFFFF" d="M85,46.8c0.1,0.3-0.1,0.7-0.4,0.8s-0.7-0.1-0.8-0.4c-0.1-0.3,0.1-0.7,0.4-0.8C84.6,46.2,84.9,46.4,85,46.8
			z"/>
	</g>
	<g>
		<path fill="#FFFFFF" d="M92.2,27c0.1,0.3-0.1,0.7-0.4,0.8c-0.3,0.1-0.7-0.1-0.8-0.4c-0.1-0.3,0.1-0.7,0.4-0.8S92.1,26.7,92.2,27z"
			/>
	</g>
	<g>
		<path fill="#FFFFFF" d="M106.2,40.2c0.1,0.3-0.1,0.7-0.4,0.8s-0.7-0.1-0.8-0.4c-0.1-0.3,0.1-0.7,0.4-0.8S106.1,39.9,106.2,40.2z"
			/>
	</g>
	<g>
		<path fill="#FFFFFF" d="M90.5,40.6c0.1,0.3-0.1,0.7-0.4,0.8s-0.7-0.1-0.8-0.4c-0.1-0.3,0.1-0.7,0.4-0.8S90.4,40.2,90.5,40.6z"/>
	</g>
	<g>
		<path fill="#FFFFFF" d="M81.4,44.8c0.1,0.3-0.1,0.7-0.4,0.8s-0.7-0.1-0.8-0.4c-0.1-0.3,0.1-0.7,0.4-0.8S81.3,44.5,81.4,44.8z"/>
	</g>
	<g>
		<path fill="#FFFFFF" d="M94.5,27.4c0.1,0.3-0.1,0.7-0.4,0.8s-0.7-0.1-0.8-0.4c-0.1-0.3,0.1-0.7,0.4-0.8
			C94,26.9,94.4,27.1,94.5,27.4z"/>
	</g>
	<g>
		<path fill="#FFFFFF" d="M103.6,40.9c0.1,0.3-0.1,0.7-0.4,0.8s-0.7-0.1-0.8-0.4c-0.1-0.3,0.1-0.7,0.4-0.8
			C103.2,40.3,103.6,40.5,103.6,40.9z"/>
	</g>
	<g>
		<path fill="#FFFFFF" d="M100.9,41.1c0.1,0.3-0.1,0.7-0.4,0.8s-0.7-0.1-0.8-0.4c-0.1-0.3,0.1-0.7,0.4-0.8
			C100.5,40.6,100.8,40.7,100.9,41.1z"/>
	</g>
	<g>
		<path fill="#FFFFFF" d="M98.1,46.6c0.1,0.3-0.1,0.7-0.4,0.8S97,47.3,96.9,47c-0.1-0.3,0.1-0.7,0.4-0.8S98,46.3,98.1,46.6z"/>
	</g>
	<g>
		<path fill="#FFFFFF" d="M91.6,28.9c0.1,0.3-0.1,0.7-0.4,0.8s-0.7-0.1-0.8-0.4c-0.1-0.3,0.1-0.7,0.4-0.8
			C91.2,28.3,91.5,28.5,91.6,28.9z"/>
	</g>
	<g>
		<path fill="#FFFFFF" d="M87.1,37.1c0.1,0.3-0.1,0.7-0.4,0.8s-0.7-0.1-0.8-0.4c-0.1-0.3,0.1-0.7,0.4-0.8
			C86.7,36.6,87,36.8,87.1,37.1z"/>
	</g>
	<g>
		<path fill="#FFFFFF" d="M95.3,50.1c0.1,0.3-0.1,0.7-0.4,0.8s-0.7-0.1-0.8-0.4c-0.1-0.3,0.1-0.7,0.4-0.8
			C94.8,49.5,95.2,49.7,95.3,50.1z"/>
	</g>
	<g>
		<path fill="#FFFFFF" d="M89.9,43c0.1,0.3-0.1,0.7-0.4,0.8s-0.7-0.1-0.8-0.4s0.1-0.7,0.4-0.8C89.5,42.5,89.8,42.7,89.9,43z"/>
	</g>
	<g>
		<path fill="#FFFFFF" d="M88.1,32.5c0.1,0.3-0.1,0.7-0.4,0.8s-0.7-0.1-0.8-0.4c-0.1-0.3,0.1-0.7,0.4-0.8C87.7,32,88,32.2,88.1,32.5
			z"/>
	</g>
	<g>
		<path fill="#FFFFFF" d="M89,45.3c0.1,0.3-0.1,0.7-0.4,0.8s-0.7-0.1-0.8-0.4c-0.1-0.3,0.1-0.7,0.4-0.8S88.9,45,89,45.3z"/>
	</g>
	<g>
		<path fill="#FFFFFF" d="M103.9,49.9c0.1,0.3-0.1,0.7-0.4,0.8s-0.7-0.1-0.8-0.4c-0.1-0.3,0.1-0.7,0.4-0.8S103.8,49.5,103.9,49.9z"
			/>
	</g>
	<g>
		<path fill="#FFFFFF" d="M105.5,43.1c0.1,0.3-0.1,0.7-0.4,0.8s-0.7-0.1-0.8-0.4c-0.1-0.3,0.1-0.7,0.4-0.8
			C105.1,42.5,105.4,42.7,105.5,43.1z"/>
	</g>
	<g>
		<path fill="#FFFFFF" d="M94.9,43.7c0.1,0.3-0.1,0.7-0.4,0.8s-0.7-0.1-0.8-0.4c-0.1-0.3,0.1-0.7,0.4-0.8
			C94.5,43.1,94.8,43.3,94.9,43.7z"/>
	</g>
	<g>
		<path fill="#FFFFFF" d="M99.5,44.3c0.1,0.3-0.1,0.7-0.4,0.8s-0.7-0.1-0.8-0.4c-0.1-0.3,0.1-0.7,0.4-0.8
			C99.1,43.7,99.5,43.9,99.5,44.3z"/>
	</g>
	<g>
		<path fill="#FFFFFF" d="M99.1,28.3c0.1,0.3-0.1,0.7-0.4,0.8c-0.3,0.1-0.7-0.1-0.8-0.4c-0.1-0.3,0.1-0.7,0.4-0.8
			C98.7,27.8,99,28,99.1,28.3z"/>
	</g>
	<g>
		<path fill="#FFFFFF" d="M86.2,53.1c0.1,0.3-0.1,0.7-0.4,0.8s-0.7-0.1-0.8-0.4c-0.1-0.3,0.1-0.7,0.4-0.8S86.1,52.8,86.2,53.1z"/>
	</g>
	<g>
		<path fill="#FFFFFF" d="M94.2,30c0.1,0.3-0.1,0.7-0.4,0.8c-0.3,0.1-0.7-0.1-0.8-0.4c-0.1-0.3,0.1-0.7,0.4-0.8S94.1,29.7,94.2,30z"
			/>
	</g>
	<g>
		<path fill="#FFFFFF" d="M82.9,47.4c0.1,0.3-0.1,0.7-0.4,0.8s-0.7-0.1-0.8-0.4c-0.1-0.3,0.1-0.7,0.4-0.8
			C82.5,46.8,82.8,47,82.9,47.4z"/>
	</g>
	<g>
		<path fill="#FFFFFF" d="M92,38.7c0.1,0.3-0.1,0.7-0.4,0.8s-0.7-0.1-0.8-0.4c-0.1-0.3,0.1-0.7,0.4-0.8C91.6,38.2,91.9,38.4,92,38.7
			z"/>
	</g>
	<g>
		<path fill="#FFFFFF" d="M95.1,35.9c0.1,0.3-0.1,0.7-0.4,0.8s-0.7-0.1-0.8-0.4c-0.1-0.3,0.1-0.7,0.4-0.8
			C94.7,35.4,95,35.6,95.1,35.9z"/>
	</g>
	<g>
		<path fill="#FFFFFF" d="M81.4,48.7c0.1,0.3-0.1,0.7-0.4,0.8s-0.7-0.1-0.8-0.4c-0.1-0.3,0.1-0.7,0.4-0.8S81.3,48.4,81.4,48.7z"/>
	</g>
	<g>
		<path fill="#FFFFFF" d="M93.3,33c0.1,0.3-0.1,0.7-0.4,0.8s-0.7-0.1-0.8-0.4c-0.1-0.3,0.1-0.7,0.4-0.8C92.9,32.5,93.2,32.7,93.3,33
			z"/>
	</g>
	<g>
		<path fill="#FFFFFF" d="M105.4,47.8c0.1,0.3-0.1,0.7-0.4,0.8s-0.7-0.1-0.8-0.4c-0.1-0.3,0.1-0.7,0.4-0.8
			C105,47.3,105.3,47.5,105.4,47.8z"/>
	</g>
	<g>
		<path fill="#FFFFFF" d="M100.9,49.5c0.1,0.3-0.1,0.7-0.4,0.8s-0.7-0.1-0.8-0.4c-0.1-0.3,0.1-0.7,0.4-0.8
			C100.5,49,100.8,49.2,100.9,49.5z"/>
	</g>
	<g>
		<path fill="#FFFFFF" d="M102.6,33.8c0.1,0.3-0.1,0.7-0.4,0.8s-0.7-0.1-0.8-0.4c-0.1-0.3,0.1-0.7,0.4-0.8
			C102.2,33.2,102.5,33.4,102.6,33.8z"/>
	</g>
	<g>
		<path fill="#FFFFFF" d="M107.3,42.1c0.1,0.3-0.1,0.7-0.4,0.8s-0.7-0.1-0.8-0.4c-0.1-0.3,0.1-0.7,0.4-0.8
			C106.9,41.6,107.2,41.8,107.3,42.1z"/>
	</g>
	<g>
		<path fill="#FFFFFF" d="M100.8,36.7c0.1,0.3-0.1,0.7-0.4,0.8s-0.7-0.1-0.8-0.4c-0.1-0.3,0.1-0.7,0.4-0.8S100.7,36.3,100.8,36.7z"
			/>
	</g>
	<g>
		<path fill="#FFFFFF" d="M79.6,43.4c0.1,0.3-0.1,0.7-0.4,0.8s-0.7-0.1-0.8-0.4c-0.1-0.3,0.1-0.7,0.4-0.8S79.5,43.1,79.6,43.4z"/>
	</g>
	<g>
		<path fill="#FFFFFF" d="M90.7,47c0.1,0.3-0.1,0.7-0.4,0.8s-0.7-0.1-0.8-0.4c-0.1-0.3,0.1-0.7,0.4-0.8C90.3,46.5,90.6,46.7,90.7,47
			z"/>
	</g>
	<g>
		<path fill="#FFFFFF" d="M98,42.2c0.1,0.3-0.1,0.7-0.4,0.8s-0.7-0.1-0.8-0.4c-0.1-0.3,0.1-0.7,0.4-0.8C97.6,41.7,97.9,41.9,98,42.2
			z"/>
	</g>
	<g>
		<path fill="#FFFFFF" d="M90.2,51.6c0.1,0.3-0.1,0.7-0.4,0.8S89.1,52.3,89,52c-0.1-0.3,0.1-0.7,0.4-0.8S90.1,51.2,90.2,51.6z"/>
	</g>
	<g>
		<path fill="#FFFFFF" d="M80.8,39.4c0.1,0.3-0.1,0.7-0.4,0.8s-0.7-0.1-0.8-0.4c-0.1-0.3,0.1-0.7,0.4-0.8
			C80.4,38.9,80.7,39.1,80.8,39.4z"/>
	</g>
	<g>
		<path fill="#FFFFFF" d="M86.9,44.6c0.1,0.3-0.1,0.7-0.4,0.8s-0.7-0.1-0.8-0.4c-0.1-0.3,0.1-0.7,0.4-0.8S86.8,44.3,86.9,44.6z"/>
	</g>
	<g>
		<path fill="#FFFFFF" d="M92.4,36.8c0.1,0.3-0.1,0.7-0.4,0.8s-0.7-0.1-0.8-0.4c-0.1-0.3,0.1-0.7,0.4-0.8
			C92,36.3,92.3,36.5,92.4,36.8z"/>
	</g>
	<g>
		<path fill="#FFFFFF" d="M91.4,49.2c0.1,0.3-0.1,0.7-0.4,0.8s-0.7-0.1-0.8-0.4c-0.1-0.3,0.1-0.7,0.4-0.8
			C91,48.7,91.3,48.9,91.4,49.2z"/>
	</g>
	<g>
		<path fill="#FFFFFF" d="M92.5,42.7c0.1,0.3-0.1,0.7-0.4,0.8s-0.7-0.1-0.8-0.4c-0.1-0.3,0.1-0.7,0.4-0.8S92.4,42.4,92.5,42.7z"/>
	</g>
	<g>
		<path fill="#FFFFFF" d="M103.5,31.6c0.1,0.3-0.1,0.7-0.4,0.8c-0.3,0.1-0.7-0.1-0.8-0.4c-0.1-0.3,0.1-0.7,0.4-0.8
			C103.1,31,103.4,31.2,103.5,31.6z"/>
	</g>
	<g>
		<path fill="#FFFFFF" d="M93.4,45.6c0.1,0.3-0.1,0.7-0.4,0.8s-0.7-0.1-0.8-0.4c-0.1-0.3,0.1-0.7,0.4-0.8S93.3,45.3,93.4,45.6z"/>
	</g>
	<g>
		<path fill="#FFFFFF" d="M104,38.1c0.1,0.3-0.1,0.7-0.4,0.8s-0.7-0.1-0.8-0.4c-0.1-0.3,0.1-0.7,0.4-0.8
			C103.6,37.6,103.9,37.8,104,38.1z"/>
	</g>
	<g>
		<path fill="#FFFFFF" d="M98.6,49.3c0.1,0.3-0.1,0.7-0.4,0.8s-0.7-0.1-0.8-0.4c-0.1-0.3,0.1-0.7,0.4-0.8S98.5,49,98.6,49.3z"/>
	</g>
	<g>
		<path fill="#FFFFFF" d="M87.6,35.1c0.1,0.3-0.1,0.7-0.4,0.8s-0.7-0.1-0.8-0.4c-0.1-0.3,0.1-0.7,0.4-0.8
			C87.2,34.6,87.6,34.7,87.6,35.1z"/>
	</g>
	<g>
		<path fill="#FFFFFF" d="M106.4,38.2c0.1,0.3-0.1,0.7-0.4,0.8s-0.7-0.1-0.8-0.4c-0.1-0.3,0.1-0.7,0.4-0.8
			C106,37.7,106.3,37.9,106.4,38.2z"/>
	</g>
	<g>
		<path fill="#FFFFFF" d="M105,33.9c0.1,0.3-0.1,0.7-0.4,0.8s-0.7-0.1-0.8-0.4c-0.1-0.3,0.1-0.7,0.4-0.8
			C104.6,33.4,104.9,33.6,105,33.9z"/>
	</g>
	<g>
		<path fill="#FFFFFF" d="M86,33.5c0.1,0.3-0.1,0.7-0.4,0.8s-0.7-0.1-0.8-0.4c-0.1-0.3,0.1-0.7,0.4-0.8C85.6,33,85.9,33.2,86,33.5z"
			/>
	</g>
	<g>
		<path fill="#FFFFFF" d="M92.1,53c0.1,0.3-0.1,0.7-0.4,0.8s-0.7-0.1-0.8-0.4c-0.1-0.3,0.1-0.7,0.4-0.8C91.7,52.5,92,52.7,92.1,53z"
			/>
	</g>
	<g>
		<path fill="#FFFFFF" d="M97.3,51.5c0.1,0.3-0.1,0.7-0.4,0.8s-0.7-0.1-0.8-0.4c-0.1-0.3,0.1-0.7,0.4-0.8
			C96.9,51,97.3,51.2,97.3,51.5z"/>
	</g>
	<g>
		<path fill="#FFFFFF" d="M95.5,32c0.1,0.3-0.1,0.7-0.4,0.8s-0.7-0.1-0.8-0.4c-0.1-0.3,0.1-0.7,0.4-0.8C95,31.4,95.4,31.6,95.5,32z"
			/>
	</g>
	<g>
		<path fill="#FFFFFF" d="M98.1,35.4c0.1,0.3-0.1,0.7-0.4,0.8s-0.7-0.1-0.8-0.4c-0.1-0.3,0.1-0.7,0.4-0.8
			C97.7,34.9,98,35.1,98.1,35.4z"/>
	</g>
	<g>
		<path fill="#FFFFFF" d="M88.1,54c0.1,0.3-0.1,0.7-0.4,0.8s-0.7-0.1-0.8-0.4c-0.1-0.3,0.1-0.7,0.4-0.8C87.7,53.4,88,53.6,88.1,54z"
			/>
	</g>
	<g>
		<path fill="#FFFFFF" d="M97.1,53.9c0.1,0.3-0.1,0.7-0.4,0.8s-0.7-0.1-0.8-0.4c-0.1-0.3,0.1-0.7,0.4-0.8S97,53.6,97.1,53.9z"/>
	</g>
	<g>
		<path fill="#FFFFFF" d="M88.2,41.6c0.1,0.3-0.1,0.7-0.4,0.8S87.1,42.3,87,42c-0.1-0.3,0.1-0.7,0.4-0.8
			C87.8,41.1,88.1,41.3,88.2,41.6z"/>
	</g>
	<g>
		<path fill="#FFFFFF" d="M96.4,48.4c0.1,0.3-0.1,0.7-0.4,0.8s-0.7-0.1-0.8-0.4c-0.1-0.3,0.1-0.7,0.4-0.8C96,47.9,96.3,48,96.4,48.4
			z"/>
	</g>
	<g>
		<path fill="#FFFFFF" d="M100.2,46.9c0.1,0.3-0.1,0.7-0.4,0.8s-0.7-0.1-0.8-0.4c-0.1-0.3,0.1-0.7,0.4-0.8
			C99.8,46.4,100.1,46.6,100.2,46.9z"/>
	</g>
	<g>
		<path fill="#FFFFFF" d="M99.5,38.3c0.1,0.3-0.1,0.7-0.4,0.8s-0.7-0.1-0.8-0.4c-0.1-0.3,0.1-0.7,0.4-0.8
			C99.1,37.8,99.4,38,99.5,38.3z"/>
	</g>
	<g>
		<path fill="#FFFFFF" d="M89.4,28c0.1,0.3-0.1,0.7-0.4,0.8c-0.3,0.1-0.7-0.1-0.8-0.4c-0.1-0.3,0.1-0.7,0.4-0.8
			C88.9,27.5,89.3,27.7,89.4,28z"/>
	</g>
	<g>
		<path fill="#FFFFFF" d="M89.3,30.4c0.1,0.3-0.1,0.7-0.4,0.8c-0.3,0.1-0.7-0.1-0.8-0.4c-0.1-0.3,0.1-0.7,0.4-0.8
			C88.8,29.9,89.2,30.1,89.3,30.4z"/>
	</g>
	<g>
		<path fill="#FFFFFF" d="M82.3,37.6c0.1,0.3-0.1,0.7-0.4,0.8s-0.7-0.1-0.8-0.4c-0.1-0.3,0.1-0.7,0.4-0.8S82.2,37.3,82.3,37.6z"/>
	</g>
	<g>
		<path fill="#FFFFFF" d="M84.6,29.8c0.1,0.3-0.1,0.7-0.4,0.8s-0.7-0.1-0.8-0.4c-0.1-0.3,0.1-0.7,0.4-0.8
			C84.1,29.2,84.5,29.4,84.6,29.8z"/>
	</g>
	<g>
		<path fill="#FFFFFF" d="M88.1,51.4c0.1,0.3-0.1,0.7-0.4,0.8s-0.7-0.1-0.8-0.4c-0.1-0.3,0.1-0.7,0.4-0.8S88,51,88.1,51.4z"/>
	</g>
	<g>
		<path fill="#FFFFFF" d="M84.6,35.4c0.1,0.3-0.1,0.7-0.4,0.8s-0.7-0.1-0.8-0.4c-0.1-0.3,0.1-0.7,0.4-0.8
			C84.2,34.8,84.5,35,84.6,35.4z"/>
	</g>
	<g>
		<path fill="#FFFFFF" d="M89,38.9c0.1,0.3-0.1,0.7-0.4,0.8s-0.7-0.1-0.8-0.4c-0.1-0.3,0.1-0.7,0.4-0.8C88.5,38.3,88.9,38.5,89,38.9
			z"/>
	</g>
	<g>
		<path fill="#FFFFFF" d="M102.1,45.5c0.1,0.3-0.1,0.7-0.4,0.8s-0.7-0.1-0.8-0.4c-0.1-0.3,0.1-0.7,0.4-0.8S102,45.2,102.1,45.5z"/>
	</g>
	<g>
		<path fill="#FFFFFF" d="M86.1,42.8c0.1,0.3-0.1,0.7-0.4,0.8s-0.7-0.1-0.8-0.4c-0.1-0.3,0.1-0.7,0.4-0.8
			C85.7,42.2,86.1,42.4,86.1,42.8z"/>
	</g>
	<g>
		<path fill="#FFFFFF" d="M99.6,53.5c0.1,0.3-0.1,0.7-0.4,0.8s-0.7-0.1-0.8-0.4c-0.1-0.3,0.1-0.7,0.4-0.8
			C99.2,53,99.5,53.2,99.6,53.5z"/>
	</g>
	<g>
		<path fill="#FFFFFF" d="M104.2,46c0.1,0.3-0.1,0.7-0.4,0.8s-0.7-0.1-0.8-0.4c-0.1-0.3,0.1-0.7,0.4-0.8
			C103.8,45.4,104.2,45.6,104.2,46z"/>
	</g>
	<g>
		<path fill="#FFFFFF" d="M106.5,45.2c0.1,0.3-0.1,0.7-0.4,0.8s-0.7-0.1-0.8-0.4c-0.1-0.3,0.1-0.7,0.4-0.8
			C106.1,44.7,106.4,44.9,106.5,45.2z"/>
	</g>
	<g>
		<path fill="#FFFFFF" d="M81.1,33.7c0.1,0.3-0.1,0.7-0.4,0.8s-0.7-0.1-0.8-0.4c-0.1-0.3,0.1-0.7,0.4-0.8
			C80.6,33.1,81,33.3,81.1,33.7z"/>
	</g>
	<g>
		<path fill="#FFFFFF" d="M84.8,51.8c0.1,0.3-0.1,0.7-0.4,0.8s-0.7-0.1-0.8-0.4c-0.1-0.3,0.1-0.7,0.4-0.8
			C84.4,51.3,84.7,51.5,84.8,51.8z"/>
	</g>
	<g>
		<path fill="#FFFFFF" d="M98.1,32.5c0.1,0.3-0.1,0.7-0.4,0.8s-0.7-0.1-0.8-0.4c-0.1-0.3,0.1-0.7,0.4-0.8C97.7,32,98,32.2,98.1,32.5
			z"/>
	</g>
	<g>
		<path fill="#FFFFFF" d="M80.1,36c0.1,0.3-0.1,0.7-0.4,0.8s-0.7-0.1-0.8-0.4c-0.1-0.3,0.1-0.7,0.4-0.8S80,35.6,80.1,36z"/>
	</g>
	<g>
		<path fill="#FFFFFF" d="M94.8,52.3c0.1,0.3-0.1,0.7-0.4,0.8s-0.7-0.1-0.8-0.4c-0.1-0.3,0.1-0.7,0.4-0.8
			C94.4,51.8,94.7,52,94.8,52.3z"/>
	</g>
	<g>
		<path fill="#FFFFFF" d="M94.9,54.6c0.1,0.3-0.1,0.7-0.4,0.8s-0.7-0.1-0.8-0.4c-0.1-0.3,0.1-0.7,0.4-0.8
			C94.5,54.1,94.8,54.2,94.9,54.6z"/>
	</g>
	<g>
		<path fill="#FFFFFF" d="M90.1,54.5c0.1,0.3-0.1,0.7-0.4,0.8s-0.7-0.1-0.8-0.4c-0.1-0.3,0.1-0.7,0.4-0.8C89.7,54,90,54.1,90.1,54.5
			z"/>
	</g>
</g>
<g>
	<g>
		<path fill="#FFFFFF" d="M100.4,136.6c0.1,0.3-0.1,0.7-0.4,0.8c-0.3,0.1-0.7-0.1-0.8-0.4s0.1-0.7,0.4-0.8
			C100,136.1,100.3,136.3,100.4,136.6z"/>
	</g>
	<g>
		<path fill="#FFFFFF" d="M85.6,124.3c0.1,0.3-0.1,0.7-0.4,0.8s-0.7-0.1-0.8-0.4c-0.1-0.3,0.1-0.7,0.4-0.8
			C85.2,123.7,85.5,123.9,85.6,124.3z"/>
	</g>
	<g>
		<path fill="#FFFFFF" d="M101.9,129.4c0.1,0.3-0.1,0.7-0.4,0.8c-0.3,0.1-0.7-0.1-0.8-0.4s0.1-0.7,0.4-0.8
			C101.5,128.9,101.8,129.1,101.9,129.4z"/>
	</g>
	<g>
		<path fill="#FFFFFF" d="M90.4,138.3c0.1,0.3-0.1,0.7-0.4,0.8c-0.3,0.1-0.7-0.1-0.8-0.4s0.1-0.7,0.4-0.8
			C90,137.8,90.3,138,90.4,138.3z"/>
	</g>
	<g>
		<path fill="#FFFFFF" d="M82.6,133c0.1,0.3-0.1,0.7-0.4,0.8c-0.3,0.1-0.7-0.1-0.8-0.4s0.1-0.7,0.4-0.8
			C82.2,132.5,82.5,132.7,82.6,133z"/>
	</g>
	<g>
		<path fill="#FFFFFF" d="M83.2,126.1c0.1,0.3-0.1,0.7-0.4,0.8s-0.7-0.1-0.8-0.4c-0.1-0.3,0.1-0.7,0.4-0.8
			C82.8,125.5,83.1,125.7,83.2,126.1z"/>
	</g>
	<g>
		<path fill="#FFFFFF" d="M89.6,126.1c0.1,0.3-0.1,0.7-0.4,0.8s-0.7-0.1-0.8-0.4c-0.1-0.3,0.1-0.7,0.4-0.8S89.5,125.7,89.6,126.1z"
			/>
	</g>
	<g>
		<path fill="#FFFFFF" d="M94.5,139.8c0.1,0.3-0.1,0.7-0.4,0.8c-0.3,0.1-0.7-0.1-0.8-0.4c-0.1-0.3,0.1-0.7,0.4-0.8
			C94,139.3,94.4,139.5,94.5,139.8z"/>
	</g>
	<g>
		<path fill="#FFFFFF" d="M86,143c0.1,0.3-0.1,0.7-0.4,0.8c-0.3,0.1-0.7-0.1-0.8-0.4c-0.1-0.3,0.1-0.7,0.4-0.8
			C85.5,142.4,85.9,142.6,86,143z"/>
	</g>
	<g>
		<path fill="#FFFFFF" d="M95.6,121.1c0.1,0.3-0.1,0.7-0.4,0.8c-0.3,0.1-0.7-0.1-0.8-0.4c-0.1-0.3,0.1-0.7,0.4-0.8
			C95.2,120.5,95.5,120.7,95.6,121.1z"/>
	</g>
	<g>
		<path fill="#FFFFFF" d="M92.5,141.5c0.1,0.3-0.1,0.7-0.4,0.8c-0.3,0.1-0.7-0.1-0.8-0.4c-0.1-0.3,0.1-0.7,0.4-0.8
			C92.1,141,92.4,141.2,92.5,141.5z"/>
	</g>
	<g>
		<path fill="#FFFFFF" d="M96.2,137.8c0.1,0.3-0.1,0.7-0.4,0.8c-0.3,0.1-0.7-0.1-0.8-0.4c-0.1-0.3,0.1-0.7,0.4-0.8
			C95.7,137.3,96.1,137.5,96.2,137.8z"/>
	</g>
	<g>
		<path fill="#FFFFFF" d="M98.2,123.9c0.1,0.3-0.1,0.7-0.4,0.8s-0.7-0.1-0.8-0.4c-0.1-0.3,0.1-0.7,0.4-0.8S98.1,123.6,98.2,123.9z"
			/>
	</g>
	<g>
		<path fill="#FFFFFF" d="M104.6,129.6c0.1,0.3-0.1,0.7-0.4,0.8c-0.3,0.1-0.7-0.1-0.8-0.4s0.1-0.7,0.4-0.8
			C104.1,129.1,104.5,129.3,104.6,129.6z"/>
	</g>
	<g>
		<path fill="#FFFFFF" d="M102.6,136.9c0.1,0.3-0.1,0.7-0.4,0.8c-0.3,0.1-0.7-0.1-0.8-0.4s0.1-0.7,0.4-0.8
			C102.1,136.4,102.5,136.6,102.6,136.9z"/>
	</g>
	<g>
		<path fill="#FFFFFF" d="M95.5,133.3c0.1,0.3-0.1,0.7-0.4,0.8c-0.3,0.1-0.7-0.1-0.8-0.4c-0.1-0.3,0.1-0.7,0.4-0.8
			C95,132.8,95.4,133,95.5,133.3z"/>
	</g>
	<g>
		<path fill="#FFFFFF" d="M83,138.3c0.1,0.3-0.1,0.7-0.4,0.8c-0.3,0.1-0.7-0.1-0.8-0.4c-0.1-0.3,0.1-0.7,0.4-0.8
			C82.5,137.8,82.9,138,83,138.3z"/>
	</g>
	<g>
		<path fill="#FFFFFF" d="M93.7,131.9c0.1,0.3-0.1,0.7-0.4,0.8c-0.3,0.1-0.7-0.1-0.8-0.4c-0.1-0.3,0.1-0.7,0.4-0.8
			C93.3,131.4,93.7,131.6,93.7,131.9z"/>
	</g>
	<g>
		<path fill="#FFFFFF" d="M101.1,132.5c0.1,0.3-0.1,0.7-0.4,0.8c-0.3,0.1-0.7-0.1-0.8-0.4s0.1-0.7,0.4-0.8
			C100.6,132,101,132.2,101.1,132.5z"/>
	</g>
	<g>
		<path fill="#FFFFFF" d="M85.6,133.2c0.1,0.3-0.1,0.7-0.4,0.8c-0.3,0.1-0.7-0.1-0.8-0.4c-0.1-0.3,0.1-0.7,0.4-0.8
			C85.2,132.7,85.5,132.9,85.6,133.2z"/>
	</g>
	<g>
		<path fill="#FFFFFF" d="M81.5,125c0.1,0.3-0.1,0.7-0.4,0.8s-0.7-0.1-0.8-0.4c-0.1-0.3,0.1-0.7,0.4-0.8
			C81.1,124.5,81.5,124.7,81.5,125z"/>
	</g>
	<g>
		<path fill="#FFFFFF" d="M86,122.1c0.1,0.3-0.1,0.7-0.4,0.8c-0.3,0.1-0.7-0.1-0.8-0.4c-0.1-0.3,0.1-0.7,0.4-0.8
			C85.6,121.6,85.9,121.7,86,122.1z"/>
	</g>
	<g>
		<path fill="#FFFFFF" d="M99,127.9c0.1,0.3-0.1,0.7-0.4,0.8c-0.3,0.1-0.7-0.1-0.8-0.4c-0.1-0.3,0.1-0.7,0.4-0.8
			C98.6,127.4,98.9,127.6,99,127.9z"/>
	</g>
	<g>
		<path fill="#FFFFFF" d="M78.2,131.6c0.1,0.3-0.1,0.7-0.4,0.8c-0.3,0.1-0.7-0.1-0.8-0.4c-0.1-0.3,0.1-0.7,0.4-0.8
			C77.8,131.1,78.1,131.3,78.2,131.6z"/>
	</g>
	<g>
		<path fill="#FFFFFF" d="M91.7,148.5c0.1,0.3-0.1,0.7-0.4,0.8c-0.3,0.1-0.7-0.1-0.8-0.4c-0.1-0.3,0.1-0.7,0.4-0.8
			C91.2,148,91.6,148.2,91.7,148.5z"/>
	</g>
	<g>
		<path fill="#FFFFFF" d="M89.2,128.2c0.1,0.3-0.1,0.7-0.4,0.8c-0.4,0-0.8-0.2-0.8-0.5c-0.1-0.3,0.1-0.7,0.4-0.8
			S89.1,127.8,89.2,128.2z"/>
	</g>
	<g>
		<path fill="#FFFFFF" d="M95.7,123.4c0.1,0.3-0.1,0.7-0.4,0.8s-0.7-0.1-0.8-0.4c-0.1-0.3,0.1-0.7,0.4-0.8
			C95.3,122.9,95.6,123,95.7,123.4z"/>
	</g>
	<g>
		<path fill="#FFFFFF" d="M101.6,141.5c0.1,0.3-0.1,0.7-0.4,0.8c-0.3,0.1-0.7-0.1-0.8-0.4s0.1-0.7,0.4-0.8
			C101.2,141,101.5,141.2,101.6,141.5z"/>
	</g>
	<g>
		<path fill="#FFFFFF" d="M94.2,135.1c0.1,0.3-0.1,0.7-0.4,0.8c-0.3,0.1-0.7-0.1-0.8-0.4c-0.1-0.3,0.1-0.7,0.4-0.8
			C93.8,134.6,94.1,134.8,94.2,135.1z"/>
	</g>
	<g>
		<path fill="#FFFFFF" d="M97.8,133.7c0.1,0.3-0.1,0.7-0.4,0.8c-0.3,0.1-0.7-0.1-0.8-0.4c-0.1-0.3,0.1-0.7,0.4-0.8
			C97.3,133.2,97.7,133.4,97.8,133.7z"/>
	</g>
	<g>
		<path fill="#FFFFFF" d="M99.8,125.8c0.1,0.3-0.1,0.7-0.4,0.8s-0.7-0.1-0.8-0.4c-0.1-0.3,0.1-0.7,0.4-0.8
			C99.4,125.3,99.7,125.5,99.8,125.8z"/>
	</g>
	<g>
		<path fill="#FFFFFF" d="M77.9,134.6c0.1,0.3-0.1,0.7-0.4,0.8c-0.3,0.1-0.7-0.1-0.8-0.4s0.1-0.7,0.4-0.8
			C77.5,134.1,77.8,134.3,77.9,134.6z"/>
	</g>
	<g>
		<path fill="#FFFFFF" d="M82,144.1c0.1,0.3-0.1,0.7-0.4,0.8c-0.3,0.1-0.7-0.1-0.8-0.4c-0.1-0.3,0.1-0.7,0.4-0.8
			C81.5,143.6,81.9,143.8,82,144.1z"/>
	</g>
	<g>
		<path fill="#FFFFFF" d="M83.7,134.8c0.1,0.3-0.1,0.7-0.4,0.8c-0.3,0.1-0.7-0.1-0.8-0.4c-0.1-0.3,0.1-0.7,0.4-0.8
			C83.3,134.3,83.6,134.5,83.7,134.8z"/>
	</g>
	<g>
		<path fill="#FFFFFF" d="M91.8,128.4c0.1,0.3-0.1,0.7-0.4,0.8c-0.3,0.1-0.7-0.1-0.8-0.4c-0.1-0.3,0.1-0.7,0.4-0.8
			C91.4,127.8,91.8,128,91.8,128.4z"/>
	</g>
	<g>
		<path fill="#FFFFFF" d="M92.1,134.1c0.1,0.3-0.1,0.7-0.4,0.8c-0.3,0.1-0.7-0.1-0.8-0.4s0.1-0.7,0.4-0.8
			C91.7,133.5,92,133.7,92.1,134.1z"/>
	</g>
	<g>
		<path fill="#FFFFFF" d="M81.6,128.7c0.1,0.3-0.1,0.7-0.4,0.8c-0.3,0.1-0.7-0.1-0.8-0.4c-0.1-0.3,0.1-0.7,0.4-0.8
			C81.1,128.2,81.5,128.3,81.6,128.7z"/>
	</g>
	<g>
		<path fill="#FFFFFF" d="M83.9,131.1c0.1,0.3-0.1,0.7-0.4,0.8c-0.3,0.1-0.7-0.1-0.8-0.4s0.1-0.7,0.4-0.8
			C83.4,130.6,83.8,130.8,83.9,131.1z"/>
	</g>
	<g>
		<path fill="#FFFFFF" d="M86.3,140.5c0.1,0.3-0.1,0.7-0.4,0.8c-0.3,0.1-0.7-0.1-0.8-0.4c-0.1-0.3,0.1-0.7,0.4-0.8
			C85.8,140,86.2,140.2,86.3,140.5z"/>
	</g>
	<g>
		<path fill="#FFFFFF" d="M88.7,130.3c0.1,0.3-0.1,0.7-0.4,0.8c-0.3,0.1-0.7-0.1-0.8-0.4c-0.1-0.3,0.1-0.7,0.4-0.8
			C88.3,129.8,88.6,130,88.7,130.3z"/>
	</g>
	<g>
		<path fill="#FFFFFF" d="M83.8,142.8c0.1,0.3-0.1,0.7-0.4,0.8c-0.3,0.1-0.7-0.1-0.8-0.4c-0.1-0.3,0.1-0.7,0.4-0.8
			C83.4,142.3,83.7,142.5,83.8,142.8z"/>
	</g>
	<g>
		<path fill="#FFFFFF" d="M95.2,127.5c0.1,0.3-0.1,0.7-0.4,0.8c-0.3,0.1-0.7-0.1-0.8-0.4c-0.1-0.3,0.1-0.7,0.4-0.8
			C94.8,127,95.1,127.2,95.2,127.5z"/>
	</g>
	<g>
		<path fill="#FFFFFF" d="M100.5,123.4c0.1,0.3-0.1,0.7-0.4,0.8s-0.7-0.1-0.8-0.4c-0.1-0.3,0.1-0.7,0.4-0.8
			C100.1,122.8,100.4,123,100.5,123.4z"/>
	</g>
	<g>
		<path fill="#FFFFFF" d="M101.2,145.2c0.1,0.3-0.1,0.7-0.4,0.8c-0.3,0.1-0.7-0.1-0.8-0.4c-0.1-0.3,0.1-0.7,0.4-0.8
			C100.7,144.7,101.1,144.9,101.2,145.2z"/>
	</g>
	<g>
		<path fill="#FFFFFF" d="M81.9,136.5c0.1,0.3-0.1,0.7-0.4,0.8c-0.3,0.1-0.7-0.1-0.8-0.4s0.1-0.7,0.4-0.8
			C81.4,136,81.8,136.2,81.9,136.5z"/>
	</g>
	<g>
		<path fill="#FFFFFF" d="M88.1,142.3c0.1,0.3-0.1,0.7-0.4,0.8c-0.3,0.1-0.7-0.1-0.8-0.4s0.1-0.7,0.4-0.8
			C87.7,141.8,88,142,88.1,142.3z"/>
	</g>
	<g>
		<path fill="#FFFFFF" d="M98.8,145.1c0.1,0.3-0.1,0.7-0.4,0.8c-0.3,0.1-0.7-0.1-0.8-0.4c-0.1-0.3,0.1-0.7,0.4-0.8
			C98.3,144.6,98.7,144.8,98.8,145.1z"/>
	</g>
	<g>
		<path fill="#FFFFFF" d="M80.6,134.9c0.1,0.3-0.1,0.7-0.4,0.8c-0.3,0.1-0.7-0.1-0.8-0.4s0.1-0.7,0.4-0.8
			C80.1,134.4,80.5,134.6,80.6,134.9z"/>
	</g>
	<g>
		<path fill="#FFFFFF" d="M96.1,130.9c0.1,0.3-0.1,0.7-0.4,0.8c-0.3,0.1-0.7-0.1-0.8-0.4s0.1-0.7,0.4-0.8
			C95.7,130.4,96,130.5,96.1,130.9z"/>
	</g>
	<g>
		<path fill="#FFFFFF" d="M91.1,124.4c0.1,0.3-0.1,0.7-0.4,0.8s-0.7-0.1-0.8-0.4c-0.1-0.3,0.1-0.7,0.4-0.8S91,124.1,91.1,124.4z"/>
	</g>
	<g>
		<path fill="#FFFFFF" d="M79.2,139.9c0.1,0.3-0.1,0.7-0.4,0.8c-0.3,0.1-0.7-0.1-0.8-0.4c-0.1-0.3,0.1-0.7,0.4-0.8
			C78.8,139.4,79.1,139.6,79.2,139.9z"/>
	</g>
	<g>
		<path fill="#FFFFFF" d="M91.8,144.3c0.1,0.3-0.1,0.7-0.4,0.8c-0.3,0.1-0.7-0.1-0.8-0.4c-0.1-0.3,0.1-0.7,0.4-0.8
			C91.4,143.7,91.7,143.9,91.8,144.3z"/>
	</g>
	<g>
		<path fill="#FFFFFF" d="M84,140.3c0.1,0.3-0.1,0.7-0.4,0.8c-0.3,0.1-0.7-0.1-0.8-0.4c-0.1-0.3,0.1-0.7,0.4-0.8
			C83.6,139.7,83.9,139.9,84,140.3z"/>
	</g>
	<g>
		<path fill="#FFFFFF" d="M91.2,120.5c0.1,0.3-0.1,0.7-0.4,0.8s-0.7-0.1-0.8-0.4c-0.1-0.3,0.1-0.7,0.4-0.8S91.1,120.2,91.2,120.5z"
			/>
	</g>
	<g>
		<path fill="#FFFFFF" d="M105.2,133.7c0.1,0.3-0.1,0.7-0.4,0.8c-0.3,0.1-0.7-0.1-0.8-0.4c-0.1-0.3,0.1-0.7,0.4-0.8
			C104.7,133.2,105.1,133.4,105.2,133.7z"/>
	</g>
	<g>
		<path fill="#FFFFFF" d="M89.5,134.1c0.1,0.3-0.1,0.7-0.4,0.8c-0.3,0.1-0.7-0.1-0.8-0.4c-0.1-0.3,0.1-0.7,0.4-0.8
			C89,133.6,89.4,133.7,89.5,134.1z"/>
	</g>
	<g>
		<path fill="#FFFFFF" d="M80.4,138.3c0.1,0.3-0.1,0.7-0.4,0.8c-0.3,0.1-0.7-0.1-0.8-0.4s0.1-0.7,0.4-0.8
			C79.9,137.8,80.3,138,80.4,138.3z"/>
	</g>
	<g>
		<path fill="#FFFFFF" d="M93.5,120.9c0.1,0.3-0.1,0.7-0.4,0.8s-0.7-0.1-0.8-0.4c-0.1-0.3,0.1-0.7,0.4-0.8
			C93,120.4,93.4,120.6,93.5,120.9z"/>
	</g>
	<g>
		<path fill="#FFFFFF" d="M102.6,134.4c0.1,0.3-0.1,0.7-0.4,0.8c-0.3,0.1-0.7-0.1-0.8-0.4s0.1-0.7,0.4-0.8
			C102.2,133.8,102.6,134,102.6,134.4z"/>
	</g>
	<g>
		<path fill="#FFFFFF" d="M99.9,134.6c0.1,0.3-0.1,0.7-0.4,0.8c-0.3,0.1-0.7-0.1-0.8-0.4s0.1-0.7,0.4-0.8
			C99.5,134.1,99.8,134.2,99.9,134.6z"/>
	</g>
	<g>
		<path fill="#FFFFFF" d="M97.1,140.1c0.1,0.3-0.1,0.7-0.4,0.8c-0.3,0.1-0.7-0.1-0.8-0.4s0.1-0.7,0.4-0.8
			C96.6,139.6,97,139.8,97.1,140.1z"/>
	</g>
	<g>
		<path fill="#FFFFFF" d="M90.6,122.4c0.1,0.3-0.1,0.7-0.4,0.8s-0.7-0.1-0.8-0.4c-0.1-0.3,0.1-0.7,0.4-0.8
			C90.2,121.8,90.5,122,90.6,122.4z"/>
	</g>
	<g>
		<path fill="#FFFFFF" d="M86.1,130.6c0.1,0.3-0.1,0.7-0.4,0.8c-0.3,0.1-0.7-0.1-0.8-0.4s0.1-0.7,0.4-0.8
			C85.7,130.1,86,130.3,86.1,130.6z"/>
	</g>
	<g>
		<path fill="#FFFFFF" d="M94.3,143.6c0.1,0.3-0.1,0.7-0.4,0.8c-0.3,0.1-0.7-0.1-0.8-0.4c-0.1-0.3,0.1-0.7,0.4-0.8
			C93.8,143,94.2,143.2,94.3,143.6z"/>
	</g>
	<g>
		<path fill="#FFFFFF" d="M88.9,136.5c0.1,0.3-0.1,0.7-0.4,0.8c-0.3,0.1-0.7-0.1-0.8-0.4s0.1-0.7,0.4-0.8
			C88.5,136,88.8,136.2,88.9,136.5z"/>
	</g>
	<g>
		<path fill="#FFFFFF" d="M87.1,126c0.1,0.3-0.1,0.7-0.4,0.8s-0.7-0.1-0.8-0.4c-0.1-0.3,0.1-0.7,0.4-0.8
			C86.7,125.5,87,125.7,87.1,126z"/>
	</g>
	<g>
		<path fill="#FFFFFF" d="M88,138.8c0.1,0.3-0.1,0.7-0.4,0.8c-0.3,0.1-0.7-0.1-0.8-0.4c-0.1-0.3,0.1-0.7,0.4-0.8
			C87.5,138.3,87.9,138.5,88,138.8z"/>
	</g>
	<g>
		<path fill="#FFFFFF" d="M102.9,143.4c0.1,0.3-0.1,0.7-0.4,0.8c-0.3,0.1-0.7-0.1-0.8-0.4s0.1-0.7,0.4-0.8
			C102.4,142.9,102.8,143,102.9,143.4z"/>
	</g>
	<g>
		<path fill="#FFFFFF" d="M104.5,136.6c0.1,0.3-0.1,0.7-0.4,0.8c-0.3,0.1-0.7-0.1-0.8-0.4c-0.1-0.3,0.1-0.7,0.4-0.8
			C104.1,136,104.4,136.2,104.5,136.6z"/>
	</g>
	<g>
		<path fill="#FFFFFF" d="M93.9,137.2c0.1,0.3-0.1,0.7-0.4,0.8c-0.3,0.1-0.7-0.1-0.8-0.4c-0.1-0.3,0.1-0.7,0.4-0.8
			C93.5,136.6,93.8,136.8,93.9,137.2z"/>
	</g>
	<g>
		<path fill="#FFFFFF" d="M98.5,137.8c0.1,0.3-0.1,0.7-0.4,0.8c-0.3,0.1-0.7-0.1-0.8-0.4c-0.1-0.3,0.1-0.7,0.4-0.8
			C98.1,137.2,98.5,137.4,98.5,137.8z"/>
	</g>
	<g>
		<path fill="#FFFFFF" d="M98.1,121.8c0.1,0.3-0.1,0.7-0.4,0.8s-0.7-0.1-0.8-0.4c-0.1-0.3,0.1-0.7,0.4-0.8
			C97.7,121.3,98,121.5,98.1,121.8z"/>
	</g>
	<g>
		<path fill="#FFFFFF" d="M85.2,146.6c0.1,0.3-0.1,0.7-0.4,0.8c-0.3,0.1-0.7-0.1-0.8-0.4c-0.1-0.3,0.1-0.7,0.4-0.8
			C84.7,146.1,85.1,146.3,85.2,146.6z"/>
	</g>
	<g>
		<path fill="#FFFFFF" d="M93.2,123.5c0.1,0.3-0.1,0.7-0.4,0.8s-0.7-0.1-0.8-0.4c-0.1-0.3,0.1-0.7,0.4-0.8S93.1,123.2,93.2,123.5z"
			/>
	</g>
	<g>
		<path fill="#FFFFFF" d="M81.9,140.9c0.1,0.3-0.1,0.7-0.4,0.8c-0.3,0.1-0.7-0.1-0.8-0.4s0.1-0.7,0.4-0.8
			C81.5,140.3,81.8,140.5,81.9,140.9z"/>
	</g>
	<g>
		<path fill="#FFFFFF" d="M91,132.2c0.1,0.3-0.1,0.7-0.4,0.8c-0.3,0.1-0.7-0.1-0.8-0.4c-0.1-0.3,0.1-0.7,0.4-0.8
			C90.6,131.7,90.9,131.9,91,132.2z"/>
	</g>
	<g>
		<path fill="#FFFFFF" d="M94.1,129.4c0.1,0.3-0.1,0.7-0.4,0.8c-0.3,0.1-0.7-0.1-0.8-0.4s0.1-0.7,0.4-0.8
			C93.7,128.9,94,129.1,94.1,129.4z"/>
	</g>
	<g>
		<path fill="#FFFFFF" d="M80.4,142.2c0.1,0.3-0.1,0.7-0.4,0.8c-0.3,0.1-0.7-0.1-0.8-0.4c-0.1-0.3,0.1-0.7,0.4-0.8
			C79.9,141.7,80.3,141.9,80.4,142.2z"/>
	</g>
	<g>
		<path fill="#FFFFFF" d="M92.3,126.5c0.1,0.3-0.1,0.7-0.4,0.8s-0.7-0.1-0.8-0.4c-0.1-0.3,0.1-0.7,0.4-0.8
			C91.9,126,92.2,126.2,92.3,126.5z"/>
	</g>
	<g>
		<path fill="#FFFFFF" d="M104.4,141.3c0.1,0.3-0.1,0.7-0.4,0.8c-0.3,0.1-0.7-0.1-0.8-0.4s0.1-0.7,0.4-0.8
			C104,140.8,104.3,141,104.4,141.3z"/>
	</g>
	<g>
		<path fill="#FFFFFF" d="M99.9,143c0.1,0.3-0.1,0.7-0.4,0.8c-0.3,0.1-0.7-0.1-0.8-0.4s0.1-0.7,0.4-0.8
			C99.5,142.5,99.8,142.7,99.9,143z"/>
	</g>
	<g>
		<path fill="#FFFFFF" d="M101.6,127.3c0.1,0.3-0.1,0.7-0.4,0.8c-0.3,0.1-0.7-0.1-0.8-0.4s0.1-0.7,0.4-0.8
			C101.2,126.7,101.5,126.9,101.6,127.3z"/>
	</g>
	<g>
		<path fill="#FFFFFF" d="M106.3,135.6c0.1,0.3-0.1,0.7-0.4,0.8c-0.3,0.1-0.7-0.1-0.8-0.4c-0.1-0.3,0.1-0.7,0.4-0.8
			C105.9,135.1,106.2,135.3,106.3,135.6z"/>
	</g>
	<g>
		<path fill="#FFFFFF" d="M99.8,130.2c0.1,0.3-0.1,0.7-0.4,0.8c-0.3,0.1-0.7-0.1-0.8-0.4c-0.1-0.3,0.1-0.7,0.4-0.8
			C99.3,129.7,99.7,129.8,99.8,130.2z"/>
	</g>
	<g>
		<path fill="#FFFFFF" d="M78.6,136.9c0.1,0.3-0.1,0.7-0.4,0.8c-0.3,0.1-0.7-0.1-0.8-0.4s0.1-0.7,0.4-0.8
			C78.1,136.4,78.5,136.6,78.6,136.9z"/>
	</g>
	<g>
		<path fill="#FFFFFF" d="M89.7,140.5c0.1,0.3-0.1,0.7-0.4,0.8c-0.3,0.1-0.7-0.1-0.8-0.4c-0.1-0.3,0.1-0.7,0.4-0.8
			C89.3,140,89.6,140.2,89.7,140.5z"/>
	</g>
	<g>
		<path fill="#FFFFFF" d="M97,135.7c0.1,0.3-0.1,0.7-0.4,0.8c-0.3,0.1-0.7-0.1-0.8-0.4c-0.1-0.3,0.1-0.7,0.4-0.8
			C96.6,135.2,96.9,135.4,97,135.7z"/>
	</g>
	<g>
		<path fill="#FFFFFF" d="M89.2,145.1c0.1,0.3-0.1,0.7-0.4,0.8c-0.3,0.1-0.7-0.1-0.8-0.4c-0.1-0.3,0.1-0.7,0.4-0.8
			C88.7,144.6,89.1,144.7,89.2,145.1z"/>
	</g>
	<g>
		<path fill="#FFFFFF" d="M79.8,132.9c0.1,0.3-0.1,0.7-0.4,0.8c-0.3,0.1-0.7-0.1-0.8-0.4c-0.1-0.3,0.1-0.7,0.4-0.8
			C79.4,132.4,79.7,132.6,79.8,132.9z"/>
	</g>
	<g>
		<path fill="#FFFFFF" d="M85.9,138.1c0.1,0.3-0.1,0.7-0.4,0.8c-0.3,0.1-0.7-0.1-0.8-0.4s0.1-0.7,0.4-0.8
			C85.4,137.6,85.8,137.8,85.9,138.1z"/>
	</g>
	<g>
		<path fill="#FFFFFF" d="M91.4,130.3c0.1,0.3-0.1,0.7-0.4,0.8c-0.3,0.1-0.7-0.1-0.8-0.4s0.1-0.7,0.4-0.8
			C91,129.8,91.3,130,91.4,130.3z"/>
	</g>
	<g>
		<path fill="#FFFFFF" d="M90.4,142.7c0.1,0.3-0.1,0.7-0.4,0.8c-0.3,0.1-0.7-0.1-0.8-0.4c-0.1-0.3,0.1-0.7,0.4-0.8
			C90,142.2,90.3,142.4,90.4,142.7z"/>
	</g>
	<g>
		<path fill="#FFFFFF" d="M91.5,136.2c0.1,0.3-0.1,0.7-0.4,0.8c-0.3,0.1-0.7-0.1-0.8-0.4c-0.1-0.3,0.1-0.7,0.4-0.8
			C91,135.7,91.4,135.9,91.5,136.2z"/>
	</g>
	<g>
		<path fill="#FFFFFF" d="M102.5,125.1c0.1,0.3-0.1,0.7-0.4,0.8c-0.3,0.1-0.7-0.1-0.8-0.4c-0.1-0.3,0.1-0.7,0.4-0.8
			C102.1,124.5,102.4,124.7,102.5,125.1z"/>
	</g>
	<g>
		<path fill="#FFFFFF" d="M92.4,139.1c0.1,0.3-0.1,0.7-0.4,0.8c-0.3,0.1-0.7-0.1-0.8-0.4s0.1-0.7,0.4-0.8
			C91.9,138.6,92.3,138.8,92.4,139.1z"/>
	</g>
	<g>
		<path fill="#FFFFFF" d="M103,131.6c0.1,0.3-0.1,0.7-0.4,0.8c-0.3,0.1-0.7-0.1-0.8-0.4c-0.1-0.3,0.1-0.7,0.4-0.8
			C102.6,131.1,102.9,131.3,103,131.6z"/>
	</g>
	<g>
		<path fill="#FFFFFF" d="M97.6,142.8c0.1,0.3-0.1,0.7-0.4,0.8c-0.3,0.1-0.7-0.1-0.8-0.4s0.1-0.7,0.4-0.8
			C97.1,142.3,97.5,142.5,97.6,142.8z"/>
	</g>
	<g>
		<path fill="#FFFFFF" d="M86.6,128.6c0.1,0.3-0.1,0.7-0.4,0.8c-0.3,0.1-0.7-0.1-0.8-0.4s0.1-0.7,0.4-0.8
			C86.2,128.1,86.6,128.2,86.6,128.6z"/>
	</g>
	<g>
		<path fill="#FFFFFF" d="M105.4,131.7c0.1,0.3-0.1,0.7-0.4,0.8c-0.3,0.1-0.7-0.1-0.8-0.4c-0.1-0.3,0.1-0.7,0.4-0.8
			C105,131.2,105.3,131.4,105.4,131.7z"/>
	</g>
	<g>
		<path fill="#FFFFFF" d="M104,127.4c0.1,0.3-0.1,0.7-0.4,0.8c-0.3,0.1-0.7-0.1-0.8-0.4c-0.1-0.3,0.1-0.7,0.4-0.8
			C103.6,126.9,103.9,127.1,104,127.4z"/>
	</g>
	<g>
		<path fill="#FFFFFF" d="M85,127c0.1,0.3-0.1,0.7-0.4,0.8s-0.7-0.1-0.8-0.4c-0.1-0.3,0.1-0.7,0.4-0.8C84.6,126.5,84.9,126.7,85,127
			z"/>
	</g>
	<g>
		<path fill="#FFFFFF" d="M91.1,146.5c0.1,0.3-0.1,0.7-0.4,0.8c-0.3,0.1-0.7-0.1-0.8-0.4s0.1-0.7,0.4-0.8
			C90.7,146,91,146.2,91.1,146.5z"/>
	</g>
	<g>
		<path fill="#FFFFFF" d="M96.3,145c0.1,0.3-0.1,0.7-0.4,0.8c-0.3,0.1-0.7-0.1-0.8-0.4c-0.1-0.3,0.1-0.7,0.4-0.8
			C95.9,144.5,96.3,144.7,96.3,145z"/>
	</g>
	<g>
		<path fill="#FFFFFF" d="M94.5,125.5c0.1,0.3-0.1,0.7-0.4,0.8s-0.7-0.1-0.8-0.4c-0.1-0.3,0.1-0.7,0.4-0.8
			C94,124.9,94.4,125.1,94.5,125.5z"/>
	</g>
	<g>
		<path fill="#FFFFFF" d="M97.1,128.9c0.1,0.3-0.1,0.7-0.4,0.8c-0.3,0.1-0.7-0.1-0.8-0.4s0.1-0.7,0.4-0.8
			C96.7,128.4,97,128.6,97.1,128.9z"/>
	</g>
	<g>
		<path fill="#FFFFFF" d="M87.1,147.5c0.1,0.3-0.1,0.7-0.4,0.8c-0.3,0.1-0.7-0.1-0.8-0.4s0.1-0.7,0.4-0.8
			C86.7,146.9,87,147.1,87.1,147.5z"/>
	</g>
	<g>
		<path fill="#FFFFFF" d="M96.1,147.4c0.1,0.3-0.1,0.7-0.4,0.8c-0.3,0.1-0.7-0.1-0.8-0.4s0.1-0.7,0.4-0.8
			C95.6,146.9,96,147.1,96.1,147.4z"/>
	</g>
	<g>
		<path fill="#FFFFFF" d="M87.2,135.1c0.1,0.3-0.1,0.7-0.4,0.8c-0.3,0.1-0.7-0.1-0.8-0.4c-0.1-0.3,0.1-0.7,0.4-0.8
			C86.8,134.6,87.1,134.8,87.2,135.1z"/>
	</g>
	<g>
		<path fill="#FFFFFF" d="M95.4,141.9c0.1,0.3-0.1,0.7-0.4,0.8c-0.3,0.1-0.7-0.1-0.8-0.4s0.1-0.7,0.4-0.8
			C95,141.4,95.3,141.5,95.4,141.9z"/>
	</g>
	<g>
		<path fill="#FFFFFF" d="M99.2,140.4c0.1,0.3-0.1,0.7-0.4,0.8c-0.3,0.1-0.7-0.1-0.8-0.4c-0.1-0.3,0.1-0.7,0.4-0.8
			C98.8,139.9,99.1,140.1,99.2,140.4z"/>
	</g>
	<g>
		<path fill="#FFFFFF" d="M98.5,131.8c0.1,0.3-0.1,0.7-0.4,0.8c-0.3,0.1-0.7-0.1-0.8-0.4c-0.1-0.3,0.1-0.7,0.4-0.8
			C98.1,131.3,98.4,131.5,98.5,131.8z"/>
	</g>
	<g>
		<path fill="#FFFFFF" d="M88.4,121.5c0.1,0.3-0.1,0.7-0.4,0.8s-0.7-0.1-0.8-0.4c-0.1-0.3,0.1-0.7,0.4-0.8S88.3,121.2,88.4,121.5z"
			/>
	</g>
	<g>
		<path fill="#FFFFFF" d="M88.3,123.9c0.1,0.3-0.1,0.7-0.4,0.8s-0.7-0.1-0.8-0.4c-0.1-0.3,0.1-0.7,0.4-0.8
			C87.8,123.4,88.2,123.6,88.3,123.9z"/>
	</g>
	<g>
		<path fill="#FFFFFF" d="M81.3,131.1c0.1,0.3-0.1,0.7-0.4,0.8c-0.3,0.1-0.7-0.1-0.8-0.4c-0.1-0.3,0.1-0.7,0.4-0.8
			C80.8,130.6,81.2,130.8,81.3,131.1z"/>
	</g>
	<g>
		<path fill="#FFFFFF" d="M83.6,123.3c0.1,0.3-0.1,0.7-0.4,0.8s-0.7-0.1-0.8-0.4c-0.1-0.3,0.1-0.7,0.4-0.8
			C83.1,122.7,83.5,122.9,83.6,123.3z"/>
	</g>
	<g>
		<path fill="#FFFFFF" d="M87.1,144.9c0.1,0.3-0.1,0.7-0.4,0.8c-0.3,0.1-0.7-0.1-0.8-0.4s0.1-0.7,0.4-0.8
			C86.6,144.4,87,144.5,87.1,144.9z"/>
	</g>
	<g>
		<path fill="#FFFFFF" d="M83.6,128.9c0.1,0.3-0.1,0.7-0.4,0.8c-0.3,0.1-0.7-0.1-0.8-0.4s0.1-0.7,0.4-0.8
			C83.2,128.3,83.5,128.5,83.6,128.9z"/>
	</g>
	<g>
		<path fill="#FFFFFF" d="M88,132.4c0.1,0.3-0.1,0.7-0.4,0.8c-0.3,0.1-0.7-0.1-0.8-0.4c-0.1-0.3,0.1-0.7,0.4-0.8
			C87.5,131.8,87.9,132,88,132.4z"/>
	</g>
	<g>
		<path fill="#FFFFFF" d="M101.1,139c0.1,0.3-0.1,0.7-0.4,0.8c-0.3,0.1-0.7-0.1-0.8-0.4s0.1-0.7,0.4-0.8
			C100.6,138.5,101,138.7,101.1,139z"/>
	</g>
	<g>
		<path fill="#FFFFFF" d="M85.1,136.3c0.1,0.3-0.1,0.7-0.4,0.8c-0.3,0.1-0.7-0.1-0.8-0.4s0.1-0.7,0.4-0.8
			C84.7,135.7,85.1,135.9,85.1,136.3z"/>
	</g>
	<g>
		<path fill="#FFFFFF" d="M98.6,147c0.1,0.3-0.1,0.7-0.4,0.8c-0.3,0.1-0.7-0.1-0.8-0.4s0.1-0.7,0.4-0.8
			C98.2,146.5,98.5,146.7,98.6,147z"/>
	</g>
	<g>
		<path fill="#FFFFFF" d="M103.2,139.5c0.1,0.3-0.1,0.7-0.4,0.8c-0.3,0.1-0.7-0.1-0.8-0.4c-0.1-0.3,0.1-0.7,0.4-0.8
			C102.8,138.9,103.2,139.1,103.2,139.5z"/>
	</g>
	<g>
		<path fill="#FFFFFF" d="M105.5,138.7c0.1,0.3-0.1,0.7-0.4,0.8c-0.3,0.1-0.7-0.1-0.8-0.4c-0.1-0.3,0.1-0.7,0.4-0.8
			C105.1,138.2,105.4,138.4,105.5,138.7z"/>
	</g>
	<g>
		<path fill="#FFFFFF" d="M80.1,127.2c0.1,0.3-0.1,0.7-0.4,0.8c-0.3,0.1-0.7-0.1-0.8-0.4s0.1-0.7,0.4-0.8
			C79.6,126.6,80,126.8,80.1,127.2z"/>
	</g>
	<g>
		<path fill="#FFFFFF" d="M83.8,145.3c0.1,0.3-0.1,0.7-0.4,0.8c-0.3,0.1-0.7-0.1-0.8-0.4c-0.1-0.3,0.1-0.7,0.4-0.8
			C83.4,144.8,83.7,145,83.8,145.3z"/>
	</g>
	<g>
		<path fill="#FFFFFF" d="M97.1,126c0.1,0.3-0.1,0.7-0.4,0.8s-0.7-0.1-0.8-0.4c-0.1-0.3,0.1-0.7,0.4-0.8
			C96.7,125.5,97,125.7,97.1,126z"/>
	</g>
	<g>
		<path fill="#FFFFFF" d="M79.1,129.5c0.1,0.3-0.1,0.7-0.4,0.8c-0.3,0.1-0.7-0.1-0.8-0.4s0.1-0.7,0.4-0.8
			C78.6,129,79,129.1,79.1,129.5z"/>
	</g>
	<g>
		<path fill="#FFFFFF" d="M93.8,145.8c0.1,0.3-0.1,0.7-0.4,0.8c-0.3,0.1-0.7-0.1-0.8-0.4c-0.1-0.3,0.1-0.7,0.4-0.8
			C93.4,145.3,93.7,145.5,93.8,145.8z"/>
	</g>
	<g>
		<path fill="#FFFFFF" d="M93.9,148.1c0.1,0.3-0.1,0.7-0.4,0.8c-0.3,0.1-0.7-0.1-0.8-0.4s0.1-0.7,0.4-0.8
			C93.5,147.6,93.8,147.7,93.9,148.1z"/>
	</g>
	<g>
		<path fill="#FFFFFF" d="M89.1,148c0.1,0.3-0.1,0.7-0.4,0.8c-0.3,0.1-0.7-0.1-0.8-0.4s0.1-0.7,0.4-0.8
			C88.7,147.5,89,147.6,89.1,148z"/>
	</g>
</g>
<g>
	<path fill="#FFFFFF" d="M167.7,146.4c-5.6,0-10.2-4.6-10.2-10.2c0-5.6,4.6-10.2,10.2-10.2c5.6,0,10.2,4.6,10.2,10.2
		C177.9,141.8,173.3,146.4,167.7,146.4z M167.7,129.9c-3.5,0-6.3,2.8-6.3,6.3s2.8,6.3,6.3,6.3s6.3-2.8,6.3-6.3
		S171.2,129.9,167.7,129.9z"/>
</g>
<g>
	<path fill="#FFFFFF" d="M105.1,87.2L100.5,70l17.2,4.6L105.1,87.2z M106,75.5l1.1,4.2l3.1-3.1L106,75.5z"/>
</g>
<polygon fill="#FFFFFF" points="223.4,23.8 220.7,21.1 216.2,25.6 211.7,21.1 208.9,23.8 213.4,28.4 208.9,32.9 211.7,35.6 
	216.2,31.1 220.7,35.6 223.4,32.9 218.9,28.4 "/>
</svg>
