<?xml version="1.0" encoding="utf-8"?>
<!-- Generator: Adobe Illustrator 26.4.1, SVG Export Plug-In . SVG Version: 6.00 Build 0)  -->
<svg version="1.1" id="Layer_1" xmlns="http://www.w3.org/2000/svg" xmlns:xlink="http://www.w3.org/1999/xlink" x="0px" y="0px"
	 viewBox="0 0 200 200" style="enable-background:new 0 0 200 200;" xml:space="preserve">
<style type="text/css">
	.st0{fill:#F5DF56;}
</style>
<g id="XMLID_00000078031851008873613870000012722234585188398783_">
	<g>
		<path d="M171.5,76.2c0,28.8-10,36.9-64.2,115.4c-3.5,5.1-11.1,5.1-14.7,0C38.5,113,28.5,105,28.5,76.2c0-39.5,32-71.5,71.5-71.5
			S171.5,36.7,171.5,76.2z M129.8,76.2c0-16.5-13.3-29.8-29.8-29.8S70.2,59.7,70.2,76.2S83.5,106,100,106S129.8,92.6,129.8,76.2z"/>
		<circle cx="100" cy="76.2" r="29.8"/>
	</g>
</g>
<g>
	<path class="st0" d="M137.1,67.9c-0.1-0.6-0.5-1.1-1-1.3c-0.5-0.3-1.1-0.3-1.7-0.1c-4.9,1.7-12.4,2.8-20.9,2.8c-2.1,0-4-0.1-6-0.2
		c-1,4.5-2.6,8.6-4.6,12.3c0.1,0,0.2,0,0.3,0c2.6,0,4.8-0.2,4.8,1.6c0,1.8-2.1,4.9-4.8,4.9c-1.5,0-2.9-0.5-3.8-1.3
		c-2.6,3.3-5.7,5.8-9.1,7.5c3.8,12.8,12.7,21.9,23.1,21.9c13.9,0,25.1-16,25.1-35.8C138.6,75.8,138,71.7,137.1,67.9z M123.4,105.4
		c0,0.2-0.2,0.3-0.4,0.4c-0.2,0.1-0.4,0-0.5-0.1c-2-1.6-5.3-2.7-9.1-2.7c-3.8,0-7.1,1.1-9.1,2.7c-0.1,0.1-0.4,0.2-0.5,0.1
		c-0.2-0.1-0.3-0.2-0.4-0.4c-0.2-0.7-0.3-1.4-0.3-2.1c0-5.7,4.6-10.3,10.3-10.3c5.7,0,10.3,4.6,10.3,10.3
		C123.7,104,123.6,104.7,123.4,105.4z M123.7,87.7c-2.6,0-4.8-3.1-4.8-4.9s2.1-1.6,4.8-1.6s4.8,1.4,4.8,3.2
		C128.5,86.3,126.4,87.7,123.7,87.7z"/>
	<path class="st0" d="M105.9,57.8c0-4.3-0.5-8.4-1.5-12.1c-0.1-0.6-0.5-1.1-1-1.3c-0.3-0.2-0.6-0.2-1-0.2c-0.2,0-0.5,0-0.7,0.1
		C96.8,45.9,89.3,47,80.8,47s-16-1.1-20.9-2.8c-0.2-0.1-0.5-0.1-0.7-0.1c-0.3,0-0.7,0.1-1,0.2c-0.5,0.3-0.9,0.8-1,1.3
		c-1,3.8-1.5,7.9-1.5,12.1c0,19.8,11.2,35.8,25.1,35.8C94.7,93.6,105.9,77.6,105.9,57.8z M65.8,62.3c0-1.8,2.1-3.2,4.8-3.2
		c2.6,0,4.8,3.1,4.8,4.9s-2.1,1.6-4.8,1.6C67.9,65.5,65.8,64,65.8,62.3z M80.8,86.9c-5.7,0-10.3-4.6-10.3-10.3
		c0-0.7,0.1-1.5,0.3-2.1c0-0.2,0.2-0.3,0.4-0.4c0.2-0.1,0.4,0,0.5,0.1c2,1.6,5.3,2.7,9.1,2.7c3.8,0,7.1-1.1,9.1-2.7
		c0.1-0.1,0.4-0.2,0.5-0.1c0.2,0.1,0.3,0.2,0.4,0.4c0.2,0.7,0.3,1.4,0.3,2.1C91.1,82.3,86.5,86.9,80.8,86.9z M86.3,63.9
		c0-1.8,2.1-4.9,4.8-4.9c2.6,0,4.8,1.4,4.8,3.2s-2.1,3.2-4.8,3.2C88.5,65.5,86.3,65.7,86.3,63.9z"/>
</g>
</svg>
