<?xml version="1.0" encoding="utf-8"?>
<!-- Generator: Adobe Illustrator 26.4.1, SVG Export Plug-In . SVG Version: 6.00 Build 0)  -->
<svg version="1.1" id="Layer_1" xmlns="http://www.w3.org/2000/svg" xmlns:xlink="http://www.w3.org/1999/xlink" x="0px" y="0px"
	 viewBox="0 0 200 200" style="enable-background:new 0 0 200 200;" xml:space="preserve">
<style type="text/css">
	.st0{fill:#F5DF56;}
</style>
<g id="XMLID_00000078031851008873613870000012722234585188398783_">
	<g>
		<path d="M171.5,76.2c0,28.8-10,36.9-64.2,115.4c-3.5,5.1-11.1,5.1-14.7,0C38.5,113,28.5,105,28.5,76.2c0-39.5,32-71.5,71.5-71.5
			S171.5,36.7,171.5,76.2z M129.8,76.2c0-16.5-13.3-29.8-29.8-29.8S70.2,59.7,70.2,76.2S83.5,106,100,106S129.8,92.6,129.8,76.2z"/>
		<circle cx="100" cy="76.2" r="29.8"/>
	</g>
</g>
<g>
	<path class="st0" d="M59.6,74.1c0.2-1.3,0.3-2.7,0.5-4c0.7-4.7,2.2-9.1,4.4-13.2c0-0.1,0.1-0.2,0.2-0.3c0.3,2.6,0.5,5.2,0.9,7.7
		c0.3,2.3,0.8,4.6,2.3,6.6c2,2.7,4.9,3.8,8.1,4.3c4.9,0.7,9.3-0.7,13.6-2.7c4.6-2.2,8.7-5.3,12.8-8.2c4.8-3.5,9.6-7.1,14.8-10.1
		c3.8-2.2,7.8-3.9,12.1-5c0.6-0.1,0.8,0,1.2,0.4c5.5,6.4,8.8,13.7,9.7,22.1c0.4,3.1,0.4,6.1,0,9.2c-0.1,0.5-0.3,0.7-0.8,0.8
		c-3.2,0.3-6.4,0.7-9.6,1c-11.7,0.9-23.5,1.1-35.3,1.2c-5.4,0-10.8-0.3-16.2-0.9c-5.5-0.6-11-1.6-16.6-2.3c-1.4-0.2-2.4-0.6-2.3-2.2
		C59.6,77,59.6,75.5,59.6,74.1z"/>
	<path class="st0" d="M98,116.6c-1.3-0.2-2.7-0.3-4-0.5c-10.1-1.6-18.4-6.3-25-14.1c-0.1-0.1-0.2-0.2-0.3-0.5c2-0.5,3.8-1,5.7-1.5
		c4-1,7.8-0.3,11.3,1.4c4.1,2,8.1,4.1,12.1,6.2c4.7,2.5,9.5,5,14.6,6.7c0.1,0,0.1,0.1,0.2,0.3c-2.2,0.5-4.4,1-6.6,1.4
		c-1.3,0.2-2.7,0.3-4,0.5C100.7,116.6,99.3,116.6,98,116.6z"/>
	<path class="st0" d="M127.6,46.7c-1.4,0.5-2.7,0.9-4,1.4c-5.7,2.1-10.9,5.3-15.8,8.8c-4.6,3.2-9.1,6.6-13.7,9.8
		c-3.5,2.4-7.2,4.4-11.4,5.5c-2.7,0.7-5.5,0.8-8.2-0.1c-3.3-1-5.4-3.2-5.9-6.7c-0.5-4-0.9-8.1-1.3-12.2c0-0.5,0.2-1,0.5-1.4
		c6.8-8.7,15.6-14.1,26.5-15.6c12.6-1.7,23.6,1.8,33,10.3C127.4,46.5,127.5,46.6,127.6,46.7z"/>
	<path class="st0" d="M139.7,84.4c-0.5,1.8-1,3.5-1.6,5.2c-3.7,10.2-10.4,17.8-20.1,22.7c-0.4,0.2-1.1,0.3-1.6,0.2
		c-4.5-0.9-8.7-2.7-12.7-4.8c-5-2.6-9.9-5.3-14.9-7.8c-2.7-1.4-5.6-2.6-8.7-3c-2.7-0.4-5.4,0.1-8,0.8c-1.6,0.4-3.1,0.9-4.6,1.4
		c-0.2,0.1-0.7,0-0.8-0.2c-3.3-4.8-5.4-10-6.5-15.8c1.1,0.2,2,0.4,3,0.5c12.4,2.3,24.9,3.3,37.5,2.9c5.1-0.2,10.2-0.2,15.3-0.4
		c7.7-0.3,15.3-0.7,22.9-1.7C139.1,84.4,139.3,84.4,139.7,84.4z"/>
</g>
</svg>
