<?xml version="1.0" encoding="utf-8"?>
<!-- Generator: Adobe Illustrator 26.4.1, SVG Export Plug-In . SVG Version: 6.00 Build 0)  -->
<svg version="1.1" id="Layer_1" xmlns="http://www.w3.org/2000/svg" xmlns:xlink="http://www.w3.org/1999/xlink" x="0px" y="0px"
	 viewBox="0 0 200 200" style="enable-background:new 0 0 200 200;" xml:space="preserve">
<style type="text/css">
	.st0{fill:#FFFFFF;}
	.st1{fill:#F5DF56;}
</style>
<g id="XMLID_00000078031851008873613870000012722234585188398783_">
	<g>
		<path d="M171.5,76.2c0,28.8-10,36.9-64.2,115.4c-3.5,5.1-11.1,5.1-14.7,0C38.5,113,28.5,105,28.5,76.2c0-39.5,32-71.5,71.5-71.5
			S171.5,36.7,171.5,76.2z M129.8,76.2c0-16.5-13.3-29.8-29.8-29.8S70.2,59.7,70.2,76.2S83.5,106,100,106S129.8,92.6,129.8,76.2z"/>
		<circle class="st0" cx="100" cy="76.2" r="29.8"/>
	</g>
</g>
<g>
	<path class="st1" d="M97.5,45.8c1.6,0,3.2,0,4.7,0c0,0.2,0.2,0.1,0.3,0.1c3.3,0.3,6.4,1,9.4,2.4c10.2,4.7,16.2,12.5,18.1,23.6
		c0.1,0.6,0.1,1.3,0.3,1.9c0,1.6,0,3.2,0,4.7c-0.2,0.1-0.1,0.2-0.1,0.3c-0.2,2.7-0.8,5.3-1.7,7.8c-5.6,15.2-22,23.3-37.5,18.6
		C76,100.6,66.9,85,70.3,69.7C73.1,57.3,83.1,48,95.6,46.1C96.3,46.1,96.9,46.1,97.5,45.8z M84.8,81.3c2.8,0,5-2.3,5-5.1
		c0-2.7-2.3-5-5-5.1c-2.7,0-5.1,2.4-5.1,5.1C79.8,79,82.1,81.3,84.8,81.3z M99.9,81.3c2.6,0,5-1.9,5.1-5c0.1-2.6-1.9-5-4.9-5.1
		c-2.6-0.1-5.1,1.9-5.2,5C94.9,78.8,96.9,81.1,99.9,81.3z M110.1,76.2c0,2.8,2.3,5,5.1,5c2.8,0,5.1-2.4,5.1-5.1
		c-0.1-2.8-2.4-5.1-5.1-5C112.4,71.2,110.1,73.5,110.1,76.2z"/>
	<path d="M84.8,81.3c-2.7,0-5-2.3-5.1-5c0-2.7,2.3-5.1,5.1-5.1c2.8,0,5,2.3,5,5.1C89.9,78.9,87.6,81.2,84.8,81.3z"/>
	<path d="M99.9,81.3c-3-0.1-5-2.5-5-5.1c0.1-3.1,2.5-5.1,5.2-5c3.1,0.1,5,2.5,4.9,5.1C105,79.3,102.5,81.3,99.9,81.3z"/>
	<path d="M110.1,76.2c0-2.7,2.2-5,5-5.1c2.7,0,5,2.2,5.1,5c0.1,2.7-2.3,5.1-5.1,5.1C112.4,81.3,110.2,79,110.1,76.2z"/>
</g>
</svg>
