<?xml version="1.0" encoding="utf-8"?>
<!-- Generator: Adobe Illustrator 26.4.1, SVG Export Plug-In . SVG Version: 6.00 Build 0)  -->
<svg version="1.1" id="Layer_1" xmlns="http://www.w3.org/2000/svg" xmlns:xlink="http://www.w3.org/1999/xlink" x="0px" y="0px"
	 viewBox="0 0 200 200" style="enable-background:new 0 0 200 200;" xml:space="preserve">
<style type="text/css">
	.st0{fill:#F5DF56;}
</style>
<g id="XMLID_00000078031851008873613870000012722234585188398783_">
	<g>
		<path class="st0" d="M171.5,76.2c0,28.8-10,36.9-64.2,115.4c-3.5,5.1-11.1,5.1-14.7,0C38.5,113,28.5,105,28.5,76.2
			c0-39.5,32-71.5,71.5-71.5S171.5,36.7,171.5,76.2z M129.8,76.2c0-16.5-13.3-29.8-29.8-29.8S70.2,59.7,70.2,76.2S83.5,106,100,106
			S129.8,92.6,129.8,76.2z"/>
		<circle class="st0" cx="100" cy="76.2" r="29.8"/>
	</g>
</g>
<g>
	<path d="M125.2,108.6c-1.6,0-3.3,0-4.9,0c-0.5-0.2-1-0.2-1.4-0.5c-1.6-1-2.5-2.4-2.5-4.3c0-3.4,0-6.8,0-10.2c0-0.1,0-0.3,0-0.4
		c-0.8-0.1-1.5-0.1-2.3-0.2c-1.3-0.1-2.1-0.7-2.5-1.9c-0.1-0.2-0.1-0.4,0-0.6c0.5-1.9,1-3.7,1.4-5.6c0.2-0.8,0.4-1.7,0.6-2.6
		c-0.7,0.8-1.4,0.8-2.2,0.5c-0.3-0.1-0.4,0-0.6,0.2c-1.3,1.7-2.8,3-4.7,3.9c-0.3,0.1-0.4,0.3-0.4,0.6c0,6.4,0,12.9,0,19.3
		c0,0.3-0.1,0.5-0.3,0.6c-0.8,0.6-1.6,1.1-2.6,1.2c-0.1,0-0.2,0-0.3,0c-0.1,0-0.1,0-0.2-0.1c-0.9-0.2-1.4-0.8-1.3-1.7
		c0.2-2.7,0.3-5.3,0.5-8c0-0.4,0-0.8,0.1-1.2c-1.1,0-2.1,0-3.2,0c0,0.2,0,0.4,0,0.5c0,3,0,6,0,9c0,0.3-0.1,0.4-0.3,0.6
		c-0.8,0.4-1.6,0.7-2.5,0.9c-0.1,0-0.2,0-0.3,0c-0.1,0-0.2-0.1-0.3-0.1c-1-0.2-1.7-1-1.6-2c0.1-3.7,0.1-7.5,0.2-11.2
		c0-2.4,0.1-4.9,0.1-7.3c0-0.3-0.1-0.4-0.3-0.5c-0.7-0.4-1.4-0.7-2-1.1c-0.9-0.6-1.9-1.4-2.8-2.1c-1.1-0.9-1.8-2-2.4-3.3
		c-0.9-2-1.9-4-2.8-6c-0.1-0.3-0.3-0.6-0.5-0.9c0,0-0.1,0-0.1,0c0,0.2,0,0.3,0,0.5c0,5,0,10,0,14.9c0,4.8,0,9.5,0,14.3
		c0,1.5-0.5,2.8-1.6,3.8c-0.6,0.6-1.4,0.8-2.2,1c-1.7,0-3.4,0-5.1,0c-0.8-0.2-1.6-0.5-2.2-1.1c-1.1-1.1-1.6-2.5-1.6-4
		c0-3.2,0-6.4-0.1-9.5c0-6.2-0.1-12.5-0.1-18.7c0-0.2,0-0.3,0-0.5c-0.1,0-0.1,0-0.2,0c-0.1,0.3-0.3,0.7-0.4,1
		c-0.4,2-0.8,3.9-1.2,5.9c-0.2,0.9-0.4,1.9-0.7,2.8c-0.2,0.6-0.3,0.6-0.9,0.6c-1.4-0.2-2.6-0.7-3.7-1.6c-0.6-0.5-0.9-1.1-0.7-1.9
		c0.4-2.1,0.8-4.1,1.2-6.2c0.4-2,0.9-4.1,1.2-6.1c0.2-0.9,0.2-1.9,0.5-2.7c1.1-2.8,3.6-4.7,6.5-4.7c3.1,0,6.3,0,9.4,0
		c1.9,0,3.5,0.7,4.7,2.2c0.6,0.7,1.1,1.4,1.4,2.2c0.5,1.1,0.7,2.2,1.1,3.3c1.1,3.4,2.3,6.7,3.4,10.1c0.3,1,0.9,1.8,1.8,2.3
		c0.6,0.4,1.2,0.8,1.9,1c2,0.8,4.1,0.9,6.3,0.6c4-0.5,6.7-3.2,7.2-7.2c0.1-0.6,0.3-1,0.8-1.4c0.2-0.2,0.5-0.3,0.7-0.5
		c0.2-0.1,0.3-0.3,0.4-0.5c1-2.5,1.9-5,2.9-7.4c0.1-0.2,0.2-0.4,0.3-0.5c1.4-1.3,2.9-2.3,4.6-3.2c2.8-1.4,5.6-1.4,8.4,0
		c1.7,0.8,3.2,1.9,4.6,3.1c0.2,0.2,0.3,0.4,0.4,0.6c1.2,3,2.4,5.9,3.6,8.9c0.8,2,1.6,3.9,2,6c0.1,0.9,0.2,1.7,0,2.5
		c-0.3,0.9-1,1.4-1.9,1.2c-1.7-0.4-2.8-1.4-3.5-3c-0.1-0.1-0.1-0.3-0.2-0.4c0,0.1,0,0.2,0,0.3c0.7,2.8,1.4,5.5,2.1,8.3
		c0.3,1-0.3,2.1-1.3,2.4c-0.3,0.1-0.7,0.1-1,0.1c-0.7,0-1.4,0-2.1,0c0,0.2,0,0.3,0,0.5c0,3.3,0,6.7,0,10c0,0.9-0.2,1.7-0.7,2.5
		C128,107.4,126.8,108.3,125.2,108.6z"/>
	<path d="M76.9,59.2c-2.2,0-4-0.8-5.4-2.5c-2-2.5-1.9-6,0.4-8.3c2.7-2.8,7.4-2.8,10.1-0.1c3.2,3.2,2.1,8.4-2,10.3
		C79,59,78,59.2,76.9,59.2z"/>
	<path d="M122.4,46.2c3.4,0,6.2,2.3,6.8,5.3c0.6,3.3-1.3,6.4-4.5,7.4c-3.4,1.1-7-0.6-8.3-3.8c-1.5-3.8,0.9-8.1,4.9-8.8
		C121.8,46.3,122.2,46.2,122.4,46.2z"/>
	<path d="M103.6,76.1c0,2.2-1.8,3.9-3.9,3.9c-2.1,0-3.9-1.8-3.8-3.9c0-2.2,1.8-3.9,3.9-3.9C101.9,72.2,103.6,73.9,103.6,76.1z"/>
</g>
</svg>
