<?xml version="1.0" encoding="utf-8"?>
<!-- Generator: Adobe Illustrator 26.4.1, SVG Export Plug-In . SVG Version: 6.00 Build 0)  -->
<svg version="1.1" id="obj" xmlns="http://www.w3.org/2000/svg" xmlns:xlink="http://www.w3.org/1999/xlink" x="0px" y="0px"
	 viewBox="0 0 500 500" style="enable-background:new 0 0 500 500;" xml:space="preserve">
<style type="text/css">
	.st0{opacity:0.39;}
	.st1{fill:#FFFFFF;}
	.st2{clip-path:url(#SVGID_00000183971623230644238580000009312560060104892842_);}
	.st3{fill:#FF8BC8;}
	.st4{fill:#F9EEB7;}
	.st5{fill:#012145;}
	.st6{fill:#00C0C2;}
	.st7{fill:#009A97;}
	.st8{clip-path:url(#SVGID_00000183971623230644238580000009312560060104892842_);fill:#009A97;}
</style>
<g class="st0">
	<rect id="bg" class="st1" width="500" height="500"/>
	<g>
		<g>
			<defs>
				<rect id="SVGID_1_" width="500" height="500"/>
			</defs>
			<clipPath id="SVGID_00000065074352931970640950000001023747020655507851_">
				<use xlink:href="#SVGID_1_"  style="overflow:visible;"/>
			</clipPath>
			<g style="clip-path:url(#SVGID_00000065074352931970640950000001023747020655507851_);">
				<g>
					<path class="st1" d="M681.5,540c-3.3-10.1-10.6-19-10.5-30c0.1-9.3,2.8-17.8,4-26.5c0,3.5,0,7,0,10.5c0-15.6,3.9-29-11.9-37.5
						c-16.6-8.9-26.4-24.5-46.9-21.7c-16.9,2.3-31.9-0.7-48.6-0.8c-21.4-0.1-42.3,6.5-62.9,11.7c-19.1,4.8-37,10.9-55.6,17
						c-8.9,2.9-17.9,6.5-27.3,7.2c-10.6,0.7-13.4-3.8-21.2-9.4c-6.7-4.8-14.6-8.2-21.6-12.9c-7.5-5.1-15.4-9.2-24-12
						c-6.5-2.1-14-2.4-20-1.5c-10.8,4.1-20.2,10-29.5,16.6c-12.3,8.7-29.4,22.2-33.9,37.5c-2.2,7.5-1.3,18.3,0.5,25.8
						c1.9,7.7-0.7,18.3-2.9,26c-9.5,34.1-37.7,61.1-32.2,99.2c1.8,12.2,22,17.6,32.1,21.4c19.5,7.5,36.6-2.7,56.2-0.8
						c8,0.8,12.6,9.2,19.5,12.7c8,4.1,16.7,8,25.2,10.9c8.8,3.1,18.1,4.9,27.1,7.4c10.9,3,18.3,1.4,29.5,0.2
						c16-1.7,32.2,2.8,43.5-11c5.9-7.3,10.9-13.2,18.1-19.1c5.3-4.3,8.5-11.9,16.1-12.7c14.1-1.4,26,15,34.8,23.4
						c13.2,12.5,36.2,12,53,14.2c5.8,0.8,15.3,5.3,20.9,4.3c7.2-1.3,12.4-7.6,18-11.6c12.2-8.7,26.8-19.8,32-34.4
						c5.7-16.3,3.9-32.6,10.3-49.2C680,577.5,687.6,558.7,681.5,540C678.2,529.6,689.2,563.5,681.5,540z"/>
					<path class="st3" d="M325,431c-0.5-9.8-16.5-24.3-25.2-27.7c-15-5.9-29.8-11.5-45.7-5.1c-13.1,5.3-22.8,15.9-33.7,24.5
						c-12.5,10-25.2,19.8-33.9,33.6c-7.5,12.1-17.8,27.1-19.6,41.5c-1.7,13.7,5.6,25.8,4,39.2c-1.3,11.1,9.7,56.2-7,56.1
						c2.3,1.3,4.7,2.7,7,4c-11.6,1.1-23.3,12.3-27.5,22.8c-3.1,7.7-0.6,11.6,4.2,17.5c6.2,7.6,0.1,12.1-4.7,18
						c-24.7,30.4-53.9-1.9-80.9-7.7c-11.8-2.6-27.9,10.8-19.9,23.5c6.8,10.8,29.1,13.9,40.7,17.8c15.3,5.1,28-1.7,38.1,14
						c8.4,13.2,21.7,26.2,37.7,16.5c11-6.6,21-17,29.4-26.5c10.9-12.4,24.8-19.6,38.1-29c6.2-4.3,11.4-9.9,16-15.8
						c3.7-4.9,1.5-9.9,6-14c11.6-10.8,27.7-14.8,39-26c11.8-11.7,20.7-28.2,25.8-43.9c2.2-6.7,4.4-14.9,2.1-21.8
						c-2.3-6.9-8.1-12.1-10.1-19.3c-4.6-16.4,7.6-33.2,13-47.8C323.1,460.6,325.8,446.6,325,431z"/>
				</g>
				<g>
					<path class="st4" d="M31.6,498.7c-1.3-0.7,2.6,1.3,0.3,3.2c-0.6,0.3-1.2,0.5-1.9,0.8c1.1,0,2.3-0.4,2.9-1.5
						c-0.3,0.3-0.6,0.6-0.9,0.9c0.7-0.4,1.1-0.9,1.3-1.7c0.3-1.1-0.4-2.5-1.5-2.7c-0.2,0-0.5-0.1-0.7-0.1c-0.7,0.1-0.8,0.1-0.3,0
						c0.4,0.1,0.8,0.2,1.2,0.3c-0.6-0.4-1.4-0.5-2-0.5c-0.9,0-1.8,0.5-2.3,1.3c-0.5,0.9-0.5,2.5,0.4,3.2c-0.1-0.1-0.1-0.2-0.2-0.3
						c0.1,0.2,0.3,0.4,0.4,0.5c0.3,0.3,0.7,0.5,1.1,0.6c0.7,0.2,1.5,0,2.1-0.4C32.9,501.6,32.9,499.5,31.6,498.7L31.6,498.7z"/>
					<path class="st4" d="M43.1,496.5c-0.1-0.8-0.1-1.2-0.5-1.9c-0.2-0.4-0.5-0.6-0.8-1c0.2,0.2,0.3,0.4,0.5,0.6c0,0,0-0.1-0.1-0.1
						c0.1,0.2,0.2,0.5,0.3,0.7c0,0,0-0.1,0-0.1c0,0.3,0.1,0.5,0.1,0.8c0,0,0-0.1,0-0.1c-0.8,1-1.5,2-2.3,3c1.4-0.2,2.6-1.6,2.6-3
						s-1.2-2.8-2.6-3c-0.9-0.1-1.6-0.1-2.4,0.3c-0.9,0.5-1.6,1.6-1.5,2.7c0.1,1.2,0.5,1.9,1.2,2.8c-0.2-0.2-0.3-0.4-0.5-0.6
						c0,0.1,0.1,0.1,0.1,0.2c-0.1-0.2-0.2-0.5-0.3-0.7c0,0,0,0.1,0,0.1c0-0.3-0.1-0.6-0.1-0.8c0,0,0,0.1,0,0.1
						c0.1,1.7,1.3,3.1,3.1,3.1c0.8,0,1.6-0.3,2.2-0.9C42.7,498.2,43.2,497.3,43.1,496.5L43.1,496.5z"/>
					<path class="st4" d="M52.6,498c0-0.2,0-0.3,0-0.5c-0.2,0.5-0.4,1-0.6,1.5c0,0,0.1-0.1,0.1-0.1c-0.3,0.2-0.6,0.3-0.9,0.5
						c0,0,0.1,0,0.1,0c0.8-0.3,1.4-0.9,1.4-1.9s-0.6-1.5-1.4-1.9c0,0-0.1,0-0.1,0c0.3,0.2,0.6,0.3,0.9,0.5c0,0-0.1-0.1-0.1-0.1
						c-0.5-0.5-1.3-0.7-2-0.5c-0.9,0.3-1.4,1.1-1.5,2c0,0.2,0,0.3,0,0.5c-0.1,1.1,1,2.1,2.1,2.1S52.7,499.1,52.6,498L52.6,498z"/>
					<path class="st4" d="M61.2,496.8c-0.4-0.1-0.8-0.1-1.2-0.2c-1.5-0.1-2.8,1.3-2.8,2.8c0,1.8,1.8,3.2,3.6,2.7
						c0.2,0,0.3-0.1,0.5-0.1c0.8-0.3,0.9-0.4,0.2-0.1c0.2-0.1,0.5-0.2,0.7-0.3c1.3-0.6,1.4-2.2,0.9-3.3c-0.4-0.9-1.4-1.4-2.3-1.6
						c-0.2,1.8-0.5,3.7-0.7,5.5c0.4,0,0.8-0.1,1.2-0.2c1.2-0.2,2-1.5,2-2.7S62.4,497.1,61.2,496.8L61.2,496.8z"/>
				</g>
			</g>
			<g style="clip-path:url(#SVGID_00000065074352931970640950000001023747020655507851_);">
				<g>
					<path class="st1" d="M181.5,540c-3.3-10.1-10.6-19-10.5-30c0.1-9.3,2.8-17.8,4-26.5c0,3.5,0,7,0,10.5c0-15.6,3.9-29-11.9-37.5
						c-16.6-8.9-26.4-24.5-46.9-21.7c-16.9,2.3-31.9-0.7-48.6-0.8c-21.4-0.1-42.3,6.5-62.9,11.7c-19.1,4.8-37,10.9-55.6,17
						c-8.9,2.9-17.9,6.5-27.3,7.2c-10.6,0.7-13.4-3.8-21.2-9.4c-6.7-4.8-14.6-8.2-21.6-12.9c-7.5-5.1-15.4-9.2-24-12
						c-6.5-2.1-14-2.4-20-1.5c-10.8,4.1-20.2,10-29.5,16.6c-12.3,8.7-29.4,22.2-33.9,37.5c-2.2,7.5-1.3,18.3,0.5,25.8
						c1.9,7.7-0.7,18.3-2.9,26c-9.5,34.1-37.7,61.1-32.2,99.2c1.8,12.2,22,17.6,32.1,21.4c19.5,7.5,36.6-2.7,56.2-0.8
						c8,0.8,12.6,9.2,19.5,12.7c8,4.1,16.7,8,25.2,10.9c8.8,3.1,18.1,4.9,27.1,7.4c10.9,3,18.3,1.4,29.5,0.2
						c16-1.7,32.2,2.8,43.5-11c5.9-7.3,10.9-13.2,18.1-19.1c5.3-4.3,8.5-11.9,16.1-12.7c14.1-1.4,26,15,34.8,23.4
						c13.2,12.5,36.2,12,53,14.2c5.8,0.8,15.3,5.3,20.9,4.3c7.2-1.3,12.4-7.6,18-11.6c12.2-8.7,26.8-19.8,32-34.4
						c5.7-16.3,3.9-32.6,10.3-49.2C180,577.5,187.6,558.7,181.5,540C178.2,529.6,189.2,563.5,181.5,540z"/>
				</g>
				<g>
					<path class="st4" d="M46,500c2.6,0,2.6-4,0-4S43.4,500,46,500L46,500z"/>
				</g>
			</g>
			<g style="clip-path:url(#SVGID_00000065074352931970640950000001023747020655507851_);">
				<g>
					<path class="st1" d="M633,348c-7.2,0.1-17.2,0.3-24.1,1.9c-8.4,2-15.4,6.6-24.3,8.1c-17.6,2.9-24.4,25.2-43.5,19.5
						c-14.8-4.5-22.5-24.7-32.8-35.2c-5.5-5.6-11.9-10.6-19.5-12.9c-9.5-3-19.8-0.7-29.5-2.6c-16.3-3.2-23-21.6-38.3-27.7
						c-8.6-3.4-17.7-4.2-25.9-8.6c-10-5.3-20.3-8.6-31.2-11.4c-17.9-4.7-38.3-7.2-54.7-15.7c-15.2-7.9-37.2,6.3-45.6,19.2
						c-10,15.5-8.5,30.7-3.5,47.7c2.4,8.2,6.4,16,13.4,21.2c7.9,5.9,14.5,14.2,22.8,19.3c7.3,4.4,15.2,7.5,22.8,11.3
						c6.5,3.2,14.5,2.9,20.4,7.4c6.3,4.8,8.1,13.1,14.8,17.6c8,5.4,18.8,8.9,28.3,10.5c17.6,3,37.4-3.2,55.4-3.2
						c8.8,0,16.8-4,25.5-4.4c10.2-0.4,17.6,5.7,27.1,7.8c41.4,9.1,72.7-18.7,106.5-35.8c10.5-5.3,25.2-13.2,32.2-22.8
						c5.4-7.4,11.3-7.7,19.6-9C643.6,350,638.4,347.9,633,348C628.4,348.1,638.7,347.9,633,348z"/>
					<path class="st1" d="M692.7,145.7c-3.5-26.6-38.8-6.6-51.7,1c-14.5,8.6-31.1,16.6-44.3,27c-5.8,4.5-10,10.6-15.9,15.1
						c-7.4,5.6-15.8,10.1-21.4,17.7c-8.8,11.9-21.3,20.9-28.4,34.1c-7.9,14.7-11,30.5-21.3,43.8c-10.4,13.4-22.9,21-37.4,29.3
						c-11.7,6.7-28.8,14.5-28,30.2c0.8,15.7,16,16.9,28.7,13.4c15.5-4.3,25.9-8.6,36.8-20.2c9.3-9.9,29.1-14.1,41.8-16.8
						c17.5-3.8,34.9-9.8,49.8-19.6c14.9-9.9,28.3-19.6,39.3-33.9c4.5-5.8,8.8-11.8,13.9-17.1c4.7-4.9,11.9-11.5,14.6-17.5
						c6.9-15.5,10.4-33.1,15.9-49.1C689.8,170.1,694.6,159.7,692.7,145.7C692.3,142.1,693.3,149.9,692.7,145.7z"/>
					<path class="st5" d="M697.2,344.8c-9.9-15.3-24.4-21-38.7-30.6c-17.3-11.6-36.1,6-53.7-1.9c-15.2-6.9-21.8-23.4-40.3-22.7
						c-5,0.2-18.1,3.3-20.7,8.3c-1.1,2.1-3.6,2.7-4.2,5.1c-1.3,5.1,0.6,10.2,0.3,15.2c-0.9,15.9-16.2,27.4-25.6,38.4
						c-4.9,5.8-11.4,11.5-14.9,18.4c-4.5,8.8-4,18.7-7.6,27.6c-5.2,12.7-32.8,9-43.3,8.3c-21.7-1.5-34.8,3.9-53,14.9
						c-7.3,4.4-13.6,10.3-21.3,14c-7.9,3.8-17.8,2.8-24.4,9.1c-14.2,13.5-1.2,34.7,11.7,42.7c14.9,9.2,33.6,15.1,46.7,26.6
						c13.2,11.7,22.6,28.4,40,32.8c16.1,4.1,27.5-8.3,38.6-19.2c13.2-13,27-26.7,42.6-36.7c15.3-9.8,33.3-0.9,49.8,2
						c19.7,3.6,37.2,2.9,54.8-7.4c13.4-7.8,45.2-15.1,51.4-31c0,2,0.7,4,0.7,6c2.7-7.8,7.4-11.9,13.1-17.2c10.4-9.6,5.9-16.5,3-28.6
						c-3.1-12.8-2.5-21.7-1.3-34.9C701.9,372.7,703.6,354.7,697.2,344.8C695.1,341.5,699.6,348.4,697.2,344.8z"/>
					<path class="st6" d="M664,179c0.2-15.8-16.1-13-25-6.2c-10.5,8-26.9,8.5-39.3,5c-15.9-4.5-31.2-10.7-47.7-13.6
						c-9.7-1.7-14.4,0.9-22.7,5.4c-7.4,4-15.7,5.3-23.5,8.4c-14.7,5.8-26.2,18.6-36.7,29.8c-10.4,11.2-22.3,24-20.6,40.4
						c1.7,16.4,17.1,24.5,21.5,39c4.7,15.7,0.6,34.1-4.3,49.1c-2.4,7.4-5.9,14.9-3.5,22.7c2.5,8.1,9,16.2,15.3,21.8
						c14.2,12.6,27.6,0.1,40.5-7.1c5.3-2.9,10.7-7,17-7c8-0.1,14.8-3.4,20.1-9.7c5.1-6.1,4.9-16,7.1-23.3c2.4-7.6,3.8-14.7,3.8-22.6
						c0-6.9,0.1-13.4-1.1-20c-1.2-6.8-3.4-13.7-2.8-20.6c1.2-16.3,25.3-21.7,38.2-24.6c19-4.3,29.9-10,43-24.2
						c5.4-5.8,7.3-12.2,11.3-18.8c-1.2-1.5,4.9-3.1,6.4-3.8C655,200.6,664,181.7,664,179C664,177.1,664,180,664,179z"/>
				</g>
			</g>
			<g style="clip-path:url(#SVGID_00000065074352931970640950000001023747020655507851_);">
				<g>
					<path class="st1" d="M681.5,40c-3.3-10.1-10.6-19-10.5-30c0.1-9.3,2.8-17.8,4-26.5c0,3.5,0,7,0,10.5c0-15.6,3.9-29-11.9-37.5
						c-16.6-8.9-26.4-24.5-46.9-21.7c-16.9,2.3-31.9-0.7-48.6-0.8c-21.4-0.1-42.3,6.5-62.9,11.7c-19.1,4.8-37,10.9-55.6,17
						c-8.9,2.9-17.9,6.5-27.3,7.2c-10.6,0.7-13.4-3.8-21.2-9.4c-6.7-4.8-14.6-8.2-21.6-12.9c-7.5-5.1-15.4-9.2-24-12
						c-6.5-2.1-14-2.4-20-1.5c-10.8,4.1-20.2,10-29.5,16.6c-12.3,8.7-29.4,22.2-33.9,37.5c-2.2,7.5-1.3,18.3,0.5,25.8
						c1.9,7.7-0.7,18.3-2.9,26c-9.5,34.1-37.7,61.1-32.2,99.2c1.8,12.2,22,17.6,32.1,21.4c19.5,7.5,36.6-2.7,56.2-0.8
						c8,0.8,12.6,9.2,19.5,12.7c8,4.1,16.7,8,25.2,10.9c8.8,3.1,18.1,4.9,27.1,7.4c10.9,3,18.3,1.4,29.5,0.2
						c16-1.7,32.2,2.8,43.5-11c5.9-7.3,10.9-13.2,18.1-19.1c5.3-4.3,8.5-11.9,16.1-12.7c14.1-1.4,26,15,34.8,23.4
						c13.2,12.5,36.2,12,53,14.2c5.8,0.8,15.3,5.3,20.9,4.3c7.2-1.3,12.4-7.6,18-11.6c12.2-8.7,26.8-19.8,32-34.4
						c5.7-16.3,3.9-32.6,10.3-49.2C680,77.5,687.6,58.7,681.5,40C678.2,29.6,689.2,63.5,681.5,40z"/>
					<path class="st1" d="M133,348c-7.2,0.1-17.2,0.3-24.1,1.9c-8.4,2-15.4,6.6-24.3,8.1c-17.6,2.9-24.4,25.2-43.5,19.5
						c-14.8-4.5-22.5-24.7-32.8-35.2c-5.5-5.6-11.9-10.6-19.5-12.9c-9.5-3-19.8-0.7-29.5-2.6c-16.3-3.2-23-21.6-38.3-27.7
						c-8.6-3.4-17.7-4.2-25.9-8.6c-10-5.3-20.3-8.6-31.2-11.4c-17.9-4.7-38.3-7.2-54.7-15.7c-15.2-7.9-37.2,6.3-45.6,19.2
						c-10,15.5-8.5,30.7-3.5,47.7c2.4,8.2,6.4,16,13.4,21.2c7.9,5.9,14.5,14.2,22.8,19.3c7.3,4.4,15.2,7.5,22.8,11.3
						c6.5,3.2,14.5,2.9,20.4,7.4c6.3,4.8,8.1,13.1,14.8,17.6c8,5.4,18.8,8.9,28.3,10.5c17.6,3,37.4-3.2,55.4-3.2
						c8.8,0,16.8-4,25.5-4.4c10.2-0.4,17.6,5.7,27.1,7.8c41.4,9.1,72.7-18.7,106.5-35.8c10.5-5.3,25.2-13.2,32.2-22.8
						c5.4-7.4,11.3-7.7,19.6-9C143.6,350,138.4,347.9,133,348C128.4,348.1,138.7,347.9,133,348z"/>
					<path class="st1" d="M192.7,145.7c-3.5-26.6-38.8-6.6-51.7,1c-14.5,8.6-31.1,16.6-44.3,27c-5.8,4.5-10,10.6-15.9,15.1
						c-7.4,5.6-15.8,10.1-21.4,17.7c-8.8,11.9-21.3,20.9-28.4,34.1c-7.9,14.7-11,30.5-21.3,43.8c-10.4,13.4-22.9,21-37.4,29.3
						c-11.7,6.7-28.8,14.5-28,30.2c0.8,15.7,16,16.9,28.7,13.4c15.5-4.3,25.9-8.6,36.8-20.2c9.3-9.9,29.1-14.1,41.8-16.8
						c17.5-3.8,34.9-9.8,49.8-19.6c14.9-9.9,28.3-19.6,39.3-33.9c4.5-5.8,8.8-11.8,13.9-17.1c4.7-4.9,11.9-11.5,14.6-17.5
						c6.9-15.5,10.4-33.1,15.9-49.1C189.8,170.1,194.6,159.7,192.7,145.7C192.3,142.1,193.3,149.9,192.7,145.7z"/>
					<path class="st5" d="M350,140c0.2-15.6-9.1-30.9-24.4-35.1c-7.4-2-17.5-3.4-24.9-0.6c-4,1.5-7.9,2.7-11.5,5.1
						c-3.7,2.4-5.6,6.7-9.5,8.7c-13.4,6.7-29.3,11.8-35.8-5c-7.1-18.6-5.9-39.8-13.5-58.4c-4.8-11.8-23.3-0.6-33.3-2.7
						c-14.5-3-24.3-23-31.4-34.5c-3.7-6-14.7-2-19.4,0.8c-6.8,4.1-9.4,12-9.4,19.3c0,8.3,2,18.6-0.9,26.5
						c-3.5,9.4-10.1,8.8-16.2,14.9c-7,6.9-9.7,25.8,4.1,22.1c3-0.8,5.2-3.6,7.7-5.2c3.1-2.1,5.2,0.1,8.3,0.1c6.5,0,11.9,9.9,16.2,14
						c10.5,9.9,21.5,19.5,28.5,32.3c10.5,18.9,4.7,39.4-3.7,57.9c-4.2,9.4-8,18.9-13,27.9c-4.5,8-11.4,14.7-16.4,22.4
						c-12,18.5-12.9,35.3-1.9,54.8c5,8.8,6.5,3.3,14.4,4.8c6.9,1.3,10.8,10.1,16.8,12.7c17.3,7.6,38.1-0.2,53.5-9.4
						c18.3-10.9,27.8-17.7,34.8-38.5c5.3-15.7,12.4-34,22.7-47.2C313.7,199.8,349.4,179,350,140C350,137.9,350,142,350,140z"/>
					<path class="st5" d="M197.2,344.8c-9.9-15.3-24.4-21-38.7-30.6c-17.3-11.6-36.1,6-53.7-1.9c-15.2-6.9-21.8-23.4-40.3-22.7
						c-5,0.2-18.1,3.3-20.7,8.3c-1.1,2.1-3.6,2.7-4.2,5.1c-1.3,5.1,0.6,10.2,0.3,15.2c-0.9,15.9-16.2,27.4-25.6,38.4
						C9.5,362.5,3,368.2-0.5,375.1c-4.5,8.8-4,18.7-7.6,27.6c-5.2,12.7-32.8,9-43.3,8.3c-21.7-1.5-34.8,3.9-53,14.9
						c-7.3,4.4-13.6,10.3-21.3,14c-7.9,3.8-17.8,2.8-24.4,9.1c-14.2,13.5-1.2,34.7,11.7,42.7c14.9,9.2,33.6,15.1,46.7,26.6
						c13.2,11.7,22.6,28.4,40,32.8c16.1,4.1,27.5-8.3,38.6-19.2c13.2-13,27-26.7,42.6-36.7c15.3-9.8,33.3-0.9,49.8,2
						c19.7,3.6,37.2,2.9,54.8-7.4c13.4-7.8,45.2-15.1,51.4-31c0,2,0.7,4,0.7,6c2.7-7.8,7.4-11.9,13.1-17.2c10.4-9.6,5.9-16.5,3-28.6
						c-3.1-12.8-2.5-21.7-1.3-34.9C201.9,372.7,203.6,354.7,197.2,344.8C195.1,341.5,199.6,348.4,197.2,344.8z"/>
					<path class="st3" d="M325-69c-0.5-9.8-16.5-24.3-25.2-27.7c-15-5.9-29.8-11.5-45.7-5.1c-13.1,5.3-22.8,15.9-33.7,24.5
						c-12.5,10-25.2,19.8-33.9,33.6c-7.5,12.1-17.8,27.1-19.6,41.5c-1.7,13.7,5.6,25.8,4,39.2c-1.3,11.1,9.7,56.2-7,56.1
						c2.3,1.3,4.7,2.7,7,4c-11.6,1.1-23.3,12.3-27.5,22.8c-3.1,7.7-0.6,11.6,4.2,17.5c6.2,7.6,0.1,12.1-4.7,18
						c-24.7,30.4-53.9-1.9-80.9-7.7c-11.8-2.6-27.9,10.8-19.9,23.5c6.8,10.8,29.1,13.9,40.7,17.8c15.3,5.1,28-1.7,38.1,14
						c8.4,13.2,21.7,26.2,37.7,16.5c11-6.6,21-17,29.4-26.5c10.9-12.4,24.8-19.6,38.1-29c6.2-4.3,11.4-9.9,16-15.8
						c3.7-4.9,1.5-9.9,6-14c11.6-10.8,27.7-14.8,39-26c11.8-11.7,20.7-28.2,25.8-43.9c2.2-6.7,4.4-14.9,2.1-21.8
						c-2.3-6.9-8.1-12.1-10.1-19.3c-4.6-16.4,7.6-33.2,13-47.8C323.1-39.4,325.8-53.4,325-69z"/>
					<path class="st6" d="M164,179c0.2-15.8-16.1-13-25-6.2c-10.5,8-26.9,8.5-39.3,5c-15.9-4.5-31.2-10.7-47.7-13.6
						c-9.7-1.7-14.4,0.9-22.7,5.4c-7.4,4-15.7,5.3-23.5,8.4c-14.7,5.8-26.2,18.6-36.7,29.8c-10.4,11.2-22.3,24-20.6,40.4
						c1.7,16.4,17.1,24.5,21.5,39c4.7,15.7,0.6,34.1-4.3,49.1c-2.4,7.4-5.9,14.9-3.5,22.7c2.5,8.1,9,16.2,15.3,21.8
						c14.2,12.6,27.6,0.1,40.5-7.1c5.3-2.9,10.7-7,17-7c8-0.1,14.8-3.4,20.1-9.7c5.1-6.1,4.9-16,7.1-23.3C64.6,326,66,318.9,66,311
						c0-6.9,0.1-13.4-1.1-20c-1.2-6.8-3.4-13.7-2.8-20.6c1.2-16.3,25.3-21.7,38.2-24.6c19-4.3,29.9-10,43-24.2
						c5.4-5.8,7.3-12.2,11.3-18.8c-1.2-1.5,4.9-3.1,6.4-3.8C155,200.6,164,181.7,164,179C164,177.1,164,180,164,179z"/>
					<path class="st7" d="M558,90.3c-8.2-12.3-21.6-11.4-33.9-6.6c-14.5,5.7-30.9,10.6-44,19c-0.2-1,0.1-1.8,0.8-2.4
						c-15.4-4.7-26.9,6.3-34.7,17.7c-4.9,7.2-7,17.3-10.2,25.3c-3.1,7.8-3.8,19.9-8.1,26.9c-4.3,7-28.4-15.7-30.7-20.1
						c-6.2-12.4-4.9-41.1-27-36.7c-15.1,3-18.6,22.6-30,31.1c-4.5,3.3-6,8.1-10.3,11.6c-3.2,2.6-5.1,4.8-9.6,4.1
						c-2.2-0.4-7.1-2.5-9.2-0.6c-14.4-6.6-31.2,2.5-40.2,14.1c-4.5,5.9-8.5,12.8-11.5,19.6c-1.4,3.1,0.1,5.4,1.3,8.2
						c1.9,4.7,0.5,7.4-0.6,12c-3.5,14.4-11.9,27.7-15.9,42.2c-4.3,15.5,21.3,25.3,31.9,28.4c7.3,2.1,15.1,3.8,20.8,9.2
						c5.9,5.7,11.9,10.2,20.4,10.1c17.3-0.3,33.7-3.6,50.6-6.8c9.7-1.8,15.2-6.5,25.7-4.2c9.4,2.1,15.8,6,25.8,4.4
						c15-2.4,31.6-21.2,38.6-33.8c8.3-14.9,18-26.1,32.9-35c12.5-7.5,28.5-12.2,39.7-22c6.8-5.9,15.8-8.5,21.2-16
						c5.9-8.3,9.2-20.6,13.1-30.1C574.8,136.4,571.9,111.2,558,90.3C555.8,86.9,567.9,105.1,558,90.3z"/>
					<path class="st3" d="M549.1,293c-0.1,2.1-0.6,7.3-1.3,9c-2.5,7.4-26.2,16.5-33.4,18.1c-15.5,3.4-31.2,2.9-46.1,8.9
						c-8.3,3.4-14.8,11.1-23.2,15c-8.7,4-14.4,5.5-24,5.1c-16.5-0.6-33.5,3.9-43.3-14.1c-3.3-6.1-8.4-18.6-16.8-19.1
						c-2.9-0.1-11.5-2.4-13.5-1.2c-14.4,8.7-20.1-21.1-19.7-29.9c0.8-17.7,3.6-35.6,4.2-53.2c0.2-7.3,0.7-13.6-0.2-20.8
						c-0.9-7.8-10.5-7.5-14.3-12.7c-4.9-6.6,1.8-16.8,5.3-22.3c1.9-3,3.9-5,7.8-5.1c5.8-0.1,3-1.1,7.7-4.1
						c5.1-3.3,12.1,4.3,13.5,8.6c2.7,8.8,8.8,2.7,14.8,2c3.8-0.4,6.7-2.9,9.9,0.6c2.2,2.4,3.1,5.8,5.9,7.7c7.5,5.1,13.3,4.9,14,14.8
						c0.8,13-5.9,30.1,3.3,41.7c7.5,9.5,30.3-1.2,40-3.6c6.1-1.5,11.5-4.9,17.4-6.9c8.5-2.8,16.1-0.8,24.8-0.7
						C518.7,231,551.4,253.3,549.1,293C548.9,294.9,549.3,289.3,549.1,293z M331.2,182.9c1.1-0.5,1.7-1.4,1.7-2.6
						C331.8,180.8,330.9,181.7,331.2,182.9C332.3,182.7,331.2,182.6,331.2,182.9z"/>
					<path class="st1" d="M381.8,395.1c-6.3-8.6-25.1-15.6-34.8-19.5c-12.1-4.9-25.2-10.2-35.6-18.3c-22.9-17.9-28.2-43.8-24.1-70.9
						c2.1-14.3,21.3-72.5-10.2-64.5c-14.6,3.7-10.6,14.4-13.8,26.4c-3.9,15-10.5,22.7-22.5,31.9c-6.6,5-21.6,19-29.8,16
						c-13.1-4.9-26.6-11.2-40-15.2c-11.2-3.4-21.4-10-32.5-12.9c-12.6-3.3-27.5,4.7-36.5,13.1c-10.5,9.8-11.1,18.3-7,31.7
						c3.8,12.2,17.7,18.4,24.6,29.3c7.9,12.4,5.9,29.3,8.2,43.4c1.1,6.8-0.7,14.2-0.9,21.1c-0.1,5.6,1.3,11,1.1,16.6
						c-0.2-1.7-0.8-3.3-1.1-5c-1.6,17.5-1,34.9-1,53c0,12.4-0.6,25.8-5.2,37.5c-2.7,7-12.1,29.1-5,35.6c6.9,6.3,23.3,10,32.6,10
						c9.5,0.1,20.5-17.4,25.3-24.3c14.7-21.3,28.2-44.8,52.7-56.6c15.4-7.4,15.1-34.7,29.5-45.3c10.8-7.9,23.1-11.5,32.2-0.2
						c7.1,8.7,14.3,17.3,20.8,26.2c8.2,11.4,17.1,19.5,30,25.7c5.6,2.7,10.7-0.1,14.4-4.4c5.6-6.6,2.5-11.6,2.6-19.3
						c0.2-14.4,6.7-19.9,15-30C377.4,418.2,389.6,405.8,381.8,395.1C378.3,390.2,384.4,398.7,381.8,395.1z"/>
				</g>
			</g>
			<g style="clip-path:url(#SVGID_00000065074352931970640950000001023747020655507851_);">
				<g>
					<path class="st1" d="M181.5,40c-3.3-10.1-10.6-19-10.5-30c0.1-9.3,2.8-17.8,4-26.5c0,3.5,0,7,0,10.5c0-15.6,3.9-29-11.9-37.5
						c-16.6-8.9-26.4-24.5-46.9-21.7C99.3-63,84.3-66,67.5-66.1c-21.4-0.1-42.3,6.5-62.9,11.7c-19.1,4.8-37,10.9-55.6,17
						c-8.9,2.9-17.9,6.5-27.3,7.2c-10.6,0.7-13.4-3.8-21.2-9.4c-6.7-4.8-14.6-8.2-21.6-12.9c-7.5-5.1-15.4-9.2-24-12
						c-6.5-2.1-14-2.4-20-1.5c-10.8,4.1-20.2,10-29.5,16.6c-12.3,8.7-29.4,22.2-33.9,37.5c-2.2,7.5-1.3,18.3,0.5,25.8
						c1.9,7.7-0.7,18.3-2.9,26c-9.5,34.1-37.7,61.1-32.2,99.2c1.8,12.2,22,17.6,32.1,21.4c19.5,7.5,36.6-2.7,56.2-0.8
						c8,0.8,12.6,9.2,19.5,12.7c8,4.1,16.7,8,25.2,10.9c8.8,3.1,18.1,4.9,27.1,7.4c10.9,3,18.3,1.4,29.5,0.2
						c16-1.7,32.2,2.8,43.5-11c5.9-7.3,10.9-13.2,18.1-19.1c5.3-4.3,8.5-11.9,16.1-12.7c14.1-1.4,26,15,34.8,23.4
						c13.2,12.5,36.2,12,53,14.2c5.8,0.8,15.3,5.3,20.9,4.3c7.2-1.3,12.4-7.6,18-11.6c12.2-8.7,26.8-19.8,32-34.4
						c5.7-16.3,3.9-32.6,10.3-49.2C180,77.5,187.6,58.7,181.5,40C178.2,29.6,189.2,63.5,181.5,40z"/>
					<path class="st7" d="M58,90.3C49.8,78,36.4,78.8,24.1,83.7c-14.5,5.7-30.9,10.6-44,19c-0.2-1,0.1-1.8,0.8-2.4
						c-15.4-4.7-26.9,6.3-34.7,17.7c-4.9,7.2-7,17.3-10.2,25.3c-3.1,7.8-3.8,19.9-8.1,26.9c-4.3,7-28.4-15.7-30.7-20.1
						c-6.2-12.4-4.9-41.1-27-36.7c-15.1,3-18.6,22.6-30,31.1c-4.5,3.3-6,8.1-10.3,11.6c-3.2,2.6-5.1,4.8-9.6,4.1
						c-2.2-0.4-7.1-2.5-9.2-0.6c-14.4-6.6-31.2,2.5-40.2,14.1c-4.5,5.9-8.5,12.8-11.5,19.6c-1.4,3.1,0.1,5.4,1.3,8.2
						c1.9,4.7,0.5,7.4-0.6,12c-3.5,14.4-11.9,27.7-15.9,42.2c-4.3,15.5,21.3,25.3,31.9,28.4c7.3,2.1,15.1,3.8,20.8,9.2
						c5.9,5.7,11.9,10.2,20.4,10.1c17.3-0.3,33.7-3.6,50.6-6.8c9.7-1.8,15.2-6.5,25.7-4.2c9.4,2.1,15.8,6,25.8,4.4
						c15-2.4,31.6-21.2,38.6-33.8c8.3-14.9,18-26.1,32.9-35c12.5-7.5,28.5-12.2,39.7-22c6.8-5.9,15.8-8.5,21.2-16
						c5.9-8.3,9.2-20.6,13.1-30.1C74.8,136.4,71.9,111.2,58,90.3C55.8,86.9,67.9,105.1,58,90.3z"/>
					<path class="st3" d="M49.1,293c-0.1,2.1-0.6,7.3-1.3,9c-2.5,7.4-26.2,16.5-33.4,18.1c-15.5,3.4-31.2,2.9-46.1,8.9
						c-8.3,3.4-14.8,11.1-23.2,15c-8.7,4-14.4,5.5-24,5.1c-16.5-0.6-33.5,3.9-43.3-14.1c-3.3-6.1-8.4-18.6-16.8-19.1
						c-2.9-0.1-11.5-2.4-13.5-1.2c-14.4,8.7-20.1-21.1-19.7-29.9c0.8-17.7,3.6-35.6,4.2-53.2c0.2-7.3,0.7-13.6-0.2-20.8
						c-0.9-7.8-10.5-7.5-14.3-12.7c-4.9-6.6,1.8-16.8,5.3-22.3c1.9-3,3.9-5,7.8-5.1c5.8-0.1,3-1.1,7.7-4.1
						c5.1-3.3,12.1,4.3,13.5,8.6c2.7,8.8,8.8,2.7,14.8,2c3.8-0.4,6.7-2.9,9.9,0.6c2.2,2.4,3.1,5.8,5.9,7.7c7.5,5.1,13.3,4.9,14,14.8
						c0.8,13-5.9,30.1,3.3,41.7c7.5,9.5,30.3-1.2,40-3.6c6.1-1.5,11.5-4.9,17.4-6.9c8.5-2.8,16.1-0.8,24.8-0.7
						C18.7,231,51.4,253.3,49.1,293C48.9,294.9,49.3,289.3,49.1,293z M-168.8,182.9c1.1-0.5,1.7-1.4,1.7-2.6
						C-168.2,180.8-169.1,181.7-168.8,182.9C-167.7,182.7-168.8,182.6-168.8,182.9z"/>
				</g>
			</g>
			<g style="clip-path:url(#SVGID_00000065074352931970640950000001023747020655507851_);">
				<g>
					<path class="st5" d="M697.2-155.2c-9.9-15.3-24.4-21-38.7-30.6c-17.3-11.6-36.1,6-53.7-1.9c-15.2-6.9-21.8-23.4-40.3-22.7
						c-5,0.2-18.1,3.3-20.7,8.3c-1.1,2.1-3.6,2.7-4.2,5.1c-1.3,5.1,0.6,10.2,0.3,15.2c-0.9,15.9-16.2,27.4-25.6,38.4
						c-4.9,5.8-11.4,11.5-14.9,18.4c-4.5,8.8-4,18.7-7.6,27.6c-5.2,12.7-32.8,9-43.3,8.3c-21.7-1.5-34.8,3.9-53,14.9
						c-7.3,4.4-13.6,10.3-21.3,14c-7.9,3.8-17.8,2.8-24.4,9.1c-14.2,13.5-1.2,34.7,11.7,42.7c14.9,9.2,33.6,15.1,46.7,26.6
						c13.2,11.7,22.6,28.4,40,32.8c16.1,4.1,27.5-8.3,38.6-19.2c13.2-13,27-26.7,42.6-36.7c15.3-9.8,33.3-0.9,49.8,2
						c19.7,3.6,37.2,2.9,54.8-7.4c13.4-7.8,45.2-15.1,51.4-31c0,2,0.7,4,0.7,6c2.7-7.8,7.4-11.9,13.1-17.2c10.4-9.6,5.9-16.5,3-28.6
						c-3.1-12.8-2.5-21.7-1.3-34.9C701.9-127.3,703.6-145.3,697.2-155.2C695.1-158.5,699.6-151.6,697.2-155.2z"/>
				</g>
			</g>
			<g style="clip-path:url(#SVGID_00000065074352931970640950000001023747020655507851_);">
				<g>
					<path class="st5" d="M197.2-155.2c-9.9-15.3-24.4-21-38.7-30.6c-17.3-11.6-36.1,6-53.7-1.9c-15.2-6.9-21.8-23.4-40.3-22.7
						c-5,0.2-18.1,3.3-20.7,8.3c-1.1,2.1-3.6,2.7-4.2,5.1c-1.3,5.1,0.6,10.2,0.3,15.2c-0.9,15.9-16.2,27.4-25.6,38.4
						C9.5-137.5,3-131.8-0.5-124.9c-4.5,8.8-4,18.7-7.6,27.6c-5.2,12.7-32.8,9-43.3,8.3c-21.7-1.5-34.8,3.9-53,14.9
						c-7.3,4.4-13.6,10.3-21.3,14c-7.9,3.8-17.8,2.8-24.4,9.1c-14.2,13.5-1.2,34.7,11.7,42.7c14.9,9.2,33.6,15.1,46.7,26.6
						c13.2,11.7,22.6,28.4,40,32.8c16.1,4.1,27.5-8.3,38.6-19.2c13.2-13,27-26.7,42.6-36.7c15.3-9.8,33.3-0.9,49.8,2
						c19.7,3.6,37.2,2.9,54.8-7.4c13.4-7.8,45.2-15.1,51.4-31c0,2,0.7,4,0.7,6c2.7-7.8,7.4-11.9,13.1-17.2c10.4-9.6,5.9-16.5,3-28.6
						c-3.1-12.8-2.5-21.7-1.3-34.9C201.9-127.3,203.6-145.3,197.2-155.2C195.1-158.5,199.6-151.6,197.2-155.2z"/>
					<path class="st1" d="M381.8-104.9c-6.3-8.6-25.1-15.6-34.8-19.5c-12.1-4.9-25.2-10.2-35.6-18.3c-22.9-17.9-28.2-43.8-24.1-70.9
						c2.1-14.3,21.3-72.5-10.2-64.5c-14.6,3.7-10.6,14.4-13.8,26.4c-3.9,15-10.5,22.7-22.5,31.9c-6.6,5-21.6,19-29.8,16
						c-13.1-4.9-26.6-11.2-40-15.2c-11.2-3.4-21.4-10-32.5-12.9c-12.6-3.3-27.5,4.7-36.5,13.1c-10.5,9.8-11.1,18.3-7,31.7
						c3.8,12.2,17.7,18.4,24.6,29.3c7.9,12.4,5.9,29.3,8.2,43.4c1.1,6.8-0.7,14.2-0.9,21.1c-0.1,5.6,1.3,11,1.1,16.6
						c-0.2-1.7-0.8-3.3-1.1-5c-1.6,17.5-1,34.9-1,53c0,12.4-0.6,25.8-5.2,37.5c-2.7,7-12.1,29.1-5,35.6c6.9,6.3,23.3,10,32.6,10
						c9.5,0.1,20.5-17.4,25.3-24.3c14.7-21.3,28.2-44.8,52.7-56.6c15.4-7.4,15.1-34.7,29.5-45.3c10.8-7.9,23.1-11.5,32.2-0.2
						c7.1,8.7,14.3,17.3,20.8,26.2c8.2,11.4,17.1,19.5,30,25.7c5.6,2.7,10.7-0.1,14.4-4.4c5.6-6.6,2.5-11.6,2.6-19.3
						c0.2-14.4,6.7-19.9,15-30C377.4-81.8,389.6-94.2,381.8-104.9C378.3-109.8,384.4-101.3,381.8-104.9z"/>
				</g>
				<g>
					<path class="st4" d="M183.9-2.3c-0.1,0-0.1-0.1-0.2-0.1c-0.2,1.5-0.4,3-0.6,4.5c0,0,0.1,0,0.1,0c1-0.4,1.8-1.2,1.8-2.3
						c0-1.1-0.7-1.9-1.8-2.3c0,0-0.1,0-0.1,0c-1.5-0.6-3.1,0.9-3.1,2.4c0,1.9,2.1,3,3.7,2.1c0.1,0,0.1-0.1,0.2-0.1
						C185.4,1,185.4-1.5,183.9-2.3L183.9-2.3z"/>
					<path class="st4" d="M172.3,1.5c0.2-0.3-0.1-0.2-1,0.4c0.7,0,1.2-0.5,1.5-1.1c0.2-0.5,0.1-1.1-0.2-1.5
						c-0.8-1.3-2.9-1.1-3.3,0.4c-0.2,0.8,0.1,1.6,0.8,2C170.7,2.2,171.8,2.1,172.3,1.5L172.3,1.5z"/>
					<path class="st4" d="M162.1-2.6c0.3,0.2,0.5,0.3,0.8,0.5c0.2,0.3,0.4,0.7,0.6,1c0,0,0,0,0,0c0,0.4,0,0.8,0,1.2
						c0.1-0.3,0.1-0.5,0.1-0.8c0.1-1.5-1.6-2.6-3-2.3c-1.4,0.4-2.2,2.2-1.4,3.5c0.5,0.7,1.2,1.2,2,1.2c0.9,0,1.6-0.5,2-1.2
						c0.8-1.3,0-3.1-1.4-3.5c-1.3-0.4-3.1,0.7-3,2.3c0.1,0.7,0.2,1.3,0.8,1.8c0.6,0.6,1.6,0.8,2.4,0.6c0.9-0.3,1.6-1.1,1.6-2.1
						C163.7-1.5,163-2.3,162.1-2.6L162.1-2.6z"/>
					<path class="st4" d="M134.1-1.9C134-1.9,134-2,133.9-2c-1.3-0.7-3-0.1-3.4,1.4c-0.2,0.8,0,1.7,0.6,2.3c0.6,0.6,1.4,0.7,2.3,0.6
						c0,0,0.1,0,0.1,0c2.2-0.4,2.2-4,0-4.4c0,0-0.1,0-0.1,0c-0.6-0.1-1.2-0.1-1.8,0.2c-0.7,0.4-1.1,1.2-1.1,2c0,1.8,2,2.8,3.5,2
						c0.1,0,0.1-0.1,0.2-0.1C135.6,1.2,135.6-1.2,134.1-1.9L134.1-1.9z"/>
					<path class="st4" d="M125.7,0.5c0.2-0.5-0.1-0.2-0.7,0.9c1-0.7,1.4-1.9,0.8-3c-0.8-1.3-2.4-1.3-3.4-0.4
						c-0.7,0.6-0.8,1.7-0.6,2.6c0.3,0.9,1,1.5,2,1.5C124.7,2,125.4,1.4,125.7,0.5L125.7,0.5z"/>
					<path class="st4" d="M148.2,0.5c0-0.1,0-0.2,0-0.2c-0.7,0.7-1.5,1.5-2.2,2.2c0.2,0,0.2,0-0.2,0c0.4,0.1,0.7,0.1,1.1,0
						c0.7-0.2,1.2-0.7,1.4-1.3c0.4-1.3-0.5-2.7-1.8-3c-1.5-0.3-2.7,0.6-2.8,2.1c0,0.1,0,0.2,0,0.2c-0.1,1.2,1.1,2.2,2.2,2.2
						S148.3,1.7,148.2,0.5L148.2,0.5z"/>
					<path class="st4" d="M155.2-3.6c-0.1,0-0.2,0-0.2,0.1c-1.1,0.3-1.8,1.5-1.5,2.6c0.3,1.1,1.5,1.8,2.6,1.5c0,0,0.1,0,0.1,0
						c2.1-0.5,2-3.5,0-4.1c0,0-0.1,0-0.1,0c-0.4,1.4-0.8,2.8-1.1,4.1c0.1,0,0.2,0,0.2,0.1C156.6,1,158,0,158-1.5
						C158-3,156.6-4,155.2-3.6L155.2-3.6z"/>
				</g>
			</g>
			<path style="clip-path:url(#SVGID_00000065074352931970640950000001023747020655507851_);fill:#009A97;" d="M480.9,100.2
				c0,0,1.1,1,4.3-0.6c3.2-1.5-5.1,3-5.1,3S480.1,100.4,480.9,100.2z"/>
		</g>
	</g>
</g>
</svg>
