<?xml version="1.0" encoding="utf-8"?>
<!-- Generator: Adobe Illustrator 26.4.1, SVG Export Plug-In . SVG Version: 6.00 Build 0)  -->
<svg version="1.1" id="Layer_1" xmlns="http://www.w3.org/2000/svg" xmlns:xlink="http://www.w3.org/1999/xlink" x="0px" y="0px"
	 viewBox="0 0 200 200" style="enable-background:new 0 0 200 200;" xml:space="preserve">
<style type="text/css">
	.st0{fill:#F5DF56;}
</style>
<g id="XMLID_00000078031851008873613870000012722234585188398783_">
	<g>
		<path class="st0" d="M171.5,76.2c0,28.8-10,36.9-64.2,115.4c-3.5,5.1-11.1,5.1-14.7,0C38.5,113,28.5,105,28.5,76.2
			c0-39.5,32-71.5,71.5-71.5S171.5,36.7,171.5,76.2z M129.8,76.2c0-16.5-13.3-29.8-29.8-29.8S70.2,59.7,70.2,76.2S83.5,106,100,106
			S129.8,92.6,129.8,76.2z"/>
		<circle class="st0" cx="100" cy="76.2" r="29.8"/>
	</g>
</g>
<path d="M139.9,98.1h-15.5c11.5-13.1,11-32.9-1.4-45.3c-6.2-6.2-14.6-9.7-23.4-9.7c-8.8,0-17.1,3.4-23.4,9.7
	c-12.9,12.9-12.9,33.9,0,46.8c6.2,6.2,14.6,9.7,23.4,9.7c0.7,0,1.4,0,2.1,0h38.2c3.1,0,5.6-2.5,5.6-5.6S143,98.1,139.9,98.1z
	 M80.1,84.6c-4.7,0-8.5-3.8-8.5-8.5s3.8-8.5,8.5-8.5c4.7,0,8.5,3.8,8.5,8.5S84.8,84.6,80.1,84.6z M99.6,104.1
	c-4.7,0-8.5-3.8-8.5-8.5s3.8-8.5,8.5-8.5c4.7,0,8.5,3.8,8.5,8.5S104.3,104.1,99.6,104.1z M97.2,73.7c1.3-1.3,3.5-1.3,4.8,0
	s1.3,3.5,0,4.8s-3.5,1.3-4.8,0C95.9,77.2,95.9,75,97.2,73.7z M99.6,65c-4.7,0-8.5-3.8-8.5-8.5c0-4.7,3.8-8.5,8.5-8.5
	c4.7,0,8.5,3.8,8.5,8.5C108.1,61.2,104.3,65,99.6,65z M110.7,76.1c0-4.7,3.8-8.5,8.5-8.5c4.7,0,8.5,3.8,8.5,8.5s-3.8,8.5-8.5,8.5
	S110.7,80.8,110.7,76.1z"/>
</svg>
