<?xml version="1.0" encoding="utf-8"?>
<!-- Generator: Adobe Illustrator 26.4.1, SVG Export Plug-In . SVG Version: 6.00 Build 0)  -->
<svg version="1.1" id="Layer_1" xmlns="http://www.w3.org/2000/svg" xmlns:xlink="http://www.w3.org/1999/xlink" x="0px" y="0px"
	 viewBox="0 0 200 200" style="enable-background:new 0 0 200 200;" xml:space="preserve">
<style type="text/css">
	.st0{fill:#B4B6B8;}
	.st1{fill:#878787;}
	.st2{fill:#F2F2F2;}
	.st3{fill:#FFFFFF;}
	.st4{fill:#D6D6D6;}
	.st5{fill:#EFEFEF;}
	.st6{fill:#232020;}
	.st7{fill:#282828;}
</style>
<g>
	<circle class="st0" cx="100" cy="100" r="100"/>
	<path class="st1" d="M199.9,100c0-0.3,0-0.6,0-0.9C189.3,88,135.5,30,135.5,30l-34.7,4.5L100,200C155.2,200,199.9,155.2,199.9,100z
		"/>
	<polygon class="st2" points="116.6,106.1 83.9,106.1 83.9,135 77.9,136.7 100.8,182.6 123.6,136.9 116.6,135 	"/>
	<path class="st3" d="M134.4,72.1c-0.5,0-1,0-1.5,0.1V61.8c0-9.6-7.8-17.4-17.4-17.4H85.1c-9.6,0-17.4,7.8-17.4,17.4v10.4
		c-0.5-0.1-1-0.1-1.5-0.1c-4.2,0-7.5,2.8-7.5,6.3c0,3.5,3.4,6.3,7.5,6.3c0.5,0,1,0,1.5-0.1v4.1c0,17.4,13.1,32.5,30.4,33.7
		c19,1.2,34.8-13.8,34.8-32.5v-5.2c0.5,0.1,1,0.1,1.5,0.1c4.2,0,7.5-2.8,7.5-6.3C141.9,74.9,138.5,72.1,134.4,72.1z"/>
	<path d="M100,200c31.6,0,59.7-14.7,78-37.5l-9.6-10.2l-11.2,9.5l6.6-13.7l-45.4-13.2l0.4-6.8l-8.5,2.4c0,0,2,21.3-9.5,21.3
		c-11.3,0-9.3-20.9-9.3-20.9l-9.3-2.8l0.7,7l-46,13.1l6.6,13.7l-11.2-9.5L22.4,163C40.7,185.6,68.6,200,100,200z"/>
	<path d="M121.8,36.3l13.8-6.3c0,0-27.4-10-43.7-7.6c-21.6,3.2-18.2,15.7-18.2,15.7s-4.6-4-9,2.1c-5,6.9,3.4,41.2,3.4,41.2l5.5-29.5
		l52.5,26.3l-6.4-17.8l12.8,21.1c0,0,7.8-28.2,4.3-36.2C132.9,36.2,121.8,36.3,121.8,36.3z"/>
	<polygon class="st4" points="103.2,106.1 103.2,177.7 123.6,136.9 116.6,135 116.6,106.1 	"/>
	<path class="st5" d="M134.4,72.1c-0.5,0-1,0-1.5,0.1V61.8c0-9.6-7.8-17.4-17.4-17.4h-12.2v77.9c16.6-1.5,29.7-15.4,29.7-32.4v-5.2
		c0.5,0.1,1,0.1,1.5,0.1c4.2,0,7.5-2.8,7.5-6.3C141.9,74.9,138.5,72.1,134.4,72.1z"/>
	<path class="st6" d="M168.4,152.2l-11.2,9.5l6.6-13.7l-45.4-13.2l0.4-6.8l-8.5,2.4c0,0,1.6,18-7,20.9v48.6
		c30.2-1,57.1-15.4,74.7-37.4L168.4,152.2z"/>
	<path class="st7" d="M136.8,45.2c-3.9-9-15-8.9-15-8.9l13.8-6.3c0,0-17.1-6.2-32.3-7.7v44.4l22.8,11.4l-6.4-17.8l12.8,21.1
		C132.4,81.4,140.2,53.2,136.8,45.2z"/>
</g>
</svg>
