<?xml version="1.0" encoding="utf-8"?>
<!-- Generator: Adobe Illustrator 26.4.1, SVG Export Plug-In . SVG Version: 6.00 Build 0)  -->
<svg version="1.1" id="Layer_1" xmlns="http://www.w3.org/2000/svg" xmlns:xlink="http://www.w3.org/1999/xlink" x="0px" y="0px"
	 viewBox="0 0 600 300" style="enable-background:new 0 0 600 300;" xml:space="preserve">
<style type="text/css">
	.st0{fill-rule:evenodd;clip-rule:evenodd;fill:#DE739F;}
	.st1{fill-rule:evenodd;clip-rule:evenodd;fill:#F5DF56;}
	.st2{fill:none;}
	.st3{fill:#DE739F;}
	.st4{font-family:'Bauhaus93';}
	.st5{font-size:108.7966px;}
</style>
<g>
	<path class="st0" d="M110.9,279.9c-13.2-74.8-96.1-100.8-99.4-172.2c1.1-59,47-93.8,93.4-94.4c47.8-0.6,96.1,34.8,91.5,97.7
		c-7.7,39.9-28.9,74.2-55.6,106.3c6.2-44-35.8-59.6-37.2-76.7c-0.7-16.4,17.2-21.8,40-22.8c14,0.2,30.5-14.7,36.1-25.2
		c-33.2,0.8-56.7-21.3-71.7-20.8c-2.6-8.2-3.8-15.2,1.9-23.6c-34,6.4-51.8,33.2-50.9,53.7C65.2,165.7,170.9,173.7,110.9,279.9
		L110.9,279.9z"/>
	<path class="st1" d="M110.9,279.9c-4.2-23.7-15.4-42.5-28.8-59.4c28.8-8.5,1.6-40,22-51.9C127,193.2,143.7,221.9,110.9,279.9
		L110.9,279.9z"/>
</g>
<rect x="209" y="43.9" class="st2" width="432.8" height="240.6"/>
<text transform="matrix(1 0 0 1 208.9826 116.4541)"><tspan x="0" y="0" class="st3 st4 st5">EVENT </tspan><tspan x="0" y="130.6" class="st3 st4 st5">ZORRO</tspan></text>
</svg>
