<?xml version="1.0" encoding="UTF-8"?>
<svg id="Layer_1" data-name="Layer 1" xmlns="http://www.w3.org/2000/svg" viewBox="0 0 137.69 197.99">
  <defs>
    <style>
      .cls-1 {
        fill: #de739f;
      }

      .cls-2 {
        fill: #86cfc0;
      }

      .cls-3 {
        fill: #81564e;
      }
    </style>
  </defs>
  <path class="cls-1" d="M12.02,105.92c-.72-.79-1.31-1.65-1.64-2.68,.67-.04,1.35-.07,2.02-.12,1.97-.13,3.59-1.37,4.15-3.17,.64-2.05,.04-4.02-1.6-5.27-2.67-2.03-5.92-1.43-8.25,1.54-.13-.14-.25-.27-.38-.41-.08-.12-.17-.25-.25-.37,.03-.78-.48-1.28-.95-1.8h.01c-.03-.21-.06-.43-.09-.65,0,0,.03-.12,.03-.12l-.1-.07C1.76,84.76-.37,76.46,.05,67.74,.99,48.35,7.99,31.57,22.49,18.37,35.16,6.83,50.21,.77,67.33,.07c17.31-.71,32.97,4.11,46.54,14.94,14.16,11.3,21.48,26.29,23.5,44.21,1.28,11.44-1.47,22.07-5.18,32.63-.35,1.01-.71,2.02-1.06,3.03-.08-.03-.15-.04-.23-.01-1.27-1.12-2.79-1.31-4.41-1.23-3.69,.17-5.73,4.07-3.87,7.25,1.09,1.86,2.94,2.07,4.66,2.66-.32,1.18-.76,2.3-1.54,3.26-.91,.57-1.67,1.85-3.1,.43,1.06,1.6,.39,3.17,.51,4.67-.7,2.1-1.95,3.93-3.04,5.82-6.52,11.39-14.21,21.97-22.55,32.09-.3,.36-.48,.92-1.11,.94-.36-.4-.18-.86-.14-1.28,1.22-11.65-2.44-21.78-9.51-30.88-3.89-5-8.5-9.34-12.7-14.06-1.09-1.22-2.08-2.52-3.08-3.81-4.9-6.3-2.47-14.33,4.07-18.07,5.06-2.9,10.66-3.91,16.35-4.57,1.68-.19,3.38-.42,5.06-.39,6.15,.09,11.45-2.16,16.33-5.69,4.43-3.2,8.26-6.99,11.25-11.59,.46-.71,1.12-1.58-.56-1.57-11.9,.08-22.66-4.05-33.2-8.98-4.09-1.91-8.12-3.95-12.42-5.36-1.45-.48-2.93-1.01-4.45-.96-1.67,.06-2.24-.68-2.18-2.19,.43-1.14-.12-2.33,.19-3.49,.31-1.13-.38-1.21-1.22-1.06-.05-.25-.11-.5-.16-.74,.05-.7,.09-1.4,.14-2.1,2.27-.3,3.7-1.63,4.23-3.78,.51-2.1-.26-3.84-1.98-5.18-2.77-2.15-6.74-.61-7.99,3.12-.08,.08-.16,.15-.24,.23-1.18,.43-2.36,.87-3.54,1.3-.02-.51-.03-1.01-.07-1.52-.08-1.09,.29-1.73,1.51-1.65,.84,.05,1.61-.02,1.57-1.2-.04-1.09-.79-1.09-1.54-1.06-1.04,.05-1.61-.33-1.54-1.45,.06-.95-.44-1.29-1.35-1.27-.8,.02-1.34,.28-1.28,1.16,.08,1.17-.47,1.63-1.6,1.57-.64-.04-1.08,.23-1.09,.97,0,.66,.29,1.19,.93,1.18,1.74-.02,1.83,1.04,1.76,2.34-.04,.73,.05,1.46,.08,2.19-.02,.1-.02,.2,.01,.3-1.19,.58-2.38,1.17-3.57,1.75,.1-.26,.18-.54,.3-.79,1.35-2.92,.77-4.63-2.11-6.04-.81-.4-1.65-.72-2.48-1.09-.66-.3-1.16-.74-1.04-1.55,.12-.89,.79-1.18,1.55-1.31,.8-.14,1.56,.03,2.31,.35,.87,.37,1.25-.25,1.54-.88,.36-.76-.27-.98-.78-1.22-1.68-.77-3.37-.89-5.06-.06-1.31,.64-2.19,1.67-2.23,3.15-.04,1.47,.7,2.58,2.04,3.25,1.06,.53,2.12,1.06,3.2,1.56,.89,.42,1.29,1.07,1.04,2.05-.25,.98-.96,1.29-1.91,1.31-.95,.02-1.77-.31-2.56-.76-.85-.48-1.41-.04-1.85,.61-.57,.85,.28,1.06,.72,1.39,1.97,1.44,4.15,1.17,6.34,.72-1.5,1.28-3.01,2.55-4.51,3.82-.3,0-.47,.16-.54,.44-.23,.22-.46,.44-.69,.66-.15,.04-.29,.09-.44,.13-1.44-.55-3.07-.63-4.42-1.72,.04,.56,.15,1.05,.09,1.53-.15,1.37-.39,2.74,1.43,3.22-1.27,1.85-2.6,3.67-3.8,5.56-7.08,11.21-6.55,22.58-.75,34.1,3.91,7.76,9.55,14.2,15.52,20.38,4,4.14,8.06,8.21,12.09,12.31,.39,.4,.73,.86,1.09,1.29-2.75,2.03-4.88,4.46-5.59,7.95-.38,1.85-.35,3.69-.38,5.55-.08,4.17,.6,8.32,.39,12.5-.28,5.62-2.91,9.58-8.11,11.79-.78,.33-1.56,.64-2.35,.95-10.29-12.69-22.07-24.06-32.37-36.74-1.66-2.04-3.44-4.01-4.69-6.37,.48-.66,.2-1.36,.13-2.06-.06-.56,.02-1.21,.76-1.27,.76-.05,.8,.58,.9,1.15,.08,.46-.41,1.11,.66,1.5-.44-1.08-.04-1.94,.03-2.84,1.41-.02,1.43,.92,1.34,1.94-.02,.26-.12,.59,.23,.71,.11,.04,.4-.06,.41-.14,.19-.85,.03-1.68-.39-2.42-.36-.64-.96-.7-1.58-.29-1.26,.03-3.1-1.37-3.3,1.34,0,.09-.48,.14-.74,.21-.12-.47-.41-.99-.31-1.42,.35-1.53-.43-1.69-1.61-1.5Zm22.91,2.95c-.22-.12-.44-.24-.66-.35-1.27-1.32,.78-.55,.73-1.13-.61-.51-1.25-.71-1.63,.13-.31,.69,.17,1.01,.84,1.07l.69,.32c0,.33,.01,.67,.02,1-.51-.08-1.01-.17-1.85-.31,.79,.77,1.31,.72,1.86,.31,.74-.34,.76-.68,0-1.03Zm71.47-.02c-.26,.2-.65,.35-.77,.61-.22,.49-.29,1.05-.39,1.58,0,.04,.27,.19,.4,.18,.87-.11,.37-.9,.63-1.33,.16-.27,.15-.64,.21-.97,.55-.41,.71-1.01,1.03-1.85-1.17,.35-.93,1.19-1.11,1.78Zm4.76,1.09c.58,.41,1.17,.39,1.75,0,.95-.05,1.88-.04,2.83,.21,.88,.23,1.88,.24,2.31-.8,.26-.63,.71-1.48,.04-2.01-.79-.63-1.87-.66-2.68-.02-1,.79-2.1,.97-3.55,1.04,1.45,.02,1.26,.72,.94,1.47-.53,.01-1.07,.02-1.6,.03-.94-.83-1.26-1.82-.69-3,.86-.44,1.82-.23,3.15-.36-1.47-.68-2.47-1.03-3.19,.32-1.39,1.23-1.11,2.5,.68,3.11Zm-81.35-2.44c-.93,.96-.85,1.78,.36,2.42,.25,.2,.49,.41,.85,.19-.22-.34-.56-.14-.83-.22-.46-1.43,.7-.89,1.25-.99,1.05-.21,1.57-.51,.43-1.37-.68-.71-1.37-.66-2.07-.03Zm-8.12,2.43c.37,.31,.83,.37,1.27,.3,.44-.07,1.29,.26,1.24-.32-.08-.88,.34-2.21-.09-2.49-.67-.45-1.87-.85-2.73,.13-.98,.94-1.08,1.77,.32,2.39Zm81.73-2.41c-.78-.92-2.52,.13-3.01-1.56,.21,.89,.27,1.69,.26,2.5-.02,2.01,.26,2.17,2.39,1.45,1.44-.6,1.23-1.45,.36-2.4Zm-75.6,3.42c1.07-1.07,.89-2.47,.41-3.56-.2-.47-1.63-.7-2.49-.11-.94,.64-.95,1.45-.32,2.33,.11,.11,.23,.22,.34,.34,.41,.89,1.71-.06,2.05,.99-.35,.1-.89-.12-.89,.55,.46,.09,.69-.21,.91-.53ZM85.77,41.81c.59-1,1.18-1.84,2.38-.6,.33,.34,.91,.15,1.28-.08,.72-.44,1.37-.55,2.18-.13,.52,.27,1.18,0,1.52-.46,.54-.77-.26-1.55-.14-2.39,.06-.39-.6-.4-.99-.35-2.39,.3-4.77,.34-7.16,.02-.84-.11-1.46,.17-1.75,.97-.28,.79-.35,1.57,.61,2,.57,.43,1.15,.41,1.73,.01,.28,.26,.27,.61,.28,.95-.54,.14-1.19-.15-1.71,.46,.77,.41,1.27,0,1.76-.4Zm22.35,61.32c2.75,.02,4.38-1.14,4.91-3.39,.4-1.71-.67-3.29-2.98-4.36-.77-.36-1.54-.69-2.32-1.02-.65-.27-1.01-.7-.93-1.43,.08-.73,.59-1.07,1.22-1.23,.84-.22,1.68-.14,2.48,.2,.93,.4,1.42-.19,1.69-.9,.31-.84-.44-1.01-1-1.26-1.54-.68-3.1-.62-4.61,0-1.4,.56-2.32,1.64-2.47,3.17-.15,1.52,.74,2.57,2.01,3.25,.94,.51,1.95,.87,2.92,1.32,1,.47,1.77,1.14,1.33,2.37-.42,1.17-1.49,1.32-2.53,1.15-.64-.1-1.29-.42-1.85-.77-.91-.57-1.51-.22-1.97,.54-.56,.93,.35,1.17,.86,1.5,1.02,.66,2.16,.95,3.25,.87Zm-13.1-78.74c-2.22-.52-3.72,.24-4.97,1.75-.31,.37-.65,.97-1.2,.78-.59-.2-.36-.88-.37-1.35-.04-1.47-.02-2.93-.04-4.4,0-.8-.48-1.07-1.21-1.05-.67,.01-1.1,.28-1.11,.99-.01,3.95-.01,7.9,0,11.85,0,.72,.44,.97,1.1,.98,.72,.01,1.22-.2,1.23-1.03,0-.56,0-1.13,.03-1.69,.02-.38-.1-.87,.38-1.02,.35-.11,.61,.23,.84,.47,.84,.84,1.69,1.66,2.51,2.52,.55,.58,1.19,.84,1.97,.74,.44-.06,.97-.03,1.13-.55,.14-.45-.31-.67-.59-.94-.94-.89-1.85-1.82-2.84-2.65-.97-.82-1-1.45,.03-2.27,1.1-.86,2.13-1.82,3.1-3.11ZM37.14,93.96c-2.33-.88-3.71,.13-4.98,1.55-.32,.36-.74,.83-1.29,.57-.48-.23-.32-.8-.32-1.23-.02-1.3-.02-2.59,0-3.89,.01-.87-.26-1.4-1.25-1.38-.91,.02-1.14,.52-1.14,1.31,.01,3.61,.01,7.22,0,10.83,0,.86,.24,1.4,1.24,1.39,1.05-.01,1.12-.67,1.16-1.47,.04-.74-.25-1.54,.26-2.25,1.36,.64,2.14,1.78,3.09,2.73,1.06,1.07,2.28,1.24,3.67,.83-.05-.2-.04-.34-.1-.41-.9-.93-1.81-1.86-2.73-2.78-1.87-1.86-1.87-1.85,.04-3.56,.75-.67,1.46-1.39,2.35-2.23Zm43.57-59.99c1.32,0,2.33-.31,3.13-1.03,.36-.32,.95-.62,.62-1.22-.27-.5-.79-.86-1.36-.88-.34-.01-.68,.33-1.03,.5-1.82,.89-3.76,0-4.06-1.85-.36-2.25,1.68-3.66,4.05-2.66,.96,.4,1.58,.2,1.99-.55,.53-.97-.42-1.25-1.02-1.58-1.75-.96-4.4-.64-5.87,.67-1.52,1.34-2.04,3.62-1.28,5.56,.72,1.85,2.62,3.05,4.83,3.04Zm38.47,69.15c.61-.14,1.66,.37,1.77-.87,.09-1.03-.74-1.04-1.49-1.19-1.26-.24-1.65-1.53-1.49-3.99,.08-1.27,.82-1.44,1.82-1.42,.75,.01,1.55,.03,1.5-1.08-.05-1.02-.82-.95-1.48-.91-1.22,.08-1.96-.25-1.86-1.67,.06-.81-.51-1.04-1.23-1.02-.66,.01-1.13,.27-1.09,.98,.07,1.18-.34,1.83-1.63,1.71-.65-.06-1.08,.23-1.07,.98,0,.73,.43,1.04,1.08,.99,1.46-.11,1.65,.75,1.61,1.92-.03,.95,0,1.93,.16,2.86,.34,1.82,1.43,2.66,3.4,2.71Zm-96.48-9.49c-2.39,.01-4.29,1.41-4.91,3.62-.53,1.86,.36,4,2.19,5.26,1.63,1.12,4.44,.97,6.03-.33,.38-.32,.96-.62,.52-1.2-.36-.47-.84-.99-1.57-.71-.42,.16-.78,.48-1.2,.61-1.32,.42-2.5,.16-3.25-1.05-.75-1.21-.52-2.38,.54-3.35,1.08-.99,2.25-.93,3.41-.2,.81,.51,1.28,.03,1.68-.54,.48-.68-.13-1.04-.55-1.37-.84-.66-1.85-.76-2.89-.73ZM42.41,28.96c0,1.3,0,2.59,0,3.89,0,.8,.43,1.1,1.18,1.09,.7-.01,1.44,0,1.45-.98,.02-2.54,.02-5.07,0-7.61,0-.88-.61-1.1-1.38-1.13-.85-.03-1.26,.34-1.25,1.19,0,1.18,0,2.37,0,3.55Zm60.26,69.45h-.01c0-1.19-.01-2.37,0-3.56,.01-.86-.41-1.2-1.25-1.21-.87,0-1.41,.24-1.4,1.23,.02,2.31,.01,4.63,0,6.94,0,.94,.44,1.29,1.35,1.3,.95,0,1.33-.41,1.31-1.33-.02-1.13,0-2.26,0-3.39ZM43.78,19.82c-.88,.13-1.56,.61-1.61,1.46-.06,.91,.49,1.68,1.45,1.76,.97,.08,1.61-.59,1.68-1.51,.08-.97-.62-1.48-1.52-1.7Zm59.18,71.04c-.19-.81-.64-1.48-1.53-1.46-.9,.02-1.67,.54-1.66,1.53,0,.98,.74,1.53,1.67,1.48,.84-.05,1.4-.61,1.52-1.54Zm-23-52.88c.87,.42,1.56,.87,1.3,1.94-.12,.5-.44,.8-.96,.78-1.24-.05-1.19-1.12-1.44-1.95-.3,1.17-.35,2.18,1.2,2.35,1.77,.2,1.84,.08,2.01-2.16,.16-2.08-1.45-.5-2.11-.96Zm-7.12,1.51c0,.19-.02,.42,0,.64,.03,.34-.25,.91,.41,.87,.48-.02,.3-.49,.3-.8,0-.17-.03-.34-.01-.5,.05-.49-.05-1.14,.65-1.17,.81-.03,.71,.71,.81,1.23,.04,.21-.03,.44-.09,.66-.1,.41,0,.67,.45,.67,.57,0,.39-.36,.32-.69-.07-.33-.09-.67-.11-1-.07-1.19-.63-1.54-1.87-1.52-1.57,.02-.68,1.01-.86,1.62Zm3.36-1.45c1.02,.58,1.25,1.42,.94,2.43-.09,.28-.2,.55,.22,.6,.15,.02,.38,0,.46-.11,.46-.55-.67-2.82-1.62-2.93Zm43.25,72c-.75-1.13,.73-2.52-.55-3.99,.16,1.61-.23,2.85,.55,3.99Zm1.8-.16c-.36-1.17,.84-2.37-.16-3.64-.75,1.3,.1,2.46,.16,3.64Zm-16-1.36c-.34-.45,.59-1.11-.23-1.43-.16-.06-.56,.04-.57,.11-.08,.58,.31,.96,.8,1.32Zm-79.52,2.53v.1s.09-.04,.09-.04l-.09-.06Z"/>
  <path class="cls-2" d="M52.57,154.1c.78-.32,1.57-.62,2.35-.95,5.19-2.22,7.83-6.17,8.11-11.79,.21-4.18-.47-8.33-.39-12.5,.03-1.86,0-3.7,.38-5.55,.71-3.49,2.84-5.92,5.59-7.95,9.03,9.27,16.25,19.57,18.35,32.73,.49,3.07,.54,6.17,.54,9.27-.14,4.13-.81,8.18-1.72,12.2-.48,1.78-.97,3.56-1.45,5.35-.4,.28-.23,.71-.29,1.08-.54,.69-.54,1.56-.78,2.34-.08,.12-.16,.24-.24,.36-.24,.18-.34,.42-.28,.71-2.25,6.01-5.02,11.78-8.12,17.39-.18,.33-.41,.62-.81,1.21-1.35-6.86-3.21-13.24-6.03-19.3-.33-1.23-1.04-2.28-1.64-3.37-.48-1.36-1.18-2.61-1.97-3.81-.15-.8-.56-1.44-1.19-1.95-.5-1.44-1.37-2.67-2.29-3.87-.76-1.41-1.62-2.75-2.69-3.94-1.34-2.49-3.21-4.6-4.92-6.84-.2-.26-.55-.41-.52-.82Z"/>
  <path class="cls-1" d="M53.53,33.61c-2.19,.45-4.37,.72-6.34-.72-.45-.33-1.3-.54-.72-1.39,.44-.65,1-1.09,1.85-.61,.79,.45,1.61,.78,2.56,.76,.95-.02,1.66-.32,1.91-1.31,.25-.97-.14-1.63-1.04-2.05-1.07-.5-2.13-1.03-3.2-1.56-1.34-.66-2.08-1.77-2.04-3.25,.04-1.48,.92-2.5,2.23-3.15,1.7-.83,3.39-.71,5.06,.06,.51,.23,1.14,.45,.78,1.22-.29,.63-.67,1.25-1.54,.88-.75-.32-1.51-.48-2.31-.35-.76,.13-1.43,.42-1.55,1.31-.11,.81,.38,1.25,1.04,1.55,.82,.37,1.67,.7,2.48,1.09,2.88,1.41,3.46,3.13,2.11,6.04-.12,.25-.2,.53-.3,.79-.19,.12-.38,.23-.57,.35-.14,.11-.28,.21-.42,.32h0Z"/>
  <path class="cls-1" d="M6.7,96.22c2.33-2.97,5.58-3.57,8.25-1.54,1.64,1.25,2.24,3.22,1.6,5.27-.56,1.8-2.18,3.04-4.15,3.17-.67,.04-1.35,.08-2.02,.12-.16-.08-.33-.15-.49-.23-.25-.55-.49-1.11-.77-1.66-.85-1.69-1.99-3.24-2.42-5.13Zm7.56,2.27c.05-1.62-1.06-2.76-2.69-2.77-1.54-.02-2.7,1.08-2.74,2.59-.04,1.61,1.09,2.76,2.72,2.77,1.55,0,2.66-1.06,2.71-2.58Z"/>
  <path class="cls-1" d="M127.28,103.53c-1.72-.58-3.58-.8-4.66-2.66-1.86-3.18,.18-7.07,3.87-7.25,1.62-.08,3.14,.11,4.41,1.23-.17,1.01-.45,1.97-1.05,2.82-1.05-1.8-2.24-2.33-3.83-1.7-1.26,.5-1.9,1.81-1.53,3.16,.42,1.55,1.73,2.1,4,1.68,.09,.84-.63,1.45-.67,2.25-.18,.15-.35,.3-.53,.46Z"/>
  <path class="cls-1" d="M58.08,30.91c-.03-.73-.12-1.46-.08-2.19,.07-1.3-.02-2.37-1.76-2.34-.64,0-.94-.52-.93-1.18,0-.74,.45-1.01,1.09-.97,1.14,.06,1.68-.39,1.6-1.57-.06-.88,.48-1.14,1.28-1.16,.91-.02,1.41,.32,1.35,1.27-.07,1.12,.5,1.5,1.54,1.45,.75-.03,1.5-.03,1.54,1.06,.04,1.18-.73,1.25-1.57,1.2-1.22-.08-1.59,.56-1.51,1.65,.04,.5,.04,1.01,.07,1.52-.04,.12-.09,.23-.13,.35-.83,.31-1.67,.61-2.5,.92Z"/>
  <path class="cls-1" d="M123.15,111.89c-.12-1.51,.55-3.08-.51-4.67,1.42,1.43,2.19,.14,3.1-.43-.59,1.84-1.32,3.61-2.59,5.1Z"/>
  <path class="cls-1" d="M44.45,41.71c-1.83-.48-1.58-1.85-1.43-3.22,.05-.47-.06-.97-.09-1.53,1.35,1.09,2.98,1.16,4.42,1.72-.09,.17-.18,.34-.26,.51-.88,.83-1.47,1.97-2.63,2.53Zm1.26-2.25c-.03-.62-.33-1.01-.93-1.01-.71,0-1.24,.35-1.2,1.1,.04,.61,.48,1.07,1.12,1.03,.65-.03,.94-.53,1-1.13Z"/>
  <path class="cls-1" d="M13.94,108.83c.26-.07,.73-.13,.74-.21,.2-2.71,2.04-1.31,3.3-1.34,0,.07,0,.13-.01,.2-.07,.9-.47,1.76-.03,2.84-1.06-.38-.58-1.04-.66-1.5-.1-.57-.13-1.21-.9-1.15-.74,.05-.82,.7-.76,1.27,.08,.7,.36,1.4-.13,2.06-.37-.41-.71-.85-1.11-1.23-.22-.21-.5-.27-.52,.19,0,0,.03-.03,.03-.03,.63-.35,.07-.7,0-1.05l.03-.04Z"/>
  <path class="cls-1" d="M12.02,105.92c1.18-.19,1.96-.03,1.61,1.5-.1,.42,.2,.94,.31,1.42,0,0-.03,.04-.03,.04-.33-.04-.55,.1-.56,.43-.02,.36,.09,.66,.55,.62,0,0-.03,.03-.03,.03,.04-.43-.72,.14-.63-.57,.17-1.32-.58-2.39-1.23-3.47Z"/>
  <path class="cls-1" d="M70.25,36.78c.84-.15,1.53-.07,1.22,1.06-.32,1.16,.24,2.35-.19,3.49-.96-1.38-.72-3.02-1.03-4.55Z"/>
  <polygon class="cls-3" points="4.96 92.81 5.06 92.88 5.04 93 4.92 92.93 4.96 92.81"/>
  <path class="cls-1" d="M53.53,33.62c.14-.11,.28-.21,.42-.32-.14,.11-.28,.21-.42,.32Z"/>
  <path class="cls-1" d="M108.12,103.13c-1.09,.08-2.23-.21-3.25-.87-.5-.33-1.42-.57-.86-1.5,.46-.76,1.06-1.11,1.97-.54,.56,.35,1.21,.67,1.85,.77,1.04,.17,2.11,.02,2.53-1.15,.44-1.22-.33-1.9-1.33-2.37-.97-.45-1.99-.81-2.92-1.32-1.27-.68-2.15-1.73-2.01-3.25,.15-1.52,1.07-2.61,2.47-3.17,1.51-.61,3.07-.67,4.61,0,.56,.25,1.31,.42,1,1.26-.27,.71-.76,1.3-1.69,.9-.81-.35-1.64-.42-2.48-.2-.63,.16-1.14,.5-1.22,1.23-.08,.73,.28,1.16,.93,1.43,.78,.32,1.56,.66,2.32,1.02,2.31,1.07,3.38,2.65,2.98,4.36-.53,2.25-2.16,3.41-4.91,3.39Z"/>
  <path class="cls-1" d="M95.02,24.39c-.97,1.3-2,2.25-3.1,3.11-1.04,.81-1,1.45-.03,2.27,.99,.84,1.9,1.77,2.84,2.65,.28,.26,.73,.48,.59,.94-.16,.52-.69,.5-1.13,.55-.78,.1-1.42-.16-1.97-.74-.81-.86-1.67-1.69-2.51-2.52-.24-.24-.49-.58-.84-.47-.48,.15-.36,.64-.38,1.02-.03,.56-.02,1.13-.03,1.69,0,.83-.51,1.04-1.23,1.03-.66,0-1.1-.26-1.1-.98,0-3.95,0-7.9,0-11.85,0-.7,.44-.97,1.11-.99,.74-.02,1.21,.25,1.21,1.05,.01,1.47,0,2.93,.04,4.4,.01,.48-.22,1.15,.37,1.35,.55,.19,.89-.41,1.2-.78,1.24-1.51,2.74-2.27,4.97-1.75Z"/>
  <path class="cls-1" d="M37.14,93.96c-.89,.85-1.6,1.56-2.35,2.23-1.91,1.71-1.92,1.7-.04,3.56,.92,.91,1.82,1.84,2.73,2.78,.06,.07,.05,.2,.1,.41-1.39,.41-2.61,.24-3.67-.83-.95-.95-1.73-2.09-3.09-2.73-.51,.71-.22,1.51-.26,2.25-.04,.8-.11,1.46-1.16,1.47-1,.01-1.24-.53-1.24-1.39,.01-3.61,0-7.22,0-10.83,0-.79,.22-1.29,1.14-1.31,.99-.02,1.27,.51,1.25,1.38-.02,1.3-.01,2.59,0,3.89,0,.43-.16,1,.32,1.23,.55,.26,.97-.21,1.29-.57,1.27-1.42,2.65-2.43,4.98-1.55Z"/>
  <path class="cls-1" d="M80.7,33.97c-2.21,0-4.11-1.19-4.83-3.04-.76-1.94-.23-4.22,1.28-5.56,1.47-1.3,4.12-1.63,5.87-.67,.6,.33,1.54,.61,1.02,1.58-.41,.75-1.03,.95-1.99,.55-2.37-1-4.41,.41-4.05,2.66,.3,1.86,2.23,2.74,4.06,1.85,.35-.17,.69-.51,1.03-.5,.57,.02,1.09,.38,1.36,.88,.32,.61-.27,.9-.62,1.22-.8,.72-1.81,1.03-3.13,1.03Z"/>
  <path class="cls-1" d="M119.17,103.12c-1.97-.05-3.06-.89-3.4-2.71-.17-.93-.19-1.91-.16-2.86,.03-1.17-.15-2.03-1.61-1.92-.65,.05-1.07-.26-1.08-.99,0-.74,.42-1.03,1.07-.98,1.3,.11,1.7-.53,1.63-1.71-.04-.71,.43-.97,1.09-.98,.72-.01,1.28,.21,1.23,1.02-.1,1.42,.64,1.74,1.86,1.67,.66-.04,1.43-.11,1.48,.91,.05,1.11-.74,1.1-1.5,1.08-1-.02-1.74,.14-1.82,1.42-.16,2.46,.23,3.75,1.49,3.99,.75,.15,1.58,.15,1.49,1.19-.11,1.24-1.16,.73-1.77,.87Z"/>
  <path class="cls-1" d="M22.69,93.63c1.03-.03,2.05,.07,2.89,.73,.42,.33,1.03,.69,.55,1.37-.4,.58-.87,1.05-1.68,.54-1.17-.73-2.34-.79-3.41,.2-1.06,.97-1.29,2.14-.54,3.35,.75,1.2,1.94,1.47,3.25,1.05,.42-.13,.78-.46,1.2-.61,.73-.28,1.21,.24,1.57,.71,.44,.58-.13,.89-.52,1.2-1.58,1.3-4.4,1.45-6.03,.33-1.83-1.26-2.72-3.4-2.19-5.26,.63-2.21,2.53-3.6,4.91-3.61Z"/>
  <path class="cls-1" d="M70.23,33.94c0-.72-.01-1.43-.02-2.15,1.01-1.45,1.27-3.21,1.98-4.78,.24-.54,.04-.78-.49-.68-1.57,.3-3.27,.14-4.63,1.23-.86,.18-1.72,.36-2.58,.54,1.25-3.73,5.23-5.27,7.99-3.12,1.73,1.34,2.5,3.08,1.98,5.18-.52,2.15-1.96,3.48-4.23,3.78Z"/>
  <path class="cls-1" d="M42.41,28.96c0-1.18,0-2.37,0-3.55,0-.85,.4-1.23,1.25-1.19,.77,.03,1.37,.25,1.38,1.13,.02,2.54,.02,5.07,0,7.61,0,.97-.75,.97-1.45,.98-.74,.01-1.18-.28-1.18-1.09,0-1.3,0-2.59,0-3.89Z"/>
  <path class="cls-1" d="M83.71,40.79c-.97-.43-.89-1.21-.61-2,.28-.8,.9-1.08,1.75-.97,2.39,.32,4.77,.27,7.16-.02,.39-.05,1.05-.04,.99,.35-.12,.84,.68,1.62,.14,2.39-.33,.47-1,.73-1.52,.46-.81-.42-1.45-.31-2.18,.13-.38,.23-.95,.41-1.28,.08-1.2-1.23-1.79-.4-2.38,.6l-.05-.06c-.01-.34,0-.69-.28-.95l-.06-.08c.1-.31,.24-.62,.29-.95,.13-.79-.19-1.31-1.03-1.35-.92-.04-1.3,.47-1.16,1.36,.05,.32,.17,.64,.26,.95l-.03,.04Z"/>
  <path class="cls-1" d="M102.67,98.41c0,1.13-.02,2.26,0,3.39,.02,.91-.37,1.33-1.31,1.33-.92,0-1.36-.36-1.35-1.3,.02-2.31,.03-4.63,0-6.94,0-.99,.53-1.24,1.4-1.23,.84,0,1.26,.34,1.25,1.21-.02,1.19,0,2.37,0,3.56h.01Z"/>
  <path class="cls-1" d="M112.81,109.83c.31-.75,.51-1.45-.94-1.47,1.45-.07,2.55-.24,3.55-1.04,.81-.65,1.89-.61,2.68,.02,.67,.53,.22,1.39-.04,2.01-.43,1.05-1.43,1.03-2.31,.8-.95-.24-1.88-.26-2.83-.21,0,0-.09-.12-.09-.12Zm4.08-.33c-.18,.06-.36,.13-.55,.19,.03,.04,.08,.11,.09,.11,.19-.06,.37-.13,.55-.2,.09-.16,.06-.19-.1-.1Z"/>
  <path class="cls-1" d="M43.78,19.82c.9,.22,1.6,.73,1.52,1.7-.07,.92-.71,1.6-1.68,1.51-.96-.08-1.51-.85-1.45-1.76,.05-.85,.73-1.33,1.61-1.46Z"/>
  <path class="cls-1" d="M102.97,90.86c-.12,.93-.68,1.5-1.52,1.54-.93,.05-1.66-.5-1.67-1.48,0-.99,.76-1.51,1.66-1.53,.89-.02,1.34,.66,1.53,1.46Z"/>
  <path class="cls-1" d="M25.4,109.59c-.62-.88-.61-1.69,.32-2.33,.87-.59,2.29-.36,2.49,.11,.48,1.1,.66,2.49-.41,3.56l-.02-.02c-.34-1.05-1.64-.09-2.05-.99l.05-.07c.22,0,.44,.02,.66,0,.73-.07,1.3-.34,1.31-1.19,0-.56-.25-1-.84-1.05-.87-.07-1.32,.43-1.44,1.25-.03,.22,0,.44,0,.66l-.08,.06Z"/>
  <path class="cls-1" d="M79.97,37.98c.66,.47,2.27-1.12,2.11,.96-.17,2.24-.24,2.36-2.01,2.16-1.55-.17-1.5-1.19-1.2-2.35,.25,.83,.2,1.9,1.44,1.95,.52,.02,.85-.28,.96-.78,.25-1.07-.43-1.52-1.3-1.94Z"/>
  <path class="cls-1" d="M72.85,39.49c.18-.61-.71-1.6,.86-1.62,1.24-.02,1.8,.33,1.87,1.52,.02,.33,.04,.67,.11,1,.07,.33,.25,.69-.32,.69-.46,0-.56-.26-.45-.67,.06-.21,.13-.45,.09-.66-.1-.52,0-1.27-.81-1.23-.7,.03-.6,.68-.65,1.17-.02,.17,0,.34,.01,.5,0,.31,.18,.78-.3,.8-.66,.03-.38-.53-.41-.87-.02-.22,0-.45,0-.64Z"/>
  <path class="cls-1" d="M103.04,109.91c-2.12,.72-2.4,.56-2.39-1.45,0-.81-.05-1.61-.26-2.5,.49,1.68,2.23,.64,3.01,1.56l-.06,.05c-.9,.01-2.09-.33-2.18,1.05-.08,1.2,.95,1.28,1.87,1.29h0Z"/>
  <path class="cls-1" d="M21.36,107.53c.86-.98,2.06-.58,2.73-.13,.43,.29,.01,1.62,.09,2.49,.05,.59-.8,.25-1.24,.32-.44,.07-.89,.01-1.27-.3l.03-.03c.95,.08,1.81-.18,1.84-1.23,.03-1.22-.99-1.12-1.85-1.12-.11,0-.22,0-.34,0h0Z"/>
  <path class="cls-1" d="M31.87,107.52c1.14,.86,.61,1.17-.43,1.37-.56,.11-1.72-.43-1.25,.99l-.02,.03c-1.21-.64-1.29-1.46-.36-2.42l.1,.11c-.04,.64,.29,.9,.9,.92,.68,.02,1.05-.28,1.05-.98l.02-.02Z"/>
  <path class="cls-1" d="M17.97,107.48c0-.07,.01-.13,.01-.2,.62-.41,1.22-.35,1.58,.29,.42,.74,.58,1.57,.39,2.42-.02,.08-.3,.18-.41,.14-.35-.12-.26-.45-.23-.71,.1-1.03,.08-1.96-1.34-1.94Z"/>
  <path class="cls-1" d="M76.21,38.03c.95,.11,2.08,2.38,1.62,2.93-.08,.1-.31,.13-.46,.11-.43-.05-.31-.32-.22-.6,.31-1.02,.09-1.85-.94-2.43Z"/>
  <path class="cls-1" d="M119.46,110.03c-.78-1.13-.39-2.38-.55-3.99,1.28,1.47-.2,2.86,.55,3.99Z"/>
  <path class="cls-1" d="M121.26,109.86c-.06-1.18-.91-2.34-.16-3.64,1,1.27-.21,2.47,.16,3.64Z"/>
  <path class="cls-1" d="M111.15,109.94c-1.79-.61-2.06-1.88-.68-3.11l.04,.04c-.57,1.18-.25,2.16,.69,3l-.06,.07Z"/>
  <path class="cls-1" d="M106.47,108.92c-.06,.33-.05,.7-.21,.97-.25,.43,.25,1.23-.63,1.33-.13,.02-.41-.14-.4-.18,.1-.54,.17-1.09,.39-1.58,.12-.26,.5-.41,.77-.61l.08,.07Z"/>
  <path class="cls-1" d="M34.21,108.58c-.67-.05-1.16-.38-.84-1.07,.39-.84,1.02-.64,1.63-.13,.05,.58-2-.19-.73,1.13l-.06,.07Z"/>
  <path class="cls-1" d="M110.47,106.83c.72-1.36,1.72-1,3.19-.32-1.33,.13-2.3-.07-3.15,.36,0,0-.04-.04-.04-.04Z"/>
  <path class="cls-1" d="M105.26,108.5c-.49-.36-.88-.74-.8-1.32,0-.06,.41-.17,.57-.11,.82,.32-.11,.98,.23,1.43Z"/>
  <path class="cls-1" d="M103.4,107.51c.87,.95,1.08,1.8-.36,2.4,0,0,0,0,0,0,.41-.74,.37-1.54,.31-2.34l.06-.05Z"/>
  <path class="cls-1" d="M21.68,109.92c-1.4-.63-1.3-1.45-.32-2.39,0,0,0,0,0,0-.22,.83-.1,1.62,.35,2.36l-.03,.03Z"/>
  <path class="cls-1" d="M85.77,41.81c-.5,.4-.99,.81-1.76,.4,.52-.61,1.17-.32,1.71-.46,0,0,.05,.06,.05,.06Z"/>
  <path class="cls-1" d="M106.39,108.85c.19-.59-.06-1.42,1.11-1.78-.32,.83-.48,1.43-1.03,1.85,0,0-.08-.07-.08-.07Z"/>
  <path class="cls-1" d="M34.92,109.9c-.55,.41-1.07,.46-1.86-.31,.84,.14,1.35,.22,1.85,.31,0,0,0,0,0,0Z"/>
  <path class="cls-1" d="M29.8,107.5c.7-.63,1.39-.69,2.07,.03,0,0-.02,.02-.02,.02-.65,.02-1.3,.04-1.95,.06l-.1-.11Z"/>
  <path class="cls-1" d="M27.8,110.93c-.22,.32-.45,.62-.91,.53,0-.67,.54-.45,.89-.55,0,0,.02,.02,.02,.02Z"/>
  <path class="cls-1" d="M34.93,108.87c.75,.35,.73,.7-.01,1.04,0,0,0,0,0,0,0-.33-.01-.67-.02-1,0,0,.03-.03,.03-.03Z"/>
  <path class="cls-1" d="M85.44,40.8c-.58,.4-1.16,.42-1.73-.01,0,0,.03-.04,.03-.04,.55,0,1.09-.02,1.64-.02l.06,.08Z"/>
  <path class="cls-1" d="M111.21,109.87c.53-.01,1.07-.02,1.6-.04,0,0,.09,.11,.09,.12-.59,.38-1.17,.4-1.75,0,0,0,.06-.07,.06-.07Z"/>
  <path class="cls-1" d="M30.18,109.89c.27,.08,.61-.12,.83,.22-.36,.22-.61,.01-.85-.19,0,0,.02-.03,.02-.03Z"/>
  <path class="cls-1" d="M34.27,108.52c.22,.12,.44,.24,.66,.35,0,0-.03,.03-.03,.03-.23-.11-.46-.21-.69-.32,0,0,.06-.07,.06-.07Z"/>
  <polygon class="cls-1" points="25.74 111.03 25.83 111.09 25.73 111.13 25.74 111.03"/>
  <path class="cls-1" d="M25.74,109.93c-.11-.11-.23-.22-.34-.34,0,0,.08-.06,.08-.06,.1,.11,.21,.22,.32,.33l-.05,.07Z"/>
  <path class="cls-1" d="M14.26,98.49c-.04,1.53-1.16,2.59-2.71,2.58-1.63,0-2.76-1.16-2.72-2.77,.04-1.51,1.19-2.6,2.74-2.59,1.63,.02,2.74,1.15,2.69,2.77Z"/>
  <path class="cls-1" d="M129.85,97.68c-.46,1.05-.91,2.09-1.37,3.14-2.27,.42-3.58-.13-4-1.68-.37-1.35,.27-2.66,1.53-3.16,1.59-.63,2.78-.1,3.83,1.7Z"/>
  <path class="cls-1" d="M45.71,39.46c-.06,.6-.35,1.09-1,1.13-.64,.03-1.09-.42-1.12-1.03-.04-.75,.49-1.11,1.2-1.1,.6,0,.9,.38,.93,1.01Z"/>
  <path class="cls-1" d="M85.37,40.73c-.55,0-1.09,.02-1.64,.02-.09-.32-.21-.63-.26-.95-.14-.89,.24-1.4,1.16-1.36,.84,.03,1.15,.56,1.03,1.35-.05,.32-.19,.63-.29,.95Z"/>
  <path class="cls-1" d="M116.98,109.6c-.18,.07-.37,.14-.55,.2-.02,0-.06-.07-.09-.11,.18-.06,.36-.13,.55-.19l.1,.1Z"/>
  <path class="cls-1" d="M116.88,109.5c.16-.09,.2-.06,.1,.1,0,0-.1-.1-.1-.1Z"/>
  <path class="cls-1" d="M25.79,109.86c-.11-.11-.21-.22-.32-.33,0-.22-.03-.45,0-.66,.12-.83,.58-1.32,1.44-1.25,.59,.05,.84,.49,.84,1.05,0,.85-.58,1.12-1.31,1.19-.22,.02-.44,0-.66,0Z"/>
  <path class="cls-1" d="M103.35,107.56c.06,.8,.11,1.6-.31,2.34-.92,0-1.95-.09-1.87-1.29,.09-1.37,1.28-1.03,2.18-1.05Z"/>
  <path class="cls-1" d="M21.71,109.89c-.45-.74-.56-1.52-.35-2.36,.11,0,.22,0,.34,0,.85,0,1.88-.1,1.85,1.12-.03,1.06-.89,1.31-1.84,1.23Z"/>
  <path class="cls-1" d="M29.9,107.6c.65-.02,1.3-.04,1.95-.06,0,.7-.37,.99-1.05,.98-.61-.01-.94-.28-.9-.92Z"/>
</svg>