<?xml version="1.0" encoding="utf-8"?>
<!-- Generator: Adobe Illustrator 26.4.1, SVG Export Plug-In . SVG Version: 6.00 Build 0)  -->
<svg version="1.1" id="Layer_1" xmlns="http://www.w3.org/2000/svg" xmlns:xlink="http://www.w3.org/1999/xlink" x="0px" y="0px"
	 viewBox="0 0 300 300" style="enable-background:new 0 0 300 300;" xml:space="preserve">
<style type="text/css">
	.st0{fill-rule:evenodd;clip-rule:evenodd;fill:#DE739F;}
	.st1{fill-rule:evenodd;clip-rule:evenodd;fill:#F5DF56;}
</style>
<g>
	<path class="st0" d="M159.2,298.1C144.5,215,52.4,186.1,48.8,106.8C50.1,41.2,101,2.6,152.6,1.9c53.1-0.7,106.7,38.6,101.7,108.5
		c-8.6,44.3-32.2,82.4-61.8,118c6.9-48.8-39.8-66.2-41.3-85.3c-0.7-18.3,19.1-24.2,44.4-25.3c15.5,0.3,33.9-16.3,40.1-28
		c-36.9,0.9-63-23.7-79.7-23.1c-2.9-9.1-4.2-16.9,2.1-26.2c-37.8,7.1-57.5,36.9-56.5,59.7C108.4,171.2,225.9,180.1,159.2,298.1
		L159.2,298.1z"/>
	<path class="st1" d="M159.2,298.1c-4.6-26.3-17.1-47.2-32-66c32-9.4,1.8-44.4,24.4-57.7C177.1,201.7,195.6,233.6,159.2,298.1
		L159.2,298.1z"/>
</g>
</svg>
