<?xml version="1.0" encoding="utf-8"?>
<!-- Generator: Adobe Illustrator 26.4.1, SVG Export Plug-In . SVG Version: 6.00 Build 0)  -->
<svg version="1.1" id="Layer_1" xmlns="http://www.w3.org/2000/svg" xmlns:xlink="http://www.w3.org/1999/xlink" x="0px" y="0px"
	 viewBox="0 0 200 200" style="enable-background:new 0 0 200 200;" xml:space="preserve">
<style type="text/css">
	.st0{fill:#FF8BC8;}
	.st1{fill:#F75CB5;}
	.st2{fill:#E59C7C;}
	.st3{fill:#F9B691;}
	.st4{fill:#FFFFFF;}
	.st5{fill:#FFE471;}
	.st6{fill:#F2D85C;}
	.st7{fill:#DDC043;}
	.st8{fill:#CE7F63;}
	.st9{fill:#E89E79;}
	.st10{fill:#EAEAEA;}
	.st11{fill:#EFEFEF;}
</style>
<g>
	
		<ellipse transform="matrix(0.9395 -0.3425 0.3425 0.9395 -28.2512 40.2778)" class="st0" cx="99.9" cy="100.1" rx="99.8" ry="99.8"/>
	<path class="st1" d="M199.8,100.1c0-1.5-0.2-2.9-0.2-4.4c-14.1-9.8-75.3-56.4-75.3-56.4L97.8,51.2L99.9,154l12.3,45.1
		C161.5,193.1,199.8,151.1,199.8,100.1z"/>
	<polygon class="st2" points="115.6,109.8 82.9,109.8 82.9,138.7 76.9,140.3 99.9,170.5 122.6,140.5 115.6,138.7 	"/>
	<path class="st3" d="M133.3,75.8c-0.5,0-1,0-1.5,0.1V65.5c0-9.6-7.8-17.4-17.4-17.4H84.1c-9.6,0-17.4,7.8-17.4,17.4v10.4
		c-0.5-0.1-1-0.1-1.5-0.1c-4.2,0-7.5,2.8-7.5,6.3s3.4,6.3,7.5,6.3c0.5,0,1,0,1.5-0.1v4.1c0,17.3,13.1,32.5,30.4,33.6
		c19,1.2,34.7-13.8,34.7-32.5v-5.2c0.5,0.1,1,0.1,1.5,0.1c4.2,0,7.5-2.8,7.5-6.3S137.5,75.8,133.3,75.8z"/>
	<path class="st4" d="M102.5,33.8c-0.1-2,0.9-5.9,1-7.9c-1.2,1.8-2.9,4.9-3.1,7.2c-1.2-1.7-3.6-4.1-5.9-6.2c1.8,3.6,2.8,4.4,4.5,6.9
		c-1.4-0.6-16.4-2.1-26.2,7.3c-6.1,5.9-9.5,13.5-9.5,22.6c0,9.9,3.7,19.6,3.7,19.6s7-18.3,10.5-26.7c5.8,12.1,15.8,18,38.5,20.3
		c-9.3-4.6-19.4-12.5-21.4-20c4.2,6,8.4,10,19.8,14c16.3,5.8,16.8,14.3,16.8,14.3S142,57,126.1,41C118,32.9,102.4,32.8,102.5,33.8z"
		/>
	<path class="st5" d="M99.9,200c30,0,56.8-13.3,75.1-34.2l-7.7-10l-11.2,9.5l6.6-13.7l-42.8-11.9l-20.1,22.4l-20.6-22.5l-43.3,12
		l6.6,13.7l-11.2-9.5l-6.6,10C43,187.3,70.1,200,99.9,200z"/>
	<polygon class="st6" points="76.9,140.3 82.9,138.6 82.9,131.4 75.3,133 	"/>
	<polygon class="st4" points="73.9,133.7 76,165.1 93.2,158.8 97.2,164.6 99.8,162.2 75.3,133 	"/>
	<polygon class="st7" points="115.6,138.6 122.6,140.5 124.2,133 115.6,131.4 	"/>
	<polygon class="st4" points="99.8,162.2 102.4,164.6 106.3,158.8 123.5,165.1 125.7,133.7 124.2,133 	"/>
	<polygon class="st8" points="100.8,109.8 100.8,169.4 122.6,140.5 115.6,138.7 115.6,109.8 	"/>
	<path class="st9" d="M133.3,75.8c-0.5,0-1,0-1.5,0.1V65.5c0-9.6-7.8-17.4-17.4-17.4h-13.7V126c17.3-0.8,31.1-15,31.1-32.5v-5.2
		c0.5,0.1,1,0.1,1.5,0.1c4.2,0,7.5-2.8,7.5-6.3S137.5,75.8,133.3,75.8z"/>
	<path class="st10" d="M100.8,74.4c4.3,1.1,9.2,1.9,15,2.5c-5.3-2.7-10.9-6.4-15-10.5V74.4z"/>
	<path class="st10" d="M126.1,41c-8.1-8.1-23.6-8.2-23.6-7.2c-0.1-2,0.9-5.9,1-7.9c-0.9,1.3-2.1,3.4-2.7,5.3V64
		c3.1,2.5,7.2,4.7,13.5,7c16.3,5.8,16.8,14.3,16.8,14.3S142,57,126.1,41z"/>
	<path class="st6" d="M167.3,155.9l-11.2,9.5l6.6-13.7l-42.8-11.9l-19.1,21.3V200c29.6-0.3,56.4-12.8,74.5-34.5L167.3,155.9z"/>
	<polygon class="st11" points="124.2,133 100.8,161 100.8,163.2 102.4,164.6 106.3,158.8 123.5,165.1 125.7,133.7 	"/>
	<rect x="116.4" y="174" class="st11" width="27.4" height="5.3"/>
	<rect x="57.7" y="174" class="st4" width="27.4" height="5.3"/>
</g>
</svg>
