<?xml version="1.0" encoding="utf-8"?>
<!-- Generator: Adobe Illustrator 26.4.1, SVG Export Plug-In . SVG Version: 6.00 Build 0)  -->
<svg version="1.1" id="Layer_1" xmlns="http://www.w3.org/2000/svg" xmlns:xlink="http://www.w3.org/1999/xlink" x="0px" y="0px"
	 viewBox="0 0 200 200" style="enable-background:new 0 0 200 200;" xml:space="preserve">
<style type="text/css">
	.st0{fill:#FFE471;}
	.st1{fill:#E8CC43;}
	.st2{fill:#E59C7C;}
	.st3{fill:#F9B691;}
	.st4{fill:#52B9A3;}
	.st5{fill:#493F3F;}
	.st6{fill:#CE846A;}
	.st7{fill:#E8A080;}
	.st8{fill:#3FAA91;}
	.st9{fill:#302828;}
</style>
<g>
	<ellipse transform="matrix(0.9229 -0.3852 0.3852 0.9229 -30.7902 46.2822)" class="st0" cx="100.1" cy="100" rx="100" ry="100"/>
	<path class="st1" d="M200.1,100c0-6-0.6-11.8-1.6-17.5c-24.6-14-37.7-28-63.1-41.5L97,127.4l25.5,70
		C166.9,187.2,200.1,147.5,200.1,100z"/>
	<polygon class="st2" points="115.8,106.1 83,106.1 83,135 77,136.7 100.1,166.9 122.8,136.8 115.8,135 	"/>
	<path class="st3" d="M133.5,72c-0.5,0-1,0-1.5,0.1V61.7c0-9.6,0.1-17.4,0.1-17.4H84.2c-9.6,0-13.6,1.8-13.6,1.8l-3.8,26.1
		c-0.5-0.1-1-0.1-1.5-0.1c-4.2,0-7.5,2.8-7.5,6.3c0,3.5,3.4,6.3,7.5,6.3c0.5,0,1,0,1.5-0.1v4.1c0,17.4,13.1,32.5,30.5,33.7
		c19,1.2,34.8-13.8,34.8-32.6v-5.2c0.5,0.1,1,0.1,1.5,0.1c4.2,0,7.5-2.8,7.5-6.3C141,74.8,137.7,72,133.5,72z"/>
	<path class="st4" d="M100.1,200c31.7,0,59.9-14.8,78.2-37.8l-10.8-10l-11.3,9.5l6.6-13.7l-42.8-11.9c0,0,0.7,11-20,11
		c-18.6,0-20.8-11.1-20.8-11.1l-43.3,12l6.6,13.7l-11.3-9.5l-9.4,10C40.2,185.2,68.4,200,100.1,200z"/>
	<path class="st5" d="M124,104.2c-5.5,5.3-9.3,7.3-9.3,7.3s2.2-9.9-0.8-12.4c-3.1-2.5-9.9-3.1-13.5-3.3c-3.6-0.1-11.5,0.8-13.6,4.5
		c-2.1,3.5,0,10.3,0,10.3s-7.1-0.7-12.6-6.5c-6.3-6.6-7.4-19.5-7.4-19.5s-1.7,17.1,3.1,23.1c4.7,6,22.6,17.6,22.6,17.6h14.7
		c0,0,19.1-10.7,23.7-19.1c4.8-8.9,1.2-21.5,1.2-21.5S129.5,98.8,124,104.2z M111.5,116.3c-0.4,0.6-5,0.9-5.7,0.6
		c-0.7-0.2-2.4-5.2-2.4-5.2l-4.9,0.1c0,0-1.4,4.8-1.9,5c-0.6,0.2-4-0.2-5.2-0.7c-1.2-0.5-1.4-10.2-0.3-12.5c1.2-2.3,6.6-4,9.4-3.9
		c2.8,0.1,8,1,10.4,3.6C112.5,105.2,111.9,115.7,111.5,116.3z"/>
	<polygon class="st5" points="110.5,19.8 109.3,27.1 102.7,16.4 101.9,30.5 98.7,22.3 90.2,27.4 90.2,23.4 78.5,29.9 66.5,39.5 
		66.8,72.1 69.6,73.4 74.5,48.6 72.2,47.1 82,44.4 128.4,48.1 125.6,51 130.5,73.4 133.3,72.1 134.4,41.9 	"/>
	<polygon class="st6" points="115.8,106.1 101.3,106.1 101.3,165.2 122.8,136.8 115.8,135 	"/>
	<path class="st7" d="M133.5,72c-0.5,0-1,0-1.5,0.1V61.7c0-9.6,0.1-17.4,0.1-17.4h-30.8v78c17.1-1,30.7-15.2,30.7-32.5v-5.2
		c0.5,0.1,1,0.1,1.5,0.1c4.2,0,7.5-2.8,7.5-6.3C141,74.8,137.7,72,133.5,72z"/>
	<path class="st8" d="M178.4,162.2l-10.8-10l-11.3,9.5l6.6-13.7l-42.8-11.9c0,0,0.6,10.5-18.7,10.9v52.9
		C132.5,199.6,160.3,184.9,178.4,162.2z"/>
	<path class="st9" d="M124,104.2c-5.5,5.3-9.3,7.3-9.3,7.3s2.2-9.9-0.8-12.4c-2.9-2.3-9-3-12.6-3.2v4.1c2.9,0.2,7.4,1.2,9.6,3.6
		c1.6,1.7,1,12.2,0.6,12.8c-0.4,0.6-5,0.9-5.7,0.6c-0.7-0.2-2.4-5.2-2.4-5.2l-2.1,0v13.5h5.8c0,0,19.1-10.7,23.7-19.1
		c4.8-8.9,1.2-21.5,1.2-21.5S129.5,98.8,124,104.2z"/>
	<polygon class="st9" points="110.5,19.8 109.3,27.1 102.7,16.4 101.9,30.5 101.3,29 101.3,45.9 128.4,48.1 125.6,51 130.5,73.4 
		133.3,72.1 135.4,41 	"/>
</g>
</svg>
