<?xml version="1.0" encoding="utf-8"?>
<!-- Generator: Adobe Illustrator 26.4.1, SVG Export Plug-In . SVG Version: 6.00 Build 0)  -->
<svg version="1.1" id="Layer_1" xmlns="http://www.w3.org/2000/svg" xmlns:xlink="http://www.w3.org/1999/xlink" x="0px" y="0px"
	 viewBox="0 0 200 200" style="enable-background:new 0 0 200 200;" xml:space="preserve">
<style type="text/css">
	.st0{fill:#F5DF56;}
</style>
<g id="XMLID_00000078031851008873613870000012722234585188398783_">
	<g>
		<path class="st0" d="M171.5,76.2c0,28.8-10,36.9-64.2,115.4c-3.5,5.1-11.1,5.1-14.7,0C38.5,113,28.5,105,28.5,76.2
			c0-39.5,32-71.5,71.5-71.5S171.5,36.7,171.5,76.2z M129.8,76.2c0-16.5-13.3-29.8-29.8-29.8S70.2,59.7,70.2,76.2S83.5,106,100,106
			S129.8,92.6,129.8,76.2z"/>
		<circle class="st0" cx="100" cy="76.2" r="29.8"/>
	</g>
</g>
<g id="layer1" transform="translate(0,-452.36218)">
	<g id="g4087" transform="matrix(1.0871732,0,0,1.0871732,-155.7732,195.33037)">
		<path id="rect4002" d="M214.1,289l48.3-9.9v13.5l-48.3,9.9L214.1,289z"/>
		<rect id="rect3964" x="214.1" y="288.9" width="7.8" height="50.4"/>
		<path id="path4005" d="M221.6,337.3c1.4,5.2-3.1,10.9-10,12.8s-13.7-0.8-15-6c-1.4-5.2,3.1-10.9,10-12.8
			C213.5,329.5,220.2,332.2,221.6,337.3z"/>
		<rect id="rect3964-3" x="254.6" y="280.7" width="7.8" height="50.4"/>
		<path id="path4005-7" d="M262.2,329.1c1.4,5.2-3.1,10.9-10,12.8s-13.7-0.8-15-6c-1.4-5.2,3.1-10.9,10-12.8
			C254,321.2,260.8,323.9,262.2,329.1z"/>
	</g>
</g>
</svg>
