<?xml version="1.0" encoding="utf-8"?>
<!-- Generator: Adobe Illustrator 26.4.1, SVG Export Plug-In . SVG Version: 6.00 Build 0)  -->
<svg version="1.1" id="Layer_1" xmlns="http://www.w3.org/2000/svg" xmlns:xlink="http://www.w3.org/1999/xlink" x="0px" y="0px"
	 viewBox="0 0 1366 768" enable-background="new 0 0 1366 768" xml:space="preserve">
<g>
	<defs>
		
			<rect id="SVGID_1_" x="0.3" y="-0.4" transform="matrix(-1 2.809606e-07 -2.809606e-07 -1 1366.2805 767.6133)" width="1365.7" height="768.4"/>
	</defs>
	<clipPath id="SVGID_00000147204960054016093350000001034945181777101474_">
		<use xlink:href="#SVGID_1_"  overflow="visible"/>
	</clipPath>
	<path clip-path="url(#SVGID_00000147204960054016093350000001034945181777101474_)" fill="#54B9A4" d="M1196.2,164.1
		c-12.4,14.5-15.2,37.3-10.1,55.7c5.5,20.1,13.2,44.3,33.9,53.4c22.1,9.7,44.4,16.8,69.4,17.9c27.3,1.2,51,17.1,53.8,45.2
		c2.6,25.7-28,44.5-49.1,48c-44.7,7.3-78.3,34.5-113,58.5c-6.9,4.8-9.8,15.1-6.6,23c22.5,56.7,93.3,56.4,136.4,37.4
		c18.9-8.4,36.9-19.5,55.1-29.1V-0.4l-146.4,0c11.7,16.3,20.8,34.3,26.1,53.7C1257.8,97.9,1225.4,129.8,1196.2,164.1z"/>
	<path clip-path="url(#SVGID_00000147204960054016093350000001034945181777101474_)" fill="#222B54" d="M662.3,100.5
		C560.9,157,421.7,185.8,391.6,321.3c-19.5,87.8-124.9,64.7-200.5,66c-28.8,0.5-61.1,5.4-75,28.2c-35.6,58.6-61.4,125-115.8,162.7
		l0,189.9h372.6c0.3-0.5,0.5-1.1,0.8-1.6c4.6-9,10.5-17.8,17.2-26.4c1.2-1.6,2.5-3.3,3.8-4.9c6.4-8.1,13.4-16.1,20.3-24.1
		c1.4-1.6,2.7-3.2,4.1-4.8c6.9-8,13.6-16.1,19.8-24.2c1.3-1.7,2.5-3.4,3.7-5.1c3.3-4.7,6.4-9.5,9.2-14.3c2-3.5,3.7-7.2,5-11
		c0.8-2.2,1.5-4.4,2-6.7c2-8.2,2.6-16.7,1.7-25.1c-0.2-2.5-0.6-4.9-1.1-7.3c-1.2-5.8-3-11.4-5.5-16.7c-10.3-21.9-18-44.2-21.5-66.6
		c-0.4-2.4-0.7-4.9-1-7.3c-1-8.7-1.3-17.5-0.9-26.2c0.1-2.2,0.3-4.4,0.5-6.6c1.2-11.6,3.8-23,8-34.4c0.9-2.4,1.9-4.7,2.9-7.1
		c1.8-4,3.7-7.9,5.9-11.9c3.4-6,7.1-12.1,11-18c1.6-2.4,3.3-4.7,5-7c5.9-8,12.5-15.5,19.7-22c1.8-1.7,3.7-3.3,5.7-4.8
		c7.7-6.1,16.2-10.9,25.3-13.9c2.1-0.7,4.2-1.3,6.3-1.8c8.3-1.9,17.3-2.3,26.8-0.8c45.7,7.1,61.5,38.1,67,74.5
		c0.4,2.4,0.7,4.9,1,7.4c1.1,9.1,1.6,18.4,1.8,27.8c0.1,2.4,0.1,4.7,0.2,7.1c0.1,9.5,0.1,18.8,0.2,27.8
		c0.4,46.6,45.9,58.2,84.7,49.4c2-0.4,3.9-0.9,5.8-1.5c0.3-0.1,0.5-0.2,0.8-0.2c8-2.3,16-4.7,24-7.3c2.2-0.7,4.5-1.4,6.8-2.2
		c9.8-3.1,19.5-6.3,29.2-9.2c2.2-0.7,4.5-1.4,6.7-2c20.8-6.1,41.4-11.1,62-12.7c3.5-0.3,7-0.4,10.6-0.5c11.2-0.2,22.4,0.8,33.6,3.2
		c2.7,0.6,5.4,1.2,8.1,2c5.9,1.7,11.9,3.8,17.8,6.5c42.8,19,75.1,47.5,99.1,82c2,2.8,3.9,5.7,5.7,8.6c16.3,25.5,28.3,54,36.9,84.1
		c0.7,2.5,1.4,5.1,2.1,7.6c4,15.1,7.1,30.5,9.5,46.2c0.1,0.7,0.2,1.4,0.3,2l188.7,0c-0.5-18.3,3.2-38,7.9-55.6
		c9.1-34.6-9.5-72.9-39.8-85c-137.8-54.9-246.1-133.2-270.5-263.8c-7.9-42.1,12.1-82.6,6.6-124.3c-2.9-21.8-23.3-40.2-38.2-57.3
		c-27.9-32.1-26.6-85.4-0.8-117.7c19.2-24.1,40.9-45.8,64.8-64.8l-252.5,0C733.3,34,695.3,82,662.3,100.5z"/>
	<path clip-path="url(#SVGID_00000147204960054016093350000001034945181777101474_)" fill="#FFFFFF" d="M915.2,64.4
		c-25.8,32.3-27.1,85.6,0.8,117.7c14.9,17.1,35.3,35.5,38.2,57.3c5.5,41.7-14.4,82.3-6.6,124.3c24.4,130.6,132.7,208.9,270.5,263.8
		c30.3,12.1,48.9,50.3,39.8,85c-4.6,17.6-8.3,37.3-7.9,55.6H1366l0-294c-18.2,9.6-36.2,20.7-55.1,29.1
		c-43.1,19-113.9,19.3-136.4-37.4c-3.2-7.9-0.3-18.2,6.6-23c34.7-24,68.3-51.2,113-58.5c21.1-3.4,51.7-22.3,49.1-48
		c-2.8-28.1-26.5-43.9-53.8-45.2c-25-1.1-47.2-8.2-69.4-17.9c-20.8-9.1-28.4-33.2-33.9-53.4c-5.1-18.4-2.3-41.2,10.1-55.7
		c29.2-34.2,61.6-66.1,49.5-110.7c-5.3-19.5-14.4-37.5-26.1-53.7L980-0.4C956.1,18.5,934.4,40.3,915.2,64.4z"/>
	<path clip-path="url(#SVGID_00000147204960054016093350000001034945181777101474_)" fill="#FFFFFF" d="M366,127.8
		c-40.4,68.5-99.2,124.4-172.9,156.5c-17.5,7.6-37.1,4.9-53.6-3c-42.6-20.3-80.4-52.9-99.1-96.1c-18.3-42.4,9.3-78.6,33.4-116.6
		C84,52.5,83.6,29.6,76,12.1C74.2,8,72.3,3.8,70.3-0.4l-70,0l0,578.5c54.4-37.6,80.2-104,115.8-162.7c13.9-22.8,46.2-27.7,75-28.2
		c75.6-1.3,181,21.8,200.5-66C421.7,185.8,560.9,157,662.3,100.5c33-18.4,71-66.4,65.2-100.8l-393,0c4.8,4,9.7,7.9,14.1,11.8
		C380.8,39.2,387,92.2,366,127.8z"/>
	<path clip-path="url(#SVGID_00000147204960054016093350000001034945181777101474_)" fill="#54B9A4" d="M76,12.1
		c7.6,17.5,8.1,40.5-2.2,56.6c-24.1,38-51.7,74.1-33.4,116.6c18.7,43.3,56.5,75.8,99.1,96.1c16.5,7.9,36,10.6,53.6,3
		c73.7-32.1,132.5-88,172.9-156.5c21-35.6,14.8-88.6-17.4-116.4c-4.5-3.9-9.3-7.8-14.1-11.8l-264.2,0C72.3,3.8,74.2,8,76,12.1z"/>
	<path clip-path="url(#SVGID_00000147204960054016093350000001034945181777101474_)" fill="#54B9A4" d="M1051.6,719.8
		c-0.7-2.5-1.4-5.1-2.1-7.6c-8.6-30.1-20.6-58.6-36.9-84.1c-1.9-2.9-3.8-5.8-5.7-8.6c-23.9-34.5-56.2-63-99.1-82
		c-6-2.6-11.9-4.8-17.8-6.5c-2.7-0.8-5.4-1.5-8.1-2c-11.2-2.5-22.4-3.4-33.6-3.2c-3.5,0.1-7.1,0.2-10.6,0.5
		c-20.6,1.6-41.3,6.6-62,12.7c-2.2,0.6-4.5,1.3-6.7,2c-9.7,2.9-19.4,6.1-29.2,9.2c-2.3,0.7-4.5,1.4-6.8,2.2c-8,2.5-15.9,5-24,7.3
		c-0.3,0.1-0.5,0.2-0.8,0.2c-1.9,0.5-3.8,1-5.8,1.5c-38.8,8.8-84.2-2.8-84.7-49.4c-0.1-9,0-18.4-0.2-27.8c0-2.4-0.1-4.7-0.2-7.1
		c-0.2-9.3-0.7-18.7-1.8-27.8c-0.3-2.5-0.6-5-1-7.4c-5.6-36.4-21.4-67.4-67-74.5c-9.5-1.5-18.5-1.1-26.8,0.8
		c-2.2,0.5-4.3,1.1-6.3,1.8c-9.2,3-17.6,7.9-25.3,13.9c-1.9,1.5-3.8,3.1-5.7,4.8c-7.2,6.5-13.7,14-19.7,22c-1.7,2.3-3.4,4.6-5,7
		c-4,5.9-7.6,11.9-11,18c-2.2,3.9-4.2,7.9-5.9,11.9c-1,2.3-2,4.7-2.9,7.1c-4.3,11.3-6.9,22.8-8,34.4c-0.2,2.2-0.4,4.4-0.5,6.6
		c-0.5,8.7-0.2,17.5,0.9,26.2c0.3,2.5,0.6,4.9,1,7.3c3.5,22.4,11.2,44.7,21.5,66.6c2.5,5.3,4.4,10.9,5.5,16.7
		c0.5,2.4,0.9,4.8,1.1,7.3c0.9,8.4,0.3,16.9-1.7,25.1c-0.6,2.3-1.2,4.5-2,6.7c-1.3,3.8-3,7.4-5,11c-2.8,4.8-5.9,9.6-9.2,14.3
		c-1.2,1.7-2.4,3.4-3.7,5.1c-6.1,8.2-12.9,16.2-19.8,24.2c-1.4,1.6-2.7,3.2-4.1,4.8c-6.9,8-13.9,16-20.3,24.1
		c-1.3,1.6-2.6,3.2-3.8,4.9c-6.6,8.6-12.6,17.4-17.2,26.4c-0.3,0.5-0.5,1.1-0.8,1.6l688.5,0c-0.1-0.7-0.2-1.4-0.3-2
		C1058.7,750.3,1055.6,734.8,1051.6,719.8z"/>
	<g clip-path="url(#SVGID_00000147204960054016093350000001034945181777101474_)">
		<g>
			<g>
				<path fill="#F5DF56" d="M119.8,161.2c-1.3-1.1-1-3.5-0.8-6l-1-0.1l0,0l1,0.1c0.3-3.1,0.7-6.7-2-8.9c-2.6-2.3-6.1-1.4-9.1-0.7
					c-2.4,0.6-4.7,1.2-6,0.1c-1.3-1.1-1-3.5-0.8-6c0.3-3.1,0.7-6.7-2-8.9c-2.6-2.3-6.1-1.4-9.1-0.7c-2.4,0.6-4.7,1.2-6,0.1
					c-1.3-1.1-1-3.5-0.8-6c0.3-3.1,0.7-6.7-2-8.9c-2.6-2.3-6.1-1.4-9.1-0.7c-2.4,0.6-4.7,1.2-6,0.1l-0.8-0.7l-2.3,2.7l0.8,0.7
					c2.6,2.3,6.1,1.4,9.1,0.7c2.4-0.6,4.7-1.2,6-0.1c1.3,1.1,1,3.5,0.8,6c-0.3,3.1-0.7,6.7,2,8.9c2.6,2.3,6.1,1.4,9.1,0.7
					c2.4-0.6,4.7-1.2,6-0.1c1.3,1.1,1,3.5,0.8,6c-0.3,3.1-0.7,6.7,2,8.9c2.6,2.3,6.1,1.4,9.1,0.7c2.4-0.6,4.7-1.1,6-0.1
					c1.3,1.1,1,3.4,0.8,6c-0.3,3.1-0.7,6.7,2,8.9l0.8,0.7l2.3-2.7L119.8,161.2z"/>
			</g>
		</g>
		<g>
			<g>
				<path fill="#F5DF56" d="M1348.6,241.3c-1.5,0.3-3-1.2-4.7-2.8l-0.7,0.7l0,0l0.7-0.7c-2-2-4.3-4.2-7.4-3.7
					c-3.1,0.6-4.4,3.5-5.6,6.1c-1,2.1-1.9,4-3.3,4.3c-1.5,0.3-3-1.2-4.7-2.8c-2-2-4.3-4.2-7.4-3.7c-3.1,0.6-4.4,3.5-5.6,6.1
					c-1,2.1-1.9,4-3.3,4.3c-1.5,0.3-3-1.2-4.7-2.8c-2-2-4.4-4.2-7.4-3.7c-3.1,0.6-4.4,3.5-5.6,6.1c-1,2.1-1.9,4-3.3,4.3l-0.9,0.2
					l0.6,3.1l0.9-0.2c3.1-0.6,4.4-3.5,5.6-6.1c1-2.1,1.9-4,3.3-4.3c1.5-0.3,3,1.2,4.7,2.8c2,2,4.4,4.2,7.4,3.7
					c3.1-0.6,4.4-3.5,5.6-6.1c1-2.1,1.9-4,3.3-4.3c1.5-0.3,3,1.2,4.7,2.8c2,2,4.4,4.2,7.4,3.7c3.1-0.6,4.4-3.5,5.6-6.1
					c1-2.1,1.9-4,3.3-4.3c1.5-0.3,3,1.2,4.7,2.8c2,2,4.3,4.2,7.4,3.7l0.9-0.2l-0.6-3.1L1348.6,241.3z"/>
			</g>
		</g>
		<g>
			<g>
				<path fill="#F5DF56" d="M132,601.2c-0.7-1.3,0.1-3.2,1-5.2l-0.8-0.4l0,0l0.8,0.4c1.1-2.5,2.4-5.4,0.9-8
					c-1.5-2.6-4.7-2.9-7.4-3.2c-2.2-0.2-4.3-0.4-5-1.7c-0.7-1.3,0.1-3.2,1-5.2c1.1-2.5,2.4-5.4,0.9-8c-1.5-2.6-4.7-2.9-7.4-3.2
					c-2.2-0.2-4.3-0.4-5-1.7c-0.7-1.3,0.1-3.2,1-5.2c1.1-2.5,2.4-5.4,0.9-8c-1.5-2.6-4.7-2.9-7.4-3.2c-2.2-0.2-4.3-0.4-5-1.7
					l-0.5-0.8l-2.7,1.6l0.5,0.8c1.5,2.6,4.7,2.9,7.4,3.2c2.2,0.2,4.3,0.4,5,1.7c0.7,1.3-0.1,3.2-1,5.2c-1.1,2.5-2.4,5.4-0.9,8
					c1.5,2.6,4.7,2.9,7.4,3.2c2.2,0.2,4.3,0.4,5,1.7c0.7,1.3-0.1,3.2-1,5.2c-1.1,2.5-2.4,5.4-0.9,8c1.5,2.7,4.7,2.9,7.4,3.2
					c2.2,0.2,4.3,0.4,5,1.7c0.7,1.3-0.1,3.2-1,5.2c-1.1,2.5-2.4,5.4-0.9,8l0.5,0.8l2.7-1.6L132,601.2z"/>
			</g>
		</g>
		<g>
			<g>
				<path fill="#F5DF56" d="M807.2,468.6c-1.7,1-4.3-0.3-7-1.6l-0.5,1.1l0,0l0.5-1.1c-3.4-1.6-7.2-3.5-10.8-1.5
					c-3.6,2-4.1,6.2-4.6,9.9c-0.3,3-0.7,5.8-2.4,6.7c-1.7,1-4.3-0.3-7-1.6c-3.4-1.6-7.2-3.5-10.8-1.5c-3.6,2-4.1,6.2-4.6,9.9
					c-0.3,3-0.7,5.8-2.4,6.7c-1.7,1-4.3-0.3-7-1.6c-3.4-1.6-7.2-3.5-10.8-1.5c-3.6,2-4.1,6.2-4.6,9.9c-0.3,3-0.7,5.8-2.4,6.7
					l-1.1,0.6l2,3.7l1.1-0.6c3.6-2,4.1-6.2,4.6-9.9c0.3-3,0.7-5.8,2.4-6.7c1.7-1,4.3,0.3,7,1.6c3.4,1.6,7.2,3.5,10.8,1.5
					c3.6-2,4.1-6.2,4.6-9.9c0.3-3,0.7-5.8,2.4-6.7c1.7-1,4.3,0.3,7,1.6c3.4,1.6,7.2,3.5,10.8,1.5c3.6-2,4.1-6.2,4.6-9.9
					c0.3-3,0.7-5.8,2.4-6.7c1.7-0.9,4.3,0.3,7,1.6c3.4,1.6,7.2,3.5,10.8,1.5l1.1-0.6l-2-3.7L807.2,468.6z"/>
			</g>
		</g>
		<g>
			<g>
				<path fill="#F5DF56" d="M608.3,97.5c-1,0.2-2-0.8-3.1-1.8l-0.4,0.5l0,0l0.4-0.5c-1.4-1.3-2.9-2.8-4.9-2.4c-2,0.4-2.9,2.3-3.7,4
					c-0.6,1.4-1.2,2.7-2.2,2.8c-1,0.2-2-0.8-3.1-1.8c-1.4-1.3-2.9-2.8-4.9-2.4c-2,0.4-2.9,2.3-3.7,4c-0.6,1.4-1.2,2.7-2.2,2.8
					c-1,0.2-2-0.8-3.1-1.8c-1.4-1.3-2.9-2.8-4.9-2.4c-2,0.4-2.9,2.3-3.7,4c-0.6,1.4-1.2,2.7-2.2,2.8l-0.6,0.1l0.4,2.1l0.6-0.1
					c2-0.4,2.9-2.3,3.7-4c0.6-1.4,1.2-2.7,2.2-2.8c1-0.2,2,0.8,3.1,1.8c1.4,1.3,2.9,2.8,4.9,2.4c2-0.4,2.9-2.3,3.7-4
					c0.6-1.4,1.2-2.7,2.2-2.8c1-0.2,2,0.8,3.1,1.8c1.4,1.3,2.9,2.8,4.9,2.4c2-0.4,2.9-2.3,3.7-4c0.6-1.4,1.2-2.7,2.2-2.8
					c1-0.2,2,0.8,3.1,1.8c1.4,1.3,2.9,2.8,4.9,2.4l0.6-0.1l-0.4-2.1L608.3,97.5z"/>
			</g>
		</g>
		<g>
			<g>
				<path fill="#F5DF56" d="M570.1,407.4c-0.5-1.8,1.1-3.8,2.9-6l-0.9-0.7l0,0l0.9,0.7c2.2-2.7,4.6-5.8,3.6-9.4c-1-3.7-4.7-5-8-6.2
					c-2.6-0.9-5.1-1.8-5.6-3.6c-0.5-1.8,1.1-3.8,2.9-6c2.2-2.7,4.6-5.8,3.6-9.4c-1-3.7-4.7-5-8-6.2c-2.6-0.9-5.1-1.8-5.6-3.6
					c-0.5-1.8,1.1-3.8,2.9-6c2.2-2.7,4.6-5.8,3.6-9.4c-1-3.7-4.7-5-8-6.2c-2.6-0.9-5.1-1.8-5.6-3.6l-0.3-1.1l-3.7,1.1l0.3,1.1
					c1,3.7,4.7,5,8,6.2c2.6,0.9,5.1,1.8,5.6,3.6c0.5,1.8-1.1,3.8-2.9,6c-2.2,2.7-4.6,5.8-3.6,9.4c1,3.7,4.7,5,8,6.2
					c2.6,0.9,5.1,1.8,5.6,3.6c0.5,1.8-1.1,3.8-2.9,6c-2.2,2.7-4.6,5.8-3.6,9.4c1,3.7,4.7,5,8,6.2c2.6,0.9,5.1,1.8,5.6,3.6
					c0.5,1.8-1.1,3.8-2.9,6c-2.2,2.7-4.6,5.8-3.6,9.4l0.3,1.1l3.7-1.1L570.1,407.4z"/>
			</g>
		</g>
		<g>
			<g>
				<path fill="#F5DF56" d="M1042.8,285.9c-1.3-0.1-2.3-1.7-3.3-3.3l-0.7,0.4l0,0l0.7-0.4c-1.3-2.1-2.8-4.4-5.5-4.6
					c-2.7-0.2-4.4,2-6,3.9c-1.2,1.5-2.4,3-3.7,2.9c-1.3-0.1-2.3-1.7-3.3-3.3c-1.3-2.1-2.8-4.4-5.5-4.6c-2.7-0.2-4.4,2-6,3.9
					c-1.2,1.5-2.4,3-3.7,2.9c-1.3-0.1-2.3-1.7-3.3-3.3c-1.3-2.1-2.8-4.4-5.5-4.6c-2.7-0.2-4.4,2-6,3.9c-1.2,1.5-2.4,3-3.7,2.9
					l-0.8,0l-0.2,2.8l0.8,0c2.7,0.2,4.4-2,6-3.9c1.2-1.5,2.4-3,3.7-2.9c1.3,0.1,2.3,1.6,3.3,3.3c1.3,2.1,2.8,4.4,5.5,4.6
					c2.7,0.2,4.4-2,6-3.9c1.2-1.5,2.4-3,3.7-2.9c1.3,0.1,2.3,1.6,3.3,3.3c1.3,2.1,2.8,4.4,5.5,4.6c2.7,0.2,4.4-2,6-3.9
					c1.2-1.5,2.4-3,3.7-2.9c1.3,0.1,2.3,1.6,3.3,3.3c1.3,2.1,2.8,4.4,5.5,4.6l0.8,0l0.2-2.8L1042.8,285.9z"/>
			</g>
		</g>
		<g>
			<g>
				<path fill="#F5DF56" d="M722.1,282.9c-1,0-1.9-1.1-2.9-2.4l-0.5,0.4l0,0l0.5-0.4c-1.2-1.5-2.6-3.3-4.7-3.2
					c-2.2,0.1-3.4,2-4.4,3.6c-0.8,1.3-1.6,2.6-2.7,2.6c-1,0-1.9-1.1-2.9-2.4c-1.2-1.5-2.6-3.3-4.7-3.2c-2.2,0.1-3.4,2-4.4,3.6
					c-0.8,1.3-1.6,2.6-2.7,2.6c-1,0-1.9-1.1-2.9-2.4c-1.2-1.5-2.6-3.3-4.7-3.2c-2.2,0.1-3.4,2-4.4,3.6c-0.8,1.3-1.6,2.6-2.7,2.6
					l-0.6,0l0.1,2.2l0.6,0c2.2-0.1,3.4-2,4.4-3.6c0.8-1.3,1.6-2.5,2.7-2.6c1,0,1.9,1.1,2.9,2.3c1.2,1.5,2.6,3.3,4.7,3.2
					s3.4-2,4.4-3.6c0.8-1.3,1.6-2.5,2.7-2.6c1,0,1.9,1.1,2.9,2.3c1.2,1.5,2.6,3.3,4.7,3.2c2.2-0.1,3.4-2,4.4-3.6
					c0.8-1.3,1.6-2.5,2.7-2.6c1,0,1.9,1.1,2.9,2.3c1.2,1.5,2.6,3.3,4.7,3.2l0.6,0l-0.1-2.2L722.1,282.9z"/>
			</g>
		</g>
		<g>
			<g>
				<path fill="#F5DF56" d="M1147.3,190.7c-1,0.3-2.2-0.6-3.4-1.5l-0.4,0.5l0,0l0.4-0.5c-1.6-1.2-3.3-2.5-5.4-1.8
					c-2,0.7-2.7,2.8-3.3,4.6c-0.5,1.5-0.9,2.9-1.9,3.2c-1,0.3-2.2-0.6-3.4-1.5c-1.6-1.2-3.3-2.5-5.4-1.8c-2.1,0.7-2.7,2.8-3.3,4.6
					c-0.5,1.5-0.9,2.9-1.9,3.2s-2.2-0.6-3.4-1.5c-1.6-1.2-3.3-2.5-5.4-1.8c-2,0.7-2.7,2.8-3.3,4.6c-0.5,1.5-0.9,2.9-1.9,3.2
					l-0.6,0.2l0.7,2.1l0.6-0.2c2.1-0.7,2.7-2.8,3.3-4.6c0.5-1.5,0.9-2.9,1.9-3.2c1-0.3,2.2,0.6,3.4,1.5c1.6,1.2,3.3,2.5,5.4,1.8
					c2.1-0.7,2.7-2.8,3.3-4.6c0.5-1.5,0.9-2.9,1.9-3.2c1-0.3,2.2,0.6,3.4,1.5c1.6,1.2,3.3,2.5,5.4,1.8c2.1-0.7,2.7-2.8,3.3-4.7
					c0.5-1.5,0.9-2.9,1.9-3.2c1-0.3,2.2,0.6,3.4,1.5c1.6,1.2,3.3,2.5,5.4,1.8l0.6-0.2l-0.7-2.1L1147.3,190.7z"/>
			</g>
		</g>
		<g>
			<g>
				<path fill="#F5DF56" d="M204.1,716.7c-1,0-1.9-1.1-2.9-2.4l-0.5,0.4l0,0l0.5-0.4c-1.2-1.5-2.6-3.3-4.7-3.2
					c-2.2,0.1-3.4,2-4.4,3.6c-0.8,1.3-1.6,2.6-2.7,2.6c-1,0-1.9-1.1-2.9-2.4c-1.2-1.5-2.6-3.3-4.7-3.2c-2.2,0.1-3.4,2-4.4,3.6
					c-0.8,1.3-1.6,2.6-2.7,2.6c-1,0-1.9-1.1-2.9-2.4c-1.2-1.5-2.6-3.3-4.7-3.2c-2.2,0.1-3.4,2-4.4,3.6c-0.8,1.3-1.6,2.6-2.7,2.6
					l-0.6,0l0.1,2.2l0.6,0c2.2-0.1,3.4-2,4.4-3.6c0.8-1.3,1.6-2.5,2.7-2.6c1,0,1.9,1.1,2.9,2.3c1.2,1.5,2.6,3.3,4.7,3.2
					c2.2-0.1,3.4-2,4.4-3.6c0.8-1.3,1.6-2.5,2.7-2.6s1.9,1.1,2.9,2.3c1.2,1.5,2.6,3.3,4.7,3.2c2.2-0.1,3.4-2,4.4-3.6
					c0.8-1.3,1.6-2.5,2.7-2.6c1,0,1.9,1.1,2.9,2.3c1.2,1.5,2.6,3.3,4.7,3.2l0.6,0l-0.1-2.2L204.1,716.7z"/>
			</g>
		</g>
		<g>
			<g>
				<path fill="#F5DF56" d="M1350.4,72.1c-0.9-0.9-0.6-2.6-0.2-4.4l-0.8-0.1l0,0l0.8,0.1c0.4-2.3,0.9-4.8-0.9-6.7
					c-1.8-1.8-4.4-1.4-6.6-1c-1.8,0.3-3.5,0.6-4.4-0.3c-0.9-0.9-0.6-2.6-0.2-4.4c0.4-2.3,0.9-4.8-0.9-6.7c-1.8-1.8-4.4-1.4-6.6-1
					c-1.8,0.3-3.5,0.6-4.4-0.3c-0.9-0.9-0.6-2.6-0.2-4.4c0.4-2.3,0.9-4.8-0.9-6.7c-1.8-1.8-4.4-1.4-6.6-1c-1.8,0.3-3.5,0.6-4.4-0.3
					l-0.5-0.5l-1.8,1.8l0.5,0.5c1.8,1.8,4.4,1.4,6.7,1c1.8-0.3,3.5-0.6,4.4,0.3c0.9,0.9,0.6,2.6,0.2,4.4c-0.4,2.3-0.9,4.8,0.9,6.7
					c1.8,1.8,4.4,1.4,6.7,1c1.8-0.3,3.5-0.6,4.4,0.3c0.9,0.9,0.6,2.6,0.2,4.4c-0.4,2.3-0.9,4.8,0.9,6.7c1.8,1.8,4.4,1.4,6.7,1
					c1.8-0.3,3.5-0.6,4.4,0.3c0.9,0.9,0.6,2.6,0.2,4.4c-0.4,2.3-0.9,4.8,0.9,6.7l0.5,0.5l1.8-1.8L1350.4,72.1z"/>
			</g>
		</g>
		<g>
			<g>
				<path fill="#F5DF56" d="M234.8,240.7c-1.1,0.5-2.5-0.4-4.1-1.4l-0.4,0.6l0,0l0.4-0.6c-1.9-1.2-4-2.5-6.3-1.6
					c-2.3,1-2.8,3.4-3.3,5.6c-0.4,1.7-0.8,3.4-1.9,3.9c-1.1,0.5-2.5-0.4-4.1-1.4c-1.9-1.2-4-2.5-6.3-1.6c-2.3,1-2.8,3.4-3.3,5.6
					c-0.4,1.7-0.8,3.4-1.9,3.9c-1.1,0.5-2.5-0.4-4.1-1.4c-1.9-1.2-4-2.5-6.3-1.6c-2.3,1-2.8,3.4-3.3,5.6c-0.4,1.7-0.8,3.4-1.9,3.9
					l-0.7,0.3l1,2.3l0.7-0.3c2.3-1,2.8-3.4,3.3-5.6c0.4-1.7,0.8-3.4,1.9-3.9c1.1-0.5,2.5,0.4,4.1,1.4c1.9,1.2,4.1,2.5,6.3,1.6
					c2.3-1,2.8-3.4,3.3-5.6c0.4-1.7,0.8-3.4,1.9-3.9c1.1-0.5,2.5,0.4,4.1,1.4c1.9,1.2,4.1,2.5,6.3,1.6c2.3-1,2.8-3.4,3.3-5.6
					c0.4-1.7,0.8-3.4,1.9-3.9c1.1-0.5,2.5,0.4,4.1,1.4c1.9,1.2,4,2.5,6.3,1.6l0.7-0.3l-1-2.3L234.8,240.7z"/>
			</g>
		</g>
		<g>
			<g>
				<path fill="#F5DF56" d="M1021,619c-0.8,1-2.6,0.9-4.5,0.9l0,0.8l0,0l0-0.8c-2.4-0.1-5.1-0.2-6.8,1.9c-1.6,2.1-0.8,4.7-0.1,7
					c0.6,1.8,1.1,3.6,0.3,4.6c-0.8,1-2.6,0.9-4.5,0.9c-2.4-0.1-5.1-0.2-6.8,1.9c-1.6,2.1-0.8,4.7-0.1,7c0.6,1.8,1.1,3.6,0.3,4.6
					c-0.8,1-2.6,0.9-4.5,0.9c-2.4-0.1-5.1-0.2-6.8,1.9c-1.6,2.1-0.8,4.7-0.1,7c0.6,1.8,1.1,3.6,0.3,4.6l-0.5,0.6l2.1,1.7l0.5-0.6
					c1.6-2.1,0.8-4.7,0.1-7c-0.6-1.8-1.1-3.6-0.3-4.6c0.8-1,2.6-0.9,4.5-0.9c2.4,0.1,5.1,0.2,6.8-1.9c1.6-2.1,0.8-4.7,0.1-7
					c-0.6-1.8-1.1-3.6-0.3-4.6c0.8-1,2.6-0.9,4.5-0.9c2.4,0.1,5.1,0.2,6.8-1.9c1.6-2.1,0.8-4.7,0.1-7c-0.6-1.8-1.1-3.6-0.3-4.6
					c0.8-1,2.6-0.9,4.5-0.9c2.4,0.1,5.1,0.2,6.8-1.9l0.5-0.6l-2.1-1.7L1021,619z"/>
			</g>
		</g>
		<g>
			<g>
				<path fill="#F5DF56" d="M421.2,367.4c-0.9-1.2-0.3-3.3,0.3-5.5l-0.9-0.3l0,0l0.9,0.3c0.8-2.8,1.8-5.9-0.2-8.4
					c-2-2.5-5.2-2.4-8.1-2.2c-2.3,0.1-4.5,0.2-5.4-1c-0.9-1.2-0.3-3.3,0.3-5.5c0.8-2.8,1.8-5.9-0.2-8.4c-2-2.5-5.2-2.4-8.1-2.2
					c-2.3,0.1-4.5,0.2-5.4-1c-0.9-1.2-0.3-3.3,0.3-5.5c0.8-2.8,1.8-5.9-0.2-8.4c-2-2.5-5.2-2.4-8.1-2.2c-2.3,0.1-4.5,0.2-5.4-1
					l-0.6-0.8l-2.5,2l0.6,0.8c2,2.5,5.2,2.4,8.1,2.2c2.3-0.1,4.5-0.2,5.4,1c0.9,1.2,0.3,3.3-0.3,5.5c-0.8,2.8-1.8,5.9,0.2,8.4
					c2,2.5,5.2,2.4,8.1,2.2c2.3-0.1,4.5-0.2,5.4,1c0.9,1.2,0.3,3.3-0.3,5.5c-0.8,2.8-1.8,5.9,0.2,8.4c2,2.5,5.2,2.4,8.1,2.2
					c2.3-0.1,4.5-0.2,5.4,1c0.9,1.2,0.3,3.3-0.3,5.5c-0.8,2.8-1.8,5.9,0.2,8.4l0.6,0.8l2.5-2L421.2,367.4z"/>
			</g>
		</g>
		<g>
			<g>
				<path fill="#F5DF56" d="M811.8,30.6c-0.6,1.5-2.8,2.1-5.2,2.7l0.3,1l0,0l-0.3-1c-2.9,0.8-6.3,1.6-7.5,4.7
					c-1.2,3.1,0.7,6,2.4,8.5c1.3,2,2.6,3.9,2,5.4c-0.6,1.5-2.8,2.1-5.2,2.7c-2.9,0.8-6.3,1.6-7.5,4.7c-1.2,3.1,0.7,6,2.4,8.5
					c1.3,2,2.6,3.9,2,5.4c-0.6,1.5-2.8,2.1-5.2,2.7c-2.9,0.8-6.3,1.6-7.5,4.7s0.7,6,2.4,8.5c1.3,2,2.6,3.9,2,5.4l-0.4,0.9l3.2,1.2
					l0.4-0.9c1.2-3.1-0.7-6-2.4-8.5c-1.3-2-2.6-3.9-2-5.4c0.6-1.5,2.8-2.1,5.2-2.7c2.9-0.8,6.3-1.6,7.5-4.7c1.2-3.1-0.7-6-2.4-8.5
					c-1.3-2-2.6-3.9-2-5.4c0.6-1.5,2.8-2.1,5.2-2.7c2.9-0.8,6.3-1.6,7.5-4.7c1.2-3.1-0.7-6-2.4-8.5c-1.3-2-2.6-3.9-2-5.4
					c0.6-1.5,2.8-2.1,5.2-2.7c2.9-0.8,6.3-1.6,7.5-4.7l0.4-0.9l-3.2-1.2L811.8,30.6z"/>
			</g>
		</g>
		<g>
			<g>
				<path fill="#F5DF56" d="M1322.7,707.4c-1.1-0.8-1-2.6-1-4.6l-0.8,0l0,0l0.8,0c0-2.5,0.1-5.2-2.1-6.8c-2.2-1.6-4.8-0.7-7.2,0.1
					c-1.9,0.6-3.6,1.2-4.7,0.5c-1.1-0.8-1-2.6-1-4.6c0-2.5,0.1-5.2-2.1-6.8c-2.2-1.6-4.8-0.7-7.2,0.1c-1.9,0.6-3.6,1.2-4.7,0.5
					c-1.1-0.8-1-2.6-1-4.6c0-2.5,0.1-5.2-2.1-6.8c-2.2-1.6-4.8-0.7-7.2,0.1c-1.9,0.6-3.6,1.2-4.7,0.5l-0.7-0.5l-1.6,2.2l0.7,0.5
					c2.2,1.6,4.8,0.7,7.2-0.1c1.9-0.6,3.6-1.2,4.7-0.5c1.1,0.8,1,2.6,1,4.6c0,2.5-0.1,5.2,2.1,6.8c2.2,1.6,4.8,0.7,7.2-0.1
					c1.9-0.6,3.6-1.2,4.7-0.5c1.1,0.8,1,2.6,1,4.6c0,2.5-0.1,5.2,2.1,6.8c2.2,1.6,4.8,0.7,7.2-0.1c1.9-0.6,3.6-1.2,4.7-0.4
					c1.1,0.8,1,2.6,1,4.6c0,2.5-0.1,5.2,2.1,6.8l0.7,0.5l1.6-2.2L1322.7,707.4z"/>
			</g>
		</g>
	</g>
	<g clip-path="url(#SVGID_00000147204960054016093350000001034945181777101474_)">
		<g>
			<g>
				<path fill="#222B54" d="M36.5,483.5C18.6,483.5,4,468.9,4,450.9c0-17.9,14.6-32.6,32.5-32.6c17.9,0,32.5,14.6,32.5,32.6
					C69.1,468.9,54.5,483.5,36.5,483.5z M36.5,430.7c-11.2,0-20.3,9.1-20.3,20.3c0,11.2,9.1,20.3,20.3,20.3s20.3-9.1,20.3-20.3
					C56.8,439.8,47.7,430.7,36.5,430.7z"/>
			</g>
		</g>
		<g>
			<g>
				<path fill="#222B54" d="M595,620h-52.1v-52.1H595V620z M553.3,609.5h31.1v-31.1h-31.1V609.5z"/>
			</g>
		</g>
		<g>
			<g>
				<path fill="#54B9A4" d="M851.1,243.1l-32.4-32.4l50.5-18.1L851.1,243.1z M833,213.9l14.9,14.9l8.3-23.2L833,213.9z"/>
			</g>
		</g>
		<path fill="#54B9A4" d="M1109.4,682.9h-32.2l16.1-24.7L1109.4,682.9z M1125.5,658.3l-16.1,24.7h32.2L1125.5,658.3z M1157.8,658.3
			l-16.1,24.7h32.2L1157.8,658.3z"/>
		<polygon fill="#222B54" points="441.7,182.3 450.6,152.2 420.4,161.1 		"/>
		<polygon fill="#222B54" points="236,118.9 223.6,106.5 203,127.2 182.4,106.5 170,118.9 190.6,139.5 170,160.2 182.4,172.5 
			203,151.9 223.6,172.5 236,160.2 215.4,139.5 		"/>
		<path fill="#FFFFFF" d="M850.6,615.1V477l7.8,4.5v129.2L850.6,615.1z M872.7,602.6V489.5l-7.8-4.5v122L872.7,602.6z M886.9,594.5
			v-96.9l-7.8-4.5V599L886.9,594.5z M901,586.5v-80.8l-7.8-4.5v89.7L901,586.5z M915.2,578.4v-64.6l-7.8-4.5v73.5L915.2,578.4z
			 M929.4,570.3v-48.5l-7.8-4.5v57.4L929.4,570.3z M943.6,562.2v-32.3l-7.8-4.5v41.2L943.6,562.2z M957.8,554.2V538l-7.8-4.5v25.1
			L957.8,554.2z M972,546.1l-7.8-4.5v8.9L972,546.1z"/>
		<g>
			<g>
				<path fill="#FFFFFF" d="M429,450.6c3.3,3.3,8.6,3.3,11.9,0l-2.7-2.7c-1.8,1.8-4.8,1.8-6.6,0c-1.8-1.8-1.8-4.8,0-6.6l-2.7-2.7
					C425.7,441.9,425.7,447.3,429,450.6z"/>
				<path fill="#FFFFFF" d="M423.8,455.8c6.2,6.2,16.2,6.2,22.4,0l-2.7-2.7c-4.7,4.7-12.4,4.7-17.1,0c-4.7-4.7-4.7-12.4,0-17.1
					l-2.7-2.7C417.6,439.6,417.6,449.6,423.8,455.8z"/>
				<path fill="#FFFFFF" d="M418.8,460.8c8.9,8.9,23.4,8.9,32.3,0l-2.7-2.7c-7.4,7.4-19.5,7.4-27,0c-7.4-7.4-7.4-19.5,0-27l-2.7-2.7
					C409.9,437.4,409.9,451.9,418.8,460.8z"/>
				<path fill="#FFFFFF" d="M413.9,465.7c11.6,11.6,30.5,11.6,42.2,0l-2.7-2.7c-10.2,10.2-26.7,10.2-36.8,0
					c-10.1-10.1-10.1-26.7,0-36.8l-2.7-2.7C402.3,435.2,402.3,454.1,413.9,465.7z"/>
				<path fill="#FFFFFF" d="M409.2,470.4c14.2,14.2,37.3,14.2,51.6,0l-2.7-2.7c-12.8,12.8-33.5,12.8-46.2,0
					c-12.7-12.7-12.8-33.5,0-46.3l-2.7-2.7C395,433.1,395,456.2,409.2,470.4z"/>
				<path fill="#FFFFFF" d="M404.4,475.2c16.8,16.8,44.2,16.8,61.1,0l-2.7-2.7c-15.4,15.4-40.4,15.4-55.7,0
					c-15.4-15.4-15.4-40.4,0-55.8l-2.7-2.7C387.6,430.9,387.6,458.3,404.4,475.2z"/>
			</g>
		</g>
		<g>
			<path fill="#DE739F" d="M96.2,657.6l-26.9,27l-16-16L96.2,657.6L96.2,657.6z M111.2,649.1l-66.9,17L69.2,691L111.2,649.1
				L111.2,649.1z"/>
			<polygon fill="#DE739F" points="113.1,651 71.1,692.9 96,717.8 			"/>
		</g>
	</g>
</g>
</svg>
