<?xml version="1.0" encoding="utf-8"?>
<!-- Generator: Adobe Illustrator 26.4.1, SVG Export Plug-In . SVG Version: 6.00 Build 0)  -->
<svg version="1.1" id="Layer_1" xmlns="http://www.w3.org/2000/svg" xmlns:xlink="http://www.w3.org/1999/xlink" x="0px" y="0px"
	 viewBox="0 0 1366 768" style="enable-background:new 0 0 1366 768;" xml:space="preserve">
<style type="text/css">
	.st0{clip-path:url(#SVGID_00000156585165705795510630000005758582506762172035_);fill:#54B9A4;}
	
		.st1{clip-path:url(#SVGID_00000150788340412467145630000015744478697033797763_);fill:url(#SVGID_00000112596302265388993610000018032352114229592705_);}
	.st2{clip-path:url(#SVGID_00000169551864041325599680000015972066464866174594_);fill:#FFFFFF;}
	.st3{clip-path:url(#SVGID_00000161594172836080076850000013596040847938239381_);fill:#FFFFFF;}
	.st4{clip-path:url(#SVGID_00000122702163639119543100000013147867095450507943_);fill:#54B9A4;}
	.st5{clip-path:url(#SVGID_00000021812358214431054010000007185653175675505057_);fill:#54B9A4;}
	.st6{clip-path:url(#SVGID_00000023281881760408474470000015266598789745569670_);}
	.st7{fill:#F5DF56;}
	.st8{clip-path:url(#SVGID_00000032635089707770017640000016663303057387996327_);}
	.st9{fill:#222B54;}
	.st10{fill:#54B9A4;}
	.st11{fill:#FFFFFF;}
	.st12{fill:#C6308D;}
	.st13{fill:#F96BBC;}
	.st14{fill:#421703;}
	.st15{fill:#2D0E02;}
	.st16{fill:#FF72BC;}
	.st17{fill:#F4E9DC;}
	.st18{fill:url(#SVGID_00000132779098821292828930000011202889397753238420_);}
	.st19{fill:#F26BB8;}
	.st20{fill:url(#SVGID_00000014631476794056552780000009879923663760658107_);}
	.st21{fill:#F74DAE;}
	.st22{fill:#DBC7B2;}
	.st23{fill:#D3C0B4;}
	.st24{fill:url(#SVGID_00000080202063614418224500000007382906420950097565_);}
	.st25{fill:url(#SVGID_00000071524686242750443530000001506776846447665074_);}
</style>
<g>
	<g>
		<defs>
			<rect id="SVGID_1_" x="0.3" y="-0.4" width="1365.7" height="768.4"/>
		</defs>
		<clipPath id="SVGID_00000067915960142402858480000015801669032133266877_">
			<use xlink:href="#SVGID_1_"  style="overflow:visible;"/>
		</clipPath>
		<path style="clip-path:url(#SVGID_00000067915960142402858480000015801669032133266877_);fill:#54B9A4;" d="M1196.2,164.1
			c-12.4,14.5-15.2,37.3-10.1,55.7c5.5,20.1,13.2,44.3,33.9,53.4c22.1,9.7,44.4,16.8,69.4,17.9c27.3,1.2,51,17.1,53.8,45.2
			c2.6,25.7-28,44.5-49.1,48c-44.7,7.3-78.3,34.5-113,58.5c-6.9,4.8-9.8,15.1-6.6,23c22.5,56.7,93.3,56.4,136.4,37.4
			c18.9-8.4,36.9-19.5,55.1-29.1V-0.4h-146.4c11.7,16.3,20.8,34.3,26.1,53.7C1257.8,97.9,1225.4,129.8,1196.2,164.1z"/>
	</g>
	<g>
		<defs>
			<rect id="SVGID_00000166678097896486218870000017611523113432149685_" x="0.3" y="-0.4" width="1365.7" height="768.4"/>
		</defs>
		<clipPath id="SVGID_00000080191211800104859340000012176475214256376203_">
			<use xlink:href="#SVGID_00000166678097896486218870000017611523113432149685_"  style="overflow:visible;"/>
		</clipPath>
		
			<linearGradient id="SVGID_00000093874710989027298930000017649924604251942801_" gradientUnits="userSpaceOnUse" x1="477.2623" y1="990.5107" x2="946.6311" y2="-16.0538">
			<stop  offset="0" style="stop-color:#222B54"/>
			<stop  offset="0.2672" style="stop-color:#232E55"/>
			<stop  offset="0.4318" style="stop-color:#26365A"/>
			<stop  offset="0.5688" style="stop-color:#2B4562"/>
			<stop  offset="0.6905" style="stop-color:#32596E"/>
			<stop  offset="0.8021" style="stop-color:#3C747D"/>
			<stop  offset="0.9048" style="stop-color:#47948F"/>
			<stop  offset="1" style="stop-color:#54B9A4"/>
		</linearGradient>
		
			<path style="clip-path:url(#SVGID_00000080191211800104859340000012176475214256376203_);fill:url(#SVGID_00000093874710989027298930000017649924604251942801_);" d="
			M662.3,100.5C560.9,157,421.7,185.8,391.6,321.3c-19.5,87.8-124.9,64.7-200.5,66c-28.8,0.5-61.1,5.4-75,28.2
			c-35.6,58.6-61.4,125-115.8,162.7v189.9h372.6c0.3-0.5,0.5-1.1,0.8-1.6c4.6-9,10.5-17.8,17.2-26.4c1.2-1.6,2.5-3.3,3.8-4.9
			c6.4-8.1,13.4-16.1,20.3-24.1c1.4-1.6,2.7-3.2,4.1-4.8c6.9-8,13.6-16.1,19.8-24.2c1.3-1.7,2.5-3.4,3.7-5.1
			c3.3-4.7,6.4-9.5,9.2-14.3c2-3.5,3.7-7.2,5-11c0.8-2.2,1.5-4.4,2-6.7c2-8.2,2.6-16.7,1.7-25.1c-0.2-2.5-0.6-4.9-1.1-7.3
			c-1.2-5.8-3-11.4-5.5-16.7c-10.3-21.9-18-44.2-21.5-66.6c-0.4-2.4-0.7-4.9-1-7.3c-1-8.7-1.3-17.5-0.9-26.2
			c0.1-2.2,0.3-4.4,0.5-6.6c1.2-11.6,3.8-23,8-34.4c0.9-2.4,1.9-4.7,2.9-7.1c1.8-4,3.7-7.9,5.9-11.9c3.4-6,7.1-12.1,11-18
			c1.6-2.4,3.3-4.7,5-7c5.9-8,12.5-15.5,19.7-22c1.8-1.7,3.7-3.3,5.7-4.8c7.7-6.1,16.2-10.9,25.3-13.9c2.1-0.7,4.2-1.3,6.3-1.8
			c8.3-1.9,17.3-2.3,26.8-0.8c45.7,7.1,61.5,38.1,67,74.5c0.4,2.4,0.7,4.9,1,7.4c1.1,9.1,1.6,18.4,1.8,27.8c0.1,2.4,0.1,4.7,0.2,7.1
			c0.1,9.5,0.1,18.8,0.2,27.8c0.4,46.6,45.9,58.2,84.7,49.4c2-0.4,3.9-0.9,5.8-1.5c0.3-0.1,0.5-0.2,0.8-0.2c8-2.3,16-4.7,24-7.3
			c2.2-0.7,4.5-1.4,6.8-2.2c9.8-3.1,19.5-6.3,29.2-9.2c2.2-0.7,4.5-1.4,6.7-2c20.8-6.1,41.4-11.1,62-12.7c3.5-0.3,7-0.4,10.6-0.5
			c11.2-0.2,22.4,0.8,33.6,3.2c2.7,0.6,5.4,1.2,8.1,2c5.9,1.7,11.9,3.8,17.8,6.5c42.8,19,75.1,47.5,99.1,82c2,2.8,3.9,5.7,5.7,8.6
			c16.3,25.5,28.3,54,36.9,84.1c0.7,2.5,1.4,5.1,2.1,7.6c4,15.1,7.1,30.5,9.5,46.2c0.1,0.7,0.2,1.4,0.3,2h188.7
			c-0.5-18.3,3.2-38,7.9-55.6c9.1-34.6-9.5-72.9-39.8-85c-137.8-54.9-246.1-133.2-270.5-263.8c-7.9-42.1,12.1-82.6,6.6-124.3
			c-2.9-21.8-23.3-40.2-38.2-57.3c-27.9-32.1-26.6-85.4-0.8-117.7c19.2-24.1,40.9-45.8,64.8-64.8H727.7
			C733.3,34,695.3,82,662.3,100.5z"/>
	</g>
	<g>
		<defs>
			<rect id="SVGID_00000008834466067961902600000012526811478198617225_" x="0.3" y="-0.4" width="1365.7" height="768.4"/>
		</defs>
		<clipPath id="SVGID_00000024690115050905226420000011578485377098659512_">
			<use xlink:href="#SVGID_00000008834466067961902600000012526811478198617225_"  style="overflow:visible;"/>
		</clipPath>
		<path style="clip-path:url(#SVGID_00000024690115050905226420000011578485377098659512_);fill:#FFFFFF;" d="M915.2,64.4
			c-25.8,32.3-27.1,85.6,0.8,117.7c14.9,17.1,35.3,35.5,38.2,57.3c5.5,41.7-14.4,82.3-6.6,124.3c24.4,130.6,132.7,208.9,270.5,263.8
			c30.3,12.1,48.9,50.3,39.8,85c-4.6,17.6-8.3,37.3-7.9,55.6h116v-294c-18.2,9.6-36.2,20.7-55.1,29.1
			c-43.1,19-113.9,19.3-136.4-37.4c-3.2-7.9-0.3-18.2,6.6-23c34.7-24,68.3-51.2,113-58.5c21.1-3.4,51.7-22.3,49.1-48
			c-2.8-28.1-26.5-43.9-53.8-45.2c-25-1.1-47.2-8.2-69.4-17.9c-20.8-9.1-28.4-33.2-33.9-53.4c-5.1-18.4-2.3-41.2,10.1-55.7
			c29.2-34.2,61.6-66.1,49.5-110.7c-5.3-19.5-14.4-37.5-26.1-53.7L980-0.4C956.1,18.5,934.4,40.3,915.2,64.4z"/>
	</g>
	<g>
		<defs>
			<rect id="SVGID_00000057127354912948018380000015329686114866913411_" x="0.3" y="-0.4" width="1365.7" height="768.4"/>
		</defs>
		<clipPath id="SVGID_00000057861343114215599160000012555300592379293349_">
			<use xlink:href="#SVGID_00000057127354912948018380000015329686114866913411_"  style="overflow:visible;"/>
		</clipPath>
		<path style="clip-path:url(#SVGID_00000057861343114215599160000012555300592379293349_);fill:#FFFFFF;" d="M366,127.8
			c-40.4,68.5-99.2,124.4-172.9,156.5c-17.5,7.6-37.1,4.9-53.6-3c-42.6-20.3-80.4-52.9-99.1-96.1c-18.3-42.4,9.3-78.6,33.4-116.6
			c10.2-16.1,9.8-39,2.2-56.5C74.2,8,72.3,3.8,70.3-0.4h-70v578.5c54.4-37.6,80.2-104,115.8-162.7c13.9-22.8,46.2-27.7,75-28.2
			c75.6-1.3,181,21.8,200.5-66C421.7,185.8,560.9,157,662.3,100.5c33-18.4,71-66.4,65.2-100.8h-393c4.8,4,9.7,7.9,14.1,11.8
			C380.8,39.2,387,92.2,366,127.8z"/>
	</g>
	<g>
		<defs>
			<rect id="SVGID_00000161590766629303675300000003848694357126059138_" x="0.3" y="-0.4" width="1365.7" height="768.4"/>
		</defs>
		<clipPath id="SVGID_00000080900988841517112750000010927485900667668120_">
			<use xlink:href="#SVGID_00000161590766629303675300000003848694357126059138_"  style="overflow:visible;"/>
		</clipPath>
		<path style="clip-path:url(#SVGID_00000080900988841517112750000010927485900667668120_);fill:#54B9A4;" d="M76,12.1
			c7.6,17.5,8.1,40.5-2.2,56.6c-24.1,38-51.7,74.1-33.4,116.6c18.7,43.3,56.5,75.8,99.1,96.1c16.5,7.9,36,10.6,53.6,3
			c73.7-32.1,132.5-88,172.9-156.5c21-35.6,14.8-88.6-17.4-116.4c-4.5-3.9-9.3-7.8-14.1-11.8H70.3C72.3,3.8,74.2,8,76,12.1z"/>
	</g>
	<g>
		<defs>
			<rect id="SVGID_00000073692116063783122400000006580890001001981616_" x="0.3" y="-0.4" width="1365.7" height="768.4"/>
		</defs>
		<clipPath id="SVGID_00000104689095503354331910000006717318166194395525_">
			<use xlink:href="#SVGID_00000073692116063783122400000006580890001001981616_"  style="overflow:visible;"/>
		</clipPath>
		<path style="clip-path:url(#SVGID_00000104689095503354331910000006717318166194395525_);fill:#54B9A4;" d="M1051.6,719.8
			c-0.7-2.5-1.4-5.1-2.1-7.6c-8.6-30.1-20.6-58.6-36.9-84.1c-1.9-2.9-3.8-5.8-5.7-8.6c-23.9-34.5-56.2-63-99.1-82
			c-6-2.6-11.9-4.8-17.8-6.5c-2.7-0.8-5.4-1.5-8.1-2c-11.2-2.5-22.4-3.4-33.6-3.2c-3.5,0.1-7.1,0.2-10.6,0.5
			c-20.6,1.6-41.3,6.6-62,12.7c-2.2,0.6-4.5,1.3-6.7,2c-9.7,2.9-19.4,6.1-29.2,9.2c-2.3,0.7-4.5,1.4-6.8,2.2c-8,2.5-15.9,5-24,7.3
			c-0.3,0.1-0.5,0.2-0.8,0.2c-1.9,0.5-3.8,1-5.8,1.5c-38.8,8.8-84.2-2.8-84.7-49.4c-0.1-9,0-18.4-0.2-27.8c0-2.4-0.1-4.7-0.2-7.1
			c-0.2-9.3-0.7-18.7-1.8-27.8c-0.3-2.5-0.6-5-1-7.4c-5.6-36.4-21.4-67.4-67-74.5c-9.5-1.5-18.5-1.1-26.8,0.8
			c-2.2,0.5-4.3,1.1-6.3,1.8c-9.2,3-17.6,7.9-25.3,13.9c-1.9,1.5-3.8,3.1-5.7,4.8c-7.2,6.5-13.7,14-19.7,22c-1.7,2.3-3.4,4.6-5,7
			c-4,5.9-7.6,11.9-11,18c-2.2,3.9-4.2,7.9-5.9,11.9c-1,2.3-2,4.7-2.9,7.1c-4.3,11.3-6.9,22.8-8,34.4c-0.2,2.2-0.4,4.4-0.5,6.6
			c-0.5,8.7-0.2,17.5,0.9,26.2c0.3,2.5,0.6,4.9,1,7.3c3.5,22.4,11.2,44.7,21.5,66.6c2.5,5.3,4.4,10.9,5.5,16.7
			c0.5,2.4,0.9,4.8,1.1,7.3c0.9,8.4,0.3,16.9-1.7,25.1c-0.6,2.3-1.2,4.5-2,6.7c-1.3,3.8-3,7.4-5,11c-2.8,4.8-5.9,9.6-9.2,14.3
			c-1.2,1.7-2.4,3.4-3.7,5.1c-6.1,8.2-12.9,16.2-19.8,24.2c-1.4,1.6-2.7,3.2-4.1,4.8c-6.9,8-13.9,16-20.3,24.1
			c-1.3,1.6-2.6,3.2-3.8,4.9c-6.6,8.6-12.6,17.4-17.2,26.4c-0.3,0.5-0.5,1.1-0.8,1.6h688.5c-0.1-0.7-0.2-1.4-0.3-2
			C1058.7,750.3,1055.6,734.8,1051.6,719.8z"/>
	</g>
	<g>
		<defs>
			<rect id="SVGID_00000168080666485256380730000006180409896261906098_" x="0.3" y="-0.4" width="1365.7" height="768.4"/>
		</defs>
		<clipPath id="SVGID_00000088105861180090402830000000147356156052174238_">
			<use xlink:href="#SVGID_00000168080666485256380730000006180409896261906098_"  style="overflow:visible;"/>
		</clipPath>
		<g style="clip-path:url(#SVGID_00000088105861180090402830000000147356156052174238_);">
			<g>
				<g>
					<path class="st7" d="M119.8,161.2c-1.3-1.1-1-3.5-0.8-6l-1-0.1l0,0l1,0.1c0.3-3.1,0.7-6.7-2-8.9c-2.6-2.3-6.1-1.4-9.1-0.7
						c-2.4,0.6-4.7,1.2-6,0.1c-1.3-1.1-1-3.5-0.8-6c0.3-3.1,0.7-6.7-2-8.9c-2.6-2.3-6.1-1.4-9.1-0.7c-2.4,0.6-4.7,1.2-6,0.1
						c-1.3-1.1-1-3.5-0.8-6c0.3-3.1,0.7-6.7-2-8.9c-2.6-2.3-6.1-1.4-9.1-0.7c-2.4,0.6-4.7,1.2-6,0.1l-0.8-0.7l-2.3,2.7l0.8,0.7
						c2.6,2.3,6.1,1.4,9.1,0.7c2.4-0.6,4.7-1.2,6-0.1s1,3.5,0.8,6c-0.3,3.1-0.7,6.7,2,8.9c2.6,2.3,6.1,1.4,9.1,0.7
						c2.4-0.6,4.7-1.2,6-0.1c1.3,1.1,1,3.5,0.8,6c-0.3,3.1-0.7,6.7,2,8.9c2.6,2.3,6.1,1.4,9.1,0.7c2.4-0.6,4.7-1.1,6-0.1
						c1.3,1.1,1,3.4,0.8,6c-0.3,3.1-0.7,6.7,2,8.9l0.8,0.7l2.3-2.7L119.8,161.2z"/>
				</g>
			</g>
			<g>
				<g>
					<path class="st7" d="M1348.6,241.3c-1.5,0.3-3-1.2-4.7-2.8l-0.7,0.7l0,0l0.7-0.7c-2-2-4.3-4.2-7.4-3.7
						c-3.1,0.6-4.4,3.5-5.6,6.1c-1,2.1-1.9,4-3.3,4.3c-1.5,0.3-3-1.2-4.7-2.8c-2-2-4.3-4.2-7.4-3.7c-3.1,0.6-4.4,3.5-5.6,6.1
						c-1,2.1-1.9,4-3.3,4.3c-1.5,0.3-3-1.2-4.7-2.8c-2-2-4.4-4.2-7.4-3.7c-3.1,0.6-4.4,3.5-5.6,6.1c-1,2.1-1.9,4-3.3,4.3l-0.9,0.2
						l0.6,3.1l0.9-0.2c3.1-0.6,4.4-3.5,5.6-6.1c1-2.1,1.9-4,3.3-4.3c1.5-0.3,3,1.2,4.7,2.8c2,2,4.4,4.2,7.4,3.7
						c3.1-0.6,4.4-3.5,5.6-6.1c1-2.1,1.9-4,3.3-4.3c1.5-0.3,3,1.2,4.7,2.8c2,2,4.4,4.2,7.4,3.7c3.1-0.6,4.4-3.5,5.6-6.1
						c1-2.1,1.9-4,3.3-4.3c1.5-0.3,3,1.2,4.7,2.8c2,2,4.3,4.2,7.4,3.7l0.9-0.2l-0.6-3.1L1348.6,241.3z"/>
				</g>
			</g>
			<g>
				<g>
					<path class="st7" d="M132,601.2c-0.7-1.3,0.1-3.2,1-5.2l-0.8-0.4l0,0l0.8,0.4c1.1-2.5,2.4-5.4,0.9-8s-4.7-2.9-7.4-3.2
						c-2.2-0.2-4.3-0.4-5-1.7s0.1-3.2,1-5.2c1.1-2.5,2.4-5.4,0.9-8s-4.7-2.9-7.4-3.2c-2.2-0.2-4.3-0.4-5-1.7s0.1-3.2,1-5.2
						c1.1-2.5,2.4-5.4,0.9-8s-4.7-2.9-7.4-3.2c-2.2-0.2-4.3-0.4-5-1.7l-0.5-0.8l-2.7,1.6l0.5,0.8c1.5,2.6,4.7,2.9,7.4,3.2
						c2.2,0.2,4.3,0.4,5,1.7s-0.1,3.2-1,5.2c-1.1,2.5-2.4,5.4-0.9,8s4.7,2.9,7.4,3.2c2.2,0.2,4.3,0.4,5,1.7s-0.1,3.2-1,5.2
						c-1.1,2.5-2.4,5.4-0.9,8c1.5,2.7,4.7,2.9,7.4,3.2c2.2,0.2,4.3,0.4,5,1.7s-0.1,3.2-1,5.2c-1.1,2.5-2.4,5.4-0.9,8l0.5,0.8
						l2.7-1.6L132,601.2z"/>
				</g>
			</g>
			<g>
				<g>
					<path class="st7" d="M807.2,468.6c-1.7,1-4.3-0.3-7-1.6l-0.5,1.1l0,0l0.5-1.1c-3.4-1.6-7.2-3.5-10.8-1.5s-4.1,6.2-4.6,9.9
						c-0.3,3-0.7,5.8-2.4,6.7c-1.7,1-4.3-0.3-7-1.6c-3.4-1.6-7.2-3.5-10.8-1.5s-4.1,6.2-4.6,9.9c-0.3,3-0.7,5.8-2.4,6.7
						c-1.7,1-4.3-0.3-7-1.6c-3.4-1.6-7.2-3.5-10.8-1.5s-4.1,6.2-4.6,9.9c-0.3,3-0.7,5.8-2.4,6.7l-1.1,0.6l2,3.7l1.1-0.6
						c3.6-2,4.1-6.2,4.6-9.9c0.3-3,0.7-5.8,2.4-6.7c1.7-1,4.3,0.3,7,1.6c3.4,1.6,7.2,3.5,10.8,1.5s4.1-6.2,4.6-9.9
						c0.3-3,0.7-5.8,2.4-6.7c1.7-1,4.3,0.3,7,1.6c3.4,1.6,7.2,3.5,10.8,1.5s4.1-6.2,4.6-9.9c0.3-3,0.7-5.8,2.4-6.7
						c1.7-0.9,4.3,0.3,7,1.6c3.4,1.6,7.2,3.5,10.8,1.5l1.1-0.6l-2-3.7L807.2,468.6z"/>
				</g>
			</g>
			<g>
				<g>
					<path class="st7" d="M608.3,97.5c-1,0.2-2-0.8-3.1-1.8l-0.4,0.5l0,0l0.4-0.5c-1.4-1.3-2.9-2.8-4.9-2.4s-2.9,2.3-3.7,4
						c-0.6,1.4-1.2,2.7-2.2,2.8c-1,0.2-2-0.8-3.1-1.8c-1.4-1.3-2.9-2.8-4.9-2.4s-2.9,2.3-3.7,4c-0.6,1.4-1.2,2.7-2.2,2.8
						c-1,0.2-2-0.8-3.1-1.8c-1.4-1.3-2.9-2.8-4.9-2.4s-2.9,2.3-3.7,4c-0.6,1.4-1.2,2.7-2.2,2.8l-0.6,0.1l0.4,2.1l0.6-0.1
						c2-0.4,2.9-2.3,3.7-4c0.6-1.4,1.2-2.7,2.2-2.8c1-0.2,2,0.8,3.1,1.8c1.4,1.3,2.9,2.8,4.9,2.4s2.9-2.3,3.7-4
						c0.6-1.4,1.2-2.7,2.2-2.8c1-0.2,2,0.8,3.1,1.8c1.4,1.3,2.9,2.8,4.9,2.4s2.9-2.3,3.7-4c0.6-1.4,1.2-2.7,2.2-2.8
						c1-0.2,2,0.8,3.1,1.8c1.4,1.3,2.9,2.8,4.9,2.4l0.6-0.1l-0.4-2.1L608.3,97.5z"/>
				</g>
			</g>
			<g>
				<g>
					<path class="st7" d="M570.1,407.4c-0.5-1.8,1.1-3.8,2.9-6l-0.9-0.7l0,0l0.9,0.7c2.2-2.7,4.6-5.8,3.6-9.4c-1-3.7-4.7-5-8-6.2
						c-2.6-0.9-5.1-1.8-5.6-3.6c-0.5-1.8,1.1-3.8,2.9-6c2.2-2.7,4.6-5.8,3.6-9.4c-1-3.7-4.7-5-8-6.2c-2.6-0.9-5.1-1.8-5.6-3.6
						c-0.5-1.8,1.1-3.8,2.9-6c2.2-2.7,4.6-5.8,3.6-9.4c-1-3.7-4.7-5-8-6.2c-2.6-0.9-5.1-1.8-5.6-3.6l-0.3-1.1l-3.7,1.1l0.3,1.1
						c1,3.7,4.7,5,8,6.2c2.6,0.9,5.1,1.8,5.6,3.6c0.5,1.8-1.1,3.8-2.9,6c-2.2,2.7-4.6,5.8-3.6,9.4c1,3.7,4.7,5,8,6.2
						c2.6,0.9,5.1,1.8,5.6,3.6c0.5,1.8-1.1,3.8-2.9,6c-2.2,2.7-4.6,5.8-3.6,9.4c1,3.7,4.7,5,8,6.2c2.6,0.9,5.1,1.8,5.6,3.6
						c0.5,1.8-1.1,3.8-2.9,6c-2.2,2.7-4.6,5.8-3.6,9.4l0.3,1.1l3.7-1.1L570.1,407.4z"/>
				</g>
			</g>
			<g>
				<g>
					<path class="st7" d="M1042.8,285.9c-1.3-0.1-2.3-1.7-3.3-3.3l-0.7,0.4l0,0l0.7-0.4c-1.3-2.1-2.8-4.4-5.5-4.6s-4.4,2-6,3.9
						c-1.2,1.5-2.4,3-3.7,2.9c-1.3-0.1-2.3-1.7-3.3-3.3c-1.3-2.1-2.8-4.4-5.5-4.6s-4.4,2-6,3.9c-1.2,1.5-2.4,3-3.7,2.9
						s-2.3-1.7-3.3-3.3c-1.3-2.1-2.8-4.4-5.5-4.6s-4.4,2-6,3.9c-1.2,1.5-2.4,3-3.7,2.9h-0.8l-0.2,2.8h0.8c2.7,0.2,4.4-2,6-3.9
						c1.2-1.5,2.4-3,3.7-2.9s2.3,1.6,3.3,3.3c1.3,2.1,2.8,4.4,5.5,4.6s4.4-2,6-3.9c1.2-1.5,2.4-3,3.7-2.9s2.3,1.6,3.3,3.3
						c1.3,2.1,2.8,4.4,5.5,4.6c2.7,0.2,4.4-2,6-3.9c1.2-1.5,2.4-3,3.7-2.9c1.3,0.1,2.3,1.6,3.3,3.3c1.3,2.1,2.8,4.4,5.5,4.6h0.8
						l0.2-2.8H1042.8z"/>
				</g>
			</g>
			<g>
				<g>
					<path class="st7" d="M722.1,282.9c-1,0-1.9-1.1-2.9-2.4l-0.5,0.4l0,0l0.5-0.4c-1.2-1.5-2.6-3.3-4.7-3.2c-2.2,0.1-3.4,2-4.4,3.6
						c-0.8,1.3-1.6,2.6-2.7,2.6c-1,0-1.9-1.1-2.9-2.4c-1.2-1.5-2.6-3.3-4.7-3.2c-2.2,0.1-3.4,2-4.4,3.6c-0.8,1.3-1.6,2.6-2.7,2.6
						c-1,0-1.9-1.1-2.9-2.4c-1.2-1.5-2.6-3.3-4.7-3.2c-2.2,0.1-3.4,2-4.4,3.6c-0.8,1.3-1.6,2.6-2.7,2.6h-0.6l0.1,2.2h0.6
						c2.2-0.1,3.4-2,4.4-3.6c0.8-1.3,1.6-2.5,2.7-2.6c1,0,1.9,1.1,2.9,2.3c1.2,1.5,2.6,3.3,4.7,3.2s3.4-2,4.4-3.6
						c0.8-1.3,1.6-2.5,2.7-2.6c1,0,1.9,1.1,2.9,2.3c1.2,1.5,2.6,3.3,4.7,3.2c2.2-0.1,3.4-2,4.4-3.6c0.8-1.3,1.6-2.5,2.7-2.6
						c1,0,1.9,1.1,2.9,2.3c1.2,1.5,2.6,3.3,4.7,3.2h0.6l-0.1-2.2L722.1,282.9z"/>
				</g>
			</g>
			<g>
				<g>
					<path class="st7" d="M1147.3,190.7c-1,0.3-2.2-0.6-3.4-1.5l-0.4,0.5l0,0l0.4-0.5c-1.6-1.2-3.3-2.5-5.4-1.8
						c-2,0.7-2.7,2.8-3.3,4.6c-0.5,1.5-0.9,2.9-1.9,3.2s-2.2-0.6-3.4-1.5c-1.6-1.2-3.3-2.5-5.4-1.8s-2.7,2.8-3.3,4.6
						c-0.5,1.5-0.9,2.9-1.9,3.2s-2.2-0.6-3.4-1.5c-1.6-1.2-3.3-2.5-5.4-1.8c-2,0.7-2.7,2.8-3.3,4.6c-0.5,1.5-0.9,2.9-1.9,3.2
						l-0.6,0.2l0.7,2.1l0.6-0.2c2.1-0.7,2.7-2.8,3.3-4.6c0.5-1.5,0.9-2.9,1.9-3.2s2.2,0.6,3.4,1.5c1.6,1.2,3.3,2.5,5.4,1.8
						s2.7-2.8,3.3-4.6c0.5-1.5,0.9-2.9,1.9-3.2s2.2,0.6,3.4,1.5c1.6,1.2,3.3,2.5,5.4,1.8s2.7-2.8,3.3-4.7c0.5-1.5,0.9-2.9,1.9-3.2
						s2.2,0.6,3.4,1.5c1.6,1.2,3.3,2.5,5.4,1.8l0.6-0.2l-0.7-2.1L1147.3,190.7z"/>
				</g>
			</g>
			<g>
				<g>
					<path class="st7" d="M204.1,716.7c-1,0-1.9-1.1-2.9-2.4l-0.5,0.4l0,0l0.5-0.4c-1.2-1.5-2.6-3.3-4.7-3.2c-2.2,0.1-3.4,2-4.4,3.6
						c-0.8,1.3-1.6,2.6-2.7,2.6c-1,0-1.9-1.1-2.9-2.4c-1.2-1.5-2.6-3.3-4.7-3.2c-2.2,0.1-3.4,2-4.4,3.6c-0.8,1.3-1.6,2.6-2.7,2.6
						c-1,0-1.9-1.1-2.9-2.4c-1.2-1.5-2.6-3.3-4.7-3.2c-2.2,0.1-3.4,2-4.4,3.6c-0.8,1.3-1.6,2.6-2.7,2.6h-0.6l0.1,2.2h0.6
						c2.2-0.1,3.4-2,4.4-3.6c0.8-1.3,1.6-2.5,2.7-2.6c1,0,1.9,1.1,2.9,2.3c1.2,1.5,2.6,3.3,4.7,3.2c2.2-0.1,3.4-2,4.4-3.6
						c0.8-1.3,1.6-2.5,2.7-2.6s1.9,1.1,2.9,2.3c1.2,1.5,2.6,3.3,4.7,3.2c2.2-0.1,3.4-2,4.4-3.6c0.8-1.3,1.6-2.5,2.7-2.6
						c1,0,1.9,1.1,2.9,2.3c1.2,1.5,2.6,3.3,4.7,3.2h0.6l-0.1-2.2L204.1,716.7z"/>
				</g>
			</g>
			<g>
				<g>
					<path class="st7" d="M1350.4,72.1c-0.9-0.9-0.6-2.6-0.2-4.4l-0.8-0.1l0,0l0.8,0.1c0.4-2.3,0.9-4.8-0.9-6.7
						c-1.8-1.8-4.4-1.4-6.6-1c-1.8,0.3-3.5,0.6-4.4-0.3c-0.9-0.9-0.6-2.6-0.2-4.4c0.4-2.3,0.9-4.8-0.9-6.7c-1.8-1.8-4.4-1.4-6.6-1
						c-1.8,0.3-3.5,0.6-4.4-0.3c-0.9-0.9-0.6-2.6-0.2-4.4c0.4-2.3,0.9-4.8-0.9-6.7c-1.8-1.8-4.4-1.4-6.6-1c-1.8,0.3-3.5,0.6-4.4-0.3
						l-0.5-0.5l-1.8,1.8l0.5,0.5c1.8,1.8,4.4,1.4,6.7,1c1.8-0.3,3.5-0.6,4.4,0.3c0.9,0.9,0.6,2.6,0.2,4.4c-0.4,2.3-0.9,4.8,0.9,6.7
						c1.8,1.8,4.4,1.4,6.7,1c1.8-0.3,3.5-0.6,4.4,0.3c0.9,0.9,0.6,2.6,0.2,4.4c-0.4,2.3-0.9,4.8,0.9,6.7c1.8,1.8,4.4,1.4,6.7,1
						c1.8-0.3,3.5-0.6,4.4,0.3c0.9,0.9,0.6,2.6,0.2,4.4c-0.4,2.3-0.9,4.8,0.9,6.7l0.5,0.5l1.8-1.8L1350.4,72.1z"/>
				</g>
			</g>
			<g>
				<g>
					<path class="st7" d="M234.8,240.7c-1.1,0.5-2.5-0.4-4.1-1.4l-0.4,0.6l0,0l0.4-0.6c-1.9-1.2-4-2.5-6.3-1.6
						c-2.3,1-2.8,3.4-3.3,5.6c-0.4,1.7-0.8,3.4-1.9,3.9c-1.1,0.5-2.5-0.4-4.1-1.4c-1.9-1.2-4-2.5-6.3-1.6c-2.3,1-2.8,3.4-3.3,5.6
						c-0.4,1.7-0.8,3.4-1.9,3.9c-1.1,0.5-2.5-0.4-4.1-1.4c-1.9-1.2-4-2.5-6.3-1.6c-2.3,1-2.8,3.4-3.3,5.6c-0.4,1.7-0.8,3.4-1.9,3.9
						l-0.7,0.3l1,2.3l0.7-0.3c2.3-1,2.8-3.4,3.3-5.6c0.4-1.7,0.8-3.4,1.9-3.9c1.1-0.5,2.5,0.4,4.1,1.4c1.9,1.2,4.1,2.5,6.3,1.6
						c2.3-1,2.8-3.4,3.3-5.6c0.4-1.7,0.8-3.4,1.9-3.9c1.1-0.5,2.5,0.4,4.1,1.4c1.9,1.2,4.1,2.5,6.3,1.6c2.3-1,2.8-3.4,3.3-5.6
						c0.4-1.7,0.8-3.4,1.9-3.9c1.1-0.5,2.5,0.4,4.1,1.4c1.9,1.2,4,2.5,6.3,1.6l0.7-0.3l-1-2.3L234.8,240.7z"/>
				</g>
			</g>
			<g>
				<g>
					<path class="st7" d="M1021,619c-0.8,1-2.6,0.9-4.5,0.9v0.8l0,0v-0.8c-2.4-0.1-5.1-0.2-6.8,1.9c-1.6,2.1-0.8,4.7-0.1,7
						c0.6,1.8,1.1,3.6,0.3,4.6s-2.6,0.9-4.5,0.9c-2.4-0.1-5.1-0.2-6.8,1.9c-1.6,2.1-0.8,4.7-0.1,7c0.6,1.8,1.1,3.6,0.3,4.6
						s-2.6,0.9-4.5,0.9c-2.4-0.1-5.1-0.2-6.8,1.9c-1.6,2.1-0.8,4.7-0.1,7c0.6,1.8,1.1,3.6,0.3,4.6l-0.5,0.6l2.1,1.7l0.5-0.6
						c1.6-2.1,0.8-4.7,0.1-7c-0.6-1.8-1.1-3.6-0.3-4.6s2.6-0.9,4.5-0.9c2.4,0.1,5.1,0.2,6.8-1.9c1.6-2.1,0.8-4.7,0.1-7
						c-0.6-1.8-1.1-3.6-0.3-4.6s2.6-0.9,4.5-0.9c2.4,0.1,5.1,0.2,6.8-1.9c1.6-2.1,0.8-4.7,0.1-7c-0.6-1.8-1.1-3.6-0.3-4.6
						s2.6-0.9,4.5-0.9c2.4,0.1,5.1,0.2,6.8-1.9l0.5-0.6l-2.1-1.7L1021,619z"/>
				</g>
			</g>
			<g>
				<g>
					<path class="st7" d="M421.2,367.4c-0.9-1.2-0.3-3.3,0.3-5.5l-0.9-0.3l0,0l0.9,0.3c0.8-2.8,1.8-5.9-0.2-8.4s-5.2-2.4-8.1-2.2
						c-2.3,0.1-4.5,0.2-5.4-1s-0.3-3.3,0.3-5.5c0.8-2.8,1.8-5.9-0.2-8.4s-5.2-2.4-8.1-2.2c-2.3,0.1-4.5,0.2-5.4-1s-0.3-3.3,0.3-5.5
						c0.8-2.8,1.8-5.9-0.2-8.4s-5.2-2.4-8.1-2.2c-2.3,0.1-4.5,0.2-5.4-1l-0.6-0.8l-2.5,2l0.6,0.8c2,2.5,5.2,2.4,8.1,2.2
						c2.3-0.1,4.5-0.2,5.4,1s0.3,3.3-0.3,5.5c-0.8,2.8-1.8,5.9,0.2,8.4s5.2,2.4,8.1,2.2c2.3-0.1,4.5-0.2,5.4,1s0.3,3.3-0.3,5.5
						c-0.8,2.8-1.8,5.9,0.2,8.4s5.2,2.4,8.1,2.2c2.3-0.1,4.5-0.2,5.4,1s0.3,3.3-0.3,5.5c-0.8,2.8-1.8,5.9,0.2,8.4l0.6,0.8l2.5-2
						L421.2,367.4z"/>
				</g>
			</g>
			<g>
				<g>
					<path class="st7" d="M811.8,30.6c-0.6,1.5-2.8,2.1-5.2,2.7l0.3,1l0,0l-0.3-1c-2.9,0.8-6.3,1.6-7.5,4.7c-1.2,3.1,0.7,6,2.4,8.5
						c1.3,2,2.6,3.9,2,5.4s-2.8,2.1-5.2,2.7c-2.9,0.8-6.3,1.6-7.5,4.7c-1.2,3.1,0.7,6,2.4,8.5c1.3,2,2.6,3.9,2,5.4s-2.8,2.1-5.2,2.7
						c-2.9,0.8-6.3,1.6-7.5,4.7s0.7,6,2.4,8.5c1.3,2,2.6,3.9,2,5.4l-0.4,0.9l3.2,1.2l0.4-0.9c1.2-3.1-0.7-6-2.4-8.5
						c-1.3-2-2.6-3.9-2-5.4s2.8-2.1,5.2-2.7c2.9-0.8,6.3-1.6,7.5-4.7s-0.7-6-2.4-8.5c-1.3-2-2.6-3.9-2-5.4s2.8-2.1,5.2-2.7
						c2.9-0.8,6.3-1.6,7.5-4.7c1.2-3.1-0.7-6-2.4-8.5c-1.3-2-2.6-3.9-2-5.4s2.8-2.1,5.2-2.7c2.9-0.8,6.3-1.6,7.5-4.7l0.4-0.9
						l-3.2-1.2L811.8,30.6z"/>
				</g>
			</g>
			<g>
				<g>
					<path class="st7" d="M1322.7,707.4c-1.1-0.8-1-2.6-1-4.6h-0.8l0,0h0.8c0-2.5,0.1-5.2-2.1-6.8s-4.8-0.7-7.2,0.1
						c-1.9,0.6-3.6,1.2-4.7,0.5c-1.1-0.8-1-2.6-1-4.6c0-2.5,0.1-5.2-2.1-6.8s-4.8-0.7-7.2,0.1c-1.9,0.6-3.6,1.2-4.7,0.5
						c-1.1-0.8-1-2.6-1-4.6c0-2.5,0.1-5.2-2.1-6.8s-4.8-0.7-7.2,0.1c-1.9,0.6-3.6,1.2-4.7,0.5l-0.7-0.5l-1.6,2.2l0.7,0.5
						c2.2,1.6,4.8,0.7,7.2-0.1c1.9-0.6,3.6-1.2,4.7-0.5c1.1,0.8,1,2.6,1,4.6c0,2.5-0.1,5.2,2.1,6.8s4.8,0.7,7.2-0.1
						c1.9-0.6,3.6-1.2,4.7-0.5c1.1,0.8,1,2.6,1,4.6c0,2.5-0.1,5.2,2.1,6.8s4.8,0.7,7.2-0.1c1.9-0.6,3.6-1.2,4.7-0.4s1,2.6,1,4.6
						c0,2.5-0.1,5.2,2.1,6.8l0.7,0.5l1.6-2.2L1322.7,707.4z"/>
				</g>
			</g>
		</g>
	</g>
	<g>
		<defs>
			<rect id="SVGID_00000090264491862838419640000010618108977289000115_" x="0.3" y="-0.4" width="1365.7" height="768.4"/>
		</defs>
		<clipPath id="SVGID_00000087385297444655718710000017293216958607537820_">
			<use xlink:href="#SVGID_00000090264491862838419640000010618108977289000115_"  style="overflow:visible;"/>
		</clipPath>
		<g style="clip-path:url(#SVGID_00000087385297444655718710000017293216958607537820_);">
			<g>
				<g>
					<path class="st9" d="M36.5,483.5C18.6,483.5,4,468.9,4,450.9c0-17.9,14.6-32.6,32.5-32.6S69,432.9,69,450.9
						C69.1,468.9,54.5,483.5,36.5,483.5z M36.5,430.7c-11.2,0-20.3,9.1-20.3,20.3c0,11.2,9.1,20.3,20.3,20.3s20.3-9.1,20.3-20.3
						C56.8,439.8,47.7,430.7,36.5,430.7z"/>
				</g>
			</g>
			<g>
				<g>
					<path class="st9" d="M595,620h-52.1v-52.1H595V620z M553.3,609.5h31.1v-31.1h-31.1V609.5z"/>
				</g>
			</g>
			<g>
				<g>
					<path class="st10" d="M851.1,243.1l-32.4-32.4l50.5-18.1L851.1,243.1z M833,213.9l14.9,14.9l8.3-23.2L833,213.9z"/>
				</g>
			</g>
			<path class="st10" d="M1109.4,682.9h-32.2l16.1-24.7L1109.4,682.9z M1125.5,658.3l-16.1,24.7h32.2L1125.5,658.3z M1157.8,658.3
				l-16.1,24.7h32.2L1157.8,658.3z"/>
			<polygon class="st9" points="441.7,182.3 450.6,152.2 420.4,161.1 			"/>
			<polygon class="st9" points="236,118.9 223.6,106.5 203,127.2 182.4,106.5 170,118.9 190.6,139.5 170,160.2 182.4,172.5 
				203,151.9 223.6,172.5 236,160.2 215.4,139.5 			"/>
			<path class="st11" d="M850.6,615.1V477l7.8,4.5v129.2L850.6,615.1z M872.7,602.6V489.5l-7.8-4.5v122L872.7,602.6z M886.9,594.5
				v-96.9l-7.8-4.5V599L886.9,594.5z M901,586.5v-80.8l-7.8-4.5v89.7L901,586.5z M915.2,578.4v-64.6l-7.8-4.5v73.5L915.2,578.4z
				 M929.4,570.3v-48.5l-7.8-4.5v57.4L929.4,570.3z M943.6,562.2v-32.3l-7.8-4.5v41.2L943.6,562.2z M957.8,554.2V538l-7.8-4.5v25.1
				L957.8,554.2z M972,546.1l-7.8-4.5v8.9L972,546.1z"/>
			<g>
				<g>
					<path class="st11" d="M429,450.6c3.3,3.3,8.6,3.3,11.9,0l-2.7-2.7c-1.8,1.8-4.8,1.8-6.6,0c-1.8-1.8-1.8-4.8,0-6.6l-2.7-2.7
						C425.7,441.9,425.7,447.3,429,450.6z"/>
					<path class="st11" d="M423.8,455.8c6.2,6.2,16.2,6.2,22.4,0l-2.7-2.7c-4.7,4.7-12.4,4.7-17.1,0s-4.7-12.4,0-17.1l-2.7-2.7
						C417.6,439.6,417.6,449.6,423.8,455.8z"/>
					<path class="st11" d="M418.8,460.8c8.9,8.9,23.4,8.9,32.3,0l-2.7-2.7c-7.4,7.4-19.5,7.4-27,0c-7.4-7.4-7.4-19.5,0-27l-2.7-2.7
						C409.9,437.4,409.9,451.9,418.8,460.8z"/>
					<path class="st11" d="M413.9,465.7c11.6,11.6,30.5,11.6,42.2,0l-2.7-2.7c-10.2,10.2-26.7,10.2-36.8,0
						c-10.1-10.1-10.1-26.7,0-36.8l-2.7-2.7C402.3,435.2,402.3,454.1,413.9,465.7z"/>
					<path class="st11" d="M409.2,470.4c14.2,14.2,37.3,14.2,51.6,0l-2.7-2.7c-12.8,12.8-33.5,12.8-46.2,0
						c-12.7-12.7-12.8-33.5,0-46.3l-2.7-2.7C395,433.1,395,456.2,409.2,470.4z"/>
					<path class="st11" d="M404.4,475.2c16.8,16.8,44.2,16.8,61.1,0l-2.7-2.7c-15.4,15.4-40.4,15.4-55.7,0
						c-15.4-15.4-15.4-40.4,0-55.8l-2.7-2.7C387.6,430.9,387.6,458.3,404.4,475.2z"/>
				</g>
			</g>
		</g>
	</g>
</g>
<g>
	<g>
		<g>
			<path class="st12" d="M160.2,553.4c0,0-6.6,4.4-6.9,23.5c0,0,2.4,2.9,7.8,1.9s6.8-6.3,6.8-6.3S163.1,552.9,160.2,553.4z"/>
		</g>
	</g>
	<g>
		<g>
			<path class="st13" d="M147.2,555c-1.5,0.3-5.2,8.9-5.9,21.6c-0.7,12.6,1.5,22.6,1.5,22.6l16.4-25.6
				C159.2,573.5,151.9,554,147.2,555z"/>
		</g>
	</g>
	<g>
		<g>
			<path class="st14" d="M167.8,572.2c0,0-4.3-19.4-7.7-18.8c-3.4,0.5-5.4,10.2-5.4,10.2l1.4,2.9c0,0,0.9-1,1.7-0.5
				c0.7,0.5,1.6,6.5,1.6,6.5s-0.2-16.5,1.2-16.7C162.9,555.3,167.8,572.2,167.8,572.2z"/>
		</g>
	</g>
	<g>
		<g>
			<path class="st15" d="M129.8,701.2c0,0,3.2,0.8,8,0.8s17.9,0.1,19.5,0.4c1.7,0.3,7.7,2,9.4,0.4s-2.2-5.2-4.6-5.4
				c-2.4-0.2-16.3,0.8-19.3,0.9C139.7,698.5,138.5,699.9,129.8,701.2z"/>
		</g>
	</g>
	<g>
		<g>
			<path class="st12" d="M140.8,700.6c6.4-0.8,19.6-6.3,19-22.7c-0.6-16.5-13.6-24.9-28.8-22.5s-19.8,17.2-19.8,23.5
				C111.3,685.3,114.8,703.8,140.8,700.6z"/>
		</g>
	</g>
	<g>
		<g>
			<g>
				<path class="st16" d="M92.8,614.8c0,0,3,11.9-5.4,17.6s-33.6,9.9-37.5,30.8c-3.9,20.8,11,32.2,24.2,32.7
					c13.3,0.4,17.6-6.5,17.6-6.5l-2.1-12.2c0,0-4,4.2-9.3,0.3c-5.2-3.9-0.4-12.2,6-12.2c6.4,0.1,18.3-1.2,30.3-11s9.5-25.3,1.1-35.1
					s-24.6-9.1-24.6-9.1s2.8,4.2,3.6,7.5C96.8,617.6,95.6,615.6,92.8,614.8z"/>
			</g>
		</g>
	</g>
	<g>
		<g>
			<path class="st17" d="M97.1,636.5c0,0,1.6,7.3-3.1,13.5c0,0,12.8,3.7,22.6-2.3s7.8-14.2,7.1-18c-0.8-3.9-5.1-12.3-12.8-16.2
				c-8.5-4.3-17.6-3.4-17.6-3.4s2.2,3.1,3.6,7.5c0,0-1.4-2.2-4-2.8c0,0,1.3,5.5-0.2,10.3s-5.9,9.1-8.1,11.3
				C84.5,636.4,90.2,638.6,97.1,636.5z"/>
		</g>
	</g>
	<g>
		<g>
			<g>
				<path class="st12" d="M163.2,635.1c-1,6.1-0.3,17.1,1.3,24.5s1.7,33.8,2.2,39.6c0.6,5.8,2.7,5.2,2.7,5.2s4.8,0.6,5.4-0.1
					c0.6-0.7-0.3-3.9-3-4.9c0,0,2.5-17.9,3.6-26.9s4-19.8,4-30.9c0-11.2-1.4-11.6-0.4-20.5C179,621.1,164.4,627.6,163.2,635.1z"/>
			</g>
		</g>
	</g>
	<g>
		<g>
			
				<linearGradient id="SVGID_00000151513167537207311600000014200186821720942984_" gradientUnits="userSpaceOnUse" x1="90.0253" y1="120.6891" x2="188.7628" y2="120.6891" gradientTransform="matrix(1 0 0 -1 0 770)">
				<stop  offset="0" style="stop-color:#FF72BC"/>
				<stop  offset="1" style="stop-color:#F74DAE"/>
			</linearGradient>
			<path style="fill:url(#SVGID_00000151513167537207311600000014200186821720942984_);" d="M146.4,606.9
				c-2.7,5.4-5.6,12.3-7.2,19.8c-1.6,7.4-5.6,14.3-10.8,18.7c-5.3,4.4-33.1,9.9-37.8,28.9c-4.7,19,20.6,25.9,33.3,25.3
				c12.7-0.7,17.8-16.3,28.8-27.1c10.9-10.8,21.7-11.3,30.9-21.6s3.3-14.5,3.3-14.5s-0.8-3.7-1.4-3.8c0,0-2.8-1.1-2.4-6.6
				c0,0-1.5-5.8-1.9-10.8c-0.5-5.6,0.3-7.8,0.3-7.8s-7.6-8-17-8.4S146.4,606.9,146.4,606.9z"/>
		</g>
	</g>
	<g>
		<g>
			<path class="st17" d="M169.7,608.8c0,0-9.6-3.2-13.1,13.7c0,0,3.7-1.8,6.9-1.6c0,0-3.6,5.9-3.1,13.4c0.4,7.5,5.6,17.7-14.5,41.5
				c-9.9,11.7-13.8,21.8-13.8,21.8s7.3-9.3,16.8-17.6c9.5-8.4,19.6-10.5,26.3-15.2s11.7-7.6,15.9-16s3.2-17.6,3.2-17.6
				s-3.4,0.5-3.6,0.5c0,0,0.9-2.2,0.9-6.3c0,0-5.7-3.8-8.1-8.7c-2.4-4.8-1.8-9.4-1.8-9.4S175.6,609.9,169.7,608.8z"/>
		</g>
	</g>
	<g>
		<g>
			<g>
				<path class="st16" d="M202.9,591.4c0,0-0.5,6.7-14.8,14.4c-14.4,7.7-35,2.5-37.3,1.3c-2.3-1.3-6.8,5.1-6.8,5.1s1.2-3.9-0.1-8.2
					s-3-16.4,1.9-23.6c5-7.1,21.4-8.6,25.9-8s9.3,4.5,12.7,8.2c2.7,2.9,6.9,6.5,11.7,7.9c4.8,1.3,6.7,1.4,6.7,1.4L202.9,591.4z"/>
			</g>
		</g>
	</g>
	<g>
		<g>
			<path class="st17" d="M156.8,587.9c0,0,4.2,6.2,21.2,7.1c17,0.9,24-2.1,24.9-3.5c0,0-0.9,7.5-14.1,14.3c-13.2,6.8-25.2,4-25.2,4
				l3.4-1.4c0,0-5.2-0.8-8.5-2.8c0,0,4.1-2,5-3.9c0,0-6.7,0.2-11.8-6.4c0,0,4.9,0,9.4-0.4C161.1,594.8,158.4,592.4,156.8,587.9z"/>
		</g>
	</g>
	<g>
		<g>
			<path class="st14" d="M205.6,588c-0.4-1-6-1.2-6.2,0.9c-0.2,2.1,0.7,5.9,1.4,6.3C201.6,595.5,206.7,590.4,205.6,588z"/>
		</g>
	</g>
	<g>
		<g>
			<path class="st19" d="M144.2,636.8c-1,6.1-0.3,17.1,1.3,24.5s1.7,33.8,2.2,39.6c0.6,5.8,2.7,5.2,2.7,5.2s4.8,0.6,5.4-0.1
				s-0.3-3.9-3-4.9c0,0,2.5-17.9,3.6-26.9s4-19.8,4-30.9c0-11.2-1.4-11.6-0.4-20.5C160.1,622.8,145.4,629.2,144.2,636.8z"/>
		</g>
	</g>
	<g>
		<g>
			<path class="st14" d="M146.9,679.3c0.4,1,2.2,2,6-3.2c3.7-5.2,4.3-7.3,4.3-7.3l-4.4,32.2c0,0,1.9,0.6,2.7,2.6
				c0.8,1.9,0.4,2.4-0.2,2.5c-0.6,0.1-3.8,0.3-5.4-0.2c-1.6-0.4-2.2-3.2-2.3-5.4C147.6,698.4,146.9,679.3,146.9,679.3z"/>
		</g>
	</g>
	<g>
		<g>
			<path class="st15" d="M165.8,677.6c0.4,1,2.2,2,6-3.2c3.7-5.2,4.3-7.3,4.3-7.3l-4.4,32.2c0,0,1.9,0.6,2.7,2.6
				c0.8,1.9,0.4,2.4-0.2,2.5c-0.6,0.1-3.8,0.3-5.4-0.2c-1.6-0.4-2.2-3.2-2.3-5.4C166.5,696.7,165.8,677.6,165.8,677.6z"/>
		</g>
	</g>
	<g>
		<g>
			<path d="M168,591c0,0,1.3-3.5,4.4-2.8c3.1,0.7,3.5,4.1,3.5,4.1s-1.2,1.8-4.1,1.7C168.9,593.8,168,591,168,591z"/>
		</g>
	</g>
	<g>
		<g>
			<path d="M176.1,593.2c0,0,0.1-5.5-3.5-5.9c-4.6-0.5-5.2,4.5-5.2,4.5s2.5-3.6,5.4-2.9C175.7,589.5,176.1,593.2,176.1,593.2z"/>
		</g>
	</g>
	<g>
		<g>
			<path class="st11" d="M172,589.5c-0.8,0.9-0.1,2.5,1.3,2.3c1.4-0.1,1.1-1.8,0.4-2.3C173,589,172.3,589.1,172,589.5z"/>
		</g>
	</g>
	<g>
		<g>
			<path class="st14" d="M108.6,702.3c0,0,3.2,0.8,8,0.8s17.9,0.1,19.5,0.4c1.7,0.3,7.7,2,9.4,0.4s-2.2-5.2-4.6-5.4
				c-2.4-0.2-16.3,0.8-19.3,0.9C118.5,699.6,117.3,701,108.6,702.3z"/>
		</g>
	</g>
	<g>
		<g>
			
				<linearGradient id="SVGID_00000116226213420524043220000004834676401928277430_" gradientUnits="userSpaceOnUse" x1="89.3985" y1="90.759" x2="140.3255" y2="90.759" gradientTransform="matrix(1 0 0 -1 0 770)">
				<stop  offset="0" style="stop-color:#FF72BC"/>
				<stop  offset="1" style="stop-color:#F74DAE"/>
			</linearGradient>
			<path style="fill:url(#SVGID_00000116226213420524043220000004834676401928277430_);" d="M120.4,702.4
				c6.7-0.8,20.6-6.4,19.9-23.3c-0.6-16.9-14.3-25.4-30.2-23c-15.9,2.5-20.8,17.6-20.7,24C89.4,686.7,93.1,705.7,120.4,702.4z"/>
		</g>
	</g>
	<g>
		<g>
			<path class="st14" d="M159.2,573.5c0,0-7.7-19.6-12-18.6c-4.3,1.1-6.3,18.6-6.1,25.8c0.2,7.3,0.7,12.3,0.7,12.3
				s-1.2-15.2,1.8-19.6c0,0,3,9.6,6.7,13.1c0,0-3.8-13.1-3.9-20.2c-0.2-7.1,0.8-10.4,1.5-10.4s4.1,4,6.6,8.8
				C157.1,569.6,159.2,573.5,159.2,573.5z"/>
		</g>
	</g>
	<path class="st21" d="M121.2,656.3c0,0,9,0.6,14.3,9.4c5.3,8.9,4.3,18.1,4.3,18.1l7.1-9.3c0,0-0.8-10.8-2.2-17.7
		c-1.5-6.9-0.9-16.6-0.9-16.6s-1.2,10.8-0.8,17.7c0.2,3.8-3,7.1-3.7,7.3C138.7,665.4,136.8,656.3,121.2,656.3z"/>
	<path class="st17" d="M147.9,556c-1.5,0.1-2.3,5.6-1.2,14c1.1,8.3,3.6,16.4,3.6,16.4s0.2-5.8,2.8-9.1c2.5-3.2,6.2-3.7,6.2-3.7
		S150.1,555.8,147.9,556z"/>
	<path class="st17" d="M160.7,555.6c-1.4,0.2-1.1,17.8-1.1,17.8s4.6-0.9,8.2-1.2C167.8,572.2,162.9,555.3,160.7,555.6z"/>
	<path class="st22" d="M146.2,565.2c0,2,0.6,7.1,1.6,11.5s2.4,9.6,2.4,9.6s0.1-7.9,5.4-11.4c0,0-5.9-12.2-7.3-13.6
		C146.9,560,146.2,565.2,146.2,565.2z"/>
	<path class="st22" d="M160.9,558.9c-0.9,0.1-1.2,2.1-1.2,4s0,10.6,0,10.6l6-1C165.6,572.5,163,558.6,160.9,558.9z"/>
	<path class="st23" d="M160.4,633.7c0,0,1.2,8.5,0.8,11.8s-1.5,7.6-1.5,7.6s-1,7-1.6,10.3s-1.7,11-1.7,11l3.9-2.1c0,0-1.7,0-1.1-6
		c0.6-6,1.3-12.6,1.9-14.5c0.5-1.9,1.1-5.3,0.7-9.3C161.5,638.5,160.4,633.7,160.4,633.7z"/>
	<path class="st23" d="M146.9,674.5l-6.8,9c0,0-1.1,5.8-2.6,8.1c0,0,5.3-5.7,9.6-9.9L146.9,674.5z"/>
	
		<linearGradient id="SVGID_00000044892244837850624420000015886680453309247621_" gradientUnits="userSpaceOnUse" x1="172.8526" y1="133.0355" x2="198.8075" y2="140.4179" gradientTransform="matrix(1 0 0 -1 0 770)">
		<stop  offset="9.042550e-02" style="stop-color:#F4E9DC"/>
		<stop  offset="1" style="stop-color:#FDFBF8"/>
	</linearGradient>
	<path style="fill:url(#SVGID_00000044892244837850624420000015886680453309247621_);" d="M180.4,610.8c0,0,1.9,10.4,9.6,15.6
		c0,0,0,4.7-3.8,7.3l7-0.9c0,0-2.7,20-16.4,27.8s-7.6-10.8-8.4-19.6c-0.7-8.8-2.8-7.8-2.5-13.7s2.9-8.2,2.9-8.2s-4.9-0.7-8.3,0.3
		C160.4,619.5,162.1,611.8,180.4,610.8z"/>
	
		<linearGradient id="SVGID_00000004532544424577860050000004553765673406129064_" gradientUnits="userSpaceOnUse" x1="106.3383" y1="136.4431" x2="103.0902" y2="159.1799" gradientTransform="matrix(1 0 0 -1 0 770)">
		<stop  offset="9.042550e-02" style="stop-color:#F4E9DC"/>
		<stop  offset="1" style="stop-color:#FDFBF8"/>
	</linearGradient>
	<path style="fill:url(#SVGID_00000004532544424577860050000004553765673406129064_);" d="M91.6,631.8c0,0,5.3-9,3.4-14.6
		c0,0,3.1,1.4,4.2,7.3c0,0,2.1-6.7-1.5-12.7c0,0,11.9-0.3,19,8.8s2.8,19.8-8.3,21.7c0,0-3.2-7.3-9.4-10
		C98.9,632.3,93.6,633.5,91.6,631.8z"/>
</g>
</svg>
