<?xml version="1.0" encoding="utf-8"?>
<!-- Generator: Adobe Illustrator 26.4.1, SVG Export Plug-In . SVG Version: 6.00 Build 0)  -->
<svg version="1.1" id="Layer_1" xmlns="http://www.w3.org/2000/svg" xmlns:xlink="http://www.w3.org/1999/xlink" x="0px" y="0px"
	 viewBox="0 0 200 200" style="enable-background:new 0 0 200 200;" xml:space="preserve">
<style type="text/css">
	.st0{fill:#FFFFFF;}
	.st1{fill:#EDEDED;}
	.st2{fill:#54B9A4;}
	.st3{fill:#F6F7ED;}
	.st4{fill:#FF8BC8;}
	.st5{fill:#FFE9C7;}
	.st6{fill:#3C3C3B;}
	.st7{opacity:0.1;fill:#1D1D1B;}
	.st8{fill:#F5DF56;}
</style>
<g>
	<circle class="st0" cx="101.1" cy="100" r="84.4"/>
	<g>
		<g>
			<path class="st1" d="M42.8,93.1l0.9,1.2c0.6-0.4,1.5-0.3,1.9,0.3c0.4,0.6,0.3,1.5-0.3,1.9l0.9,1.2c0.6-0.4,1.5-0.3,1.9,0.3
				c0.4,0.6,0.3,1.5-0.3,1.9l0.9,1.2c0.6-0.4,1.5-0.3,1.9,0.3c0.4,0.6,0.3,1.5-0.3,1.9l0.9,1.2c0.6-0.4,1.5-0.3,1.9,0.3
				c0.4,0.6,0.3,1.5-0.3,1.9l0.9,1.2c0.6-0.4,1.5-0.3,1.9,0.3c0.4,0.6,0.3,1.5-0.3,1.9l0.9,1.2c0.6-0.4,1.5-0.3,1.9,0.3
				c0.4,0.6,0.3,1.5-0.3,1.9l0.9,1.2c0.6-0.4,1.5-0.3,1.9,0.3c0.4,0.6,0.3,1.5-0.3,1.9l0.9,1.2c0.6-0.4,1.5-0.3,1.9,0.3
				c0.4,0.6,0.3,1.5-0.3,1.9l0.9,1.2c0.6-0.4,1.5-0.3,1.9,0.3c0.4,0.6,0.3,1.5-0.3,1.9l0.9,1.2c0.6-0.4,1.5-0.3,1.9,0.3
				c0.4,0.6,0.3,1.5-0.3,1.9l0.9,1.2c0.6-0.4,1.5-0.3,1.9,0.3c0.4,0.6,0.3,1.5-0.3,1.9l0.9,1.2c0.2-0.1,0.3-0.2,0.5-0.2l75-53.7
				l-0.9-1.2c-0.6,0.4-1.5,0.3-1.9-0.3c-0.4-0.6-0.3-1.5,0.3-1.9l-0.9-1.2c-0.6,0.4-1.5,0.3-1.9-0.3c-0.4-0.6-0.3-1.5,0.3-1.9
				l-0.9-1.2c-0.6,0.4-1.5,0.3-1.9-0.3c-0.4-0.6-0.3-1.5,0.3-1.9l-0.9-1.2c-0.6,0.4-1.5,0.3-1.9-0.3c-0.4-0.6-0.3-1.5,0.3-1.9
				l-0.9-1.2c-0.6,0.4-1.5,0.3-1.9-0.3c-0.4-0.6-0.3-1.5,0.3-1.9l-0.9-1.2c-0.6,0.4-1.5,0.3-1.9-0.3c-0.4-0.6-0.3-1.5,0.3-1.9
				l-0.9-1.2c-0.6,0.4-1.5,0.3-1.9-0.3c-0.4-0.6-0.3-1.5,0.3-1.9l-0.9-1.2c-0.6,0.4-1.5,0.3-1.9-0.3s-0.3-1.5,0.3-1.9l-0.9-1.2
				c-0.6,0.4-1.5,0.3-1.9-0.3c-0.4-0.6-0.3-1.5,0.3-1.9l-0.9-1.2c-0.6,0.4-1.5,0.3-1.9-0.3c-0.4-0.6-0.3-1.5,0.3-1.9l-0.9-1.2
				c-0.6,0.4-1.5,0.3-1.9-0.3c-0.4-0.6-0.3-1.5,0.3-1.9l-0.9-1.2c-0.2,0.1-0.3,0.2-0.5,0.2L42.8,93.1z"/>
			<path class="st2" d="M71.4,132.1c0,0-0.1,0-0.1,0l-0.4-0.5c0.5-0.6,0.6-1.6,0.1-2.3c-0.5-0.7-1.4-1-2.2-0.7l-0.4-0.5
				c0.5-0.6,0.6-1.6,0.1-2.3c-0.5-0.7-1.4-1-2.2-0.7l-0.4-0.5c0.5-0.6,0.6-1.6,0.1-2.3c-0.5-0.7-1.4-1-2.2-0.7l-0.4-0.5
				c0.5-0.6,0.6-1.6,0.1-2.3c-0.5-0.7-1.4-1-2.2-0.7l-0.4-0.5c0.5-0.6,0.6-1.6,0.1-2.3c-0.5-0.7-1.4-1-2.2-0.7l-0.4-0.5
				c0.5-0.6,0.6-1.6,0.1-2.3c-0.5-0.7-1.4-1-2.2-0.7l-0.4-0.5c0.5-0.6,0.6-1.6,0.1-2.3c-0.5-0.7-1.4-1-2.2-0.7l-0.4-0.5
				c0.5-0.6,0.6-1.6,0.1-2.3c-0.5-0.7-1.4-1-2.2-0.7l-0.4-0.5c0.5-0.6,0.6-1.6,0.1-2.3c-0.5-0.7-1.4-1-2.2-0.7l-0.4-0.5
				c0.5-0.6,0.6-1.6,0.1-2.3c-0.5-0.7-1.4-1-2.2-0.7l-0.4-0.5c0.5-0.6,0.6-1.6,0.1-2.3c-0.5-0.7-1.4-1-2.2-0.7l-0.3-0.5L118,39.9
				c0,0,0.1,0,0.1,0l0.4,0.5c-0.5,0.6-0.6,1.6-0.1,2.3c0.5,0.7,1.4,1,2.2,0.7l0.4,0.5c-0.5,0.6-0.6,1.6-0.1,2.3
				c0.5,0.7,1.4,1,2.2,0.7l0.4,0.5c-0.5,0.6-0.6,1.6-0.1,2.3c0.5,0.7,1.4,1,2.2,0.7l0.4,0.5c-0.5,0.6-0.6,1.6-0.1,2.3
				c0.5,0.7,1.4,1,2.2,0.7l0.4,0.5c-0.5,0.6-0.6,1.6-0.1,2.3c0.5,0.7,1.4,1,2.2,0.7l0.4,0.5c-0.5,0.6-0.6,1.6-0.1,2.3
				c0.5,0.7,1.4,1,2.2,0.7l0.4,0.5c-0.5,0.6-0.6,1.6-0.1,2.3c0.5,0.7,1.4,1,2.2,0.7l0.4,0.5c-0.5,0.6-0.6,1.6-0.1,2.3s1.4,1,2.2,0.7
				l0.4,0.5c-0.5,0.6-0.6,1.6-0.1,2.3c0.5,0.7,1.4,1,2.2,0.7l0.4,0.5c-0.5,0.6-0.6,1.6-0.1,2.3c0.5,0.7,1.4,1,2.2,0.7l0.4,0.5
				c-0.5,0.6-0.6,1.6-0.1,2.3c0.5,0.7,1.4,1,2.2,0.7l0.3,0.5L71.4,132.1z"/>
			
				<rect x="54.5" y="63.9" transform="matrix(0.8134 -0.5818 0.5818 0.8134 -32.4817 71.0593)" class="st3" width="79.9" height="44.4"/>
			
				<rect x="63.6" y="95.7" transform="matrix(0.8134 -0.5818 0.5818 0.8134 -38.1333 78.6584)" class="st4" width="79.9" height="6"/>
			
				<rect x="45.6" y="70.3" transform="matrix(0.8134 -0.5818 0.5818 0.8134 -26.8853 63.5339)" class="st4" width="79.9" height="6.7"/>
			<g>
				<g>
					<polygon class="st5" points="74.9,120.4 76.5,120.4 75.2,119.5 75.7,117.9 74.4,118.9 73.1,117.9 73.6,119.5 72.3,120.4 
						73.9,120.4 74.4,122 					"/>
				</g>
				<g>
					<g>
						<polygon class="st4" points="71.9,116.3 73.6,116.3 72.2,115.4 72.8,113.8 71.5,114.8 70.2,113.8 70.7,115.4 69.3,116.3 
							71,116.3 71.4,117.9 						"/>
					</g>
				</g>
				<g>
					<g>
						<polygon class="st4" points="69,112.2 70.6,112.2 69.3,111.3 69.9,109.7 68.5,110.7 67.2,109.7 67.8,111.3 66.4,112.2 
							68.1,112.2 68.5,113.8 						"/>
					</g>
				</g>
				<g>
					<g>
						<polygon class="st4" points="66.1,108.1 67.7,108.1 66.4,107.2 66.9,105.6 65.6,106.6 64.3,105.6 64.8,107.2 63.5,108.1 
							65.1,108.1 65.6,109.7 						"/>
					</g>
				</g>
				<g>
					<g>
						<polygon class="st4" points="63.1,104 64.8,104 63.4,103.1 64,101.5 62.7,102.5 61.4,101.5 61.9,103.1 60.5,104 62.2,104 
							62.6,105.6 						"/>
					</g>
				</g>
				<g>
					<g>
						<polygon class="st4" points="60.2,99.9 61.8,99.9 60.5,99 61.1,97.4 59.7,98.4 58.4,97.4 59,99 57.6,99.9 59.3,99.9 
							59.7,101.4 						"/>
					</g>
				</g>
				<g>
					<polygon class="st5" points="57.3,95.8 58.9,95.8 57.6,94.9 58.1,93.3 56.8,94.3 55.5,93.3 56,94.9 54.7,95.8 56.3,95.8 
						56.8,97.3 					"/>
				</g>
			</g>
			<g>
				<g>
					<polygon class="st5" points="133.1,78.7 134.7,78.8 133.4,77.8 134,76.3 132.6,77.3 131.3,76.3 131.9,77.8 130.5,78.7 
						132.2,78.7 132.6,80.3 					"/>
				</g>
				<g>
					<polygon class="st4" points="130.2,74.6 131.8,74.7 130.5,73.7 131,72.2 129.7,73.2 128.4,72.2 128.9,73.7 127.6,74.6 
						129.2,74.6 129.7,76.2 					"/>
				</g>
				<g>
					<polygon class="st4" points="127.2,70.5 128.9,70.6 127.5,69.6 128.1,68.1 126.8,69.1 125.5,68.1 126,69.6 124.6,70.5 
						126.3,70.5 126.7,72.1 					"/>
				</g>
				<g>
					<polygon class="st4" points="124.3,66.4 125.9,66.5 124.6,65.5 125.2,64 123.8,65 122.5,64 123.1,65.5 121.7,66.4 123.4,66.4 
						123.8,68 					"/>
				</g>
				<g>
					<polygon class="st4" points="121.4,62.3 123,62.4 121.7,61.4 122.2,59.9 120.9,60.9 119.6,59.9 120.1,61.4 118.8,62.3 
						120.4,62.3 120.9,63.9 					"/>
				</g>
				<g>
					<g>
						<polygon class="st4" points="118.4,58.2 120.1,58.3 118.7,57.3 119.3,55.8 118,56.8 116.7,55.8 117.2,57.3 115.8,58.2 
							117.5,58.2 117.9,59.8 						"/>
					</g>
				</g>
				<g>
					<polygon class="st5" points="115.5,54.1 117.1,54.2 115.8,53.2 116.4,51.7 115,52.7 113.7,51.7 114.3,53.2 112.9,54.1 
						114.6,54.1 115,55.7 					"/>
				</g>
			</g>
			<g>
				<path class="st6" d="M77.8,95.2l-1.6,1.1l-0.6-0.8l4.1-3l0.6,0.8l-1.6,1.1l3.3,4.7l-1,0.7L77.8,95.2z"/>
				<path class="st6" d="M82.4,90.7l1-0.7l3.9,5.5l-1,0.7L82.4,90.7z"/>
				<path class="st6" d="M88.1,90.8c-0.3-0.4-0.5-0.9-0.7-1.3c-0.1-0.5-0.2-0.9-0.1-1.3c0.1-0.4,0.2-0.8,0.4-1.1
					c0.2-0.3,0.5-0.7,0.9-0.9c0.3-0.2,0.7-0.4,1.1-0.4c0.4-0.1,0.7,0,1,0l-0.1,1c-0.2,0-0.5,0-0.7,0c-0.2,0-0.4,0.1-0.6,0.3
					c-0.2,0.2-0.4,0.4-0.5,0.6c-0.1,0.2-0.2,0.5-0.2,0.7c0,0.3,0,0.6,0.1,0.9c0.1,0.3,0.3,0.6,0.5,0.9c0.4,0.6,0.9,1,1.5,1.2
					c0.5,0.2,1,0.1,1.5-0.3c0.2-0.2,0.4-0.4,0.5-0.6c0.1-0.2,0.2-0.5,0.2-0.8l1,0.2c0,0.4-0.2,0.8-0.3,1.1c-0.2,0.3-0.5,0.6-0.8,0.9
					c-0.3,0.2-0.7,0.4-1.1,0.5c-0.4,0.1-0.8,0.1-1.2,0c-0.4-0.1-0.8-0.3-1.2-0.5C88.8,91.6,88.4,91.2,88.1,90.8z"/>
				<path class="st6" d="M92.9,83.1l1-0.7l1.8,2.5l0,0l0.2-3.9l1.1-0.8l-0.2,3.4l4.4,1.9l-1.1,0.8l-3.3-1.5l-0.1,1.5l1.1,1.6l-1,0.7
					L92.9,83.1z"/>
				<path class="st6" d="M99.6,78.4l3.3-2.4l0.6,0.8l-2.3,1.7l1,1.4l2-1.4l0.6,0.8l-2,1.4l1.2,1.6l2.4-1.7l0.6,0.8l-3.4,2.4
					L99.6,78.4z"/>
				<path class="st6" d="M107.4,74l-1.6,1.1l-0.6-0.8l4.1-3l0.6,0.8l-1.6,1.1l3.3,4.7l-1,0.7L107.4,74z"/>
			</g>
			<g>
				<path class="st3" d="M71.6,84.5l-1.1,0.8l0.4,1.1l-0.6,0.4L69,82.7l0.7-0.5l3.4,2.5l-0.6,0.4L71.6,84.5z M71.1,84.1l-0.4-0.3
					c-0.2-0.1-0.4-0.3-0.5-0.4c-0.2-0.1-0.4-0.3-0.5-0.4l0,0c0.1,0.2,0.2,0.4,0.3,0.7c0.1,0.2,0.2,0.4,0.2,0.6l0.2,0.5L71.1,84.1z"
					/>
				<path class="st3" d="M72.1,80.5l0.9-0.6c0.5-0.4,1-0.5,1.5-0.4c0.5,0.1,0.9,0.4,1.3,0.9c0.2,0.3,0.3,0.5,0.4,0.8
					c0.1,0.3,0.1,0.5,0.1,0.7c0,0.2-0.1,0.5-0.3,0.7c-0.1,0.2-0.3,0.4-0.6,0.6l-0.9,0.7L72.1,80.5z M75,82.7
					c0.3-0.2,0.5-0.5,0.6-0.8c0-0.3-0.1-0.7-0.4-1.1c-0.3-0.4-0.6-0.6-0.9-0.7c-0.3-0.1-0.6,0-1,0.3L73,80.5l1.7,2.4L75,82.7z"/>
				<path class="st3" d="M76.3,77.5l0.6-0.5l1.8,1.2l0.7,0.5l0,0l-0.2-0.8l-0.6-2l0.6-0.5l2.4,3.3L81,79.1l-1.1-1.5
					c-0.1-0.1-0.1-0.2-0.2-0.3c-0.1-0.1-0.1-0.2-0.2-0.3c-0.1-0.1-0.1-0.2-0.2-0.3c-0.1-0.1-0.1-0.2-0.2-0.3l0,0l0.3,0.9l0.5,1.9
					l-0.3,0.2l-1.6-1.1l-0.8-0.6l0,0c0.1,0.1,0.1,0.2,0.2,0.2c0.1,0.1,0.1,0.2,0.2,0.3c0.1,0.1,0.1,0.2,0.2,0.3
					c0.1,0.1,0.1,0.2,0.2,0.2l1.1,1.5l-0.5,0.4L76.3,77.5z"/>
				<path class="st3" d="M81,74.1l0.6-0.4L84,77l-0.6,0.4L81,74.1z"/>
				<path class="st3" d="M85.3,74.8c0.2,0,0.4,0,0.6,0c0.2,0,0.4-0.1,0.5-0.2c0.2-0.1,0.3-0.3,0.3-0.4c0-0.1,0-0.3-0.1-0.4
					c0-0.1-0.1-0.1-0.2-0.1c-0.1,0-0.1,0-0.2,0c-0.1,0-0.1,0-0.2,0c-0.1,0-0.2,0-0.3,0.1l-0.6,0.1c-0.1,0-0.2,0-0.3,0
					c-0.1,0-0.2,0-0.3,0c-0.1,0-0.2-0.1-0.3-0.1c-0.1-0.1-0.2-0.2-0.3-0.3c-0.1-0.1-0.2-0.3-0.2-0.4c0-0.2,0-0.3,0-0.5
					c0-0.2,0.1-0.3,0.2-0.4c0.1-0.1,0.2-0.3,0.4-0.4c0.2-0.1,0.4-0.2,0.6-0.3c0.2-0.1,0.5-0.1,0.7,0l0,0.6c-0.2,0-0.3,0-0.5,0
					c-0.2,0-0.3,0.1-0.4,0.2c-0.2,0.1-0.3,0.2-0.3,0.4c0,0.1,0,0.3,0.1,0.4c0,0.1,0.1,0.1,0.2,0.1c0.1,0,0.1,0,0.2,0
					c0.1,0,0.2,0,0.2,0c0.1,0,0.2,0,0.3-0.1l0.6-0.1c0.1,0,0.3,0,0.4-0.1c0.1,0,0.2,0,0.3,0c0.1,0,0.2,0.1,0.3,0.1
					c0.1,0.1,0.2,0.2,0.3,0.3c0.1,0.1,0.2,0.3,0.2,0.4c0,0.2,0,0.3,0,0.5c0,0.2-0.1,0.3-0.2,0.5c-0.1,0.2-0.3,0.3-0.4,0.4
					c-0.2,0.2-0.5,0.3-0.7,0.3c-0.3,0.1-0.5,0.1-0.8,0L85.3,74.8z"/>
				<path class="st3" d="M89,72.1c0.2,0,0.4,0,0.6,0c0.2,0,0.4-0.1,0.5-0.2c0.2-0.1,0.3-0.3,0.3-0.4c0-0.1,0-0.3-0.1-0.4
					c0-0.1-0.1-0.1-0.2-0.1c-0.1,0-0.1,0-0.2,0c-0.1,0-0.1,0-0.2,0c-0.1,0-0.2,0-0.3,0.1L89,71.1c-0.1,0-0.2,0-0.3,0
					c-0.1,0-0.2,0-0.3,0c-0.1,0-0.2-0.1-0.3-0.1c-0.1-0.1-0.2-0.2-0.3-0.3c-0.1-0.1-0.2-0.3-0.2-0.4c0-0.2,0-0.3,0-0.5
					c0-0.2,0.1-0.3,0.2-0.4c0.1-0.1,0.2-0.3,0.4-0.4c0.2-0.1,0.4-0.2,0.6-0.3c0.2-0.1,0.5-0.1,0.7,0l0,0.6c-0.2,0-0.3,0-0.5,0
					c-0.2,0-0.3,0.1-0.4,0.2c-0.2,0.1-0.3,0.2-0.3,0.4c0,0.1,0,0.3,0.1,0.4c0,0.1,0.1,0.1,0.2,0.1c0.1,0,0.1,0,0.2,0
					c0.1,0,0.2,0,0.2,0c0.1,0,0.2,0,0.3-0.1l0.6-0.1c0.1,0,0.3,0,0.4-0.1c0.1,0,0.2,0,0.3,0c0.1,0,0.2,0.1,0.3,0.1
					c0.1,0.1,0.2,0.2,0.3,0.3c0.1,0.1,0.2,0.3,0.2,0.4c0,0.2,0,0.3,0,0.5c0,0.2-0.1,0.3-0.2,0.5c-0.1,0.2-0.3,0.3-0.4,0.4
					c-0.2,0.2-0.5,0.3-0.7,0.3c-0.3,0.1-0.5,0.1-0.8,0L89,72.1z"/>
				<path class="st3" d="M90.9,67l0.6-0.4l2.4,3.3l-0.6,0.4L90.9,67z"/>
				<path class="st3" d="M97,67.8c-0.2,0.2-0.4,0.3-0.7,0.3c-0.2,0-0.5,0-0.7,0c-0.2-0.1-0.5-0.2-0.7-0.3c-0.2-0.2-0.4-0.4-0.6-0.6
					c-0.2-0.3-0.3-0.5-0.4-0.8c-0.1-0.3-0.1-0.5-0.1-0.7c0-0.2,0.1-0.5,0.2-0.7c0.1-0.2,0.3-0.4,0.5-0.5c0.2-0.2,0.4-0.3,0.7-0.3
					c0.2-0.1,0.5,0,0.7,0c0.2,0.1,0.5,0.2,0.7,0.3c0.2,0.2,0.4,0.4,0.6,0.6c0.2,0.3,0.3,0.5,0.4,0.8c0.1,0.3,0.1,0.5,0.1,0.8
					c0,0.2-0.1,0.5-0.2,0.7C97.4,67.4,97.2,67.6,97,67.8z M96.6,67.3c0.1-0.1,0.2-0.2,0.3-0.3c0.1-0.1,0.1-0.3,0.1-0.4
					c0-0.2,0-0.3-0.1-0.5c-0.1-0.2-0.2-0.4-0.3-0.5c-0.3-0.4-0.6-0.6-0.9-0.7c-0.3-0.1-0.6-0.1-0.8,0.1c-0.3,0.2-0.4,0.4-0.4,0.8
					c0,0.3,0.1,0.7,0.4,1c0.1,0.2,0.3,0.3,0.4,0.5c0.1,0.1,0.3,0.2,0.4,0.3c0.2,0.1,0.3,0.1,0.4,0.1C96.4,67.4,96.5,67.3,96.6,67.3z
					"/>
				<path class="st3" d="M97.7,62.2l0.6-0.4l2.4,1.1l0.8,0.5l0,0c-0.1-0.2-0.3-0.3-0.4-0.5c-0.2-0.2-0.3-0.4-0.4-0.6l-1-1.4l0.6-0.4
					l2.4,3.3l-0.6,0.4L99.6,63l-0.8-0.5l0,0c0.1,0.2,0.3,0.3,0.4,0.5c0.2,0.2,0.3,0.4,0.4,0.5l1,1.4l-0.6,0.4L97.7,62.2z"/>
			</g>
			<g>
				<path class="st3" d="M94,102.6l2.5-1.8l0.4,0.6l-1.7,1.2l0.8,1.2l1.5-1.1l0.4,0.6l-1.5,1.1l1.2,1.7l-0.7,0.5L94,102.6z"/>
				<path class="st3" d="M103.5,101.9l-2-1l-0.6,0.4l1.1,1.6l-0.7,0.5l-2.9-4.1l1.4-1c0.2-0.2,0.4-0.3,0.6-0.4
					c0.2-0.1,0.4-0.1,0.6-0.1c0.2,0,0.4,0,0.6,0.1c0.2,0.1,0.4,0.3,0.5,0.5c0.2,0.3,0.3,0.6,0.3,0.9c0,0.3-0.1,0.6-0.3,0.8l2.2,1
					L103.5,101.9z M100.5,100.8l0.6-0.4c0.3-0.2,0.5-0.4,0.5-0.6c0.1-0.2,0-0.4-0.2-0.7c-0.2-0.2-0.4-0.3-0.6-0.3
					c-0.2,0-0.5,0.1-0.7,0.3l-0.6,0.4L100.5,100.8z"/>
				<path class="st3" d="M103.3,95.9l2.4-1.7l0.4,0.6l-1.7,1.2l0.7,1l1.5-1l0.4,0.6l-1.5,1l0.9,1.2l1.8-1.3l0.4,0.6l-2.5,1.8
					L103.3,95.9z"/>
				<path class="st3" d="M107.9,92.6l2.4-1.7l0.4,0.6l-1.7,1.2l0.7,1l1.5-1l0.4,0.6l-1.5,1l0.9,1.2l1.8-1.3l0.4,0.6l-2.5,1.8
					L107.9,92.6z"/>
			</g>
			<g>
				<path class="st4" d="M75.1,100c0.5,0.8,0.4,1.8-0.4,2.3c-0.8,0.5-1.8,0.4-2.3-0.4c-0.5-0.8-0.4-1.8,0.4-2.3
					C73.5,99.1,74.6,99.3,75.1,100z"/>
				<path class="st4" d="M116.6,70.3c0.5,0.8,0.4,1.8-0.4,2.3c-0.8,0.5-1.8,0.4-2.3-0.4c-0.5-0.8-0.4-1.8,0.4-2.3
					C115,69.4,116.1,69.6,116.6,70.3z"/>
			</g>
		</g>
		<path class="st7" d="M60.8,116c0.2,0.6,0,1.2-0.5,1.6l0.9,1.2c0.6-0.4,1.5-0.3,1.9,0.3c0.4,0.6,0.3,1.5-0.3,1.9l0.9,1.2
			c0.6-0.4,1.5-0.3,1.9,0.3c0.4,0.6,0.3,1.5-0.3,1.9l0.9,1.2c0.6-0.4,1.5-0.3,1.9,0.3c0.4,0.6,0.3,1.5-0.3,1.9l0.9,1.2
			c0.6-0.4,1.5-0.3,1.9,0.3c0.4,0.6,0.3,1.5-0.3,1.9l0.9,1.2c0.2-0.1,0.3-0.2,0.5-0.2l69-49.4l-81.3,4.4v1.5c0.8,0,1.4,0.6,1.4,1.4
			s-0.6,1.4-1.4,1.4v1.5c0.8,0,1.4,0.6,1.4,1.4c0,0.8-0.6,1.4-1.4,1.4v1.5c0.8,0,1.4,0.6,1.4,1.4c0,0.8-0.6,1.4-1.4,1.4v1.5
			c0.8,0,1.4,0.6,1.4,1.4c0,0.8-0.6,1.4-1.4,1.4v1.5c0.8,0,1.4,0.6,1.4,1.4c0,0.8-0.6,1.4-1.4,1.4v1.5c0.8,0,1.4,0.6,1.4,1.4
			c0,0.8-0.6,1.4-1.4,1.4v1.5C60.1,114.8,60.7,115.3,60.8,116z"/>
	</g>
	<g>
		<path class="st1" d="M60.9,87.6v1.5c0.8,0,1.4,0.6,1.4,1.4c0,0.8-0.6,1.4-1.4,1.4v1.5c0.8,0,1.4,0.6,1.4,1.4
			c0,0.8-0.6,1.4-1.4,1.4v1.5c0.8,0,1.4,0.6,1.4,1.4c0,0.8-0.6,1.4-1.4,1.4l0,1.5c0.8,0,1.4,0.6,1.4,1.4c0,0.8-0.6,1.4-1.4,1.4
			l0,1.5c0.8,0,1.4,0.6,1.4,1.4c0,0.8-0.6,1.4-1.4,1.4l0,1.5c0.8,0,1.4,0.6,1.4,1.4c0,0.8-0.6,1.4-1.4,1.4l0,1.5
			c0.8,0,1.4,0.6,1.4,1.4c0,0.8-0.6,1.4-1.4,1.4l0,1.5c0.8,0,1.4,0.6,1.4,1.4c0,0.8-0.6,1.4-1.4,1.4l0,1.5c0.8,0,1.4,0.6,1.4,1.4
			c0,0.8-0.6,1.4-1.4,1.4l0,1.5c0.8,0,1.4,0.6,1.4,1.4c0,0.8-0.6,1.4-1.4,1.4l0,1.5c0.8,0,1.4,0.6,1.4,1.4c0,0.8-0.6,1.4-1.4,1.4
			l0,1.5c0.2,0,0.4,0,0.5,0.1l92.2,0v-1.5c-0.8,0-1.4-0.6-1.4-1.4c0-0.8,0.6-1.4,1.4-1.4v-1.5c-0.8,0-1.4-0.6-1.4-1.4
			c0-0.8,0.6-1.4,1.4-1.4l0-1.5c-0.8,0-1.4-0.6-1.4-1.4c0-0.8,0.6-1.4,1.4-1.4l0-1.5c-0.8,0-1.4-0.6-1.4-1.4s0.6-1.4,1.4-1.4l0-1.5
			c-0.8,0-1.4-0.6-1.4-1.4c0-0.8,0.6-1.4,1.4-1.4v-1.5c-0.8,0-1.4-0.6-1.4-1.4c0-0.8,0.6-1.4,1.4-1.4v-1.5c-0.8,0-1.4-0.6-1.4-1.4
			c0-0.8,0.6-1.4,1.4-1.4l0-1.5c-0.8,0-1.4-0.6-1.4-1.4c0-0.8,0.6-1.4,1.4-1.4v-1.5c-0.8,0-1.4-0.6-1.4-1.4c0-0.8,0.6-1.4,1.4-1.4
			v-1.5c-0.8,0-1.4-0.6-1.4-1.4c0-0.8,0.6-1.4,1.4-1.4V92c-0.8,0-1.4-0.6-1.4-1.4c0-0.8,0.6-1.4,1.4-1.4l0-1.5c-0.2,0-0.4,0-0.5-0.1
			L60.9,87.6z"/>
		<path class="st2" d="M61.5,135.9c0,0-0.1,0-0.1,0l0-0.6c0.8-0.2,1.4-1,1.4-1.8c0-0.9-0.6-1.6-1.4-1.8l0-0.6c0.8-0.2,1.4-1,1.4-1.8
			c0-0.9-0.6-1.6-1.4-1.8l0-0.6c0.8-0.2,1.4-1,1.4-1.8c0-0.9-0.6-1.6-1.4-1.8l0-0.6c0.8-0.2,1.4-1,1.4-1.8c0-0.9-0.6-1.6-1.4-1.8
			l0-0.6c0.8-0.2,1.4-1,1.4-1.8c0-0.9-0.6-1.6-1.4-1.8l0-0.6c0.8-0.2,1.4-1,1.4-1.8c0-0.9-0.6-1.6-1.4-1.8l0-0.6
			c0.8-0.2,1.4-1,1.4-1.8c0-0.9-0.6-1.6-1.4-1.8l0-0.6c0.8-0.2,1.4-1,1.4-1.8c0-0.9-0.6-1.6-1.4-1.8l0-0.6c0.8-0.2,1.4-1,1.4-1.8
			c0-0.9-0.6-1.6-1.4-1.8l0-0.6c0.8-0.2,1.4-1,1.4-1.8c0-0.9-0.6-1.6-1.4-1.8l0-0.6c0.8-0.2,1.4-1,1.4-1.8c0-0.9-0.6-1.6-1.4-1.8
			v-0.6l91.6,0c0,0,0.1,0,0.1,0l0,0.6c-0.8,0.2-1.4,1-1.4,1.8c0,0.9,0.6,1.6,1.4,1.8l0,0.6c-0.8,0.2-1.4,1-1.4,1.8
			c0,0.9,0.6,1.6,1.4,1.8l0,0.6c-0.8,0.2-1.4,1-1.4,1.8c0,0.9,0.6,1.6,1.4,1.8v0.6c-0.8,0.2-1.4,1-1.4,1.8c0,0.9,0.6,1.6,1.4,1.8
			l0,0.6c-0.8,0.2-1.4,1-1.4,1.8c0,0.9,0.6,1.6,1.4,1.8v0.6c-0.8,0.2-1.4,1-1.4,1.8c0,0.9,0.6,1.6,1.4,1.8l0,0.6
			c-0.8,0.2-1.4,1-1.4,1.8c0,0.9,0.6,1.6,1.4,1.8l0,0.6c-0.8,0.2-1.4,1-1.4,1.8c0,0.9,0.6,1.6,1.4,1.8l0,0.6c-0.8,0.2-1.4,1-1.4,1.8
			c0,0.9,0.6,1.6,1.4,1.8l0,0.6c-0.8,0.2-1.4,1-1.4,1.8c0,0.9,0.6,1.6,1.4,1.8l0,0.6c-0.8,0.2-1.4,1-1.4,1.8c0,0.9,0.6,1.6,1.4,1.8
			l0,0.6L61.5,135.9z"/>
		<rect x="67.1" y="89.8" class="st3" width="79.9" height="44.4"/>
		<rect x="67.1" y="124.5" class="st4" width="79.9" height="6"/>
		<rect x="67.1" y="93.3" class="st4" width="79.9" height="6.7"/>
		<g>
			<g>
				<polygon class="st8" points="71.1,128.4 72.5,129.4 71.9,127.8 73.3,126.9 71.6,127 71.1,125.4 70.7,127 69,126.9 70.4,127.8 
					69.8,129.4 				"/>
			</g>
			<g>
				<g>
					<polygon class="st4" points="71.1,123.4 72.5,124.4 71.9,122.8 73.3,121.9 71.6,121.9 71.1,120.3 70.7,121.9 69,121.9 
						70.4,122.8 69.8,124.4 					"/>
				</g>
			</g>
			<g>
				<g>
					<polygon class="st4" points="71.1,118.3 72.5,119.3 71.9,117.8 73.3,116.8 71.6,116.9 71.1,115.3 70.7,116.9 69,116.8 
						70.4,117.8 69.8,119.3 					"/>
				</g>
			</g>
			<g>
				<g>
					<polygon class="st4" points="71.1,113.3 72.5,114.3 71.9,112.7 73.3,111.8 71.6,111.8 71.1,110.3 70.7,111.8 69,111.8 
						70.4,112.7 69.8,114.3 					"/>
				</g>
			</g>
			<g>
				<g>
					<polygon class="st4" points="71.1,108.2 72.5,109.2 71.9,107.7 73.3,106.7 71.6,106.8 71.1,105.2 70.7,106.8 69,106.7 
						70.4,107.7 69.8,109.2 					"/>
				</g>
			</g>
			<g>
				<g>
					<polygon class="st4" points="71.1,103.2 72.5,104.2 71.9,102.6 73.3,101.7 71.6,101.7 71.1,100.2 70.7,101.7 69,101.7 
						70.4,102.6 69.8,104.2 					"/>
				</g>
			</g>
			<g>
				<polygon class="st8" points="71.1,98.1 72.5,99.1 71.9,97.6 73.3,96.7 71.6,96.7 71.1,95.1 70.7,96.7 69,96.7 70.4,97.6 
					69.8,99.1 				"/>
			</g>
		</g>
		<g>
			<g>
				<polygon class="st8" points="142.7,128.4 144.1,129.4 143.5,127.8 144.9,126.9 143.2,127 142.7,125.4 142.3,127 140.6,126.9 
					142,127.8 141.4,129.4 				"/>
			</g>
			<g>
				<polygon class="st4" points="142.7,123.4 144.1,124.4 143.5,122.8 144.9,121.9 143.2,121.9 142.7,120.3 142.3,121.9 
					140.6,121.9 142,122.8 141.4,124.4 				"/>
			</g>
			<g>
				<polygon class="st4" points="142.7,118.3 144.1,119.3 143.5,117.8 144.9,116.8 143.2,116.9 142.7,115.3 142.3,116.9 
					140.6,116.8 142,117.8 141.4,119.3 				"/>
			</g>
			<g>
				<polygon class="st4" points="142.7,113.3 144.1,114.3 143.5,112.7 144.9,111.8 143.2,111.8 142.7,110.3 142.3,111.8 
					140.6,111.8 142,112.7 141.4,114.3 				"/>
			</g>
			<g>
				<polygon class="st4" points="142.7,108.2 144.1,109.2 143.5,107.7 144.9,106.7 143.2,106.8 142.7,105.2 142.3,106.8 
					140.6,106.7 142,107.7 141.4,109.2 				"/>
			</g>
			<g>
				<g>
					<polygon class="st4" points="142.7,103.2 144.1,104.2 143.5,102.6 144.9,101.7 143.2,101.7 142.7,100.2 142.3,101.7 
						140.6,101.7 142,102.6 141.4,104.2 					"/>
				</g>
			</g>
			<g>
				<polygon class="st8" points="142.7,98.1 144.1,99.1 143.5,97.6 144.9,96.7 143.2,96.7 142.7,95.1 142.3,96.7 140.6,96.7 
					142,97.6 141.4,99.1 				"/>
			</g>
		</g>
		<g>
			<path class="st6" d="M88.2,109.6l-2,0l0-1l5.1,0v1l-1.9,0l0,5.7l-1.2,0L88.2,109.6z"/>
			<path class="st6" d="M94.6,108.6l1.2,0l0,6.8h-1.2L94.6,108.6z"/>
			<path class="st6" d="M99.1,112c0-0.6,0.1-1,0.2-1.5c0.2-0.4,0.4-0.8,0.7-1.1c0.3-0.3,0.6-0.5,1-0.7c0.4-0.2,0.8-0.2,1.2-0.2
				c0.4,0,0.8,0.1,1.1,0.3c0.3,0.2,0.6,0.4,0.8,0.6l-0.7,0.7c-0.2-0.2-0.4-0.3-0.6-0.4c-0.2-0.1-0.4-0.1-0.7-0.1
				c-0.3,0-0.5,0.1-0.8,0.2c-0.2,0.1-0.4,0.3-0.6,0.5c-0.2,0.2-0.3,0.5-0.4,0.8c-0.1,0.3-0.1,0.6-0.1,1c0,0.8,0.2,1.4,0.5,1.8
				c0.3,0.4,0.8,0.7,1.4,0.7c0.3,0,0.6-0.1,0.8-0.2c0.2-0.1,0.4-0.3,0.6-0.5l0.7,0.7c-0.3,0.3-0.6,0.6-0.9,0.7
				c-0.3,0.2-0.7,0.3-1.2,0.3c-0.4,0-0.8-0.1-1.2-0.2c-0.4-0.2-0.7-0.4-1-0.7c-0.3-0.3-0.5-0.7-0.7-1.1
				C99.2,113.1,99.1,112.6,99.1,112z"/>
			<path class="st6" d="M107.5,108.6l1.2,0l0,3.1l0,0l2.4-3.1l1.3,0l-2.1,2.6l2.4,4.1l-1.3,0l-1.8-3.2l-1,1.2l0,2l-1.2,0
				L107.5,108.6z"/>
			<path class="st6" d="M115.7,108.6l4.1,0l0,1h-2.9l0,1.7l2.4,0v1l-2.4,0l0,2l3,0l0,1h-4.2L115.7,108.6z"/>
			<path class="st6" d="M124.6,109.6l-2,0v-1l5.1,0v1l-1.9,0l0,5.7l-1.2,0L124.6,109.6z"/>
		</g>
		<g>
			<path class="st3" d="M89.3,97.3l-1.4,0l-0.3,1.1l-0.7,0l1.3-4.1h0.8l1.3,4.1l-0.8,0L89.3,97.3z M89.2,96.7L89,96.2
				c-0.1-0.2-0.1-0.4-0.2-0.7c-0.1-0.2-0.1-0.5-0.2-0.7l0,0c-0.1,0.2-0.1,0.5-0.2,0.7c-0.1,0.2-0.1,0.4-0.2,0.7l-0.1,0.5L89.2,96.7z
				"/>
			<path class="st3" d="M92.1,94.3l1.1,0c0.6,0,1.1,0.2,1.5,0.5c0.4,0.3,0.5,0.8,0.5,1.5c0,0.3,0,0.6-0.1,0.9
				c-0.1,0.3-0.2,0.5-0.4,0.6c-0.2,0.2-0.4,0.3-0.6,0.4c-0.2,0.1-0.5,0.1-0.8,0.1l-1.1,0V94.3z M93.2,97.8c0.4,0,0.7-0.1,1-0.4
				c0.2-0.2,0.3-0.6,0.3-1.1c0-0.5-0.1-0.9-0.3-1.1c-0.2-0.2-0.5-0.3-1-0.3l-0.3,0l0,2.9L93.2,97.8z"/>
			<path class="st3" d="M97.3,94.3l0.8,0l0.7,2l0.3,0.8l0,0l0.3-0.8l0.7-2l0.8,0l0,4.1l-0.7,0l0-1.9c0-0.1,0-0.2,0-0.3
				c0-0.1,0-0.2,0-0.3c0-0.1,0-0.2,0-0.3c0-0.1,0-0.2,0-0.3l0,0l-0.3,0.9L99.2,98l-0.3,0l-0.7-1.8l-0.3-0.9l0,0c0,0.1,0,0.2,0,0.3
				c0,0.1,0,0.2,0,0.3c0,0.1,0,0.2,0,0.3c0,0.1,0,0.2,0,0.3l0,1.9l-0.7,0L97.3,94.3z"/>
			<path class="st3" d="M103.1,94.3l0.7,0l0,4.1h-0.7L103.1,94.3z"/>
			<path class="st3" d="M106.2,97.4c0.1,0.1,0.3,0.2,0.5,0.3c0.2,0.1,0.4,0.1,0.6,0.1c0.2,0,0.4,0,0.5-0.1c0.1-0.1,0.2-0.2,0.2-0.4
				c0-0.1,0-0.2,0-0.2c0-0.1-0.1-0.1-0.1-0.2c-0.1,0-0.1-0.1-0.2-0.1c-0.1,0-0.2-0.1-0.3-0.1l-0.6-0.2c-0.1,0-0.2-0.1-0.3-0.2
				c-0.1-0.1-0.2-0.1-0.3-0.2c-0.1-0.1-0.1-0.2-0.2-0.3c0-0.1-0.1-0.2-0.1-0.4c0-0.2,0-0.3,0.1-0.5c0.1-0.1,0.2-0.3,0.3-0.4
				c0.1-0.1,0.3-0.2,0.4-0.2c0.2-0.1,0.3-0.1,0.5-0.1c0.2,0,0.5,0,0.7,0.1c0.2,0.1,0.4,0.2,0.6,0.4l-0.4,0.5
				c-0.1-0.1-0.3-0.2-0.4-0.3c-0.1-0.1-0.3-0.1-0.5-0.1c-0.2,0-0.3,0-0.5,0.1c-0.1,0.1-0.2,0.2-0.2,0.4c0,0.1,0,0.1,0.1,0.2
				c0,0.1,0.1,0.1,0.1,0.1c0.1,0,0.1,0.1,0.2,0.1c0.1,0,0.2,0.1,0.2,0.1l0.5,0.2c0.1,0,0.2,0.1,0.3,0.2s0.2,0.1,0.3,0.2
				c0.1,0.1,0.1,0.2,0.2,0.3c0,0.1,0.1,0.2,0.1,0.4c0,0.2,0,0.3-0.1,0.5c-0.1,0.1-0.2,0.3-0.3,0.4c-0.1,0.1-0.3,0.2-0.5,0.3
				c-0.2,0.1-0.4,0.1-0.6,0.1c-0.3,0-0.5-0.1-0.8-0.2c-0.3-0.1-0.5-0.3-0.7-0.4L106.2,97.4z"/>
			<path class="st3" d="M110.7,97.4c0.1,0.1,0.3,0.2,0.5,0.3c0.2,0.1,0.4,0.1,0.6,0.1c0.2,0,0.4,0,0.5-0.1c0.1-0.1,0.2-0.2,0.2-0.4
				c0-0.1,0-0.2,0-0.2c0-0.1-0.1-0.1-0.1-0.2c-0.1,0-0.1-0.1-0.2-0.1c-0.1,0-0.2-0.1-0.3-0.1l-0.6-0.2c-0.1,0-0.2-0.1-0.3-0.2
				c-0.1-0.1-0.2-0.1-0.3-0.2c-0.1-0.1-0.1-0.2-0.2-0.3c0-0.1-0.1-0.2-0.1-0.4c0-0.2,0-0.3,0.1-0.5c0.1-0.1,0.2-0.3,0.3-0.4
				c0.1-0.1,0.3-0.2,0.4-0.2c0.2-0.1,0.3-0.1,0.5-0.1c0.2,0,0.5,0,0.7,0.1c0.2,0.1,0.4,0.2,0.6,0.4l-0.4,0.5
				c-0.1-0.1-0.3-0.2-0.4-0.3c-0.1-0.1-0.3-0.1-0.5-0.1c-0.2,0-0.3,0-0.5,0.1c-0.1,0.1-0.2,0.2-0.2,0.4c0,0.1,0,0.1,0.1,0.2
				c0,0.1,0.1,0.1,0.1,0.1c0.1,0,0.1,0.1,0.2,0.1c0.1,0,0.2,0.1,0.2,0.1l0.5,0.2c0.1,0,0.2,0.1,0.3,0.2c0.1,0.1,0.2,0.1,0.3,0.2
				c0.1,0.1,0.1,0.2,0.2,0.3c0,0.1,0.1,0.2,0.1,0.4c0,0.2,0,0.3-0.1,0.5c-0.1,0.1-0.2,0.3-0.3,0.4c-0.1,0.1-0.3,0.2-0.5,0.3
				c-0.2,0.1-0.4,0.1-0.6,0.1c-0.3,0-0.5-0.1-0.8-0.2c-0.3-0.1-0.5-0.3-0.7-0.4L110.7,97.4z"/>
			<path class="st3" d="M115.2,94.3l0.7,0l0,4.1l-0.7,0L115.2,94.3z"/>
			<path class="st3" d="M119.8,98.5c-0.3,0-0.5,0-0.7-0.1c-0.2-0.1-0.4-0.2-0.6-0.4c-0.2-0.2-0.3-0.4-0.4-0.7
				c-0.1-0.3-0.1-0.6-0.1-0.9c0-0.3,0-0.6,0.1-0.9c0.1-0.3,0.2-0.5,0.4-0.7c0.2-0.2,0.3-0.3,0.6-0.4c0.2-0.1,0.5-0.1,0.7-0.1
				c0.3,0,0.5,0,0.7,0.1c0.2,0.1,0.4,0.2,0.6,0.4c0.2,0.2,0.3,0.4,0.4,0.7c0.1,0.3,0.1,0.6,0.1,0.9c0,0.3,0,0.6-0.1,0.9
				c-0.1,0.3-0.2,0.5-0.4,0.7c-0.2,0.2-0.3,0.3-0.6,0.4C120.3,98.4,120,98.5,119.8,98.5z M119.8,97.8c0.2,0,0.3,0,0.4-0.1
				c0.1-0.1,0.2-0.2,0.3-0.3c0.1-0.1,0.2-0.3,0.2-0.5c0-0.2,0.1-0.4,0.1-0.6c0-0.5-0.1-0.8-0.3-1.1c-0.2-0.3-0.4-0.4-0.8-0.4
				c-0.3,0-0.6,0.1-0.8,0.4c-0.2,0.3-0.3,0.6-0.3,1.1c0,0.2,0,0.4,0.1,0.6c0,0.2,0.1,0.3,0.2,0.5c0.1,0.1,0.2,0.2,0.3,0.3
				C119.4,97.8,119.6,97.8,119.8,97.8z"/>
			<path class="st3" d="M123.6,94.3l0.7,0l1.3,2.3l0.4,0.9h0c0-0.2,0-0.4-0.1-0.7c0-0.2,0-0.5,0-0.7l0-1.8h0.7l0,4.1l-0.7,0
				l-1.3-2.3l-0.4-0.9l0,0c0,0.2,0,0.4,0.1,0.7c0,0.2,0,0.5,0,0.7l0,1.8l-0.7,0L123.6,94.3z"/>
		</g>
		<g>
			<path class="st3" d="M97.1,125l3,0l0,0.7l-2.1,0l0,1.4l1.8,0l0,0.7l-1.8,0l0,2.1h-0.9L97.1,125z"/>
			<path class="st3" d="M105.2,130l-1.1-2h-0.8v2h-0.9l0-5l1.7,0c0.3,0,0.5,0,0.7,0.1c0.2,0.1,0.4,0.1,0.6,0.2
				c0.2,0.1,0.3,0.3,0.4,0.5c0.1,0.2,0.1,0.4,0.1,0.7c0,0.4-0.1,0.7-0.3,0.9c-0.2,0.2-0.4,0.4-0.7,0.5l1.2,2.1L105.2,130z
				 M103.4,127.4l0.7,0c0.3,0,0.6-0.1,0.8-0.2c0.2-0.1,0.3-0.4,0.3-0.6c0-0.3-0.1-0.5-0.3-0.6c-0.2-0.1-0.4-0.2-0.8-0.2l-0.7,0
				L103.4,127.4z"/>
			<path class="st3" d="M108.6,125l3,0l0,0.7l-2.1,0v1.3l1.8,0l0,0.7l-1.8,0l0,1.5h2.2l0,0.7l-3.1,0L108.6,125z"/>
			<path class="st3" d="M114.2,125l3,0l0,0.7l-2.1,0l0,1.3l1.8,0l0,0.7l-1.8,0l0,1.5h2.2l0,0.7h-3.1L114.2,125z"/>
		</g>
		<g>
			<path class="st4" d="M83.2,112c0,0.9-0.7,1.7-1.7,1.7c-0.9,0-1.7-0.7-1.7-1.7c0-0.9,0.7-1.7,1.7-1.7
				C82.5,110.3,83.2,111.1,83.2,112z"/>
			<path class="st4" d="M134.2,112c0,0.9-0.7,1.7-1.7,1.7c-0.9,0-1.7-0.7-1.7-1.7c0-0.9,0.7-1.7,1.7-1.7
				C133.5,110.3,134.2,111.1,134.2,112z"/>
		</g>
	</g>
</g>
</svg>
