<?xml version="1.0" encoding="utf-8"?>
<!-- Generator: Adobe Illustrator 26.4.1, SVG Export Plug-In . SVG Version: 6.00 Build 0)  -->
<svg version="1.1" id="Layer_1" xmlns="http://www.w3.org/2000/svg" xmlns:xlink="http://www.w3.org/1999/xlink" x="0px" y="0px"
	 viewBox="0 0 200 200" style="enable-background:new 0 0 200 200;" xml:space="preserve">
<style type="text/css">
	.st0{fill:#F4F6E8;}
	.st1{fill:#C8C9C0;}
	.st2{fill:#EC74AD;}
	.st3{fill:#FFFFFF;}
	.st4{fill:#F2F7F6;}
	.st5{fill:#F38DBA;}
	.st6{fill:#E8BAD7;}
	.st7{fill:#448E7C;}
	.st8{fill:#54B9A4;}
	.st9{fill-rule:evenodd;clip-rule:evenodd;fill:#FFFFFF;}
	.st10{fill-rule:evenodd;clip-rule:evenodd;fill:#DE739F;}
	.st11{fill-rule:evenodd;clip-rule:evenodd;fill:#F5DF56;}
</style>
<circle class="st0" cx="101.4" cy="100.5" r="83.1"/>
<polygon class="st1" points="85.1,148.1 47.9,156 47.9,125 62,127.6 50.7,140.7 "/>
<polygon class="st1" points="154.3,148.1 119.4,155.5 85.1,148.1 119.8,140.7 "/>
<polygon class="st2" points="85.2,127.6 85.2,139.9 85.2,139.9 57.3,133.9 57.3,129.3 "/>
<polygon class="st3" points="85.2,59.9 85.2,127.6 57.3,129.3 57.3,133.9 85.2,139.9 85.2,139.9 85.2,148.1 50.7,140.7 50.7,52.8 
	"/>
<polygon class="st4" points="119.8,52.8 119.8,57.4 85.2,64.4 85.2,59.9 "/>
<polygon class="st5" points="119.8,60.3 119.8,132.4 119.2,132.6 85.2,139.9 85.2,67.3 85.8,67.2 105.6,63.2 111.7,61.9 119.7,60.3 
	"/>
<polygon class="st4" points="85.2,142.8 119.8,135.3 119.8,140.7 85.2,148.1 "/>
<polygon class="st6" points="144.3,137.8 120.3,132.9 119.8,132.8 119.8,99.7 "/>
<polygon class="st5" points="147.6,66.3 147.6,130.2 119.8,86 119.8,60.3 "/>
<polygon class="st3" points="154.3,59.9 154.3,148.1 119.8,140.7 119.8,132.8 120.3,132.9 144.3,137.8 119.8,99.7 119.8,86 
	147.6,130.2 147.6,66.3 119.8,60.3 119.8,52.8 "/>
<path class="st3" d="M57.3,61.6l27.3,5.6l0.6,0.1v-2.9l-30.7-6.3v78l30.7,6.6v-2.9h0l-27.9-6V61.6z"/>
<polygon class="st4" points="119.8,57.4 119.8,60.3 119.7,60.3 85.8,67.2 85.2,67.3 85.2,64.4 "/>
<polygon class="st4" points="119.8,132.4 119.8,135.3 85.2,142.8 85.2,139.9 119.2,132.6 "/>
<polygon class="st3" points="150.5,64 150.5,142 119.8,135.7 119.8,132.8 120.3,132.9 144.3,137.8 147.6,138.5 147.6,66.3 
	119.8,60.3 119.8,57.4 "/>
<polygon class="st3" points="147.6,130.2 147.6,138.5 144.3,137.8 119.8,99.7 119.8,86 "/>
<polygon class="st4" points="119.8,86 119.8,99.7 106.4,63 111.7,61.9 "/>
<polygon class="st4" points="119.8,99.7 85.2,127.6 85.2,120.1 117.7,94 "/>
<polygon class="st3" points="85.2,120.1 85.2,127.6 57.3,129.3 57,129.3 57,122 57.3,122 "/>
<polygon class="st7" points="117.7,94 85.2,120.1 85.2,67.3 106.4,63 "/>
<polygon class="st8" points="85.2,67.3 85.2,120.1 57.3,122 57.3,61.6 "/>
<g>
	<ellipse class="st9" cx="101.8" cy="55.6" rx="20.6" ry="24"/>
	<polyline class="st9" points="102.8,96.8 112.9,76.9 102.8,64.7 96.2,76.4 	"/>
	<g>
		<path class="st10" d="M100.5,101.4C96.6,79.5,72.3,71.9,71.4,51c0.3-17.3,13.8-27.5,27.3-27.6c14-0.2,28.1,10.2,26.8,28.6
			c-2.3,11.7-8.5,21.7-16.3,31.1c1.8-12.9-10.5-17.4-10.9-22.5c-0.2-4.8,5-6.4,11.7-6.7c4.1,0.1,8.9-4.3,10.6-7.4
			c-9.7,0.2-16.6-6.2-21-6.1c-0.8-2.4-1.1-4.5,0.6-6.9c-10,1.9-15.1,9.7-14.9,15.7C87.1,67.9,118.1,70.3,100.5,101.4L100.5,101.4z"
			/>
		<path class="st11" d="M100.5,101.4C99.3,94.4,96,88.9,92.1,84c8.4-2.5,0.5-11.7,6.4-15.2C105.2,76,110.1,84.4,100.5,101.4
			L100.5,101.4z"/>
	</g>
</g>
</svg>
