<?xml version="1.0" encoding="utf-8"?>
<!-- Generator: Adobe Illustrator 26.4.1, SVG Export Plug-In . SVG Version: 6.00 Build 0)  -->
<svg version="1.1" id="Layer_1" xmlns="http://www.w3.org/2000/svg" xmlns:xlink="http://www.w3.org/1999/xlink" x="0px" y="0px"
	 viewBox="0 0 200 200" style="enable-background:new 0 0 200 200;" xml:space="preserve">
<style type="text/css">
	.st0{fill:#F5DF56;}
</style>
<g id="XMLID_00000078031851008873613870000012722234585188398783_">
	<g>
		<path class="st0" d="M171.5,76.2c0,28.8-10,36.9-64.2,115.4c-3.5,5.1-11.1,5.1-14.7,0C38.5,113,28.5,105,28.5,76.2
			c0-39.5,32-71.5,71.5-71.5S171.5,36.7,171.5,76.2z M129.8,76.2c0-16.5-13.3-29.8-29.8-29.8c-16.5,0-29.8,13.3-29.8,29.8
			c0,16.5,13.3,29.8,29.8,29.8C116.5,106,129.8,92.6,129.8,76.2z"/>
		<circle class="st0" cx="100" cy="76.2" r="29.8"/>
	</g>
	<g>
	</g>
</g>
<path d="M85.1,50.3c-6.9,4-11.8,10.4-13.8,18c-2.1,7.7-1,15.7,3,22.6c5.3,9.2,15.2,14.9,25.8,14.9c3.3,0,6.7-0.6,9.8-1.7l13.4,23.2
	l9.5-5.5l-13.4-23.2c4.5-3.9,7.8-9,9.3-14.9c2.1-7.7,1-15.7-3-22.6c-5.3-9.2-15.2-14.9-25.8-14.9C94.7,46.4,89.6,47.7,85.1,50.3z
	 M116.1,66.7c2.5,4.3,3.2,9.4,1.9,14.2c-1.3,4.8-4.4,8.9-8.7,11.4c-2.8,1.6-6.1,2.5-9.3,2.5c-6.7,0-12.9-3.6-16.2-9.4
	c-2.5-4.3-3.2-9.4-1.9-14.2c1.3-4.8,4.4-8.9,8.7-11.4c2.8-1.6,6.1-2.5,9.3-2.5C106.6,57.4,112.8,61,116.1,66.7z"/>
</svg>
