<?xml version="1.0" encoding="utf-8"?>
<!-- Generator: Adobe Illustrator 26.4.1, SVG Export Plug-In . SVG Version: 6.00 Build 0)  -->
<svg version="1.1" id="Layer_1" xmlns="http://www.w3.org/2000/svg" xmlns:xlink="http://www.w3.org/1999/xlink" x="0px" y="0px"
	 viewBox="0 0 200 200" style="enable-background:new 0 0 200 200;" xml:space="preserve">
<style type="text/css">
	.st0{fill:#FF8BC8;}
	.st1{fill:#F75CB5;}
	.st2{fill:#4D3332;}
	.st3{fill:#E59C7C;}
	.st4{fill:#FFFFFF;}
	.st5{fill:#F9B691;}
	.st6{fill:#FFE471;}
	.st7{fill:#3A2424;}
	.st8{fill:#CE846A;}
	.st9{fill:#E2E2E2;}
	.st10{fill:#E8A080;}
	.st11{fill:#F2D85C;}
</style>
<g>
	<ellipse class="st0" cx="100" cy="99.9" rx="100" ry="99.9"/>
	<path class="st1" d="M200,99.9c0-4.4-0.4-8.6-0.9-12.8c-80.2-62.4-80.3-62.4-80.3-62.4l-8.6,174.6C160.6,194.1,200,151.6,200,99.9z
		"/>
	<path class="st2" d="M118.8,24.6c-5.5-2.9-11.7-4.2-17.9-4.2c-16.5,0-29.2,10.1-37,24c-9,16.1-10.7,30.1-7.9,50.8
		c2.2,16.7,6.9,31.2,6.9,31.2s23.2,2.2,37.8,2.2c20,0,41-4.5,41-4.5s8.4-36.1,3.2-61.9C142.1,47.1,132.9,31.9,118.8,24.6z"/>
	<path class="st3" d="M116.6,104.7H83.9v29l-17.6,4.8c0,0,3.5,43.9,34,45.2c30,1.3,36.4-44.8,36.4-44.8l-20.1-4.2V104.7z"/>
	<path class="st4" d="M106.8,146l-4.6,6.4l-5.7-6.4c-10.2-0.8-19.8-3.5-28.6-7.9l-1.6,0.4c0,0,3.5,43.9,34,45.2
		c30,1.3,36.4-44.8,36.4-44.8l-1.3-0.3C126.5,142.8,116.9,145.4,106.8,146z"/>
	<path class="st5" d="M134.3,70.7c-0.5,0-1,0-1.5,0.1V60.4c0-9.6-7.8-17.4-17.4-17.4H85c-9.6,0-17.4,7.8-17.4,17.4v10.4
		c-0.5-0.1-1-0.1-1.5-0.1c-4.2,0-7.5,2.8-7.5,6.3c0,3.5,3.4,6.3,7.5,6.3c0.5,0,1,0,1.5-0.1v4.1c0,17.3,25,33.6,32.6,33.6
		c9.2,0.1,32.6-13.8,32.6-32.5v-5.2c0.5,0.1,1,0.1,1.5,0.1c4.2,0,7.5-2.8,7.5-6.3C141.9,73.5,138.5,70.7,134.3,70.7z"/>
	<path class="st6" d="M100.8,200c31.7,0,59.2-15.1,77.5-38.1l-13.5-14.7l-10,11l6.5-13.3l-24.6-5.9c0,0-8.8,31.8-35.9,31.8
		c-29.1,0-34.5-32.2-34.5-32.2l-27.8,7.7l5.4,13.4l-9.2-11l-11.4,15.3C41.8,186.1,70,200,100.8,200z"/>
	<path class="st2" d="M101.8,22.5c-14.1,0-23.1,6-32.3,20c-5.9,9-23.1,36-3.5,51c2.4-27.8,20.7-23.7,25.2-49.2
		c5.9,21,38.3,43.8,50.5,47c0.1,0,2.8-21.7-1.2-31.9C129.8,32.1,115.4,22.5,101.8,22.5z"/>
	<path class="st7" d="M118.8,24.6c-5.3-2.7-11.1-4-17-4.2v108c19.7-0.2,40.1-4.5,40.1-4.5s8.4-36.1,3.2-61.9
		C142.1,47.1,132.9,31.9,118.8,24.6z"/>
	<path class="st8" d="M116.6,104.7h-14.8v78.9c28.6-0.4,34.9-44.8,34.9-44.8l-20.1-4.2V104.7z"/>
	<path class="st9" d="M106.8,146l-4.6,6.4l-0.4-0.4v31.7c28.6-0.4,34.9-44.8,34.9-44.8l-1.3-0.3C126.5,142.8,116.9,145.4,106.8,146z
		"/>
	<path class="st10" d="M134.3,70.7c-0.5,0-1,0-1.5,0.1V60.4c0-9.6-7.8-17.4-17.4-17.4h-13.6v77.8c10-1.3,31.1-14.6,31.1-32.4v-5.2
		c0.5,0.1,1,0.1,1.5,0.1c4.2,0,7.5-2.8,7.5-6.3C141.9,73.5,138.5,70.7,134.3,70.7z"/>
	<path class="st11" d="M178.6,161.6l-13.9-14.4l-10,11l6.5-13.3l-24.6-5.9c0,0-8.6,30.8-34.9,31.7V200
		C134,199.5,161.2,184.2,178.6,161.6z"/>
	<path class="st7" d="M101.8,22.5C101.8,22.5,101.8,22.5,101.8,22.5l0,39.7c12.3,14.5,31.4,26.8,40.1,29.1c0.1,0,2.8-21.7-1.2-31.9
		C129.8,32.1,115.4,22.5,101.8,22.5z"/>
</g>
</svg>
