<?xml version="1.0" encoding="utf-8"?>
<!-- Generator: Adobe Illustrator 26.4.1, SVG Export Plug-In . SVG Version: 6.00 Build 0)  -->
<svg version="1.1" id="Layer_1" xmlns="http://www.w3.org/2000/svg" xmlns:xlink="http://www.w3.org/1999/xlink" x="0px" y="0px"
	 viewBox="0 0 200 200" style="enable-background:new 0 0 200 200;" xml:space="preserve">
<style type="text/css">
	.st0{fill:#1B1464;}
	.st1{fill:#110F4C;}
	.st2{fill:#52B9A3;}
	.st3{fill:#3FAA91;}
	.st4{fill:#E59C7C;}
	.st5{fill:#D6896E;}
	.st6{fill:#FFFFFF;}
	.st7{fill:#F9B691;}
	.st8{fill:#EAA481;}
</style>
<g>
	<ellipse class="st0" cx="100" cy="99.8" rx="100" ry="99.8"/>
	<path class="st1" d="M200,99.8c0-12.7-2.5-24.7-6.8-35.9c-54.5-31.3-54.2-31.1-54.5-31.3l-26.2,166.1
		C161.8,192.6,200,150.7,200,99.8z"/>
	<path class="st2" d="M157.1,85.3c0.4-1.4,2-2.6,1.3-3.9c-0.3-0.5-0.8-0.7-1.2-1c-2.3-1.5-2.8-5.1-1-7.2c0.5-0.6,1.2-1,1.7-1.6
		c1.8-2.2,0.5-5-0.8-7.1c-1.1-1.8-4.2-2.4-4.8-4.3c-0.4-1.4,0.8-2.6,1.4-3.9c0.6-1.4,0.6-3-0.2-4.4c-0.8-1.3-2.2-2.2-3.7-2.4
		c-0.5,0-1,0-1.4-0.2c-1.7-0.7-1.3-5-1.4-6.6c-0.1-1-0.2-2.2-1.2-2.6c-0.8-0.4-1.8,0.1-2.7-0.1c-1.6-0.5-1.6-2.7-2-4.4
		c-0.6-2.1-2.5-3.7-4.7-4.3c-2.1-0.6-4.4-0.2-6.5,0.4c-1.3,0.4-3,0.9-3.8-0.2c-1-1.3,0.4-3.2-0.2-4.7c-0.6-1.3-2.5-1.4-3.9-1.1
		c-1.4,0.4-2.9,1-4.3,0.5c-0.6-0.2-1.1-0.7-1.6-1.1c-4.5-3.5-12-1.7-14.4,3.4c-0.5-2.6-2.5-4.8-4.9-5.7c-2.5-0.9-5.4-0.4-7.4,1.2
		c-1.2,0.9-2,2.2-3.3,3c-1.2,0.8-3,1.2-4.1,0.1c-0.4-0.4-0.6-0.9-1.1-1.3c-0.6-0.5-1.4-0.7-2.2-0.8c-3.5-0.3-7.1,1.5-8.9,4.5
		c-0.9,1.5-1.6,3.5-3.2,4.2c-1.4,0.6-3,0-4.6-0.1c-3.6-0.3-7.9,2.4-8.1,6.3c-0.1,1.5,0,3.3-1.3,4.3c-0.3,0.2-0.6,0.3-0.9,0.4
		c-1,0.3-2.1,0.4-2.7,1.2c-0.9,1-0.3,2.6,0.4,3.8c0.7,1.2,1.5,2.5,1,3.8c-0.7,1.8-3.4,1.8-4.7,3.3c-1.3,1.6-0.4,3.9,0.7,5.6
		c1.1,1.7,2.4,3.6,1.8,5.6c-1,3.2-5.8,3-7.9,5.5c-1.2,1.5-1.2,3.7,0,5.2c1.6,2,4.7,2.1,6.5,3.9c1.3,1.3,1.7,3.4,1,5
		c-0.8,2.1-2.6,2-4,3.2c-1.2,1.1-2,3.2-2.2,4.8c-0.3,2.7,1.2,5.8,3.8,6.6c1.4,0.5,3.1,0.3,4.2,1.4c1.3,1.3,0.8,3.4,0.4,5.2
		c-0.4,1.8-0.2,4.1,1.6,4.7c0.7,0.2,1.4,0,2.1,0.3c1.1,0.4,1.6,1.7,1.7,2.9c0,1.2-0.2,2.4,0,3.5c0.4,2.2,2.7,3.9,4.9,3.5
		c2.1-0.3,4.1-2.2,6.2-1.7c1.7,0.5,2.6,2.4,2.8,4.1c0.2,1.7,0.1,3.6,0.8,5.2c0.7,1.6,2.7,2.9,4.2,2c0.9-0.5,1.4-1.7,2.4-2.1
		c1.3-0.5,2.6,0.8,3.8,1.5c1.4,0.8,2.6,0.6,4.2,0.4c1.8-0.2,1.9-0.3,3.6,0.5c2.8,1.3,6.5,3.4,9.5,1.8c1.5-0.8,2.6-2.5,4.3-2.8
		c3-0.7,5.4,3.1,8.5,3.4c1.9,0.1,3.7-1.1,5.6-0.6c0.8,0.2,1.4,0.6,2.2,0.9c1.7,0.6,3.5,0.2,5-0.6c1.9-1,1.9-1.7,2.8-3.2
		c1.5-2.5,4.1-4.3,7.1-3.3c0.6,0.2,1.2,0.5,1.9,0.5c0.6-0.1,1.1-0.5,1.5-0.9c1.3-1.6,1.4-3.8,1.9-5.8c0.5-2,1.9-4.1,3.9-4.1
		c0.7,0,1.4,0.3,2.1,0.4c2.5,0.4,5-2.3,4.4-4.8c-0.1-0.6-0.4-1.1-0.5-1.7c-0.3-1.5,0.5-3.2,1.8-3.9c1.2-0.6,2.6-0.6,3.9-0.8
		c1.3-0.2,2.8-0.9,3.1-2.2c0.4-1.9-1.9-3.3-2.9-5c-1.3-2.2,0-5.3,2.4-6.1c0.9-0.3,2-0.3,2.7-0.9c1.2-1.1,0.4-3.1-0.5-4.4
		C157.9,88.3,156.7,86.9,157.1,85.3z"/>
	<path class="st3" d="M157.1,85.3c0.4-1.4,2-2.6,1.3-3.9c-0.3-0.5-0.8-0.7-1.2-1c-2.3-1.5-2.8-5.1-1-7.2c0.5-0.6,1.2-1,1.7-1.6
		c1.8-2.2,0.5-5-0.8-7.1c-1.1-1.8-4.2-2.4-4.8-4.3c-0.4-1.4,0.8-2.6,1.4-3.9c0.6-1.4,0.6-3-0.2-4.4c-0.8-1.3-2.2-2.2-3.7-2.4
		c-0.5,0-1,0-1.4-0.2c-1.7-0.7-1.3-5-1.4-6.6c-0.1-1-0.2-2.2-1.2-2.6c-0.8-0.4-1.8,0.1-2.7-0.1c-1.6-0.5-1.6-2.7-2-4.4
		c-0.6-2.1-2.5-3.7-4.7-4.3c-2.1-0.6-4.4-0.2-6.5,0.4c-1.3,0.4-3,0.9-3.8-0.2c-1-1.3,0.4-3.2-0.2-4.7c-0.6-1.3-2.5-1.4-3.9-1.1
		c-1.4,0.4-2.9,1-4.3,0.5c-0.6-0.2-1.1-0.7-1.6-1.1c-4.5-3.5-12-1.7-14.4,3.4c-0.3-1.2-0.8-2.4-1.7-3.3V134c0.7-0.6,1.4-1.1,2.2-1.2
		c3-0.7,5.4,3.1,8.5,3.4c1.9,0.1,3.7-1.1,5.6-0.6c0.8,0.2,1.4,0.6,2.2,0.9c1.7,0.6,3.5,0.2,5-0.6c1.9-1,1.9-1.7,2.8-3.2
		c1.5-2.5,4.1-4.3,7.1-3.3c0.6,0.2,1.2,0.5,1.9,0.5c0.6-0.1,1.1-0.5,1.5-0.9c1.3-1.6,1.4-3.8,1.9-5.8c0.5-2,1.9-4.1,3.9-4.1
		c0.7,0,1.4,0.3,2.1,0.4c2.5,0.4,5-2.3,4.4-4.8c-0.1-0.6-0.4-1.1-0.5-1.7c-0.3-1.5,0.5-3.2,1.8-3.9c1.2-0.6,2.6-0.6,3.9-0.8
		c1.3-0.2,2.8-0.9,3.1-2.2c0.4-1.9-1.9-3.3-2.9-5c-1.3-2.2,0-5.3,2.4-6.1c0.9-0.3,2-0.3,2.7-0.9c1.2-1.1,0.4-3.1-0.5-4.4
		C157.9,88.3,156.7,86.9,157.1,85.3z"/>
	<path class="st4" d="M100,199.6c29.8,0,56.4-13.1,74.7-33.7l-11-12.9l-10,11l6.5-13.3l-24.6-5.9l-20.1-4.2v-29.9H82.9v29l-17.6,4.8
		l-27.8,7.7l5.4,13.4l-9.2-11l-8.9,11.1C43.2,186.8,70.1,199.6,100,199.6z"/>
	<path class="st5" d="M175.1,165.7l-11.3-12.6l-10,11l6.5-13.3l-24.6-5.9l-20.1-4.2v-29.9H99.9v65.9v13v10.1c0,0,0.1,0,0.1,0
		C129.8,199.6,156.8,187,175.1,165.7z"/>
	<path class="st6" d="M145.7,147.2l-11-2.6l-7.7,30L72,174.7l-5-30.8l-10.6,2.9l-1.8,42c0,0,2.5,1.5,6.6,3.3
		C74,197.5,86.3,200,100,200c14.1,0,27.3-3.2,40.1-8.1c2.8-1.1,6.3-3.5,6.3-3.5L145.7,147.2z"/>
	<path class="st7" d="M133.3,76.6c-0.5,0-1,0-1.5,0.1V66.3c0-9.6-7.8-17.4-17.4-17.4H84c-9.6,0-17.4,7.8-17.4,17.4v10.4
		c-0.5-0.1-1-0.1-1.5-0.1c-4.2,0-7.5,2.8-7.5,6.3s3.4,6.3,7.5,6.3c0.5,0,1,0,1.5-0.1v4.1c0,17.3,25,33.5,32.6,33.6
		c9.2,0.1,32.6-13.8,32.6-32.5v-5.2c0.5,0.1,1,0.1,1.5,0.1c4.2,0,7.5-2.8,7.5-6.3S137.5,76.6,133.3,76.6z"/>
	<path class="st8" d="M133.3,76.6c-0.5,0-1,0-1.5,0.1V66.3c0-9.6-7.8-17.4-17.4-17.4H99.9v77.8c9.6-0.5,32-14.1,32-32.4v-5.2
		c0.5,0.1,1,0.1,1.5,0.1c4.2,0,7.5-2.8,7.5-6.3S137.5,76.6,133.3,76.6z"/>
	<path class="st2" d="M128.8,44.6c-2.7-1.5-5.7-2.3-8.7-2.9c-9-2-18.2-2.9-27.4-3c-4.3,0-8.6,0.2-12.6,1.4
		c-9.6,2.9-17,11.5-19.2,21.3c-0.8,3.6-1,7.5,0.5,10.9c0.8,1.9,2.6,3.9,4.6,3.5c0.7,1.1,1.5,2,2.4,2.9c0.4,0.3,0.8,0.6,1.3,0.6
		c0.5-0.1,0.8-0.6,1-1c0.5-1.3,0.4-2.8,0.3-4.3c-0.1-1.4-0.2-2.9,0.4-4.3c0.6-1.3,2-2.4,3.4-2c0.6,0.2,1.2,0.6,1.8,0.7
		c0.5,0,1.1-0.2,1.5-0.5c1.9-1.2,3-3.6,2.7-5.8c-0.1-0.7-0.3-1.3-0.2-2c0.2-1,1.1-1.8,2-2.3c0.9-0.6,2.1-1,3-0.4
		c0.4,0.3,0.7,0.8,1.1,1.1c1.2,0.9,2.9-0.1,3.9-1.3c0.8-1,1.5-2.2,2.5-3.1s2.4-1.5,3.7-1c1.3,0.4,2,2.2,1.1,3.2
		c1.4,0.9,3.3,0.2,4.7-0.7c1.4-0.9,2.6-2.2,4.2-2.6c1.6-0.4,3.7,0.6,3.7,2.2c0,1-0.8,1.8-1,2.7c-0.5,2,1.5,3.9,3.5,4.4
		c2,0.5,4.1,0.1,6.2,0.3c0.6,0.1,1.3,0.2,1.8,0.6c1.4,1.1,0.7,3.4,0,5.1c-0.8,1.7-1.2,4.1,0.4,5c1.3,0.7,3.2-0.1,4.3,0.9
		c0.6,0.6,0.7,1.5,0.9,2.2c0.6,1.8,3,2.8,4.6,1.7c1-0.7,1.3-2.1,2.3-2.8c0.5-0.4,1.2-0.6,1.7-0.9c2.9-1.4,3.8-5.1,3.9-8.4
		C139.3,57.7,136.1,48.7,128.8,44.6z"/>
	<path class="st3" d="M128.8,44.6c-2.7-1.5-5.7-2.3-8.7-2.9c-6.7-1.5-13.5-2.4-20.3-2.8v17.7c1-0.1,2-0.5,2.8-1.1
		c1.4-0.9,2.6-2.2,4.2-2.6c1.6-0.4,3.7,0.6,3.7,2.2c0,1-0.8,1.8-1,2.7c-0.5,2,1.5,3.9,3.5,4.4c2,0.5,4.1,0.1,6.2,0.3
		c0.6,0.1,1.3,0.2,1.8,0.6c1.4,1.1,0.7,3.4,0,5.1c-0.8,1.7-1.2,4.1,0.4,5c1.3,0.7,3.2-0.1,4.3,0.9c0.6,0.6,0.7,1.5,0.9,2.2
		c0.6,1.8,3,2.8,4.6,1.7c1-0.7,1.3-2.1,2.3-2.8c0.5-0.4,1.2-0.6,1.7-0.9c2.9-1.4,3.8-5.1,3.9-8.4C139.3,57.7,136.1,48.7,128.8,44.6z
		"/>
</g>
</svg>
