<?xml version="1.0" encoding="utf-8"?>
<!-- Generator: Adobe Illustrator 26.4.1, SVG Export Plug-In . SVG Version: 6.00 Build 0)  -->
<svg version="1.1" id="Layer_1" xmlns="http://www.w3.org/2000/svg" xmlns:xlink="http://www.w3.org/1999/xlink" x="0px" y="0px"
	 viewBox="0 0 200 200" style="enable-background:new 0 0 200 200;" xml:space="preserve">
<style type="text/css">
	.st0{fill:#00B4B6;}
	.st1{fill:#52B9A3;}
	.st2{fill:#3FAA91;}
	.st3{fill:#F5DF56;}
	.st4{fill:#E8CC43;}
	.st5{fill:#E59C7C;}
	.st6{fill:#F9B691;}
	.st7{fill:#FFE471;}
	.st8{fill:#CE846A;}
	.st9{fill:#E8A080;}
	.st10{fill:#41303F;}
</style>
<g>
	
		<ellipse transform="matrix(0.7071 -0.7071 0.7071 0.7071 -41.4852 99.9736)" class="st0" cx="99.9" cy="100.1" rx="99.9" ry="99.9"/>
	
		<ellipse transform="matrix(0.7071 -0.7071 0.7071 0.7071 -41.4852 99.9736)" class="st1" cx="99.9" cy="100.1" rx="99.9" ry="99.9"/>
	<path class="st2" d="M199.9,100.1c0-16-3.8-31-10.5-44.4c-75.8-31-75.8-31-75.8-31l-9.9,175.1C157.1,197.8,199.9,154,199.9,100.1z"
		/>
	<path class="st3" d="M100.7,23.3c-30.4,0-46.9,32.3-44,64.5c4.3,49.2,38.9,64.7,38.9,64.7l25.1,0.1l10.8-22.7
		c0,0,20.5-4.2,20.7-43.8C152.3,46,131.5,23.3,100.7,23.3z"/>
	<path class="st4" d="M100.8,23.3c0,0.7,0,2.1,0,2.1l0.1,127.1l19.8,0.1l10.8-22.7c0,0,20.5-4.2,20.7-43.8
		C152.3,46.1,131.6,23.3,100.8,23.3z"/>
	<path class="st5" d="M116.5,136.1v-30H83.8V136l-17,4.3c0,0,3,43.6,33.4,44.9c29.9,1.3,21-48,21-48L116.5,136.1z"/>
	<path class="st6" d="M134.2,72.1c-0.5,0-1,0-1.5,0.1V61.8c0-9.6-7.8-17.4-17.4-17.4H85c-9.6,0-17.4,7.8-17.4,17.4v10.4
		c-0.5-0.1-1-0.1-1.5-0.1c-4.2,0-7.5,2.8-7.5,6.3c0,3.5,3.4,6.3,7.5,6.3c0.5,0,1,0,1.5-0.1v4.1c0,17.4,25,33.6,32.6,33.6
		c9.2,0.1,32.6-13.8,32.6-32.5v-5.2c0.5,0.1,1,0.1,1.5,0.1c4.2,0,7.5-2.8,7.5-6.3C141.8,74.9,138.4,72.1,134.2,72.1z"/>
	<path d="M99.9,200c31.3,0,59.2-14.4,77.5-36.9l-12.8-14.4l-10,11l6.5-13.3l-40-9.1l-0.2,0.3c-10.1,14.1-31.1,14-41.1-0.2l-0.2-0.3
		l-41.2,10.7l5.4,13.5l-9.2-11L23,163.8C41.3,185.9,69,200,99.9,200z"/>
	<path class="st7" d="M100.2,25.3c-43.8,0-35.7,44.3-35.7,44.3L114.4,49l21.5,20.6C135.8,69.6,144,25.3,100.2,25.3z"/>
	<path class="st7" d="M152,91.1l-7.2-15.2c0,0-2.1,17.8-3.8,22.7c-2.8,8-9.7,11.3-16.1,16.3c-1.6,1.3-3.3,2.6-4.5,4.3
		c-2.7,3.6-2.5,8.1-4.8,11.9c-2.3,3.9-5.3,7.4-7.6,11.2c-5.5,9.2-7.5,20.6-2.9,30.5c4.1,8.7,13,12.4,23.1,12.4
		c-4.7-3.9-12-14.1-3.2-27.6C154.7,112.4,152,91.1,152,91.1z"/>
	<path class="st8" d="M121.2,137.1l-4.7-1v-30h-15.7v79C130,185.6,121.2,137.1,121.2,137.1z"/>
	<path class="st9" d="M134.2,72.1c-0.5,0-1,0-1.5,0.1V61.8c0-9.6-7.8-17.4-17.4-17.4h-14.5v77.9c9.6-0.5,32-14.2,32-32.5v-5.2
		c0.5,0.1,1,0.1,1.5,0.1c4.2,0,7.5-2.8,7.5-6.3C141.8,74.9,138.4,72.1,134.2,72.1z"/>
	<path class="st10" d="M164.6,148.6l-10,11l6.5-13.3l-40-9.1l-0.2,0.3c-5,6.9-12.6,10.4-20.2,10.5V200c30.9-0.3,58.5-14.6,76.6-36.9
		L164.6,148.6z"/>
	<path class="st4" d="M100.8,25.3v29.3l13.5-5.6l21.5,20.6C135.8,69.6,143.9,25.8,100.8,25.3z"/>
	<path class="st4" d="M152,91.1l-7.2-15.2c0,0-2.1,17.8-3.8,22.7c-2.8,8-9.7,11.3-16.1,16.3c-1.6,1.3-3.3,2.6-4.5,4.3
		c-2.7,3.6-2.5,8.1-4.8,11.9c-2.3,3.9-5.3,7.4-7.6,11.2c-5.5,9.2-7.5,20.6-2.9,30.5c4.1,8.7,13,12.4,23.1,12.4
		c-4.7-3.9-12-14.1-3.2-27.6C154.7,112.4,152,91.1,152,91.1z"/>
</g>
</svg>
